<svg width="287" height="116" viewBox="0 0 287 116" fill="none" xmlns="http://www.w3.org/2000/svg">
<path d="M1.05 85V75.326H2.254V83.936H6.356V85H1.05ZM10.3318 79.358C9.97711 79.358 9.66911 79.4373 9.40778 79.596C9.15578 79.7547 8.96911 79.96 8.84778 80.212C8.62378 80.688 8.51178 81.1967 8.51178 81.738C8.51178 83.418 9.09511 84.258 10.2618 84.258C10.6164 84.258 10.9198 84.1787 11.1718 84.02C11.4238 83.8613 11.6151 83.656 11.7458 83.404C11.9698 82.9373 12.0818 82.4287 12.0818 81.878C12.0818 80.198 11.4984 79.358 10.3318 79.358ZM10.3318 78.448C11.3678 78.448 12.1238 78.77 12.5998 79.414C13.0758 80.058 13.3138 80.898 13.3138 81.934C13.3138 82.6807 13.1178 83.3713 12.7258 84.006C12.5111 84.3513 12.1891 84.6313 11.7598 84.846C11.3304 85.0607 10.8171 85.168 10.2198 85.168C9.19311 85.168 8.44645 84.86 7.97978 84.244C7.51311 83.628 7.27978 82.802 7.27978 81.766C7.27978 81.1593 7.37311 80.646 7.55978 80.226C7.75578 79.806 7.96111 79.484 8.17578 79.26C8.39045 79.0267 8.68445 78.8353 9.05778 78.686C9.43111 78.5273 9.85578 78.448 10.3318 78.448ZM15.1715 78.616H15.9275L16.2775 79.736H16.3335C16.8468 79.0733 17.5515 78.672 18.4475 78.532L18.5735 79.638C18.1348 79.666 17.7102 79.778 17.2995 79.974C16.8888 80.17 16.5762 80.4313 16.3615 80.758V85H15.1715V78.616ZM22.4295 84.188C23.1015 84.188 23.7735 83.9873 24.4455 83.586L24.8515 84.426C24.0675 84.9207 23.2275 85.168 22.3315 85.168C21.4449 85.168 20.7402 84.888 20.2175 84.328C19.6949 83.7587 19.4335 82.942 19.4335 81.878C19.4335 80.814 19.7042 79.9787 20.2455 79.372C20.7869 78.756 21.5055 78.448 22.4015 78.448C23.2135 78.448 23.8529 78.7 24.3195 79.204C24.5155 79.4093 24.6789 79.708 24.8095 80.1C24.9495 80.492 25.0195 80.954 25.0195 81.486L24.5855 81.976H20.6235C20.6515 83.4507 21.2535 84.188 22.4295 84.188ZM23.8435 81.094C23.8435 80.5713 23.7082 80.1513 23.4375 79.834C23.1669 79.5167 22.8075 79.358 22.3595 79.358C21.9209 79.358 21.5475 79.5167 21.2395 79.834C20.9315 80.142 20.7449 80.562 20.6795 81.094H23.8435ZM27.8707 79.344C28.5614 78.7467 29.3267 78.448 30.1667 78.448C31.0067 78.448 31.5807 78.7747 31.8887 79.428C32.6261 78.7747 33.4007 78.448 34.2127 78.448C34.8101 78.448 35.2814 78.6067 35.6267 78.924C35.9814 79.2413 36.1587 79.6567 36.1587 80.17V85H34.9687V80.226C34.9687 79.9833 34.8801 79.7967 34.7027 79.666C34.5254 79.5353 34.2874 79.47 33.9887 79.47C33.3821 79.47 32.7334 79.7173 32.0427 80.212V85H30.8527V80.226C30.8527 79.9833 30.7641 79.7967 30.5867 79.666C30.4094 79.5353 30.1714 79.47 29.8727 79.47C29.2474 79.47 28.6081 79.708 27.9547 80.184V85H26.7647V78.616H27.5207L27.8707 79.344ZM42.6278 85V75.326H43.8318V85H42.6278ZM48.7578 84.216C49.4578 84.216 49.9992 83.978 50.3818 83.502C50.7645 83.026 50.9558 82.4473 50.9558 81.766C50.9558 81.0753 50.7878 80.52 50.4518 80.1C50.1252 79.68 49.6725 79.47 49.0938 79.47C48.8698 79.47 48.6038 79.5353 48.2958 79.666C47.9878 79.7967 47.7125 79.9693 47.4698 80.184V83.964C47.9085 84.132 48.3378 84.216 48.7578 84.216ZM47.4698 88.22H46.3078V78.616H47.0638L47.3858 79.344C48.0672 78.7467 48.7905 78.448 49.5558 78.448C50.3212 78.448 50.9465 78.7467 51.4318 79.344C51.9172 79.9413 52.1598 80.7207 52.1598 81.682C52.1598 82.634 51.8752 83.4553 51.3058 84.146C50.7458 84.8273 49.9432 85.168 48.8978 85.168C48.4312 85.168 47.9552 85.1027 47.4698 84.972V88.22ZM57.315 79.736C56.839 79.5307 56.391 79.428 55.971 79.428C55.159 79.428 54.753 79.6753 54.753 80.17C54.753 80.5993 55.2944 81.0147 56.377 81.416C56.7784 81.5653 57.147 81.7987 57.483 82.116C57.8284 82.4333 58.001 82.816 58.001 83.264C58.001 83.908 57.791 84.3887 57.371 84.706C56.951 85.014 56.3677 85.168 55.621 85.168C54.8744 85.168 54.1464 84.9627 53.437 84.552L53.787 83.684C54.375 84.02 55.0424 84.188 55.789 84.188C56.1064 84.188 56.363 84.1227 56.559 83.992C56.755 83.852 56.853 83.6653 56.853 83.432C56.853 83.1987 56.741 82.998 56.517 82.83C56.293 82.662 56.0224 82.5127 55.705 82.382C55.3877 82.2513 55.0704 82.1113 54.753 81.962C54.4357 81.8033 54.165 81.584 53.941 81.304C53.717 81.024 53.605 80.6927 53.605 80.31C53.605 79.7127 53.8057 79.2553 54.207 78.938C54.6177 78.6113 55.1357 78.448 55.761 78.448C56.3864 78.448 57.021 78.588 57.665 78.868L57.315 79.736ZM60.8261 78.616V83.362C60.8261 83.6233 60.9194 83.8287 61.1061 83.978C61.3021 84.118 61.5541 84.188 61.8621 84.188C62.5247 84.188 63.2061 83.9267 63.9061 83.404V78.616H65.0961V85H64.3401L63.9901 84.16C63.2714 84.832 62.4734 85.168 61.5961 85.168C61.0361 85.168 60.5694 85.0187 60.1961 84.72C59.8227 84.4213 59.6361 83.9873 59.6361 83.418V78.616H60.8261ZM68.5019 79.344C69.1926 78.7467 69.9579 78.448 70.7979 78.448C71.6379 78.448 72.2119 78.7747 72.5199 79.428C73.2572 78.7747 74.0319 78.448 74.8439 78.448C75.4412 78.448 75.9126 78.6067 76.2579 78.924C76.6126 79.2413 76.7899 79.6567 76.7899 80.17V85H75.5999V80.226C75.5999 79.9833 75.5112 79.7967 75.3339 79.666C75.1566 79.5353 74.9186 79.47 74.6199 79.47C74.0132 79.47 73.3646 79.7173 72.6739 80.212V85H71.4839V80.226C71.4839 79.9833 71.3952 79.7967 71.2179 79.666C71.0406 79.5353 70.8026 79.47 70.5039 79.47C69.8786 79.47 69.2392 79.708 68.5859 80.184V85H67.3959V78.616H68.1519L68.5019 79.344ZM84.323 77.118C84.1737 77.2673 83.9917 77.342 83.777 77.342C83.5623 77.342 83.3803 77.2673 83.231 77.118C83.0817 76.9593 83.007 76.7727 83.007 76.558C83.007 76.3433 83.0817 76.1613 83.231 76.012C83.3897 75.8533 83.5717 75.774 83.777 75.774C83.9823 75.774 84.1597 75.8533 84.309 76.012C84.4677 76.1613 84.547 76.3433 84.547 76.558C84.547 76.7727 84.4723 76.9593 84.323 77.118ZM83.189 78.616H84.379V85H83.189V78.616ZM90.0646 79.736C89.5886 79.5307 89.1406 79.428 88.7206 79.428C87.9086 79.428 87.5026 79.6753 87.5026 80.17C87.5026 80.5993 88.044 81.0147 89.1266 81.416C89.528 81.5653 89.8966 81.7987 90.2326 82.116C90.578 82.4333 90.7506 82.816 90.7506 83.264C90.7506 83.908 90.5406 84.3887 90.1206 84.706C89.7006 85.014 89.1173 85.168 88.3706 85.168C87.624 85.168 86.896 84.9627 86.1866 84.552L86.5366 83.684C87.1246 84.02 87.792 84.188 88.5386 84.188C88.856 84.188 89.1126 84.1227 89.3086 83.992C89.5046 83.852 89.6026 83.6653 89.6026 83.432C89.6026 83.1987 89.4906 82.998 89.2666 82.83C89.0426 82.662 88.772 82.5127 88.4546 82.382C88.1373 82.2513 87.82 82.1113 87.5026 81.962C87.1853 81.8033 86.9146 81.584 86.6906 81.304C86.4666 81.024 86.3546 80.6927 86.3546 80.31C86.3546 79.7127 86.5553 79.2553 86.9566 78.938C87.3673 78.6113 87.8853 78.448 88.5106 78.448C89.136 78.448 89.7706 78.588 90.4146 78.868L90.0646 79.736ZM99.7711 79.736C99.2951 79.5307 98.8471 79.428 98.4271 79.428C97.6151 79.428 97.2091 79.6753 97.2091 80.17C97.2091 80.5993 97.7504 81.0147 98.8331 81.416C99.2344 81.5653 99.6031 81.7987 99.9391 82.116C100.284 82.4333 100.457 82.816 100.457 83.264C100.457 83.908 100.247 84.3887 99.8271 84.706C99.4071 85.014 98.8238 85.168 98.0771 85.168C97.3304 85.168 96.6024 84.9627 95.8931 84.552L96.2431 83.684C96.8311 84.02 97.4984 84.188 98.2451 84.188C98.5624 84.188 98.8191 84.1227 99.0151 83.992C99.2111 83.852 99.3091 83.6653 99.3091 83.432C99.3091 83.1987 99.1971 82.998 98.9731 82.83C98.7491 82.662 98.4784 82.5127 98.1611 82.382C97.8438 82.2513 97.5264 82.1113 97.2091 81.962C96.8918 81.8033 96.6211 81.584 96.3971 81.304C96.1731 81.024 96.0611 80.6927 96.0611 80.31C96.0611 79.7127 96.2618 79.2553 96.6631 78.938C97.0738 78.6113 97.5918 78.448 98.2171 78.448C98.8424 78.448 99.4771 78.588 100.121 78.868L99.7711 79.736ZM103.394 77.118C103.245 77.2673 103.063 77.342 102.848 77.342C102.633 77.342 102.451 77.2673 102.302 77.118C102.153 76.9593 102.078 76.7727 102.078 76.558C102.078 76.3433 102.153 76.1613 102.302 76.012C102.461 75.8533 102.643 75.774 102.848 75.774C103.053 75.774 103.231 75.8533 103.38 76.012C103.539 76.1613 103.618 76.3433 103.618 76.558C103.618 76.7727 103.543 76.9593 103.394 77.118ZM102.26 78.616H103.45V85H102.26V78.616ZM106.966 79.344C107.656 78.7467 108.422 78.448 109.262 78.448C110.102 78.448 110.676 78.7747 110.984 79.428C111.721 78.7747 112.496 78.448 113.308 78.448C113.905 78.448 114.376 78.6067 114.722 78.924C115.076 79.2413 115.254 79.6567 115.254 80.17V85H114.064V80.226C114.064 79.9833 113.975 79.7967 113.798 79.666C113.62 79.5353 113.382 79.47 113.084 79.47C112.477 79.47 111.828 79.7173 111.138 80.212V85H109.948V80.226C109.948 79.9833 109.859 79.7967 109.682 79.666C109.504 79.5353 109.266 79.47 108.968 79.47C108.342 79.47 107.703 79.708 107.05 80.184V85H105.86V78.616H106.616L106.966 79.344ZM119.937 84.216C120.637 84.216 121.179 83.978 121.561 83.502C121.944 83.026 122.135 82.4473 122.135 81.766C122.135 81.0753 121.967 80.52 121.631 80.1C121.305 79.68 120.852 79.47 120.273 79.47C120.049 79.47 119.783 79.5353 119.475 79.666C119.167 79.7967 118.892 79.9693 118.649 80.184V83.964C119.088 84.132 119.517 84.216 119.937 84.216ZM118.649 88.22H117.487V78.616H118.243L118.565 79.344C119.247 78.7467 119.97 78.448 120.735 78.448C121.501 78.448 122.126 78.7467 122.611 79.344C123.097 79.9413 123.339 80.7207 123.339 81.682C123.339 82.634 123.055 83.4553 122.485 84.146C121.925 84.8273 121.123 85.168 120.077 85.168C119.611 85.168 119.135 85.1027 118.649 84.972V88.22ZM125.163 74.948H126.311V85H125.163V74.948ZM130.787 86.134C130.479 87.03 130.195 87.6273 129.933 87.926C129.681 88.234 129.303 88.388 128.799 88.388C128.295 88.388 127.74 88.248 127.133 87.968L127.567 87.058C127.969 87.2727 128.314 87.38 128.603 87.38C128.855 87.38 129.023 87.338 129.107 87.254L129.289 87.072C129.411 86.9507 129.518 86.7407 129.611 86.442C129.705 86.1433 129.779 85.91 129.835 85.742C129.891 85.5833 129.933 85.4573 129.961 85.364L127.623 78.616H128.827L130.479 83.726H130.535L132.187 78.616H133.391L130.787 86.134ZM143.112 74.948H144.26V85H143.504L143.154 84.16C142.454 84.832 141.731 85.168 140.984 85.168C140.247 85.168 139.636 84.8833 139.15 84.314C138.665 83.7353 138.422 82.956 138.422 81.976C138.422 80.996 138.712 80.1793 139.29 79.526C139.869 78.8633 140.616 78.532 141.53 78.532C142.025 78.532 142.552 78.644 143.112 78.868V74.948ZM141.824 79.484C141.124 79.484 140.583 79.722 140.2 80.198C139.818 80.674 139.626 81.2527 139.626 81.934C139.626 82.6153 139.785 83.1613 140.102 83.572C140.42 83.9827 140.83 84.188 141.334 84.188C141.614 84.188 141.913 84.1133 142.23 83.964C142.557 83.8053 142.851 83.5907 143.112 83.32V79.736C142.674 79.568 142.244 79.484 141.824 79.484ZM147.639 78.616V83.362C147.639 83.6233 147.732 83.8287 147.919 83.978C148.115 84.118 148.367 84.188 148.675 84.188C149.337 84.188 150.019 83.9267 150.719 83.404V78.616H151.909V85H151.153L150.803 84.16C150.084 84.832 149.286 85.168 148.409 85.168C147.849 85.168 147.382 85.0187 147.009 84.72C146.635 84.4213 146.449 83.9873 146.449 83.418V78.616H147.639ZM155.314 79.344C156.005 78.7467 156.77 78.448 157.61 78.448C158.45 78.448 159.024 78.7747 159.332 79.428C160.07 78.7747 160.844 78.448 161.656 78.448C162.254 78.448 162.725 78.6067 163.07 78.924C163.425 79.2413 163.602 79.6567 163.602 80.17V85H162.412V80.226C162.412 79.9833 162.324 79.7967 162.146 79.666C161.969 79.5353 161.731 79.47 161.432 79.47C160.826 79.47 160.177 79.7173 159.486 80.212V85H158.296V80.226C158.296 79.9833 158.208 79.7967 158.03 79.666C157.853 79.5353 157.615 79.47 157.316 79.47C156.691 79.47 156.052 79.708 155.398 80.184V85H154.208V78.616H154.964L155.314 79.344ZM166.942 79.344C167.633 78.7467 168.398 78.448 169.238 78.448C170.078 78.448 170.652 78.7747 170.96 79.428C171.697 78.7747 172.472 78.448 173.284 78.448C173.881 78.448 174.353 78.6067 174.698 78.924C175.053 79.2413 175.23 79.6567 175.23 80.17V85H174.04V80.226C174.04 79.9833 173.951 79.7967 173.774 79.666C173.597 79.5353 173.359 79.47 173.06 79.47C172.453 79.47 171.805 79.7173 171.114 80.212V85H169.924V80.226C169.924 79.9833 169.835 79.7967 169.658 79.666C169.481 79.5353 169.243 79.47 168.944 79.47C168.319 79.47 167.679 79.708 167.026 80.184V85H165.836V78.616H166.592L166.942 79.344ZM179.704 86.134C179.396 87.03 179.111 87.6273 178.85 87.926C178.598 88.234 178.22 88.388 177.716 88.388C177.212 88.388 176.656 88.248 176.05 87.968L176.484 87.058C176.885 87.2727 177.23 87.38 177.52 87.38C177.772 87.38 177.94 87.338 178.024 87.254L178.206 87.072C178.327 86.9507 178.434 86.7407 178.528 86.442C178.621 86.1433 178.696 85.91 178.752 85.742C178.808 85.5833 178.85 85.4573 178.878 85.364L176.54 78.616H177.744L179.396 83.726H179.452L181.104 78.616H182.308L179.704 86.134ZM189.159 79.498V83.334C189.159 83.894 189.425 84.174 189.957 84.174C190.265 84.174 190.633 84.0853 191.063 83.908L191.217 84.846C190.759 85.0607 190.279 85.168 189.775 85.168C189.271 85.168 188.851 85.0187 188.515 84.72C188.179 84.412 188.011 83.9453 188.011 83.32V79.498H187.129V78.616H188.011V77.356L188.879 76.558H189.159V78.616H190.965V79.498H189.159ZM195.317 84.188C195.989 84.188 196.661 83.9873 197.333 83.586L197.739 84.426C196.955 84.9207 196.115 85.168 195.219 85.168C194.332 85.168 193.628 84.888 193.105 84.328C192.582 83.7587 192.321 82.942 192.321 81.878C192.321 80.814 192.592 79.9787 193.133 79.372C193.674 78.756 194.393 78.448 195.289 78.448C196.101 78.448 196.74 78.7 197.207 79.204C197.403 79.4093 197.566 79.708 197.697 80.1C197.837 80.492 197.907 80.954 197.907 81.486L197.473 81.976H193.511C193.539 83.4507 194.141 84.188 195.317 84.188ZM196.731 81.094C196.731 80.5713 196.596 80.1513 196.325 79.834C196.054 79.5167 195.695 79.358 195.247 79.358C194.808 79.358 194.435 79.5167 194.127 79.834C193.819 80.142 193.632 80.562 193.567 81.094H196.731ZM198.84 78.616H200.212L201.822 80.828L203.376 78.616H204.72L202.466 81.724L204.874 85H203.502L201.71 82.55L199.988 85H198.644L201.066 81.668L198.84 78.616ZM207.595 79.498V83.334C207.595 83.894 207.861 84.174 208.393 84.174C208.701 84.174 209.069 84.0853 209.499 83.908L209.653 84.846C209.195 85.0607 208.715 85.168 208.211 85.168C207.707 85.168 207.287 85.0187 206.951 84.72C206.615 84.412 206.447 83.9453 206.447 83.32V79.498H205.565V78.616H206.447V77.356L207.315 76.558H207.595V78.616H209.401V79.498H207.595ZM217.862 79.358C217.507 79.358 217.199 79.4373 216.938 79.596C216.686 79.7547 216.499 79.96 216.378 80.212C216.154 80.688 216.042 81.1967 216.042 81.738C216.042 83.418 216.625 84.258 217.792 84.258C218.147 84.258 218.45 84.1787 218.702 84.02C218.954 83.8613 219.145 83.656 219.276 83.404C219.5 82.9373 219.612 82.4287 219.612 81.878C219.612 80.198 219.029 79.358 217.862 79.358ZM217.862 78.448C218.898 78.448 219.654 78.77 220.13 79.414C220.606 80.058 220.844 80.898 220.844 81.934C220.844 82.6807 220.648 83.3713 220.256 84.006C220.041 84.3513 219.719 84.6313 219.29 84.846C218.861 85.0607 218.347 85.168 217.75 85.168C216.723 85.168 215.977 84.86 215.51 84.244C215.043 83.628 214.81 82.802 214.81 81.766C214.81 81.1593 214.903 80.646 215.09 80.226C215.286 79.806 215.491 79.484 215.706 79.26C215.921 79.0267 216.215 78.8353 216.588 78.686C216.961 78.5273 217.386 78.448 217.862 78.448ZM223.024 78.616V76.922C223.024 76.2313 223.187 75.704 223.514 75.34C223.84 74.9667 224.265 74.78 224.788 74.78C225.32 74.78 225.884 74.92 226.482 75.2L226.076 76.04C225.665 75.872 225.31 75.788 225.012 75.788C224.452 75.788 224.172 76.1613 224.172 76.908V78.616H225.908V79.498H224.172V85H223.024V79.498H222.072V78.616H223.024ZM232.797 79.498V83.334C232.797 83.894 233.063 84.174 233.595 84.174C233.903 84.174 234.272 84.0853 234.701 83.908L234.855 84.846C234.398 85.0607 233.917 85.168 233.413 85.168C232.909 85.168 232.489 85.0187 232.153 84.72C231.817 84.412 231.649 83.9453 231.649 83.32V79.498H230.767V78.616H231.649V77.356L232.517 76.558H232.797V78.616H234.603V79.498H232.797ZM237.527 74.948V79.274C238.227 78.7233 238.979 78.448 239.781 78.448C240.407 78.448 240.901 78.6067 241.265 78.924C241.639 79.232 241.825 79.638 241.825 80.142V85H240.635V80.226C240.635 79.9833 240.537 79.7967 240.341 79.666C240.155 79.5353 239.903 79.47 239.585 79.47C238.923 79.47 238.237 79.708 237.527 80.184V85H236.337V74.948H237.527ZM246.632 84.188C247.304 84.188 247.976 83.9873 248.648 83.586L249.054 84.426C248.27 84.9207 247.43 85.168 246.534 85.168C245.647 85.168 244.943 84.888 244.42 84.328C243.897 83.7587 243.636 82.942 243.636 81.878C243.636 80.814 243.907 79.9787 244.448 79.372C244.989 78.756 245.708 78.448 246.604 78.448C247.416 78.448 248.055 78.7 248.522 79.204C248.718 79.4093 248.881 79.708 249.012 80.1C249.152 80.492 249.222 80.954 249.222 81.486L248.788 81.976H244.826C244.854 83.4507 245.456 84.188 246.632 84.188ZM248.046 81.094C248.046 80.5713 247.911 80.1513 247.64 79.834C247.369 79.5167 247.01 79.358 246.562 79.358C246.123 79.358 245.75 79.5167 245.442 79.834C245.134 80.142 244.947 80.562 244.882 81.094H248.046ZM3.458 108.216C4.158 108.216 4.69933 107.978 5.082 107.502C5.46467 107.026 5.656 106.447 5.656 105.766C5.656 105.075 5.488 104.52 5.152 104.1C4.82533 103.68 4.37267 103.47 3.794 103.47C3.57 103.47 3.304 103.535 2.996 103.666C2.688 103.797 2.41267 103.969 2.17 104.184V107.964C2.60867 108.132 3.038 108.216 3.458 108.216ZM2.17 112.22H1.008V102.616H1.764L2.086 103.344C2.76733 102.747 3.49067 102.448 4.256 102.448C5.02133 102.448 5.64667 102.747 6.132 103.344C6.61733 103.941 6.86 104.721 6.86 105.682C6.86 106.634 6.57533 107.455 6.006 108.146C5.446 108.827 4.64333 109.168 3.598 109.168C3.13133 109.168 2.65533 109.103 2.17 108.972V112.22ZM8.73917 102.616H9.49517L9.84517 103.736H9.90117C10.4145 103.073 11.1192 102.672 12.0152 102.532L12.1412 103.638C11.7025 103.666 11.2778 103.778 10.8672 103.974C10.4565 104.17 10.1438 104.431 9.92917 104.758V109H8.73917V102.616ZM14.6812 101.118C14.5319 101.267 14.3499 101.342 14.1352 101.342C13.9205 101.342 13.7385 101.267 13.5892 101.118C13.4399 100.959 13.3652 100.773 13.3652 100.558C13.3652 100.343 13.4399 100.161 13.5892 100.012C13.7479 99.8533 13.9299 99.774 14.1352 99.774C14.3405 99.774 14.5179 99.8533 14.6672 100.012C14.8259 100.161 14.9052 100.343 14.9052 100.558C14.9052 100.773 14.8305 100.959 14.6812 101.118ZM13.5472 102.616H14.7372V109H13.5472V102.616ZM22.6348 104.17V109H21.4448V104.226C21.4448 103.983 21.3468 103.797 21.1508 103.666C20.9642 103.535 20.7122 103.47 20.3948 103.47C19.7322 103.47 19.0462 103.708 18.3368 104.184V109H17.1468V102.616H17.9028L18.2528 103.344C18.9715 102.747 19.7508 102.448 20.5908 102.448C21.2162 102.448 21.7108 102.607 22.0748 102.924C22.4482 103.241 22.6348 103.657 22.6348 104.17ZM26.306 103.498V107.334C26.306 107.894 26.572 108.174 27.104 108.174C27.412 108.174 27.7807 108.085 28.21 107.908L28.364 108.846C27.9067 109.061 27.426 109.168 26.922 109.168C26.418 109.168 25.998 109.019 25.662 108.72C25.326 108.412 25.158 107.945 25.158 107.32V103.498H24.276V102.616H25.158V101.356L26.026 100.558H26.306V102.616H28.112V103.498H26.306ZM31.1481 101.118C30.9988 101.267 30.8168 101.342 30.6021 101.342C30.3875 101.342 30.2055 101.267 30.0561 101.118C29.9068 100.959 29.8321 100.773 29.8321 100.558C29.8321 100.343 29.9068 100.161 30.0561 100.012C30.2148 99.8533 30.3968 99.774 30.6021 99.774C30.8075 99.774 30.9848 99.8533 31.1341 100.012C31.2928 100.161 31.3721 100.343 31.3721 100.558C31.3721 100.773 31.2975 100.959 31.1481 101.118ZM30.0141 102.616H31.2041V109H30.0141V102.616ZM39.1018 104.17V109H37.9118V104.226C37.9118 103.983 37.8138 103.797 37.6178 103.666C37.4311 103.535 37.1791 103.47 36.8618 103.47C36.1991 103.47 35.5131 103.708 34.8038 104.184V109H33.6138V102.616H34.3698L34.7198 103.344C35.4384 102.747 36.2178 102.448 37.0578 102.448C37.6831 102.448 38.1778 102.607 38.5418 102.924C38.9151 103.241 39.1018 103.657 39.1018 104.17ZM43.431 107.194C43.2163 107.194 43.011 107.18 42.815 107.152C42.5816 107.6 42.465 107.894 42.465 108.034C42.465 108.099 42.549 108.155 42.717 108.202L44.425 108.58C45.2183 108.757 45.783 108.963 46.119 109.196C46.455 109.439 46.623 109.793 46.623 110.26C46.623 110.727 46.4596 111.119 46.133 111.436C45.4983 112.071 44.565 112.388 43.333 112.388C42.577 112.388 41.9236 112.248 41.373 111.968C40.8223 111.688 40.547 111.287 40.547 110.764C40.547 110.241 40.9203 109.639 41.667 108.958C41.387 108.855 41.247 108.701 41.247 108.496C41.247 108.291 41.5223 107.782 42.073 106.97C41.2703 106.625 40.869 105.901 40.869 104.8C40.869 104.184 41.0836 103.647 41.513 103.19C41.9516 102.723 42.591 102.49 43.431 102.49C43.9163 102.49 44.341 102.56 44.705 102.7L46.665 102.476V103.414H45.615C45.8576 103.806 45.979 104.305 45.979 104.912C45.979 105.509 45.7643 106.041 45.335 106.508C44.9056 106.965 44.271 107.194 43.431 107.194ZM44.859 105.01C44.859 103.853 44.3876 103.274 43.445 103.274C43.0716 103.274 42.7683 103.372 42.535 103.568C42.171 103.885 41.989 104.282 41.989 104.758C41.989 105.225 42.101 105.617 42.325 105.934C42.549 106.251 42.9083 106.41 43.403 106.41C43.8976 106.41 44.2616 106.261 44.495 105.962C44.7376 105.654 44.859 105.337 44.859 105.01ZM41.667 110.582C41.667 110.881 41.8303 111.109 42.157 111.268C42.4836 111.427 42.9083 111.506 43.431 111.506C43.9536 111.506 44.439 111.399 44.887 111.184C45.335 110.979 45.559 110.694 45.559 110.33C45.559 110.143 45.4516 109.989 45.237 109.868C45.0223 109.756 44.649 109.644 44.117 109.532L42.479 109.168C41.9376 109.709 41.667 110.181 41.667 110.582ZM55.7409 105.178V104.562C55.7409 103.806 55.3489 103.428 54.5649 103.428C53.9489 103.428 53.3049 103.629 52.6329 104.03L52.2269 103.19C53.0109 102.695 53.8556 102.448 54.7609 102.448C55.3956 102.448 55.9136 102.611 56.3149 102.938C56.7256 103.255 56.9309 103.75 56.9309 104.422V109H56.1749L55.8249 108.16C55.5262 108.468 55.1716 108.715 54.7609 108.902C54.3502 109.079 53.9769 109.168 53.6409 109.168C53.0622 109.168 52.6002 109.009 52.2549 108.692C51.9096 108.375 51.7369 107.959 51.7369 107.446C51.7369 105.934 53.0716 105.178 55.7409 105.178ZM53.4169 106.536C53.2396 106.695 53.1182 106.839 53.0529 106.97C52.9969 107.091 52.9689 107.255 52.9689 107.46C52.9689 107.656 53.0529 107.829 53.2209 107.978C53.3982 108.118 53.6269 108.188 53.9069 108.188C54.4949 108.188 55.1062 107.927 55.7409 107.404V106.004C54.5649 106.023 53.7902 106.2 53.4169 106.536ZM64.6534 104.17V109H63.4634V104.226C63.4634 103.983 63.3654 103.797 63.1694 103.666C62.9828 103.535 62.7308 103.47 62.4134 103.47C61.7508 103.47 61.0648 103.708 60.3554 104.184V109H59.1654V102.616H59.9214L60.2714 103.344C60.9901 102.747 61.7694 102.448 62.6094 102.448C63.2348 102.448 63.7294 102.607 64.0934 102.924C64.4668 103.241 64.6534 103.657 64.6534 104.17ZM71.1946 98.948H72.3426V109H71.5866L71.2366 108.16C70.5366 108.832 69.8133 109.168 69.0666 109.168C68.3293 109.168 67.7179 108.883 67.2326 108.314C66.7473 107.735 66.5046 106.956 66.5046 105.976C66.5046 104.996 66.7939 104.179 67.3726 103.526C67.9513 102.863 68.6979 102.532 69.6126 102.532C70.1073 102.532 70.6346 102.644 71.1946 102.868V98.948ZM69.9066 103.484C69.2066 103.484 68.6653 103.722 68.2826 104.198C67.8999 104.674 67.7086 105.253 67.7086 105.934C67.7086 106.615 67.8673 107.161 68.1846 107.572C68.5019 107.983 68.9126 108.188 69.4166 108.188C69.6966 108.188 69.9953 108.113 70.3126 107.964C70.6393 107.805 70.9333 107.591 71.1946 107.32V103.736C70.7559 103.568 70.3266 103.484 69.9066 103.484ZM80.0682 103.498V107.334C80.0682 107.894 80.3342 108.174 80.8662 108.174C81.1742 108.174 81.5429 108.085 81.9722 107.908L82.1262 108.846C81.6689 109.061 81.1882 109.168 80.6842 109.168C80.1802 109.168 79.7602 109.019 79.4242 108.72C79.0882 108.412 78.9202 107.945 78.9202 107.32V103.498H78.0382V102.616H78.9202V101.356L79.7882 100.558H80.0682V102.616H81.8742V103.498H80.0682ZM85.9043 110.134C85.5963 111.03 85.3117 111.627 85.0503 111.926C84.7983 112.234 84.4203 112.388 83.9163 112.388C83.4123 112.388 82.857 112.248 82.2503 111.968L82.6843 111.058C83.0857 111.273 83.431 111.38 83.7203 111.38C83.9723 111.38 84.1403 111.338 84.2243 111.254L84.4063 111.072C84.5277 110.951 84.635 110.741 84.7283 110.442C84.8217 110.143 84.8963 109.91 84.9523 109.742C85.0083 109.583 85.0503 109.457 85.0783 109.364L82.7403 102.616H83.9443L85.5963 107.726H85.6523L87.3043 102.616H88.5083L85.9043 110.134ZM92.3279 108.216C93.0279 108.216 93.5693 107.978 93.9519 107.502C94.3346 107.026 94.5259 106.447 94.5259 105.766C94.5259 105.075 94.3579 104.52 94.0219 104.1C93.6953 103.68 93.2426 103.47 92.6639 103.47C92.4399 103.47 92.1739 103.535 91.8659 103.666C91.5579 103.797 91.2826 103.969 91.0399 104.184V107.964C91.4786 108.132 91.9079 108.216 92.3279 108.216ZM91.0399 112.22H89.8779V102.616H90.6339L90.9559 103.344C91.6373 102.747 92.3606 102.448 93.1259 102.448C93.8913 102.448 94.5166 102.747 95.0019 103.344C95.4873 103.941 95.7299 104.721 95.7299 105.682C95.7299 106.634 95.4453 107.455 94.8759 108.146C94.3159 108.827 93.5133 109.168 92.4679 109.168C92.0013 109.168 91.5253 109.103 91.0399 108.972V112.22ZM100.171 108.188C100.843 108.188 101.515 107.987 102.187 107.586L102.593 108.426C101.809 108.921 100.969 109.168 100.073 109.168C99.1864 109.168 98.4818 108.888 97.9591 108.328C97.4364 107.759 97.1751 106.942 97.1751 105.878C97.1751 104.814 97.4458 103.979 97.9871 103.372C98.5284 102.756 99.2471 102.448 100.143 102.448C100.955 102.448 101.594 102.7 102.061 103.204C102.257 103.409 102.42 103.708 102.551 104.1C102.691 104.492 102.761 104.954 102.761 105.486L102.327 105.976H98.3651C98.3931 107.451 98.9951 108.188 100.171 108.188ZM101.585 105.094C101.585 104.571 101.45 104.151 101.179 103.834C100.908 103.517 100.549 103.358 100.101 103.358C99.6624 103.358 99.2891 103.517 98.9811 103.834C98.6731 104.142 98.4864 104.562 98.4211 105.094H101.585ZM107.782 103.736C107.306 103.531 106.858 103.428 106.438 103.428C105.626 103.428 105.22 103.675 105.22 104.17C105.22 104.599 105.762 105.015 106.844 105.416C107.246 105.565 107.614 105.799 107.95 106.116C108.296 106.433 108.468 106.816 108.468 107.264C108.468 107.908 108.258 108.389 107.838 108.706C107.418 109.014 106.835 109.168 106.088 109.168C105.342 109.168 104.614 108.963 103.904 108.552L104.254 107.684C104.842 108.02 105.51 108.188 106.256 108.188C106.574 108.188 106.83 108.123 107.026 107.992C107.222 107.852 107.32 107.665 107.32 107.432C107.32 107.199 107.208 106.998 106.984 106.83C106.76 106.662 106.49 106.513 106.172 106.382C105.855 106.251 105.538 106.111 105.22 105.962C104.903 105.803 104.632 105.584 104.408 105.304C104.184 105.024 104.072 104.693 104.072 104.31C104.072 103.713 104.273 103.255 104.674 102.938C105.085 102.611 105.603 102.448 106.228 102.448C106.854 102.448 107.488 102.588 108.132 102.868L107.782 103.736ZM112.721 108.188C113.393 108.188 114.065 107.987 114.737 107.586L115.143 108.426C114.359 108.921 113.519 109.168 112.623 109.168C111.737 109.168 111.032 108.888 110.509 108.328C109.987 107.759 109.725 106.942 109.725 105.878C109.725 104.814 109.996 103.979 110.537 103.372C111.079 102.756 111.797 102.448 112.693 102.448C113.505 102.448 114.145 102.7 114.611 103.204C114.807 103.409 114.971 103.708 115.101 104.1C115.241 104.492 115.311 104.954 115.311 105.486L114.877 105.976H110.915C110.943 107.451 111.545 108.188 112.721 108.188ZM114.135 105.094C114.135 104.571 114 104.151 113.729 103.834C113.459 103.517 113.099 103.358 112.651 103.358C112.213 103.358 111.839 103.517 111.531 103.834C111.223 104.142 111.037 104.562 110.971 105.094H114.135ZM118.485 103.498V107.334C118.485 107.894 118.751 108.174 119.283 108.174C119.591 108.174 119.959 108.085 120.389 107.908L120.543 108.846C120.085 109.061 119.605 109.168 119.101 109.168C118.597 109.168 118.177 109.019 117.841 108.72C117.505 108.412 117.337 107.945 117.337 107.32V103.498H116.455V102.616H117.337V101.356L118.205 100.558H118.485V102.616H120.291V103.498H118.485ZM123.509 103.498V107.334C123.509 107.894 123.775 108.174 124.307 108.174C124.615 108.174 124.983 108.085 125.413 107.908L125.567 108.846C125.109 109.061 124.629 109.168 124.125 109.168C123.621 109.168 123.201 109.019 122.865 108.72C122.529 108.412 122.361 107.945 122.361 107.32V103.498H121.479V102.616H122.361V101.356L123.229 100.558H123.509V102.616H125.315V103.498H123.509ZM128.351 101.118C128.201 101.267 128.019 101.342 127.805 101.342C127.59 101.342 127.408 101.267 127.259 101.118C127.109 100.959 127.035 100.773 127.035 100.558C127.035 100.343 127.109 100.161 127.259 100.012C127.417 99.8533 127.599 99.774 127.805 99.774C128.01 99.774 128.187 99.8533 128.337 100.012C128.495 100.161 128.575 100.343 128.575 100.558C128.575 100.773 128.5 100.959 128.351 101.118ZM127.217 102.616H128.407V109H127.217V102.616ZM136.304 104.17V109H135.114V104.226C135.114 103.983 135.016 103.797 134.82 103.666C134.634 103.535 134.382 103.47 134.064 103.47C133.402 103.47 132.716 103.708 132.006 104.184V109H130.816V102.616H131.572L131.922 103.344C132.641 102.747 133.42 102.448 134.26 102.448C134.886 102.448 135.38 102.607 135.744 102.924C136.118 103.241 136.304 103.657 136.304 104.17ZM140.634 107.194C140.419 107.194 140.214 107.18 140.018 107.152C139.784 107.6 139.668 107.894 139.668 108.034C139.668 108.099 139.752 108.155 139.92 108.202L141.628 108.58C142.421 108.757 142.986 108.963 143.322 109.196C143.658 109.439 143.826 109.793 143.826 110.26C143.826 110.727 143.662 111.119 143.336 111.436C142.701 112.071 141.768 112.388 140.536 112.388C139.78 112.388 139.126 112.248 138.576 111.968C138.025 111.688 137.75 111.287 137.75 110.764C137.75 110.241 138.123 109.639 138.87 108.958C138.59 108.855 138.45 108.701 138.45 108.496C138.45 108.291 138.725 107.782 139.276 106.97C138.473 106.625 138.072 105.901 138.072 104.8C138.072 104.184 138.286 103.647 138.716 103.19C139.154 102.723 139.794 102.49 140.634 102.49C141.119 102.49 141.544 102.56 141.908 102.7L143.868 102.476V103.414H142.818C143.06 103.806 143.182 104.305 143.182 104.912C143.182 105.509 142.967 106.041 142.538 106.508C142.108 106.965 141.474 107.194 140.634 107.194ZM142.062 105.01C142.062 103.853 141.59 103.274 140.648 103.274C140.274 103.274 139.971 103.372 139.738 103.568C139.374 103.885 139.192 104.282 139.192 104.758C139.192 105.225 139.304 105.617 139.528 105.934C139.752 106.251 140.111 106.41 140.606 106.41C141.1 106.41 141.464 106.261 141.698 105.962C141.94 105.654 142.062 105.337 142.062 105.01ZM138.87 110.582C138.87 110.881 139.033 111.109 139.36 111.268C139.686 111.427 140.111 111.506 140.634 111.506C141.156 111.506 141.642 111.399 142.09 111.184C142.538 110.979 142.762 110.694 142.762 110.33C142.762 110.143 142.654 109.989 142.44 109.868C142.225 109.756 141.852 109.644 141.32 109.532L139.682 109.168C139.14 109.709 138.87 110.181 138.87 110.582ZM150.69 101.118C150.54 101.267 150.358 101.342 150.144 101.342C149.929 101.342 149.747 101.267 149.598 101.118C149.448 100.959 149.374 100.773 149.374 100.558C149.374 100.343 149.448 100.161 149.598 100.012C149.756 99.8533 149.938 99.774 150.144 99.774C150.349 99.774 150.526 99.8533 150.676 100.012C150.834 100.161 150.914 100.343 150.914 100.558C150.914 100.773 150.839 100.959 150.69 101.118ZM149.556 102.616H150.746V109H149.556V102.616ZM158.643 104.17V109H157.453V104.226C157.453 103.983 157.355 103.797 157.159 103.666C156.973 103.535 156.721 103.47 156.403 103.47C155.741 103.47 155.055 103.708 154.345 104.184V109H153.155V102.616H153.911L154.261 103.344C154.98 102.747 155.759 102.448 156.599 102.448C157.225 102.448 157.719 102.607 158.083 102.924C158.457 103.241 158.643 103.657 158.643 104.17ZM165.184 98.948H166.332V109H165.576L165.226 108.16C164.526 108.832 163.803 109.168 163.056 109.168C162.319 109.168 161.708 108.883 161.222 108.314C160.737 107.735 160.494 106.956 160.494 105.976C160.494 104.996 160.784 104.179 161.362 103.526C161.941 102.863 162.688 102.532 163.602 102.532C164.097 102.532 164.624 102.644 165.184 102.868V98.948ZM163.896 103.484C163.196 103.484 162.655 103.722 162.272 104.198C161.89 104.674 161.698 105.253 161.698 105.934C161.698 106.615 161.857 107.161 162.174 107.572C162.492 107.983 162.902 108.188 163.406 108.188C163.686 108.188 163.985 108.113 164.302 107.964C164.629 107.805 164.923 107.591 165.184 107.32V103.736C164.746 103.568 164.316 103.484 163.896 103.484ZM169.711 102.616V107.362C169.711 107.623 169.804 107.829 169.991 107.978C170.187 108.118 170.439 108.188 170.747 108.188C171.409 108.188 172.091 107.927 172.791 107.404V102.616H173.981V109H173.225L172.875 108.16C172.156 108.832 171.358 109.168 170.481 109.168C169.921 109.168 169.454 109.019 169.081 108.72C168.707 108.421 168.521 107.987 168.521 107.418V102.616H169.711ZM179.556 103.736C179.08 103.531 178.632 103.428 178.212 103.428C177.4 103.428 176.994 103.675 176.994 104.17C176.994 104.599 177.536 105.015 178.618 105.416C179.02 105.565 179.388 105.799 179.724 106.116C180.07 106.433 180.242 106.816 180.242 107.264C180.242 107.908 180.032 108.389 179.612 108.706C179.192 109.014 178.609 109.168 177.862 109.168C177.116 109.168 176.388 108.963 175.678 108.552L176.028 107.684C176.616 108.02 177.284 108.188 178.03 108.188C178.348 108.188 178.604 108.123 178.8 107.992C178.996 107.852 179.094 107.665 179.094 107.432C179.094 107.199 178.982 106.998 178.758 106.83C178.534 106.662 178.264 106.513 177.946 106.382C177.629 106.251 177.312 106.111 176.994 105.962C176.677 105.803 176.406 105.584 176.182 105.304C175.958 105.024 175.846 104.693 175.846 104.31C175.846 103.713 176.047 103.255 176.448 102.938C176.859 102.611 177.377 102.448 178.002 102.448C178.628 102.448 179.262 102.588 179.906 102.868L179.556 103.736ZM183.361 103.498V107.334C183.361 107.894 183.627 108.174 184.159 108.174C184.467 108.174 184.836 108.085 185.265 107.908L185.419 108.846C184.962 109.061 184.481 109.168 183.977 109.168C183.473 109.168 183.053 109.019 182.717 108.72C182.381 108.412 182.213 107.945 182.213 107.32V103.498H181.331V102.616H182.213V101.356L183.081 100.558H183.361V102.616H185.167V103.498H183.361ZM186.958 102.616H187.714L188.064 103.736H188.12C188.633 103.073 189.338 102.672 190.234 102.532L190.36 103.638C189.921 103.666 189.496 103.778 189.086 103.974C188.675 104.17 188.362 104.431 188.148 104.758V109H186.958V102.616ZM193.894 110.134C193.586 111.03 193.301 111.627 193.04 111.926C192.788 112.234 192.41 112.388 191.906 112.388C191.402 112.388 190.846 112.248 190.24 111.968L190.674 111.058C191.075 111.273 191.42 111.38 191.71 111.38C191.962 111.38 192.13 111.338 192.214 111.254L192.396 111.072C192.517 110.951 192.624 110.741 192.718 110.442C192.811 110.143 192.886 109.91 192.942 109.742C192.998 109.583 193.04 109.457 193.068 109.364L190.73 102.616H191.934L193.586 107.726H193.642L195.294 102.616H196.498L193.894 110.134ZM198.525 108.916C198.385 109.056 198.212 109.126 198.007 109.126C197.802 109.126 197.629 109.056 197.489 108.916C197.349 108.767 197.279 108.585 197.279 108.37C197.279 108.155 197.349 107.978 197.489 107.838C197.629 107.698 197.802 107.628 198.007 107.628C198.212 107.628 198.385 107.698 198.525 107.838C198.674 107.978 198.749 108.155 198.749 108.37C198.749 108.585 198.674 108.767 198.525 108.916Z" fill="#9B9B9B"/>
<path fill-rule="evenodd" clip-rule="evenodd" d="M243.435 24.5276L253.206 34.1789C253.572 34.5412 254.069 34.7446 254.588 34.7446H285.046C285.564 34.7446 286.061 34.948 286.428 35.3099C286.794 35.6718 287 36.163 287 36.6749V42.4656C287 42.9383 286.824 43.3946 286.506 43.7479C286.188 44.1012 285.75 44.327 285.274 44.3826L285.046 44.3959H281.26L283.078 46.9263L283.085 46.9358C283.707 47.8238 283.484 49.0242 282.597 49.6304L282.558 49.6576H282.558C282.135 49.9463 281.614 50.0587 281.108 49.9708C280.602 49.8825 280.151 49.6007 279.854 49.1866L276.418 44.4015L276.414 44.3976H247.908L247.904 44.4015L244.468 49.1866C244.171 49.6007 243.72 49.8825 243.214 49.9708C242.708 50.0587 242.187 49.9463 241.764 49.6576L241.725 49.6304V49.6309C241.296 49.3375 241.003 48.8868 240.912 48.3792C240.822 47.8716 240.941 47.349 241.242 46.9285L243.059 44.3959H240.099C239.4 44.3959 238.755 44.0279 238.406 43.4308C238.057 42.8336 238.057 42.0977 238.406 41.5005C238.755 40.9033 239.401 40.5354 240.099 40.5354L244.007 36.6748L237.572 30.3183C237.205 29.9564 237 29.4656 237 28.9538C237 28.4419 237.205 27.9512 237.572 27.5893L240.672 24.5275C241.038 24.1656 241.535 23.9627 242.053 23.9627C242.571 23.9627 243.068 24.1656 243.435 24.5275L243.435 24.5276ZM245.962 38.6052L244.007 40.5355H247.74C247.643 40.3252 247.509 40.1335 247.343 39.9698L245.962 38.6052ZM267.458 19.3026V32.8144H263.55V19.3026H249.87C249.041 19.3026 248.213 18.6076 247.98 17.8106C248.33 13.8092 250.072 10.0507 252.911 7.17514C255.749 4.29916 259.509 2.4835 263.55 2.03623V1.93024C263.55 1.24043 263.922 0.603207 264.527 0.258517C265.131 -0.0861725 265.876 -0.0861725 266.481 0.258517C267.086 0.603207 267.458 1.24045 267.458 1.93024V2.03623C271.498 2.48347 275.257 4.29872 278.096 7.17382C280.934 10.0489 282.677 13.8061 283.027 17.8066C282.797 18.6076 281.966 19.3025 281.138 19.3025L267.458 19.3026Z" fill="#596B86"/>
<path d="M12.0117 34.4414C12.0117 35.457 11.7578 36.3242 11.25 37.043C10.75 37.7539 10.0469 38.2969 9.14062 38.6719C8.23438 39.0469 7.16797 39.2344 5.94141 39.2344C5.29297 39.2344 4.67969 39.2031 4.10156 39.1406C3.52344 39.0781 2.99219 38.9883 2.50781 38.8711C2.02344 38.7539 1.59766 38.6094 1.23047 38.4375V36.5273C1.81641 36.7695 2.53125 36.9961 3.375 37.207C4.21875 37.4102 5.10156 37.5117 6.02344 37.5117C6.88281 37.5117 7.60938 37.3984 8.20312 37.1719C8.79688 36.9375 9.24609 36.6055 9.55078 36.1758C9.86328 35.7383 10.0195 35.2148 10.0195 34.6055C10.0195 34.0195 9.89062 33.5312 9.63281 33.1406C9.375 32.7422 8.94531 32.3828 8.34375 32.0625C7.75 31.7344 6.9375 31.3867 5.90625 31.0195C5.17969 30.7617 4.53906 30.4805 3.98438 30.1758C3.42969 29.8633 2.96484 29.5117 2.58984 29.1211C2.21484 28.7305 1.92969 28.2773 1.73438 27.7617C1.54688 27.2461 1.45312 26.6562 1.45312 25.9922C1.45312 25.0781 1.68359 24.2969 2.14453 23.6484C2.61328 22.9922 3.25781 22.4922 4.07812 22.1484C4.90625 21.7969 5.85547 21.6211 6.92578 21.6211C7.83984 21.6211 8.68359 21.707 9.45703 21.8789C10.2383 22.0508 10.9531 22.2812 11.6016 22.5703L10.9805 24.2812C10.3633 24.0234 9.70703 23.8086 9.01172 23.6367C8.32422 23.4648 7.61328 23.3789 6.87891 23.3789C6.14453 23.3789 5.52344 23.4883 5.01562 23.707C4.51562 23.918 4.13281 24.2188 3.86719 24.6094C3.60156 25 3.46875 25.4648 3.46875 26.0039C3.46875 26.6055 3.59375 27.1055 3.84375 27.5039C4.10156 27.9023 4.50781 28.2578 5.0625 28.5703C5.625 28.875 6.36719 29.1953 7.28906 29.5312C8.29688 29.8984 9.15234 30.2891 9.85547 30.7031C10.5586 31.1094 11.0938 31.6094 11.4609 32.2031C11.8281 32.7891 12.0117 33.5352 12.0117 34.4414ZM25.6758 38.9766L23.3906 31.5C23.2891 31.1797 23.1914 30.8672 23.0977 30.5625C23.0117 30.25 22.9297 29.9531 22.8516 29.6719C22.7812 29.3828 22.7148 29.1172 22.6523 28.875C22.5977 28.625 22.5508 28.4102 22.5117 28.2305H22.4297C22.3984 28.4102 22.3555 28.625 22.3008 28.875C22.2461 29.1172 22.1797 29.3828 22.1016 29.6719C22.0312 29.9609 21.9531 30.2656 21.8672 30.5859C21.7812 30.8984 21.6836 31.2148 21.5742 31.5352L19.1836 38.9766H16.9922L13.4531 26.1328H15.4688L17.3203 33.2227C17.4453 33.6914 17.5625 34.1562 17.6719 34.6172C17.7891 35.0703 17.8867 35.5 17.9648 35.9062C18.0508 36.3047 18.1133 36.6523 18.1523 36.9492H18.2461C18.293 36.7539 18.3438 36.5195 18.3984 36.2461C18.4609 35.9727 18.5273 35.6836 18.5977 35.3789C18.6758 35.0664 18.7578 34.7578 18.8438 34.4531C18.9297 34.1406 19.0156 33.8477 19.1016 33.5742L21.4688 26.1328H23.5664L25.8516 33.5625C25.9688 33.9375 26.082 34.3281 26.1914 34.7344C26.3086 35.1406 26.4141 35.5352 26.5078 35.918C26.6016 36.293 26.668 36.6289 26.707 36.9258H26.8008C26.832 36.6602 26.8906 36.332 26.9766 35.9414C27.0625 35.5508 27.1602 35.1211 27.2695 34.6523C27.3867 34.1836 27.5078 33.707 27.6328 33.2227L29.5078 26.1328H31.4883L27.9375 38.9766H25.6758ZM35.7773 26.1562V39H33.832V26.1562H35.7773ZM34.8281 21.3516C35.1484 21.3516 35.4219 21.457 35.6484 21.668C35.8828 21.8711 36 22.1914 36 22.6289C36 23.0586 35.8828 23.3789 35.6484 23.5898C35.4219 23.8008 35.1484 23.9062 34.8281 23.9062C34.4922 23.9062 34.2109 23.8008 33.9844 23.5898C33.7656 23.3789 33.6562 23.0586 33.6562 22.6289C33.6562 22.1914 33.7656 21.8711 33.9844 21.668C34.2109 21.457 34.4922 21.3516 34.8281 21.3516ZM53.8477 25.9219C55.2617 25.9219 56.3281 26.293 57.0469 27.0352C57.7656 27.7695 58.125 28.9531 58.125 30.5859V39H56.2031V30.6797C56.2031 29.6406 55.9766 28.8633 55.5234 28.3477C55.0781 27.8242 54.4141 27.5625 53.5312 27.5625C52.2891 27.5625 51.3867 27.9219 50.8242 28.6406C50.2617 29.3594 49.9805 30.418 49.9805 31.8164V39H48.0469V30.6797C48.0469 29.9844 47.9453 29.4062 47.7422 28.9453C47.5469 28.4844 47.25 28.1406 46.8516 27.9141C46.4609 27.6797 45.9648 27.5625 45.3633 27.5625C44.5117 27.5625 43.8281 27.7383 43.3125 28.0898C42.7969 28.4414 42.4219 28.9648 42.1875 29.6602C41.9609 30.3477 41.8477 31.1953 41.8477 32.2031V39H39.9023V26.1562H41.4727L41.7656 27.9727H41.8711C42.1289 27.5273 42.4531 27.1523 42.8438 26.8477C43.2344 26.543 43.6719 26.3125 44.1562 26.1562C44.6406 26 45.1562 25.9219 45.7031 25.9219C46.6797 25.9219 47.4961 26.1055 48.1523 26.4727C48.8164 26.832 49.2969 27.3828 49.5938 28.125H49.6992C50.1211 27.3828 50.6992 26.832 51.4336 26.4727C52.168 26.1055 52.9727 25.9219 53.8477 25.9219ZM76.0664 25.9219C77.4805 25.9219 78.5469 26.293 79.2656 27.0352C79.9844 27.7695 80.3438 28.9531 80.3438 30.5859V39H78.4219V30.6797C78.4219 29.6406 78.1953 28.8633 77.7422 28.3477C77.2969 27.8242 76.6328 27.5625 75.75 27.5625C74.5078 27.5625 73.6055 27.9219 73.043 28.6406C72.4805 29.3594 72.1992 30.418 72.1992 31.8164V39H70.2656V30.6797C70.2656 29.9844 70.1641 29.4062 69.9609 28.9453C69.7656 28.4844 69.4688 28.1406 69.0703 27.9141C68.6797 27.6797 68.1836 27.5625 67.582 27.5625C66.7305 27.5625 66.0469 27.7383 65.5312 28.0898C65.0156 28.4414 64.6406 28.9648 64.4062 29.6602C64.1797 30.3477 64.0664 31.1953 64.0664 32.2031V39H62.1211V26.1562H63.6914L63.9844 27.9727H64.0898C64.3477 27.5273 64.6719 27.1523 65.0625 26.8477C65.4531 26.543 65.8906 26.3125 66.375 26.1562C66.8594 26 67.375 25.9219 67.9219 25.9219C68.8984 25.9219 69.7148 26.1055 70.3711 26.4727C71.0352 26.832 71.5156 27.3828 71.8125 28.125H71.918C72.3398 27.3828 72.918 26.832 73.6523 26.4727C74.3867 26.1055 75.1914 25.9219 76.0664 25.9219ZM86.2852 26.1562V39H84.3398V26.1562H86.2852ZM85.3359 21.3516C85.6562 21.3516 85.9297 21.457 86.1562 21.668C86.3906 21.8711 86.5078 22.1914 86.5078 22.6289C86.5078 23.0586 86.3906 23.3789 86.1562 23.5898C85.9297 23.8008 85.6562 23.9062 85.3359 23.9062C85 23.9062 84.7188 23.8008 84.4922 23.5898C84.2734 23.3789 84.1641 23.0586 84.1641 22.6289C84.1641 22.1914 84.2734 21.8711 84.4922 21.668C84.7188 21.457 85 21.3516 85.3359 21.3516ZM96.4922 25.9219C98.0156 25.9219 99.168 26.2969 99.9492 27.0469C100.73 27.7891 101.121 28.9844 101.121 30.6328V39H99.1992V30.7617C99.1992 29.6914 98.9531 28.8906 98.4609 28.3594C97.9766 27.8281 97.2305 27.5625 96.2227 27.5625C94.8008 27.5625 93.8008 27.9648 93.2227 28.7695C92.6445 29.5742 92.3555 30.7422 92.3555 32.2734V39H90.4102V26.1562H91.9805L92.2734 28.0078H92.3789C92.6523 27.5547 93 27.1758 93.4219 26.8711C93.8438 26.5586 94.3164 26.3242 94.8398 26.168C95.3633 26.0039 95.9141 25.9219 96.4922 25.9219ZM108.715 44.7656C107.027 44.7656 105.727 44.4492 104.812 43.8164C103.898 43.1914 103.441 42.3125 103.441 41.1797C103.441 40.375 103.695 39.6875 104.203 39.1172C104.719 38.5469 105.43 38.168 106.336 37.9805C106 37.8242 105.711 37.5898 105.469 37.2773C105.234 36.9648 105.117 36.6055 105.117 36.1992C105.117 35.7305 105.246 35.3203 105.504 34.9688C105.77 34.6094 106.172 34.2656 106.711 33.9375C106.039 33.6641 105.492 33.2031 105.07 32.5547C104.656 31.8984 104.449 31.1367 104.449 30.2695C104.449 29.3477 104.641 28.5625 105.023 27.9141C105.406 27.2578 105.961 26.7578 106.688 26.4141C107.414 26.0703 108.293 25.8984 109.324 25.8984C109.551 25.8984 109.777 25.9102 110.004 25.9336C110.238 25.9492 110.461 25.9766 110.672 26.0156C110.883 26.0469 111.066 26.0859 111.223 26.1328H115.629V27.3867L113.262 27.6797C113.496 27.9844 113.691 28.3516 113.848 28.7812C114.004 29.2109 114.082 29.6875 114.082 30.2109C114.082 31.4922 113.648 32.5117 112.781 33.2695C111.914 34.0195 110.723 34.3945 109.207 34.3945C108.848 34.3945 108.48 34.3633 108.105 34.3008C107.723 34.5117 107.43 34.7461 107.227 35.0039C107.031 35.2617 106.934 35.5586 106.934 35.8945C106.934 36.1445 107.008 36.3438 107.156 36.4922C107.312 36.6406 107.535 36.75 107.824 36.8203C108.113 36.8828 108.461 36.9141 108.867 36.9141H111.129C112.527 36.9141 113.598 37.207 114.34 37.793C115.09 38.3789 115.465 39.2344 115.465 40.3594C115.465 41.7812 114.887 42.8711 113.73 43.6289C112.574 44.3867 110.902 44.7656 108.715 44.7656ZM108.773 43.2422C109.836 43.2422 110.715 43.1328 111.41 42.9141C112.113 42.7031 112.637 42.3945 112.98 41.9883C113.332 41.5898 113.508 41.1133 113.508 40.5586C113.508 40.043 113.391 39.6523 113.156 39.3867C112.922 39.1289 112.578 38.957 112.125 38.8711C111.672 38.7773 111.117 38.7305 110.461 38.7305H108.234C107.656 38.7305 107.152 38.8203 106.723 39C106.293 39.1797 105.961 39.4453 105.727 39.7969C105.5 40.1484 105.387 40.5859 105.387 41.1094C105.387 41.8047 105.68 42.332 106.266 42.6914C106.852 43.0586 107.688 43.2422 108.773 43.2422ZM109.277 32.9766C110.207 32.9766 110.906 32.7422 111.375 32.2734C111.844 31.8047 112.078 31.1211 112.078 30.2227C112.078 29.2617 111.84 28.543 111.363 28.0664C110.887 27.582 110.184 27.3398 109.254 27.3398C108.363 27.3398 107.676 27.5898 107.191 28.0898C106.715 28.582 106.477 29.3047 106.477 30.2578C106.477 31.1328 106.719 31.8047 107.203 32.2734C107.688 32.7422 108.379 32.9766 109.277 32.9766ZM129.164 21.8672C131.375 21.8672 132.988 22.3008 134.004 23.168C135.027 24.0273 135.539 25.2617 135.539 26.8711C135.539 27.5977 135.418 28.2891 135.176 28.9453C134.941 29.5938 134.559 30.168 134.027 30.668C133.496 31.1602 132.797 31.5508 131.93 31.8398C131.07 32.1211 130.016 32.2617 128.766 32.2617H126.68V39H124.688V21.8672H129.164ZM128.977 23.5664H126.68V30.5508H128.543C129.637 30.5508 130.547 30.4336 131.273 30.1992C132.008 29.9648 132.559 29.5859 132.926 29.0625C133.293 28.5312 133.477 27.8281 133.477 26.9531C133.477 25.8125 133.113 24.9648 132.387 24.4102C131.66 23.8477 130.523 23.5664 128.977 23.5664ZM149.906 32.5547C149.906 33.6094 149.77 34.5508 149.496 35.3789C149.223 36.207 148.828 36.9062 148.312 37.4766C147.797 38.0469 147.172 38.4844 146.438 38.7891C145.711 39.0859 144.887 39.2344 143.965 39.2344C143.105 39.2344 142.316 39.0859 141.598 38.7891C140.887 38.4844 140.27 38.0469 139.746 37.4766C139.23 36.9062 138.828 36.207 138.539 35.3789C138.258 34.5508 138.117 33.6094 138.117 32.5547C138.117 31.1484 138.355 29.9531 138.832 28.9688C139.309 27.9766 139.988 27.2227 140.871 26.707C141.762 26.1836 142.82 25.9219 144.047 25.9219C145.219 25.9219 146.242 26.1836 147.117 26.707C148 27.2305 148.684 27.9883 149.168 28.9805C149.66 29.9648 149.906 31.1562 149.906 32.5547ZM140.133 32.5547C140.133 33.5859 140.27 34.4805 140.543 35.2383C140.816 35.9961 141.238 36.582 141.809 36.9961C142.379 37.4102 143.113 37.6172 144.012 37.6172C144.902 37.6172 145.633 37.4102 146.203 36.9961C146.781 36.582 147.207 35.9961 147.48 35.2383C147.754 34.4805 147.891 33.5859 147.891 32.5547C147.891 31.5312 147.754 30.6484 147.48 29.9062C147.207 29.1562 146.785 28.5781 146.215 28.1719C145.645 27.7656 144.906 27.5625 144 27.5625C142.664 27.5625 141.684 28.0039 141.059 28.8867C140.441 29.7695 140.133 30.9922 140.133 32.5547ZM164.344 32.5547C164.344 33.6094 164.207 34.5508 163.934 35.3789C163.66 36.207 163.266 36.9062 162.75 37.4766C162.234 38.0469 161.609 38.4844 160.875 38.7891C160.148 39.0859 159.324 39.2344 158.402 39.2344C157.543 39.2344 156.754 39.0859 156.035 38.7891C155.324 38.4844 154.707 38.0469 154.184 37.4766C153.668 36.9062 153.266 36.207 152.977 35.3789C152.695 34.5508 152.555 33.6094 152.555 32.5547C152.555 31.1484 152.793 29.9531 153.27 28.9688C153.746 27.9766 154.426 27.2227 155.309 26.707C156.199 26.1836 157.258 25.9219 158.484 25.9219C159.656 25.9219 160.68 26.1836 161.555 26.707C162.438 27.2305 163.121 27.9883 163.605 28.9805C164.098 29.9648 164.344 31.1562 164.344 32.5547ZM154.57 32.5547C154.57 33.5859 154.707 34.4805 154.98 35.2383C155.254 35.9961 155.676 36.582 156.246 36.9961C156.816 37.4102 157.551 37.6172 158.449 37.6172C159.34 37.6172 160.07 37.4102 160.641 36.9961C161.219 36.582 161.645 35.9961 161.918 35.2383C162.191 34.4805 162.328 33.5859 162.328 32.5547C162.328 31.5312 162.191 30.6484 161.918 29.9062C161.645 29.1562 161.223 28.5781 160.652 28.1719C160.082 27.7656 159.344 27.5625 158.438 27.5625C157.102 27.5625 156.121 28.0039 155.496 28.8867C154.879 29.7695 154.57 30.9922 154.57 32.5547ZM169.664 39H167.707V20.7656H169.664V39Z" fill="#131313"/>
</svg>
