<svg width="273" height="160" viewBox="0 0 273 160" fill="none" xmlns="http://www.w3.org/2000/svg">
<path d="M15.3281 54H13.3359V45.9258H4.33594V54H2.34375V36.8672H4.33594V44.168H13.3359V36.8672H15.3281V54ZM30.8203 47.5547C30.8203 48.6094 30.6836 49.5508 30.4102 50.3789C30.1367 51.207 29.7422 51.9062 29.2266 52.4766C28.7109 53.0469 28.0859 53.4844 27.3516 53.7891C26.625 54.0859 25.8008 54.2344 24.8789 54.2344C24.0195 54.2344 23.2305 54.0859 22.5117 53.7891C21.8008 53.4844 21.1836 53.0469 20.6602 52.4766C20.1445 51.9062 19.7422 51.207 19.4531 50.3789C19.1719 49.5508 19.0312 48.6094 19.0312 47.5547C19.0312 46.1484 19.2695 44.9531 19.7461 43.9688C20.2227 42.9766 20.9023 42.2227 21.7852 41.707C22.6758 41.1836 23.7344 40.9219 24.9609 40.9219C26.1328 40.9219 27.1562 41.1836 28.0312 41.707C28.9141 42.2305 29.5977 42.9883 30.082 43.9805C30.5742 44.9648 30.8203 46.1562 30.8203 47.5547ZM21.0469 47.5547C21.0469 48.5859 21.1836 49.4805 21.457 50.2383C21.7305 50.9961 22.1523 51.582 22.7227 51.9961C23.293 52.4102 24.0273 52.6172 24.9258 52.6172C25.8164 52.6172 26.5469 52.4102 27.1172 51.9961C27.6953 51.582 28.1211 50.9961 28.3945 50.2383C28.668 49.4805 28.8047 48.5859 28.8047 47.5547C28.8047 46.5312 28.668 45.6484 28.3945 44.9062C28.1211 44.1562 27.6992 43.5781 27.1289 43.1719C26.5586 42.7656 25.8203 42.5625 24.9141 42.5625C23.5781 42.5625 22.5977 43.0039 21.9727 43.8867C21.3555 44.7695 21.0469 45.9922 21.0469 47.5547ZM44.6367 53.9766L42.3516 46.5C42.25 46.1797 42.1523 45.8672 42.0586 45.5625C41.9727 45.25 41.8906 44.9531 41.8125 44.6719C41.7422 44.3828 41.6758 44.1172 41.6133 43.875C41.5586 43.625 41.5117 43.4102 41.4727 43.2305H41.3906C41.3594 43.4102 41.3164 43.625 41.2617 43.875C41.207 44.1172 41.1406 44.3828 41.0625 44.6719C40.9922 44.9609 40.9141 45.2656 40.8281 45.5859C40.7422 45.8984 40.6445 46.2148 40.5352 46.5352L38.1445 53.9766H35.9531L32.4141 41.1328H34.4297L36.2812 48.2227C36.4062 48.6914 36.5234 49.1562 36.6328 49.6172C36.75 50.0703 36.8477 50.5 36.9258 50.9062C37.0117 51.3047 37.0742 51.6523 37.1133 51.9492H37.207C37.2539 51.7539 37.3047 51.5195 37.3594 51.2461C37.4219 50.9727 37.4883 50.6836 37.5586 50.3789C37.6367 50.0664 37.7188 49.7578 37.8047 49.4531C37.8906 49.1406 37.9766 48.8477 38.0625 48.5742L40.4297 41.1328H42.5273L44.8125 48.5625C44.9297 48.9375 45.043 49.3281 45.1523 49.7344C45.2695 50.1406 45.375 50.5352 45.4688 50.918C45.5625 51.293 45.6289 51.6289 45.668 51.9258H45.7617C45.793 51.6602 45.8516 51.332 45.9375 50.9414C46.0234 50.5508 46.1211 50.1211 46.2305 49.6523C46.3477 49.1836 46.4688 48.707 46.5938 48.2227L48.4688 41.1328H50.4492L46.8984 53.9766H44.6367ZM64.582 54H62.5781V38.625H57.1875V36.8672H69.9492V38.625H64.582V54ZM83.3203 47.5547C83.3203 48.6094 83.1836 49.5508 82.9102 50.3789C82.6367 51.207 82.2422 51.9062 81.7266 52.4766C81.2109 53.0469 80.5859 53.4844 79.8516 53.7891C79.125 54.0859 78.3008 54.2344 77.3789 54.2344C76.5195 54.2344 75.7305 54.0859 75.0117 53.7891C74.3008 53.4844 73.6836 53.0469 73.1602 52.4766C72.6445 51.9062 72.2422 51.207 71.9531 50.3789C71.6719 49.5508 71.5312 48.6094 71.5312 47.5547C71.5312 46.1484 71.7695 44.9531 72.2461 43.9688C72.7227 42.9766 73.4023 42.2227 74.2852 41.707C75.1758 41.1836 76.2344 40.9219 77.4609 40.9219C78.6328 40.9219 79.6562 41.1836 80.5312 41.707C81.4141 42.2305 82.0977 42.9883 82.582 43.9805C83.0742 44.9648 83.3203 46.1562 83.3203 47.5547ZM73.5469 47.5547C73.5469 48.5859 73.6836 49.4805 73.957 50.2383C74.2305 50.9961 74.6523 51.582 75.2227 51.9961C75.793 52.4102 76.5273 52.6172 77.4258 52.6172C78.3164 52.6172 79.0469 52.4102 79.6172 51.9961C80.1953 51.582 80.6211 50.9961 80.8945 50.2383C81.168 49.4805 81.3047 48.5859 81.3047 47.5547C81.3047 46.5312 81.168 45.6484 80.8945 44.9062C80.6211 44.1562 80.1992 43.5781 79.6289 43.1719C79.0586 42.7656 78.3203 42.5625 77.4141 42.5625C76.0781 42.5625 75.0977 43.0039 74.4727 43.8867C73.8555 44.7695 73.5469 45.9922 73.5469 47.5547ZM98.4727 54H96.4688V38.625H91.0781V36.8672H103.84V38.625H98.4727V54ZM111.973 40.9219C112.23 40.9219 112.5 40.9375 112.781 40.9688C113.062 40.9922 113.312 41.0273 113.531 41.0742L113.285 42.8789C113.074 42.8242 112.84 42.7812 112.582 42.75C112.324 42.7188 112.082 42.7031 111.855 42.7031C111.34 42.7031 110.852 42.8086 110.391 43.0195C109.938 43.2227 109.539 43.5195 109.195 43.9102C108.852 44.293 108.582 44.7578 108.387 45.3047C108.191 45.8438 108.094 46.4453 108.094 47.1094V54H106.137V41.1562H107.754L107.965 43.5234H108.047C108.312 43.0469 108.633 42.6133 109.008 42.2227C109.383 41.8242 109.816 41.5078 110.309 41.2734C110.809 41.0391 111.363 40.9219 111.973 40.9219ZM120.762 40.9453C122.293 40.9453 123.43 41.2891 124.172 41.9766C124.914 42.6641 125.285 43.7617 125.285 45.2695V54H123.867L123.492 52.1016H123.398C123.039 52.5703 122.664 52.9648 122.273 53.2852C121.883 53.5977 121.43 53.8359 120.914 54C120.406 54.1562 119.781 54.2344 119.039 54.2344C118.258 54.2344 117.562 54.0977 116.953 53.8242C116.352 53.5508 115.875 53.1367 115.523 52.582C115.18 52.0273 115.008 51.3242 115.008 50.4727C115.008 49.1914 115.516 48.207 116.531 47.5195C117.547 46.832 119.094 46.457 121.172 46.3945L123.387 46.3008V45.5156C123.387 44.4062 123.148 43.6289 122.672 43.1836C122.195 42.7383 121.523 42.5156 120.656 42.5156C119.984 42.5156 119.344 42.6133 118.734 42.8086C118.125 43.0039 117.547 43.2344 117 43.5L116.402 42.0234C116.98 41.7266 117.645 41.4727 118.395 41.2617C119.145 41.0508 119.934 40.9453 120.762 40.9453ZM123.363 47.6719L121.406 47.7539C119.805 47.8164 118.676 48.0781 118.02 48.5391C117.363 49 117.035 49.6523 117.035 50.4961C117.035 51.2305 117.258 51.7734 117.703 52.125C118.148 52.4766 118.738 52.6523 119.473 52.6523C120.613 52.6523 121.547 52.3359 122.273 51.7031C123 51.0703 123.363 50.1211 123.363 48.8555V47.6719ZM132.117 54L127.242 41.1562H129.328L132.152 48.9258C132.348 49.457 132.547 50.043 132.75 50.6836C132.953 51.3242 133.094 51.8398 133.172 52.2305H133.254C133.348 51.8398 133.504 51.3242 133.723 50.6836C133.941 50.0352 134.141 49.4492 134.32 48.9258L137.145 41.1562H139.23L134.344 54H132.117ZM146.238 40.9219C147.332 40.9219 148.27 41.1641 149.051 41.6484C149.832 42.1328 150.43 42.8125 150.844 43.6875C151.258 44.5547 151.465 45.5703 151.465 46.7344V47.9414H142.594C142.617 49.4492 142.992 50.5977 143.719 51.3867C144.445 52.1758 145.469 52.5703 146.789 52.5703C147.602 52.5703 148.32 52.4961 148.945 52.3477C149.57 52.1992 150.219 51.9805 150.891 51.6914V53.4023C150.242 53.6914 149.598 53.9023 148.957 54.0352C148.324 54.168 147.574 54.2344 146.707 54.2344C145.473 54.2344 144.395 53.9844 143.473 53.4844C142.559 52.9766 141.848 52.2344 141.34 51.2578C140.832 50.2812 140.578 49.0859 140.578 47.6719C140.578 46.2891 140.809 45.0938 141.27 44.0859C141.738 43.0703 142.395 42.2891 143.238 41.7422C144.09 41.1953 145.09 40.9219 146.238 40.9219ZM146.215 42.5156C145.176 42.5156 144.348 42.8555 143.73 43.5352C143.113 44.2148 142.746 45.1641 142.629 46.3828H149.426C149.418 45.6172 149.297 44.9453 149.062 44.3672C148.836 43.7812 148.488 43.3281 148.02 43.0078C147.551 42.6797 146.949 42.5156 146.215 42.5156ZM156.727 54H154.77V35.7656H156.727V54ZM186.832 36.8672L182.25 54H180.246L176.848 42.4688C176.746 42.1406 176.648 41.8125 176.555 41.4844C176.469 41.1484 176.387 40.832 176.309 40.5352C176.23 40.2305 176.164 39.9648 176.109 39.7383C176.062 39.5039 176.027 39.3281 176.004 39.2109C175.988 39.3281 175.957 39.5 175.91 39.7266C175.871 39.9531 175.816 40.2148 175.746 40.5117C175.684 40.8086 175.605 41.125 175.512 41.4609C175.426 41.7969 175.332 42.1367 175.23 42.4805L171.926 54H169.922L165.375 36.8672H167.449L170.203 47.6133C170.297 47.9727 170.383 48.3281 170.461 48.6797C170.547 49.0234 170.621 49.3594 170.684 49.6875C170.754 50.0156 170.816 50.3359 170.871 50.6484C170.926 50.9609 170.977 51.2656 171.023 51.5625C171.062 51.2578 171.113 50.9414 171.176 50.6133C171.238 50.2773 171.305 49.9375 171.375 49.5938C171.453 49.25 171.535 48.9023 171.621 48.5508C171.715 48.1992 171.812 47.8477 171.914 47.4961L174.996 36.8672H177.047L180.258 47.5781C180.367 47.9453 180.469 48.3086 180.562 48.668C180.656 49.0273 180.738 49.3789 180.809 49.7227C180.887 50.0586 180.953 50.3828 181.008 50.6953C181.07 51 181.125 51.2891 181.172 51.5625C181.227 51.1797 181.293 50.7773 181.371 50.3555C181.449 49.9336 181.539 49.4922 181.641 49.0312C181.75 48.5703 181.867 48.0938 181.992 47.6016L184.746 36.8672H186.832ZM191.191 41.1562V54H189.246V41.1562H191.191ZM190.242 36.3516C190.562 36.3516 190.836 36.457 191.062 36.668C191.297 36.8711 191.414 37.1914 191.414 37.6289C191.414 38.0586 191.297 38.3789 191.062 38.5898C190.836 38.8008 190.562 38.9062 190.242 38.9062C189.906 38.9062 189.625 38.8008 189.398 38.5898C189.18 38.3789 189.07 38.0586 189.07 37.6289C189.07 37.1914 189.18 36.8711 189.398 36.668C189.625 36.457 189.906 36.3516 190.242 36.3516ZM199.465 52.6406C199.785 52.6406 200.113 52.6133 200.449 52.5586C200.785 52.5039 201.059 52.4375 201.27 52.3594V53.8711C201.043 53.9727 200.727 54.0586 200.32 54.1289C199.922 54.1992 199.531 54.2344 199.148 54.2344C198.469 54.2344 197.852 54.1172 197.297 53.8828C196.742 53.6406 196.297 53.2344 195.961 52.6641C195.633 52.0938 195.469 51.3047 195.469 50.2969V42.6797H193.641V41.7305L195.48 40.9688L196.254 38.1797H197.426V41.1562H201.188V42.6797H197.426V50.2383C197.426 51.043 197.609 51.6445 197.977 52.043C198.352 52.4414 198.848 52.6406 199.465 52.6406ZM205.816 35.7656V41.2148C205.816 41.5273 205.809 41.8438 205.793 42.1641C205.777 42.4766 205.75 42.7656 205.711 43.0312H205.84C206.105 42.5781 206.441 42.1992 206.848 41.8945C207.262 41.582 207.73 41.3477 208.254 41.1914C208.777 41.0273 209.332 40.9453 209.918 40.9453C210.949 40.9453 211.809 41.1094 212.496 41.4375C213.191 41.7656 213.711 42.2734 214.055 42.9609C214.406 43.6484 214.582 44.5391 214.582 45.6328V54H212.66V45.7617C212.66 44.6914 212.414 43.8906 211.922 43.3594C211.438 42.8281 210.691 42.5625 209.684 42.5625C208.73 42.5625 207.969 42.7461 207.398 43.1133C206.836 43.4727 206.43 44.0039 206.18 44.707C205.938 45.4102 205.816 46.2695 205.816 47.2852V54H203.871V35.7656H205.816ZM232.652 54L226.898 38.8359H226.805C226.836 39.1562 226.863 39.5469 226.887 40.0078C226.91 40.4688 226.93 40.9727 226.945 41.5195C226.961 42.0586 226.969 42.6094 226.969 43.1719V54H225.117V36.8672H228.07L233.496 51.1172H233.578L239.086 36.8672H242.016V54H240.047V43.0312C240.047 42.5234 240.055 42.0156 240.07 41.5078C240.086 40.9922 240.105 40.5078 240.129 40.0547C240.152 39.5938 240.176 39.1953 240.199 38.8594H240.105L234.281 54H232.652ZM251.215 40.9453C252.746 40.9453 253.883 41.2891 254.625 41.9766C255.367 42.6641 255.738 43.7617 255.738 45.2695V54H254.32L253.945 52.1016H253.852C253.492 52.5703 253.117 52.9648 252.727 53.2852C252.336 53.5977 251.883 53.8359 251.367 54C250.859 54.1562 250.234 54.2344 249.492 54.2344C248.711 54.2344 248.016 54.0977 247.406 53.8242C246.805 53.5508 246.328 53.1367 245.977 52.582C245.633 52.0273 245.461 51.3242 245.461 50.4727C245.461 49.1914 245.969 48.207 246.984 47.5195C248 46.832 249.547 46.457 251.625 46.3945L253.84 46.3008V45.5156C253.84 44.4062 253.602 43.6289 253.125 43.1836C252.648 42.7383 251.977 42.5156 251.109 42.5156C250.438 42.5156 249.797 42.6133 249.188 42.8086C248.578 43.0039 248 43.2344 247.453 43.5L246.855 42.0234C247.434 41.7266 248.098 41.4727 248.848 41.2617C249.598 41.0508 250.387 40.9453 251.215 40.9453ZM253.816 47.6719L251.859 47.7539C250.258 47.8164 249.129 48.0781 248.473 48.5391C247.816 49 247.488 49.6523 247.488 50.4961C247.488 51.2305 247.711 51.7734 248.156 52.125C248.602 52.4766 249.191 52.6523 249.926 52.6523C251.066 52.6523 252 52.3359 252.727 51.7031C253.453 51.0703 253.816 50.1211 253.816 48.8555V47.6719ZM265.781 40.9219C267.383 40.9219 268.66 41.4727 269.613 42.5742C270.566 43.6758 271.043 45.332 271.043 47.543C271.043 49.0039 270.824 50.2305 270.387 51.2227C269.949 52.2148 269.332 52.9648 268.535 53.4727C267.746 53.9805 266.812 54.2344 265.734 54.2344C265.055 54.2344 264.457 54.1445 263.941 53.9648C263.426 53.7852 262.984 53.543 262.617 53.2383C262.25 52.9336 261.945 52.6016 261.703 52.2422H261.562C261.586 52.5469 261.613 52.9141 261.645 53.3438C261.684 53.7734 261.703 54.1484 261.703 54.4688V59.7422H259.746V41.1562H261.352L261.609 43.0547H261.703C261.953 42.6641 262.258 42.3086 262.617 41.9883C262.977 41.6602 263.414 41.4023 263.93 41.2148C264.453 41.0195 265.07 40.9219 265.781 40.9219ZM265.441 42.5625C264.551 42.5625 263.832 42.7344 263.285 43.0781C262.746 43.4219 262.352 43.9375 262.102 44.625C261.852 45.3047 261.719 46.1602 261.703 47.1914V47.5664C261.703 48.6523 261.82 49.5703 262.055 50.3203C262.297 51.0703 262.691 51.6406 263.238 52.0312C263.793 52.4219 264.535 52.6172 265.465 52.6172C266.262 52.6172 266.926 52.4023 267.457 51.9727C267.988 51.543 268.383 50.9453 268.641 50.1797C268.906 49.4062 269.039 48.5195 269.039 47.5195C269.039 46.0039 268.742 44.8008 268.148 43.9102C267.562 43.0117 266.66 42.5625 265.441 42.5625Z" fill="#131313"/>
<path d="M1.125 88V77.635H2.415V86.86H6.81V88H1.125ZM11.0698 81.955C10.6898 81.955 10.3598 82.04 10.0798 82.21C9.80977 82.38 9.60977 82.6 9.47977 82.87C9.23977 83.38 9.11977 83.925 9.11977 84.505C9.11977 86.305 9.74477 87.205 10.9948 87.205C11.3748 87.205 11.6998 87.12 11.9698 86.95C12.2398 86.78 12.4448 86.56 12.5848 86.29C12.8248 85.79 12.9448 85.245 12.9448 84.655C12.9448 82.855 12.3198 81.955 11.0698 81.955ZM11.0698 80.98C12.1798 80.98 12.9898 81.325 13.4998 82.015C14.0098 82.705 14.2648 83.605 14.2648 84.715C14.2648 85.515 14.0548 86.255 13.6348 86.935C13.4048 87.305 13.0598 87.605 12.5998 87.835C12.1398 88.065 11.5898 88.18 10.9498 88.18C9.84977 88.18 9.04977 87.85 8.54977 87.19C8.04977 86.53 7.79977 85.645 7.79977 84.535C7.79977 83.885 7.89977 83.335 8.09977 82.885C8.30977 82.435 8.52977 82.09 8.75977 81.85C8.98977 81.6 9.30477 81.395 9.70477 81.235C10.1048 81.065 10.5598 80.98 11.0698 80.98ZM16.2552 81.16H17.0652L17.4402 82.36H17.5002C18.0502 81.65 18.8052 81.22 19.7652 81.07L19.9002 82.255C19.4302 82.285 18.9752 82.405 18.5352 82.615C18.0952 82.825 17.7602 83.105 17.5302 83.455V88H16.2552V81.16ZM24.0316 87.13C24.7516 87.13 25.4716 86.915 26.1916 86.485L26.6266 87.385C25.7866 87.915 24.8866 88.18 23.9266 88.18C22.9766 88.18 22.2216 87.88 21.6616 87.28C21.1016 86.67 20.8216 85.795 20.8216 84.655C20.8216 83.515 21.1116 82.62 21.6916 81.97C22.2716 81.31 23.0416 80.98 24.0016 80.98C24.8716 80.98 25.5566 81.25 26.0566 81.79C26.2666 82.01 26.4416 82.33 26.5816 82.75C26.7316 83.17 26.8066 83.665 26.8066 84.235L26.3416 84.76H22.0966C22.1266 86.34 22.7716 87.13 24.0316 87.13ZM25.5466 83.815C25.5466 83.255 25.4016 82.805 25.1116 82.465C24.8216 82.125 24.4366 81.955 23.9566 81.955C23.4866 81.955 23.0866 82.125 22.7566 82.465C22.4266 82.795 22.2266 83.245 22.1566 83.815H25.5466ZM29.8615 81.94C30.6015 81.3 31.4215 80.98 32.3215 80.98C33.2215 80.98 33.8365 81.33 34.1665 82.03C34.9565 81.33 35.7865 80.98 36.6565 80.98C37.2965 80.98 37.8015 81.15 38.1715 81.49C38.5515 81.83 38.7415 82.275 38.7415 82.825V88H37.4665V82.885C37.4665 82.625 37.3715 82.425 37.1815 82.285C36.9915 82.145 36.7365 82.075 36.4165 82.075C35.7665 82.075 35.0715 82.34 34.3315 82.87V88H33.0565V82.885C33.0565 82.625 32.9615 82.425 32.7715 82.285C32.5815 82.145 32.3265 82.075 32.0065 82.075C31.3365 82.075 30.6515 82.33 29.9515 82.84V88H28.6765V81.16H29.4865L29.8615 81.94ZM45.6727 88V77.635H46.9627V88H45.6727ZM52.2405 87.16C52.9905 87.16 53.5705 86.905 53.9805 86.395C54.3905 85.885 54.5955 85.265 54.5955 84.535C54.5955 83.795 54.4155 83.2 54.0555 82.75C53.7055 82.3 53.2205 82.075 52.6005 82.075C52.3605 82.075 52.0755 82.145 51.7455 82.285C51.4155 82.425 51.1205 82.61 50.8605 82.84V86.89C51.3305 87.07 51.7905 87.16 52.2405 87.16ZM50.8605 91.45H49.6155V81.16H50.4255L50.7705 81.94C51.5005 81.3 52.2755 80.98 53.0955 80.98C53.9155 80.98 54.5855 81.3 55.1055 81.94C55.6255 82.58 55.8855 83.415 55.8855 84.445C55.8855 85.465 55.5805 86.345 54.9705 87.085C54.3705 87.815 53.5105 88.18 52.3905 88.18C51.8905 88.18 51.3805 88.11 50.8605 87.97V91.45ZM61.4089 82.36C60.8989 82.14 60.4189 82.03 59.9689 82.03C59.0989 82.03 58.6639 82.295 58.6639 82.825C58.6639 83.285 59.2439 83.73 60.4039 84.16C60.8339 84.32 61.2289 84.57 61.5889 84.91C61.9589 85.25 62.1439 85.66 62.1439 86.14C62.1439 86.83 61.9189 87.345 61.4689 87.685C61.0189 88.015 60.3939 88.18 59.5939 88.18C58.7939 88.18 58.0139 87.96 57.2539 87.52L57.6289 86.59C58.2589 86.95 58.9739 87.13 59.7739 87.13C60.1139 87.13 60.3889 87.06 60.5989 86.92C60.8089 86.77 60.9139 86.57 60.9139 86.32C60.9139 86.07 60.7939 85.855 60.5539 85.675C60.3139 85.495 60.0239 85.335 59.6839 85.195C59.3439 85.055 59.0039 84.905 58.6639 84.745C58.3239 84.575 58.0339 84.34 57.7939 84.04C57.5539 83.74 57.4339 83.385 57.4339 82.975C57.4339 82.335 57.6489 81.845 58.0789 81.505C58.5189 81.155 59.0739 80.98 59.7439 80.98C60.4139 80.98 61.0939 81.13 61.7839 81.43L61.4089 82.36ZM65.1708 81.16V86.245C65.1708 86.525 65.2708 86.745 65.4708 86.905C65.6808 87.055 65.9508 87.13 66.2808 87.13C66.9908 87.13 67.7208 86.85 68.4708 86.29V81.16H69.7458V88H68.9358L68.5608 87.1C67.7908 87.82 66.9358 88.18 65.9958 88.18C65.3958 88.18 64.8958 88.02 64.4958 87.7C64.0958 87.38 63.8958 86.915 63.8958 86.305V81.16H65.1708ZM73.3949 81.94C74.1349 81.3 74.9549 80.98 75.8549 80.98C76.7549 80.98 77.3699 81.33 77.6999 82.03C78.4899 81.33 79.3199 80.98 80.1899 80.98C80.8299 80.98 81.3349 81.15 81.7049 81.49C82.0849 81.83 82.2749 82.275 82.2749 82.825V88H80.9999V82.885C80.9999 82.625 80.9049 82.425 80.7149 82.285C80.5249 82.145 80.2699 82.075 79.9499 82.075C79.2999 82.075 78.6049 82.34 77.8649 82.87V88H76.5899V82.885C76.5899 82.625 76.4949 82.425 76.3049 82.285C76.1149 82.145 75.8599 82.075 75.5399 82.075C74.8699 82.075 74.1849 82.33 73.4849 82.84V88H72.2099V81.16H73.0199L73.3949 81.94ZM90.3461 79.555C90.1861 79.715 89.9911 79.795 89.7611 79.795C89.5311 79.795 89.3361 79.715 89.1761 79.555C89.0161 79.385 88.9361 79.185 88.9361 78.955C88.9361 78.725 89.0161 78.53 89.1761 78.37C89.3461 78.2 89.5411 78.115 89.7611 78.115C89.9811 78.115 90.1711 78.2 90.3311 78.37C90.5011 78.53 90.5861 78.725 90.5861 78.955C90.5861 79.185 90.5061 79.385 90.3461 79.555ZM89.1311 81.16H90.4061V88H89.1311V81.16ZM96.4978 82.36C95.9878 82.14 95.5078 82.03 95.0578 82.03C94.1878 82.03 93.7528 82.295 93.7528 82.825C93.7528 83.285 94.3328 83.73 95.4928 84.16C95.9228 84.32 96.3178 84.57 96.6778 84.91C97.0478 85.25 97.2328 85.66 97.2328 86.14C97.2328 86.83 97.0078 87.345 96.5578 87.685C96.1078 88.015 95.4828 88.18 94.6828 88.18C93.8828 88.18 93.1028 87.96 92.3428 87.52L92.7178 86.59C93.3478 86.95 94.0628 87.13 94.8628 87.13C95.2028 87.13 95.4778 87.06 95.6878 86.92C95.8978 86.77 96.0028 86.57 96.0028 86.32C96.0028 86.07 95.8828 85.855 95.6428 85.675C95.4028 85.495 95.1128 85.335 94.7728 85.195C94.4328 85.055 94.0928 84.905 93.7528 84.745C93.4128 84.575 93.1228 84.34 92.8828 84.04C92.6428 83.74 92.5228 83.385 92.5228 82.975C92.5228 82.335 92.7378 81.845 93.1678 81.505C93.6078 81.155 94.1628 80.98 94.8328 80.98C95.5028 80.98 96.1828 81.13 96.8728 81.43L96.4978 82.36ZM106.898 82.36C106.388 82.14 105.908 82.03 105.458 82.03C104.588 82.03 104.153 82.295 104.153 82.825C104.153 83.285 104.733 83.73 105.893 84.16C106.323 84.32 106.718 84.57 107.078 84.91C107.448 85.25 107.633 85.66 107.633 86.14C107.633 86.83 107.408 87.345 106.958 87.685C106.508 88.015 105.883 88.18 105.083 88.18C104.283 88.18 103.503 87.96 102.743 87.52L103.118 86.59C103.748 86.95 104.463 87.13 105.263 87.13C105.603 87.13 105.878 87.06 106.088 86.92C106.298 86.77 106.403 86.57 106.403 86.32C106.403 86.07 106.283 85.855 106.043 85.675C105.803 85.495 105.513 85.335 105.173 85.195C104.833 85.055 104.493 84.905 104.153 84.745C103.813 84.575 103.523 84.34 103.283 84.04C103.043 83.74 102.923 83.385 102.923 82.975C102.923 82.335 103.138 81.845 103.568 81.505C104.008 81.155 104.563 80.98 105.233 80.98C105.903 80.98 106.583 81.13 107.273 81.43L106.898 82.36ZM110.779 79.555C110.619 79.715 110.424 79.795 110.194 79.795C109.964 79.795 109.769 79.715 109.609 79.555C109.449 79.385 109.369 79.185 109.369 78.955C109.369 78.725 109.449 78.53 109.609 78.37C109.779 78.2 109.974 78.115 110.194 78.115C110.414 78.115 110.604 78.2 110.764 78.37C110.934 78.53 111.019 78.725 111.019 78.955C111.019 79.185 110.939 79.385 110.779 79.555ZM109.564 81.16H110.839V88H109.564V81.16ZM114.606 81.94C115.346 81.3 116.166 80.98 117.066 80.98C117.966 80.98 118.581 81.33 118.911 82.03C119.701 81.33 120.531 80.98 121.401 80.98C122.041 80.98 122.546 81.15 122.916 81.49C123.296 81.83 123.486 82.275 123.486 82.825V88H122.211V82.885C122.211 82.625 122.116 82.425 121.926 82.285C121.736 82.145 121.481 82.075 121.161 82.075C120.511 82.075 119.816 82.34 119.076 82.87V88H117.801V82.885C117.801 82.625 117.706 82.425 117.516 82.285C117.326 82.145 117.071 82.075 116.751 82.075C116.081 82.075 115.396 82.33 114.696 82.84V88H113.421V81.16H114.231L114.606 81.94ZM128.504 87.16C129.254 87.16 129.834 86.905 130.244 86.395C130.654 85.885 130.859 85.265 130.859 84.535C130.859 83.795 130.679 83.2 130.319 82.75C129.969 82.3 129.484 82.075 128.864 82.075C128.624 82.075 128.339 82.145 128.009 82.285C127.679 82.425 127.384 82.61 127.124 82.84V86.89C127.594 87.07 128.054 87.16 128.504 87.16ZM127.124 91.45H125.879V81.16H126.689L127.034 81.94C127.764 81.3 128.539 80.98 129.359 80.98C130.179 80.98 130.849 81.3 131.369 81.94C131.889 82.58 132.149 83.415 132.149 84.445C132.149 85.465 131.844 86.345 131.234 87.085C130.634 87.815 129.774 88.18 128.654 88.18C128.154 88.18 127.644 88.11 127.124 87.97V91.45ZM134.103 77.23H135.333V88H134.103V77.23ZM140.129 89.215C139.799 90.175 139.494 90.815 139.214 91.135C138.944 91.465 138.539 91.63 137.999 91.63C137.459 91.63 136.864 91.48 136.214 91.18L136.679 90.205C137.109 90.435 137.479 90.55 137.789 90.55C138.059 90.55 138.239 90.505 138.329 90.415L138.524 90.22C138.654 90.09 138.769 89.865 138.869 89.545C138.969 89.225 139.049 88.975 139.109 88.795C139.169 88.625 139.214 88.49 139.244 88.39L136.739 81.16H138.029L139.799 86.635H139.859L141.629 81.16H142.919L140.129 89.215ZM153.335 77.23H154.565V88H153.755L153.38 87.1C152.63 87.82 151.855 88.18 151.055 88.18C150.265 88.18 149.61 87.875 149.09 87.265C148.57 86.645 148.31 85.81 148.31 84.76C148.31 83.71 148.62 82.835 149.24 82.135C149.86 81.425 150.66 81.07 151.64 81.07C152.17 81.07 152.735 81.19 153.335 81.43V77.23ZM151.955 82.09C151.205 82.09 150.625 82.345 150.215 82.855C149.805 83.365 149.6 83.985 149.6 84.715C149.6 85.445 149.77 86.03 150.11 86.47C150.45 86.91 150.89 87.13 151.43 87.13C151.73 87.13 152.05 87.05 152.39 86.89C152.74 86.72 153.055 86.49 153.335 86.2V82.36C152.865 82.18 152.405 82.09 151.955 82.09ZM158.184 81.16V86.245C158.184 86.525 158.284 86.745 158.484 86.905C158.694 87.055 158.964 87.13 159.294 87.13C160.004 87.13 160.734 86.85 161.484 86.29V81.16H162.759V88H161.949L161.574 87.1C160.804 87.82 159.949 88.18 159.009 88.18C158.409 88.18 157.909 88.02 157.509 87.7C157.109 87.38 156.909 86.915 156.909 86.305V81.16H158.184ZM166.408 81.94C167.148 81.3 167.968 80.98 168.868 80.98C169.768 80.98 170.383 81.33 170.713 82.03C171.503 81.33 172.333 80.98 173.203 80.98C173.843 80.98 174.348 81.15 174.718 81.49C175.098 81.83 175.288 82.275 175.288 82.825V88H174.013V82.885C174.013 82.625 173.918 82.425 173.728 82.285C173.538 82.145 173.283 82.075 172.963 82.075C172.313 82.075 171.618 82.34 170.878 82.87V88H169.603V82.885C169.603 82.625 169.508 82.425 169.318 82.285C169.128 82.145 168.873 82.075 168.553 82.075C167.883 82.075 167.198 82.33 166.498 82.84V88H165.223V81.16H166.033L166.408 81.94ZM178.867 81.94C179.607 81.3 180.427 80.98 181.327 80.98C182.227 80.98 182.842 81.33 183.172 82.03C183.962 81.33 184.792 80.98 185.662 80.98C186.302 80.98 186.807 81.15 187.177 81.49C187.557 81.83 187.747 82.275 187.747 82.825V88H186.472V82.885C186.472 82.625 186.377 82.425 186.187 82.285C185.997 82.145 185.742 82.075 185.422 82.075C184.772 82.075 184.077 82.34 183.337 82.87V88H182.062V82.885C182.062 82.625 181.967 82.425 181.777 82.285C181.587 82.145 181.332 82.075 181.012 82.075C180.342 82.075 179.657 82.33 178.957 82.84V88H177.682V81.16H178.492L178.867 81.94ZM192.54 89.215C192.21 90.175 191.905 90.815 191.625 91.135C191.355 91.465 190.95 91.63 190.41 91.63C189.87 91.63 189.275 91.48 188.625 91.18L189.09 90.205C189.52 90.435 189.89 90.55 190.2 90.55C190.47 90.55 190.65 90.505 190.74 90.415L190.935 90.22C191.065 90.09 191.18 89.865 191.28 89.545C191.38 89.225 191.46 88.975 191.52 88.795C191.58 88.625 191.625 88.49 191.655 88.39L189.15 81.16H190.44L192.21 86.635H192.27L194.04 81.16H195.33L192.54 89.215ZM202.67 82.105V86.215C202.67 86.815 202.955 87.115 203.525 87.115C203.855 87.115 204.25 87.02 204.71 86.83L204.875 87.835C204.385 88.065 203.87 88.18 203.33 88.18C202.79 88.18 202.34 88.02 201.98 87.7C201.62 87.37 201.44 86.87 201.44 86.2V82.105H200.495V81.16H201.44V79.81L202.37 78.955H202.67V81.16H204.605V82.105H202.67ZM209.268 87.13C209.988 87.13 210.708 86.915 211.428 86.485L211.863 87.385C211.023 87.915 210.123 88.18 209.163 88.18C208.213 88.18 207.458 87.88 206.898 87.28C206.338 86.67 206.058 85.795 206.058 84.655C206.058 83.515 206.348 82.62 206.928 81.97C207.508 81.31 208.278 80.98 209.238 80.98C210.108 80.98 210.793 81.25 211.293 81.79C211.503 82.01 211.678 82.33 211.818 82.75C211.968 83.17 212.043 83.665 212.043 84.235L211.578 84.76H207.333C207.363 86.34 208.008 87.13 209.268 87.13ZM210.783 83.815C210.783 83.255 210.638 82.805 210.348 82.465C210.058 82.125 209.673 81.955 209.193 81.955C208.723 81.955 208.323 82.125 207.993 82.465C207.663 82.795 207.463 83.245 207.393 83.815H210.783ZM213.043 81.16H214.513L216.238 83.53L217.903 81.16H219.343L216.928 84.49L219.508 88H218.038L216.118 85.375L214.273 88H212.833L215.428 84.43L213.043 81.16ZM222.423 82.105V86.215C222.423 86.815 222.708 87.115 223.278 87.115C223.608 87.115 224.003 87.02 224.463 86.83L224.628 87.835C224.138 88.065 223.623 88.18 223.083 88.18C222.543 88.18 222.093 88.02 221.733 87.7C221.373 87.37 221.193 86.87 221.193 86.2V82.105H220.248V81.16H221.193V79.81L222.123 78.955H222.423V81.16H224.358V82.105H222.423ZM233.424 81.955C233.044 81.955 232.714 82.04 232.434 82.21C232.164 82.38 231.964 82.6 231.834 82.87C231.594 83.38 231.474 83.925 231.474 84.505C231.474 86.305 232.099 87.205 233.349 87.205C233.729 87.205 234.054 87.12 234.324 86.95C234.594 86.78 234.799 86.56 234.939 86.29C235.179 85.79 235.299 85.245 235.299 84.655C235.299 82.855 234.674 81.955 233.424 81.955ZM233.424 80.98C234.534 80.98 235.344 81.325 235.854 82.015C236.364 82.705 236.619 83.605 236.619 84.715C236.619 85.515 236.409 86.255 235.989 86.935C235.759 87.305 235.414 87.605 234.954 87.835C234.494 88.065 233.944 88.18 233.304 88.18C232.204 88.18 231.404 87.85 230.904 87.19C230.404 86.53 230.154 85.645 230.154 84.535C230.154 83.885 230.254 83.335 230.454 82.885C230.664 82.435 230.884 82.09 231.114 81.85C231.344 81.6 231.659 81.395 232.059 81.235C232.459 81.065 232.914 80.98 233.424 80.98ZM238.954 81.16V79.345C238.954 78.605 239.129 78.04 239.479 77.65C239.829 77.25 240.284 77.05 240.844 77.05C241.414 77.05 242.019 77.2 242.659 77.5L242.224 78.4C241.784 78.22 241.404 78.13 241.084 78.13C240.484 78.13 240.184 78.53 240.184 79.33V81.16H242.044V82.105H240.184V88H238.954V82.105H237.934V81.16H238.954ZM2.61 107.105V111.215C2.61 111.815 2.895 112.115 3.465 112.115C3.795 112.115 4.19 112.02 4.65 111.83L4.815 112.835C4.325 113.065 3.81 113.18 3.27 113.18C2.73 113.18 2.28 113.02 1.92 112.7C1.56 112.37 1.38 111.87 1.38 111.2V107.105H0.435V106.16H1.38V104.81L2.31 103.955H2.61V106.16H4.545V107.105H2.61ZM7.67801 102.23V106.865C8.42801 106.275 9.23301 105.98 10.093 105.98C10.763 105.98 11.293 106.15 11.683 106.49C12.083 106.82 12.283 107.255 12.283 107.795V113H11.008V107.885C11.008 107.625 10.903 107.425 10.693 107.285C10.493 107.145 10.223 107.075 9.88301 107.075C9.17301 107.075 8.43801 107.33 7.67801 107.84V113H6.40301V102.23H7.67801ZM17.4328 112.13C18.1528 112.13 18.8728 111.915 19.5928 111.485L20.0278 112.385C19.1878 112.915 18.2878 113.18 17.3278 113.18C16.3778 113.18 15.6228 112.88 15.0628 112.28C14.5028 111.67 14.2228 110.795 14.2228 109.655C14.2228 108.515 14.5128 107.62 15.0928 106.97C15.6728 106.31 16.4428 105.98 17.4028 105.98C18.2728 105.98 18.9578 106.25 19.4578 106.79C19.6678 107.01 19.8428 107.33 19.9828 107.75C20.1328 108.17 20.2078 108.665 20.2078 109.235L19.7428 109.76H15.4978C15.5278 111.34 16.1728 112.13 17.4328 112.13ZM18.9478 108.815C18.9478 108.255 18.8028 107.805 18.5128 107.465C18.2228 107.125 17.8378 106.955 17.3578 106.955C16.8878 106.955 16.4878 107.125 16.1578 107.465C15.8278 107.795 15.6278 108.245 15.5578 108.815H18.9478ZM29.0456 112.16C29.7956 112.16 30.3756 111.905 30.7856 111.395C31.1956 110.885 31.4006 110.265 31.4006 109.535C31.4006 108.795 31.2206 108.2 30.8606 107.75C30.5106 107.3 30.0256 107.075 29.4056 107.075C29.1656 107.075 28.8806 107.145 28.5506 107.285C28.2206 107.425 27.9256 107.61 27.6656 107.84V111.89C28.1356 112.07 28.5956 112.16 29.0456 112.16ZM27.6656 116.45H26.4206V106.16H27.2306L27.5756 106.94C28.3056 106.3 29.0806 105.98 29.9006 105.98C30.7206 105.98 31.3906 106.3 31.9106 106.94C32.4306 107.58 32.6906 108.415 32.6906 109.445C32.6906 110.465 32.3856 111.345 31.7756 112.085C31.1756 112.815 30.3156 113.18 29.1956 113.18C28.6956 113.18 28.1856 113.11 27.6656 112.97V116.45ZM34.704 106.16H35.514L35.889 107.36H35.949C36.499 106.65 37.254 106.22 38.214 106.07L38.349 107.255C37.879 107.285 37.424 107.405 36.984 107.615C36.544 107.825 36.209 108.105 35.979 108.455V113H34.704V106.16ZM41.0705 104.555C40.9105 104.715 40.7155 104.795 40.4855 104.795C40.2555 104.795 40.0605 104.715 39.9005 104.555C39.7405 104.385 39.6605 104.185 39.6605 103.955C39.6605 103.725 39.7405 103.53 39.9005 103.37C40.0705 103.2 40.2655 103.115 40.4855 103.115C40.7055 103.115 40.8955 103.2 41.0555 103.37C41.2255 103.53 41.3105 103.725 41.3105 103.955C41.3105 104.185 41.2305 104.385 41.0705 104.555ZM39.8555 106.16H41.1305V113H39.8555V106.16ZM49.5922 107.825V113H48.3172V107.885C48.3172 107.625 48.2122 107.425 48.0022 107.285C47.8022 107.145 47.5322 107.075 47.1922 107.075C46.4822 107.075 45.7472 107.33 44.9872 107.84V113H43.7122V106.16H44.5222L44.8972 106.94C45.6672 106.3 46.5022 105.98 47.4022 105.98C48.0722 105.98 48.6022 106.15 48.9922 106.49C49.3922 106.83 49.5922 107.275 49.5922 107.825ZM53.5256 107.105V111.215C53.5256 111.815 53.8106 112.115 54.3806 112.115C54.7106 112.115 55.1056 112.02 55.5656 111.83L55.7306 112.835C55.2406 113.065 54.7256 113.18 54.1856 113.18C53.6456 113.18 53.1956 113.02 52.8356 112.7C52.4756 112.37 52.2956 111.87 52.2956 111.2V107.105H51.3506V106.16H52.2956V104.81L53.2256 103.955H53.5256V106.16H55.4606V107.105H53.5256ZM58.7136 104.555C58.5536 104.715 58.3586 104.795 58.1286 104.795C57.8986 104.795 57.7036 104.715 57.5436 104.555C57.3836 104.385 57.3036 104.185 57.3036 103.955C57.3036 103.725 57.3836 103.53 57.5436 103.37C57.7136 103.2 57.9086 103.115 58.1286 103.115C58.3486 103.115 58.5386 103.2 58.6986 103.37C58.8686 103.53 58.9536 103.725 58.9536 103.955C58.9536 104.185 58.8736 104.385 58.7136 104.555ZM57.4986 106.16H58.7736V113H57.4986V106.16ZM67.2354 107.825V113H65.9604V107.885C65.9604 107.625 65.8554 107.425 65.6454 107.285C65.4454 107.145 65.1754 107.075 64.8354 107.075C64.1254 107.075 63.3904 107.33 62.6304 107.84V113H61.3554V106.16H62.1654L62.5404 106.94C63.3104 106.3 64.1454 105.98 65.0454 105.98C65.7154 105.98 66.2454 106.15 66.6354 106.49C67.0354 106.83 67.2354 107.275 67.2354 107.825ZM71.8738 111.065C71.6438 111.065 71.4238 111.05 71.2138 111.02C70.9638 111.5 70.8388 111.815 70.8388 111.965C70.8388 112.035 70.9288 112.095 71.1088 112.145L72.9388 112.55C73.7888 112.74 74.3938 112.96 74.7538 113.21C75.1138 113.47 75.2938 113.85 75.2938 114.35C75.2938 114.85 75.1188 115.27 74.7688 115.61C74.0888 116.29 73.0888 116.63 71.7688 116.63C70.9588 116.63 70.2588 116.48 69.6688 116.18C69.0788 115.88 68.7838 115.45 68.7838 114.89C68.7838 114.33 69.1838 113.685 69.9838 112.955C69.6838 112.845 69.5338 112.68 69.5338 112.46C69.5338 112.24 69.8288 111.695 70.4188 110.825C69.5588 110.455 69.1288 109.68 69.1288 108.5C69.1288 107.84 69.3588 107.265 69.8188 106.775C70.2888 106.275 70.9738 106.025 71.8738 106.025C72.3938 106.025 72.8488 106.1 73.2388 106.25L75.3388 106.01V107.015H74.2138C74.4738 107.435 74.6038 107.97 74.6038 108.62C74.6038 109.26 74.3738 109.83 73.9138 110.33C73.4538 110.82 72.7738 111.065 71.8738 111.065ZM73.4038 108.725C73.4038 107.485 72.8988 106.865 71.8888 106.865C71.4888 106.865 71.1638 106.97 70.9138 107.18C70.5238 107.52 70.3288 107.945 70.3288 108.455C70.3288 108.955 70.4488 109.375 70.6888 109.715C70.9288 110.055 71.3138 110.225 71.8438 110.225C72.3738 110.225 72.7638 110.065 73.0138 109.745C73.2738 109.415 73.4038 109.075 73.4038 108.725ZM69.9838 114.695C69.9838 115.015 70.1588 115.26 70.5088 115.43C70.8588 115.6 71.3138 115.685 71.8738 115.685C72.4338 115.685 72.9538 115.57 73.4338 115.34C73.9138 115.12 74.1538 114.815 74.1538 114.425C74.1538 114.225 74.0388 114.06 73.8088 113.93C73.5788 113.81 73.1788 113.69 72.6088 113.57L70.8538 113.18C70.2738 113.76 69.9838 114.265 69.9838 114.695ZM85.063 108.905V108.245C85.063 107.435 84.643 107.03 83.803 107.03C83.143 107.03 82.453 107.245 81.733 107.675L81.298 106.775C82.138 106.245 83.043 105.98 84.013 105.98C84.693 105.98 85.248 106.155 85.678 106.505C86.118 106.845 86.338 107.375 86.338 108.095V113H85.528L85.153 112.1C84.833 112.43 84.453 112.695 84.013 112.895C83.573 113.085 83.173 113.18 82.813 113.18C82.193 113.18 81.698 113.01 81.328 112.67C80.958 112.33 80.773 111.885 80.773 111.335C80.773 109.715 82.203 108.905 85.063 108.905ZM82.573 110.36C82.383 110.53 82.253 110.685 82.183 110.825C82.123 110.955 82.093 111.13 82.093 111.35C82.093 111.56 82.183 111.745 82.363 111.905C82.553 112.055 82.798 112.13 83.098 112.13C83.728 112.13 84.383 111.85 85.063 111.29V109.79C83.803 109.81 82.973 110 82.573 110.36ZM94.6121 107.825V113H93.3371V107.885C93.3371 107.625 93.2321 107.425 93.0221 107.285C92.8221 107.145 92.5521 107.075 92.2121 107.075C91.5021 107.075 90.7671 107.33 90.0071 107.84V113H88.7321V106.16H89.5421L89.9171 106.94C90.6871 106.3 91.5221 105.98 92.4221 105.98C93.0921 105.98 93.6221 106.15 94.0121 106.49C94.4121 106.83 94.6121 107.275 94.6121 107.825ZM101.621 102.23H102.851V113H102.041L101.666 112.1C100.916 112.82 100.141 113.18 99.3405 113.18C98.5505 113.18 97.8955 112.875 97.3755 112.265C96.8555 111.645 96.5955 110.81 96.5955 109.76C96.5955 108.71 96.9055 107.835 97.5255 107.135C98.1455 106.425 98.9455 106.07 99.9255 106.07C100.456 106.07 101.021 106.19 101.621 106.43V102.23ZM100.241 107.09C99.4905 107.09 98.9105 107.345 98.5005 107.855C98.0905 108.365 97.8855 108.985 97.8855 109.715C97.8855 110.445 98.0555 111.03 98.3955 111.47C98.7355 111.91 99.1755 112.13 99.7155 112.13C100.016 112.13 100.336 112.05 100.676 111.89C101.026 111.72 101.341 111.49 101.621 111.2V107.36C101.151 107.18 100.691 107.09 100.241 107.09ZM111.128 107.105V111.215C111.128 111.815 111.413 112.115 111.983 112.115C112.313 112.115 112.708 112.02 113.168 111.83L113.333 112.835C112.843 113.065 112.328 113.18 111.788 113.18C111.248 113.18 110.798 113.02 110.438 112.7C110.078 112.37 109.898 111.87 109.898 111.2V107.105H108.953V106.16H109.898V104.81L110.828 103.955H111.128V106.16H113.063V107.105H111.128ZM117.381 114.215C117.051 115.175 116.746 115.815 116.466 116.135C116.196 116.465 115.791 116.63 115.251 116.63C114.711 116.63 114.116 116.48 113.466 116.18L113.931 115.205C114.361 115.435 114.731 115.55 115.041 115.55C115.311 115.55 115.491 115.505 115.581 115.415L115.776 115.22C115.906 115.09 116.021 114.865 116.121 114.545C116.221 114.225 116.301 113.975 116.361 113.795C116.421 113.625 116.466 113.49 116.496 113.39L113.991 106.16H115.281L117.051 111.635H117.111L118.881 106.16H120.171L117.381 114.215ZM124.263 112.16C125.013 112.16 125.593 111.905 126.003 111.395C126.413 110.885 126.618 110.265 126.618 109.535C126.618 108.795 126.438 108.2 126.078 107.75C125.728 107.3 125.243 107.075 124.623 107.075C124.383 107.075 124.098 107.145 123.768 107.285C123.438 107.425 123.143 107.61 122.883 107.84V111.89C123.353 112.07 123.813 112.16 124.263 112.16ZM122.883 116.45H121.638V106.16H122.448L122.793 106.94C123.523 106.3 124.298 105.98 125.118 105.98C125.938 105.98 126.608 106.3 127.128 106.94C127.648 107.58 127.908 108.415 127.908 109.445C127.908 110.465 127.603 111.345 126.993 112.085C126.393 112.815 125.533 113.18 124.413 113.18C123.913 113.18 123.403 113.11 122.883 112.97V116.45ZM132.667 112.13C133.387 112.13 134.107 111.915 134.827 111.485L135.262 112.385C134.422 112.915 133.522 113.18 132.562 113.18C131.612 113.18 130.857 112.88 130.297 112.28C129.737 111.67 129.457 110.795 129.457 109.655C129.457 108.515 129.747 107.62 130.327 106.97C130.907 106.31 131.677 105.98 132.637 105.98C133.507 105.98 134.192 106.25 134.692 106.79C134.902 107.01 135.077 107.33 135.217 107.75C135.367 108.17 135.442 108.665 135.442 109.235L134.977 109.76H130.732C130.762 111.34 131.407 112.13 132.667 112.13ZM134.182 108.815C134.182 108.255 134.037 107.805 133.747 107.465C133.457 107.125 133.072 106.955 132.592 106.955C132.122 106.955 131.722 107.125 131.392 107.465C131.062 107.795 130.862 108.245 130.792 108.815H134.182ZM140.822 107.36C140.312 107.14 139.832 107.03 139.382 107.03C138.512 107.03 138.077 107.295 138.077 107.825C138.077 108.285 138.657 108.73 139.817 109.16C140.247 109.32 140.642 109.57 141.002 109.91C141.372 110.25 141.557 110.66 141.557 111.14C141.557 111.83 141.332 112.345 140.882 112.685C140.432 113.015 139.807 113.18 139.007 113.18C138.207 113.18 137.427 112.96 136.667 112.52L137.042 111.59C137.672 111.95 138.387 112.13 139.187 112.13C139.527 112.13 139.802 112.06 140.012 111.92C140.222 111.77 140.327 111.57 140.327 111.32C140.327 111.07 140.207 110.855 139.967 110.675C139.727 110.495 139.437 110.335 139.097 110.195C138.757 110.055 138.417 109.905 138.077 109.745C137.737 109.575 137.447 109.34 137.207 109.04C136.967 108.74 136.847 108.385 136.847 107.975C136.847 107.335 137.062 106.845 137.492 106.505C137.932 106.155 138.487 105.98 139.157 105.98C139.827 105.98 140.507 106.13 141.197 106.43L140.822 107.36ZM146.113 112.13C146.833 112.13 147.553 111.915 148.273 111.485L148.708 112.385C147.868 112.915 146.968 113.18 146.008 113.18C145.058 113.18 144.303 112.88 143.743 112.28C143.183 111.67 142.903 110.795 142.903 109.655C142.903 108.515 143.193 107.62 143.773 106.97C144.353 106.31 145.123 105.98 146.083 105.98C146.953 105.98 147.638 106.25 148.138 106.79C148.348 107.01 148.523 107.33 148.663 107.75C148.813 108.17 148.888 108.665 148.888 109.235L148.423 109.76H144.178C144.208 111.34 144.853 112.13 146.113 112.13ZM147.628 108.815C147.628 108.255 147.483 107.805 147.193 107.465C146.903 107.125 146.518 106.955 146.038 106.955C145.568 106.955 145.168 107.125 144.838 107.465C144.508 107.795 144.308 108.245 144.238 108.815H147.628ZM152.288 107.105V111.215C152.288 111.815 152.573 112.115 153.143 112.115C153.473 112.115 153.868 112.02 154.328 111.83L154.493 112.835C154.003 113.065 153.488 113.18 152.948 113.18C152.408 113.18 151.958 113.02 151.598 112.7C151.238 112.37 151.058 111.87 151.058 111.2V107.105H150.113V106.16H151.058V104.81L151.988 103.955H152.288V106.16H154.223V107.105H152.288ZM157.671 107.105V111.215C157.671 111.815 157.956 112.115 158.526 112.115C158.856 112.115 159.251 112.02 159.711 111.83L159.876 112.835C159.386 113.065 158.871 113.18 158.331 113.18C157.791 113.18 157.341 113.02 156.981 112.7C156.621 112.37 156.441 111.87 156.441 111.2V107.105H155.496V106.16H156.441V104.81L157.371 103.955H157.671V106.16H159.606V107.105H157.671ZM162.859 104.555C162.699 104.715 162.504 104.795 162.274 104.795C162.044 104.795 161.849 104.715 161.689 104.555C161.529 104.385 161.449 104.185 161.449 103.955C161.449 103.725 161.529 103.53 161.689 103.37C161.859 103.2 162.054 103.115 162.274 103.115C162.494 103.115 162.684 103.2 162.844 103.37C163.014 103.53 163.099 103.725 163.099 103.955C163.099 104.185 163.019 104.385 162.859 104.555ZM161.644 106.16H162.919V113H161.644V106.16ZM171.381 107.825V113H170.106V107.885C170.106 107.625 170.001 107.425 169.791 107.285C169.591 107.145 169.321 107.075 168.981 107.075C168.271 107.075 167.536 107.33 166.776 107.84V113H165.501V106.16H166.311L166.686 106.94C167.456 106.3 168.291 105.98 169.191 105.98C169.861 105.98 170.391 106.15 170.781 106.49C171.181 106.83 171.381 107.275 171.381 107.825ZM176.019 111.065C175.789 111.065 175.569 111.05 175.359 111.02C175.109 111.5 174.984 111.815 174.984 111.965C174.984 112.035 175.074 112.095 175.254 112.145L177.084 112.55C177.934 112.74 178.539 112.96 178.899 113.21C179.259 113.47 179.439 113.85 179.439 114.35C179.439 114.85 179.264 115.27 178.914 115.61C178.234 116.29 177.234 116.63 175.914 116.63C175.104 116.63 174.404 116.48 173.814 116.18C173.224 115.88 172.929 115.45 172.929 114.89C172.929 114.33 173.329 113.685 174.129 112.955C173.829 112.845 173.679 112.68 173.679 112.46C173.679 112.24 173.974 111.695 174.564 110.825C173.704 110.455 173.274 109.68 173.274 108.5C173.274 107.84 173.504 107.265 173.964 106.775C174.434 106.275 175.119 106.025 176.019 106.025C176.539 106.025 176.994 106.1 177.384 106.25L179.484 106.01V107.015H178.359C178.619 107.435 178.749 107.97 178.749 108.62C178.749 109.26 178.519 109.83 178.059 110.33C177.599 110.82 176.919 111.065 176.019 111.065ZM177.549 108.725C177.549 107.485 177.044 106.865 176.034 106.865C175.634 106.865 175.309 106.97 175.059 107.18C174.669 107.52 174.474 107.945 174.474 108.455C174.474 108.955 174.594 109.375 174.834 109.715C175.074 110.055 175.459 110.225 175.989 110.225C176.519 110.225 176.909 110.065 177.159 109.745C177.419 109.415 177.549 109.075 177.549 108.725ZM174.129 114.695C174.129 115.015 174.304 115.26 174.654 115.43C175.004 115.6 175.459 115.685 176.019 115.685C176.579 115.685 177.099 115.57 177.579 115.34C178.059 115.12 178.299 114.815 178.299 114.425C178.299 114.225 178.184 114.06 177.954 113.93C177.724 113.81 177.324 113.69 176.754 113.57L174.999 113.18C174.419 113.76 174.129 114.265 174.129 114.695ZM186.794 104.555C186.634 104.715 186.439 104.795 186.209 104.795C185.979 104.795 185.784 104.715 185.624 104.555C185.464 104.385 185.384 104.185 185.384 103.955C185.384 103.725 185.464 103.53 185.624 103.37C185.794 103.2 185.989 103.115 186.209 103.115C186.429 103.115 186.619 103.2 186.779 103.37C186.949 103.53 187.034 103.725 187.034 103.955C187.034 104.185 186.954 104.385 186.794 104.555ZM185.579 106.16H186.854V113H185.579V106.16ZM195.315 107.825V113H194.04V107.885C194.04 107.625 193.935 107.425 193.725 107.285C193.525 107.145 193.255 107.075 192.915 107.075C192.205 107.075 191.47 107.33 190.71 107.84V113H189.435V106.16H190.245L190.62 106.94C191.39 106.3 192.225 105.98 193.125 105.98C193.795 105.98 194.325 106.15 194.715 106.49C195.115 106.83 195.315 107.275 195.315 107.825ZM202.324 102.23H203.554V113H202.744L202.369 112.1C201.619 112.82 200.844 113.18 200.044 113.18C199.254 113.18 198.599 112.875 198.079 112.265C197.559 111.645 197.299 110.81 197.299 109.76C197.299 108.71 197.609 107.835 198.229 107.135C198.849 106.425 199.649 106.07 200.629 106.07C201.159 106.07 201.724 106.19 202.324 106.43V102.23ZM200.944 107.09C200.194 107.09 199.614 107.345 199.204 107.855C198.794 108.365 198.589 108.985 198.589 109.715C198.589 110.445 198.759 111.03 199.099 111.47C199.439 111.91 199.879 112.13 200.419 112.13C200.719 112.13 201.039 112.05 201.379 111.89C201.729 111.72 202.044 111.49 202.324 111.2V107.36C201.854 107.18 201.394 107.09 200.944 107.09ZM207.173 106.16V111.245C207.173 111.525 207.273 111.745 207.473 111.905C207.683 112.055 207.953 112.13 208.283 112.13C208.993 112.13 209.723 111.85 210.473 111.29V106.16H211.748V113H210.938L210.563 112.1C209.793 112.82 208.938 113.18 207.998 113.18C207.398 113.18 206.898 113.02 206.498 112.7C206.098 112.38 205.898 111.915 205.898 111.305V106.16H207.173ZM217.722 107.36C217.212 107.14 216.732 107.03 216.282 107.03C215.412 107.03 214.977 107.295 214.977 107.825C214.977 108.285 215.557 108.73 216.717 109.16C217.147 109.32 217.542 109.57 217.902 109.91C218.272 110.25 218.457 110.66 218.457 111.14C218.457 111.83 218.232 112.345 217.782 112.685C217.332 113.015 216.707 113.18 215.907 113.18C215.107 113.18 214.327 112.96 213.567 112.52L213.942 111.59C214.572 111.95 215.287 112.13 216.087 112.13C216.427 112.13 216.702 112.06 216.912 111.92C217.122 111.77 217.227 111.57 217.227 111.32C217.227 111.07 217.107 110.855 216.867 110.675C216.627 110.495 216.337 110.335 215.997 110.195C215.657 110.055 215.317 109.905 214.977 109.745C214.637 109.575 214.347 109.34 214.107 109.04C213.867 108.74 213.747 108.385 213.747 107.975C213.747 107.335 213.962 106.845 214.392 106.505C214.832 106.155 215.387 105.98 216.057 105.98C216.727 105.98 217.407 106.13 218.097 106.43L217.722 107.36ZM221.799 107.105V111.215C221.799 111.815 222.084 112.115 222.654 112.115C222.984 112.115 223.379 112.02 223.839 111.83L224.004 112.835C223.514 113.065 222.999 113.18 222.459 113.18C221.919 113.18 221.469 113.02 221.109 112.7C220.749 112.37 220.569 111.87 220.569 111.2V107.105H219.624V106.16H220.569V104.81L221.499 103.955H221.799V106.16H223.734V107.105H221.799ZM225.652 106.16H226.462L226.837 107.36H226.897C227.447 106.65 228.202 106.22 229.162 106.07L229.297 107.255C228.827 107.285 228.372 107.405 227.932 107.615C227.492 107.825 227.157 108.105 226.927 108.455V113H225.652V106.16ZM233.084 114.215C232.754 115.175 232.449 115.815 232.169 116.135C231.899 116.465 231.494 116.63 230.954 116.63C230.414 116.63 229.819 116.48 229.169 116.18L229.634 115.205C230.064 115.435 230.434 115.55 230.744 115.55C231.014 115.55 231.194 115.505 231.284 115.415L231.479 115.22C231.609 115.09 231.724 114.865 231.824 114.545C231.924 114.225 232.004 113.975 232.064 113.795C232.124 113.625 232.169 113.49 232.199 113.39L229.694 106.16H230.984L232.754 111.635H232.814L234.584 106.16H235.874L233.084 114.215ZM238.046 112.91C237.896 113.06 237.711 113.135 237.491 113.135C237.271 113.135 237.086 113.06 236.936 112.91C236.786 112.75 236.711 112.555 236.711 112.325C236.711 112.095 236.786 111.905 236.936 111.755C237.086 111.605 237.271 111.53 237.491 111.53C237.711 111.53 237.896 111.605 238.046 111.755C238.206 111.905 238.286 112.095 238.286 112.325C238.286 112.555 238.206 112.75 238.046 112.91Z" fill="#9B9B9B"/>
<path d="M4.64844 144.578C5.58594 144.578 6.35938 144.695 6.96875 144.93C7.58333 145.159 8.04167 145.51 8.34375 145.984C8.64583 146.458 8.79688 147.062 8.79688 147.797C8.79688 148.401 8.6875 148.906 8.46875 149.312C8.25 149.714 7.96354 150.039 7.60938 150.289C7.25521 150.539 6.8776 150.732 6.47656 150.867L9.60938 156H8.0625L5.26562 151.234H2.89062V156H1.5625V144.578H4.64844ZM4.57031 145.727H2.89062V150.109H4.70312C5.63542 150.109 6.32031 149.919 6.75781 149.539C7.20052 149.159 7.42188 148.599 7.42188 147.859C7.42188 147.083 7.1875 146.534 6.71875 146.211C6.25521 145.888 5.53906 145.727 4.57031 145.727ZM14.8591 147.281C15.5882 147.281 16.2132 147.443 16.7341 147.766C17.2549 148.089 17.6533 148.542 17.9294 149.125C18.2054 149.703 18.3434 150.38 18.3434 151.156V151.961H12.4294C12.445 152.966 12.695 153.732 13.1794 154.258C13.6637 154.784 14.346 155.047 15.2262 155.047C15.7679 155.047 16.2471 154.997 16.6637 154.898C17.0804 154.799 17.5127 154.654 17.9606 154.461V155.602C17.5283 155.794 17.0986 155.935 16.6716 156.023C16.2497 156.112 15.7497 156.156 15.1716 156.156C14.3486 156.156 13.6299 155.99 13.0153 155.656C12.4059 155.318 11.932 154.823 11.5934 154.172C11.2549 153.521 11.0856 152.724 11.0856 151.781C11.0856 150.859 11.2393 150.062 11.5466 149.391C11.8591 148.714 12.2966 148.193 12.8591 147.828C13.4268 147.464 14.0934 147.281 14.8591 147.281ZM14.8434 148.344C14.1507 148.344 13.5986 148.57 13.1872 149.023C12.7757 149.477 12.5309 150.109 12.4528 150.922H16.9841C16.9789 150.411 16.8981 149.964 16.7419 149.578C16.5908 149.188 16.3591 148.885 16.0466 148.672C15.7341 148.453 15.333 148.344 14.8434 148.344ZM24.0697 147.297C25.0905 147.297 25.8483 147.526 26.3431 147.984C26.8379 148.443 27.0853 149.174 27.0853 150.18V156H26.14L25.89 154.734H25.8275C25.5879 155.047 25.3379 155.31 25.0775 155.523C24.8171 155.732 24.515 155.891 24.1712 156C23.8327 156.104 23.416 156.156 22.9212 156.156C22.4004 156.156 21.9369 156.065 21.5306 155.883C21.1296 155.701 20.8119 155.424 20.5775 155.055C20.3483 154.685 20.2337 154.216 20.2337 153.648C20.2337 152.794 20.5723 152.138 21.2494 151.68C21.9265 151.221 22.9577 150.971 24.3431 150.93L25.8197 150.867V150.344C25.8197 149.604 25.6608 149.086 25.3431 148.789C25.0254 148.492 24.5775 148.344 23.9994 148.344C23.5515 148.344 23.1244 148.409 22.7181 148.539C22.3119 148.669 21.9265 148.823 21.5619 149L21.1634 148.016C21.5489 147.818 21.9916 147.648 22.4916 147.508C22.9916 147.367 23.5176 147.297 24.0697 147.297ZM25.8041 151.781L24.4994 151.836C23.4317 151.878 22.6791 152.052 22.2416 152.359C21.8041 152.667 21.5853 153.102 21.5853 153.664C21.5853 154.154 21.7337 154.516 22.0306 154.75C22.3275 154.984 22.7207 155.102 23.2103 155.102C23.9707 155.102 24.5931 154.891 25.0775 154.469C25.5619 154.047 25.8041 153.414 25.8041 152.57V151.781ZM33.1241 156.156C32.0407 156.156 31.1814 155.786 30.5459 155.047C29.9157 154.307 29.6006 153.208 29.6006 151.75C29.6006 150.276 29.9235 149.164 30.5694 148.414C31.2152 147.659 32.0746 147.281 33.1475 147.281C33.6006 147.281 33.9965 147.341 34.335 147.461C34.6735 147.581 34.9652 147.742 35.21 147.945C35.4548 148.143 35.6605 148.37 35.8272 148.625H35.9209C35.9001 148.464 35.8793 148.242 35.8584 147.961C35.8376 147.68 35.8272 147.451 35.8272 147.273V143.844H37.1241V156H36.0772L35.8819 154.781H35.8272C35.6657 155.036 35.46 155.268 35.21 155.477C34.9652 155.685 34.6709 155.852 34.3272 155.977C33.9886 156.096 33.5876 156.156 33.1241 156.156ZM33.3272 155.078C34.2439 155.078 34.8923 154.818 35.2725 154.297C35.6527 153.776 35.8428 153.003 35.8428 151.977V151.742C35.8428 150.654 35.6605 149.818 35.2959 149.234C34.9366 148.651 34.2803 148.359 33.3272 148.359C32.5303 148.359 31.934 148.667 31.5381 149.281C31.1423 149.891 30.9444 150.724 30.9444 151.781C30.9444 152.833 31.1397 153.646 31.5303 154.219C31.9261 154.792 32.5251 155.078 33.3272 155.078ZM49.8891 156L46.0531 145.891H45.9906C46.0115 146.104 46.0297 146.365 46.0453 146.672C46.0609 146.979 46.074 147.315 46.0844 147.68C46.0948 148.039 46.1 148.406 46.1 148.781V156H44.8656V144.578H46.8344L50.4516 154.078H50.5062L54.1781 144.578H56.1312V156H54.8187V148.688C54.8187 148.349 54.824 148.01 54.8344 147.672C54.8448 147.328 54.8578 147.005 54.8734 146.703C54.8891 146.396 54.9047 146.13 54.9203 145.906H54.8578L50.975 156H49.8891ZM66.7637 151.703C66.7637 152.406 66.6726 153.034 66.4903 153.586C66.308 154.138 66.045 154.604 65.7012 154.984C65.3575 155.365 64.9408 155.656 64.4512 155.859C63.9669 156.057 63.4174 156.156 62.8028 156.156C62.2299 156.156 61.7039 156.057 61.2247 155.859C60.7507 155.656 60.3393 155.365 59.9903 154.984C59.6466 154.604 59.3783 154.138 59.1856 153.586C58.9981 153.034 58.9044 152.406 58.9044 151.703C58.9044 150.766 59.0632 149.969 59.3809 149.312C59.6986 148.651 60.1518 148.148 60.7403 147.805C61.3341 147.456 62.0398 147.281 62.8575 147.281C63.6387 147.281 64.321 147.456 64.9044 147.805C65.4929 148.154 65.9486 148.659 66.2716 149.32C66.5997 149.977 66.7637 150.771 66.7637 151.703ZM60.2481 151.703C60.2481 152.391 60.3393 152.987 60.5216 153.492C60.7039 153.997 60.9851 154.388 61.3653 154.664C61.7455 154.94 62.2351 155.078 62.8341 155.078C63.4278 155.078 63.9148 154.94 64.295 154.664C64.6804 154.388 64.9643 153.997 65.1466 153.492C65.3289 152.987 65.42 152.391 65.42 151.703C65.42 151.021 65.3289 150.432 65.1466 149.938C64.9643 149.438 64.683 149.052 64.3028 148.781C63.9226 148.51 63.4304 148.375 62.8262 148.375C61.9356 148.375 61.282 148.669 60.8653 149.258C60.4539 149.846 60.2481 150.661 60.2481 151.703ZM73.2166 147.281C73.3884 147.281 73.5681 147.292 73.7556 147.312C73.9431 147.328 74.1098 147.352 74.2556 147.383L74.0916 148.586C73.9509 148.549 73.7947 148.521 73.6228 148.5C73.4509 148.479 73.2895 148.469 73.1384 148.469C72.7947 148.469 72.4692 148.539 72.1619 148.68C71.8598 148.815 71.5942 149.013 71.365 149.273C71.1358 149.529 70.9561 149.839 70.8259 150.203C70.6957 150.562 70.6306 150.964 70.6306 151.406V156H69.3259V147.438H70.4041L70.5447 149.016H70.5994C70.7765 148.698 70.99 148.409 71.24 148.148C71.49 147.883 71.7791 147.672 72.1072 147.516C72.4405 147.359 72.8103 147.281 73.2166 147.281ZM79.4897 147.281C80.2189 147.281 80.8439 147.443 81.3647 147.766C81.8855 148.089 82.284 148.542 82.56 149.125C82.836 149.703 82.9741 150.38 82.9741 151.156V151.961H77.06C77.0756 152.966 77.3256 153.732 77.81 154.258C78.2944 154.784 78.9767 155.047 79.8569 155.047C80.3985 155.047 80.8777 154.997 81.2944 154.898C81.711 154.799 82.1433 154.654 82.5912 154.461V155.602C82.159 155.794 81.7293 155.935 81.3022 156.023C80.8803 156.112 80.3803 156.156 79.8022 156.156C78.9793 156.156 78.2605 155.99 77.6459 155.656C77.0366 155.318 76.5626 154.823 76.2241 154.172C75.8855 153.521 75.7162 152.724 75.7162 151.781C75.7162 150.859 75.8699 150.062 76.1772 149.391C76.4897 148.714 76.9272 148.193 77.4897 147.828C78.0574 147.464 78.7241 147.281 79.4897 147.281ZM79.4741 148.344C78.7814 148.344 78.2293 148.57 77.8178 149.023C77.4064 149.477 77.1616 150.109 77.0834 150.922H81.6147C81.6095 150.411 81.5287 149.964 81.3725 149.578C81.2215 149.188 80.9897 148.885 80.6772 148.672C80.3647 148.453 79.9636 148.344 79.4741 148.344Z" fill="#596B86"/>
<path d="M30.7534 17H29.501V7.39062H26.1318V6.29199H34.1079V7.39062H30.7534V17ZM39.3409 8.82617C39.5021 8.82617 39.6705 8.83594 39.8463 8.85547C40.0221 8.87012 40.1783 8.89209 40.315 8.92139L40.1612 10.0493C40.0294 10.0151 39.8829 9.98828 39.7218 9.96875C39.5606 9.94922 39.4093 9.93945 39.2677 9.93945C38.9454 9.93945 38.6402 10.0054 38.3521 10.1372C38.0689 10.2642 37.8199 10.4497 37.6051 10.6938C37.3902 10.9331 37.2218 11.2236 37.0997 11.5654C36.9776 11.9023 36.9166 12.2783 36.9166 12.6934V17H35.6935V8.97266H36.7042L36.836 10.4521H36.8873C37.0533 10.1543 37.2535 9.8833 37.4879 9.63916C37.7223 9.39014 37.9933 9.19238 38.3009 9.0459C38.6134 8.89941 38.9601 8.82617 39.3409 8.82617ZM44.9841 8.84082C45.9411 8.84082 46.6516 9.05566 47.1154 9.48535C47.5793 9.91504 47.8112 10.6011 47.8112 11.5435V17H46.925L46.6906 15.8135H46.632C46.4074 16.1064 46.173 16.353 45.9289 16.5532C45.6848 16.7485 45.4016 16.8975 45.0793 17C44.7619 17.0977 44.3713 17.1465 43.9074 17.1465C43.4191 17.1465 42.9846 17.061 42.6037 16.8901C42.2277 16.7192 41.9299 16.4604 41.7102 16.1138C41.4953 15.7671 41.3879 15.3276 41.3879 14.7954C41.3879 13.9946 41.7053 13.3794 42.34 12.9497C42.9748 12.52 43.9416 12.2856 45.2404 12.2466L46.6247 12.188V11.6973C46.6247 11.0039 46.4758 10.5181 46.1779 10.2397C45.8801 9.96143 45.4602 9.82227 44.9182 9.82227C44.4982 9.82227 44.0979 9.8833 43.717 10.0054C43.3361 10.1274 42.9748 10.2715 42.633 10.4375L42.2595 9.51465C42.6208 9.3291 43.0358 9.17041 43.5046 9.03857C43.9733 8.90674 44.4665 8.84082 44.9841 8.84082ZM46.6101 13.0449L45.3869 13.0962C44.3859 13.1353 43.6804 13.2988 43.2702 13.5869C42.8601 13.875 42.655 14.2827 42.655 14.8101C42.655 15.269 42.7941 15.6084 43.0725 15.8281C43.3508 16.0479 43.7194 16.1577 44.1784 16.1577C44.8913 16.1577 45.4748 15.96 45.9289 15.5645C46.383 15.1689 46.6101 14.5757 46.6101 13.7847V13.0449ZM52.2313 17L49.1844 8.97266H50.4881L52.2532 13.8286C52.3753 14.1606 52.4998 14.5269 52.6268 14.9272C52.7537 15.3276 52.8416 15.6499 52.8904 15.894H52.9417C53.0003 15.6499 53.0979 15.3276 53.2347 14.9272C53.3714 14.522 53.4959 14.1558 53.6082 13.8286L55.3733 8.97266H56.6771L53.6229 17H52.2313ZM61.2069 8.82617C61.8905 8.82617 62.4765 8.97754 62.9647 9.28027C63.453 9.58301 63.8266 10.0078 64.0854 10.5547C64.3441 11.0967 64.4735 11.7314 64.4735 12.459V13.2134H58.9291C58.9438 14.1558 59.1781 14.8735 59.6322 15.3667C60.0863 15.8599 60.726 16.1064 61.5512 16.1064C62.059 16.1064 62.5082 16.0601 62.8988 15.9673C63.2895 15.8745 63.6947 15.7378 64.1146 15.5571V16.6265C63.7094 16.8071 63.3065 16.939 62.9062 17.022C62.5106 17.105 62.0419 17.1465 61.4999 17.1465C60.7284 17.1465 60.0546 16.9902 59.4784 16.6777C58.9071 16.3604 58.4628 15.8965 58.1454 15.2861C57.828 14.6758 57.6693 13.9287 57.6693 13.0449C57.6693 12.1807 57.8134 11.4336 58.1015 10.8037C58.3944 10.1689 58.8046 9.68066 59.3319 9.33887C59.8642 8.99707 60.4892 8.82617 61.2069 8.82617ZM61.1923 9.82227C60.5429 9.82227 60.0253 10.0347 59.6396 10.4595C59.2538 10.8843 59.0243 11.4775 58.9511 12.2393H63.1991C63.1942 11.7607 63.1186 11.3408 62.9721 10.9795C62.8305 10.6133 62.6132 10.3301 62.3202 10.1299C62.0272 9.9248 61.6513 9.82227 61.1923 9.82227ZM67.9121 17H66.689V5.60352H67.9121V17Z" fill="#797979"/>
<path d="M177.756 17H170.74V15.9819L173.604 13.0742C174.136 12.5371 174.583 12.0586 174.944 11.6387C175.31 11.2188 175.588 10.8062 175.779 10.4009C175.969 9.99072 176.064 9.5415 176.064 9.05322C176.064 8.44775 175.884 7.98633 175.522 7.66895C175.166 7.34668 174.695 7.18555 174.109 7.18555C173.596 7.18555 173.142 7.27344 172.747 7.44922C172.351 7.625 171.946 7.87402 171.531 8.19629L170.879 7.37598C171.162 7.13672 171.47 6.92432 171.802 6.73877C172.139 6.55322 172.498 6.40674 172.878 6.29932C173.264 6.19189 173.674 6.13818 174.109 6.13818C174.768 6.13818 175.337 6.25293 175.815 6.48242C176.294 6.71191 176.663 7.03906 176.921 7.46387C177.185 7.88867 177.317 8.39404 177.317 8.97998C177.317 9.54639 177.205 10.0737 176.98 10.562C176.755 11.0454 176.44 11.5264 176.035 12.0049C175.63 12.4785 175.156 12.9814 174.614 13.5137L172.285 15.8354V15.8867H177.756V17ZM188.823 7.23682C188.232 7.23682 187.7 7.33936 187.226 7.54443C186.758 7.74463 186.357 8.0376 186.025 8.42334C185.698 8.8042 185.446 9.26562 185.271 9.80762C185.095 10.3496 185.007 10.96 185.007 11.6387C185.007 12.5371 185.146 13.3184 185.425 13.9824C185.708 14.6416 186.128 15.1519 186.684 15.5132C187.246 15.8745 187.946 16.0552 188.786 16.0552C189.265 16.0552 189.714 16.0161 190.134 15.938C190.559 15.855 190.971 15.7524 191.372 15.6304V16.7144C190.981 16.8608 190.571 16.9683 190.141 17.0366C189.712 17.1099 189.201 17.1465 188.611 17.1465C187.522 17.1465 186.611 16.9219 185.879 16.4727C185.151 16.0186 184.604 15.3789 184.238 14.5537C183.877 13.7285 183.696 12.7544 183.696 11.6313C183.696 10.8208 183.808 10.0811 184.033 9.41211C184.262 8.73828 184.594 8.15723 185.029 7.66895C185.468 7.18066 186.006 6.80469 186.64 6.54102C187.28 6.27246 188.012 6.13818 188.838 6.13818C189.38 6.13818 189.902 6.19189 190.405 6.29932C190.908 6.40674 191.362 6.56055 191.767 6.76074L191.269 7.81543C190.927 7.65918 190.551 7.5249 190.141 7.4126C189.736 7.29541 189.297 7.23682 188.823 7.23682ZM200.582 12.9717C200.582 13.6309 200.496 14.2192 200.325 14.7368C200.155 15.2544 199.908 15.6914 199.586 16.0479C199.263 16.4043 198.873 16.6777 198.414 16.8682C197.96 17.0537 197.445 17.1465 196.868 17.1465C196.331 17.1465 195.838 17.0537 195.389 16.8682C194.945 16.6777 194.559 16.4043 194.232 16.0479C193.909 15.6914 193.658 15.2544 193.477 14.7368C193.302 14.2192 193.214 13.6309 193.214 12.9717C193.214 12.0928 193.363 11.3457 193.66 10.7305C193.958 10.1104 194.383 9.63916 194.935 9.31689C195.492 8.98975 196.153 8.82617 196.92 8.82617C197.652 8.82617 198.292 8.98975 198.839 9.31689C199.39 9.64404 199.818 10.1177 200.12 10.7378C200.428 11.353 200.582 12.0977 200.582 12.9717ZM194.473 12.9717C194.473 13.6162 194.559 14.1753 194.73 14.6489C194.901 15.1226 195.164 15.4888 195.521 15.7476C195.877 16.0063 196.336 16.1357 196.898 16.1357C197.454 16.1357 197.911 16.0063 198.267 15.7476C198.629 15.4888 198.895 15.1226 199.066 14.6489C199.237 14.1753 199.322 13.6162 199.322 12.9717C199.322 12.332 199.237 11.7803 199.066 11.3164C198.895 10.8477 198.631 10.4863 198.275 10.2324C197.918 9.97852 197.457 9.85156 196.89 9.85156C196.055 9.85156 195.443 10.1274 195.052 10.6792C194.666 11.231 194.473 11.9951 194.473 12.9717ZM211.55 8.82617C212.433 8.82617 213.1 9.05811 213.549 9.52197C213.998 9.98096 214.223 10.7207 214.223 11.7412V17H213.022V11.7998C213.022 11.1504 212.88 10.6646 212.597 10.3423C212.319 10.0151 211.904 9.85156 211.352 9.85156C210.576 9.85156 210.012 10.0762 209.66 10.5254C209.308 10.9746 209.133 11.6362 209.133 12.5103V17H207.924V11.7998C207.924 11.3652 207.861 11.0039 207.734 10.7158C207.612 10.4277 207.426 10.2129 207.177 10.0713C206.933 9.9248 206.623 9.85156 206.247 9.85156C205.715 9.85156 205.288 9.96143 204.965 10.1812C204.643 10.4009 204.409 10.728 204.262 11.1626C204.121 11.5923 204.05 12.1221 204.05 12.752V17H202.834V8.97266H203.815L203.998 10.1079H204.064C204.225 9.82959 204.428 9.59521 204.672 9.40479C204.916 9.21436 205.19 9.07031 205.493 8.97266C205.795 8.875 206.118 8.82617 206.459 8.82617C207.07 8.82617 207.58 8.94092 207.99 9.17041C208.405 9.39502 208.705 9.73926 208.891 10.2031H208.957C209.221 9.73926 209.582 9.39502 210.041 9.17041C210.5 8.94092 211.003 8.82617 211.55 8.82617ZM225.586 8.82617C226.47 8.82617 227.137 9.05811 227.586 9.52197C228.035 9.98096 228.26 10.7207 228.26 11.7412V17H227.059V11.7998C227.059 11.1504 226.917 10.6646 226.634 10.3423C226.355 10.0151 225.94 9.85156 225.389 9.85156C224.612 9.85156 224.048 10.0762 223.697 10.5254C223.345 10.9746 223.169 11.6362 223.169 12.5103V17H221.961V11.7998C221.961 11.3652 221.897 11.0039 221.771 10.7158C221.648 10.4277 221.463 10.2129 221.214 10.0713C220.97 9.9248 220.66 9.85156 220.284 9.85156C219.751 9.85156 219.324 9.96143 219.002 10.1812C218.68 10.4009 218.445 10.728 218.299 11.1626C218.157 11.5923 218.086 12.1221 218.086 12.752V17H216.871V8.97266H217.852L218.035 10.1079H218.101C218.262 9.82959 218.465 9.59521 218.709 9.40479C218.953 9.21436 219.227 9.07031 219.529 8.97266C219.832 8.875 220.154 8.82617 220.496 8.82617C221.106 8.82617 221.617 8.94092 222.027 9.17041C222.442 9.39502 222.742 9.73926 222.928 10.2031H222.994C223.257 9.73926 223.619 9.39502 224.078 9.17041C224.537 8.94092 225.04 8.82617 225.586 8.82617ZM233.998 8.82617C234.682 8.82617 235.268 8.97754 235.756 9.28027C236.244 9.58301 236.618 10.0078 236.877 10.5547C237.135 11.0967 237.265 11.7314 237.265 12.459V13.2134H231.72C231.735 14.1558 231.969 14.8735 232.423 15.3667C232.878 15.8599 233.517 16.1064 234.342 16.1064C234.85 16.1064 235.299 16.0601 235.69 15.9673C236.081 15.8745 236.486 15.7378 236.906 15.5571V16.6265C236.501 16.8071 236.098 16.939 235.697 17.022C235.302 17.105 234.833 17.1465 234.291 17.1465C233.52 17.1465 232.846 16.9902 232.27 16.6777C231.698 16.3604 231.254 15.8965 230.937 15.2861C230.619 14.6758 230.461 13.9287 230.461 13.0449C230.461 12.1807 230.605 11.4336 230.893 10.8037C231.186 10.1689 231.596 9.68066 232.123 9.33887C232.655 8.99707 233.28 8.82617 233.998 8.82617ZM233.983 9.82227C233.334 9.82227 232.817 10.0347 232.431 10.4595C232.045 10.8843 231.816 11.4775 231.742 12.2393H235.99C235.985 11.7607 235.91 11.3408 235.763 10.9795C235.622 10.6133 235.404 10.3301 235.111 10.1299C234.818 9.9248 234.442 9.82227 233.983 9.82227ZM243.281 8.82617C244.234 8.82617 244.954 9.06055 245.442 9.5293C245.93 9.99316 246.175 10.7402 246.175 11.7705V17H244.973V11.8511C244.973 11.1821 244.82 10.6816 244.512 10.3496C244.209 10.0176 243.743 9.85156 243.113 9.85156C242.224 9.85156 241.599 10.103 241.238 10.606C240.877 11.1089 240.696 11.8389 240.696 12.7959V17H239.48V8.97266H240.462L240.645 10.1299H240.711C240.882 9.84668 241.099 9.60986 241.363 9.41943C241.626 9.22412 241.922 9.07764 242.249 8.97998C242.576 8.87744 242.92 8.82617 243.281 8.82617ZM251.422 16.1504C251.622 16.1504 251.827 16.1333 252.037 16.0991C252.247 16.0649 252.418 16.0234 252.55 15.9746V16.9194C252.408 16.9829 252.211 17.0366 251.957 17.0806C251.708 17.1245 251.464 17.1465 251.224 17.1465C250.8 17.1465 250.414 17.0732 250.067 16.9268C249.721 16.7754 249.442 16.5215 249.232 16.165C249.027 15.8086 248.925 15.3154 248.925 14.6855V9.9248H247.782V9.33154L248.932 8.85547L249.415 7.1123H250.148V8.97266H252.499V9.9248H250.148V14.6489C250.148 15.1519 250.262 15.5278 250.492 15.7769C250.726 16.0259 251.036 16.1504 251.422 16.1504Z" fill="#797979"/>
<path d="M17.7504 15.1722L17.2115 14.8439C18.3196 13.2633 18.9098 11.4129 18.9098 9.45505C18.9098 4.24155 14.6685 0 9.4548 0C8.50745 0 7.57824 0.138555 6.6951 0.411002C2.69055 1.62961 0 5.26382 0 9.45505C0 10.9724 0.349118 12.4214 1.03742 13.7597C2.6614 16.9362 5.88655 18.9094 9.45475 18.9094C10.2598 18.9094 11.0493 18.8004 11.8143 18.6025C11.8139 18.6082 11.8122 18.6138 11.8122 18.62V20.5641C11.8122 20.7314 11.9077 20.8836 12.0579 20.9564C12.1185 20.9852 12.1831 21 12.2481 21C12.3444 21 12.44 20.9681 12.5184 20.9058L14.0349 19.7071L15.5518 20.9058C15.683 21.0099 15.8626 21.0288 16.0121 20.9564C16.1629 20.8832 16.2578 20.7311 16.2578 20.5641V18.62C16.2578 18.4727 16.1833 18.3353 16.0599 18.2548L15.2334 17.7165L15.2981 16.542L17.4005 17.1554C17.5313 17.1947 17.6744 17.1681 17.7841 17.0857C17.8939 17.0038 17.9585 16.8744 17.9585 16.737V15.5449C17.9592 15.3925 17.88 15.2508 17.7501 15.1718L17.7504 15.1722ZM18.0382 9.45554C18.0382 11.2511 17.4912 12.9467 16.4658 14.3901L15.5099 13.8077C15.4593 13.7592 15.428 13.6903 15.4258 13.6543C15.4459 13.3541 15.5823 10.7063 14.1451 10.3348C14.0737 10.3161 13.9986 10.3161 13.9272 10.3348C13.3657 10.48 13.0466 10.9725 12.8645 11.5339L11.8175 11.2371L11.5088 11.1447C10.4457 10.8304 9.44137 10.5336 9.17883 9.51429C9.08503 9.1498 9.1366 8.74539 9.31388 8.45799C9.44991 8.23828 9.64393 8.09973 9.89322 8.04563C9.96639 8.02948 10.0479 8.0213 10.1355 8.0213C12.3164 8.0213 13.3402 7.55698 14.0377 4.68053C14.1885 4.05934 14.5094 3.46077 14.9749 2.89194C16.8454 4.46725 18.0381 6.82352 18.0381 9.45553L18.0382 9.45554ZM6.63574 1.35505C7.18897 2.28138 7.44529 3.05336 7.33808 3.49839C7.29974 3.65583 7.21898 3.76305 7.07692 3.84576L6.94128 3.92341C5.40896 4.8036 2.84451 6.27559 4.31569 8.91273C4.82868 9.82989 4.78119 10.8687 4.18667 11.764C3.60734 12.6359 2.65261 13.1551 1.70512 13.1358C1.15417 11.9841 0.871654 10.7484 0.871654 9.45545C0.872043 5.76326 3.17556 2.5531 6.63565 1.35497L6.63574 1.35505ZM2.16881 13.9855C3.24205 13.8516 4.26547 13.2202 4.91251 12.2462C5.6837 11.0871 5.74463 9.68131 5.07676 8.48721C4.10296 6.74143 5.47745 5.76882 7.37543 4.67904L7.51282 4.60023C7.85941 4.39881 8.09177 4.08844 8.18458 3.70235C8.3424 3.04928 8.11004 2.17452 7.49723 1.09854C8.13242 0.94947 8.78843 0.871823 9.45495 0.871823C11.2439 0.871823 12.9057 1.42331 14.2823 2.36344C13.744 3.02742 13.37 3.73345 13.1899 4.4745C12.5662 7.04637 11.8464 7.1493 10.1347 7.1493C9.98424 7.1493 9.83965 7.16409 9.70654 7.19367C9.2249 7.29837 8.83218 7.57723 8.57143 8.00048C8.26979 8.48952 8.18086 9.13639 8.33382 9.73147C8.71913 11.2297 10.1284 11.6464 11.2615 11.9807L12.683 12.3878C12.6102 12.9854 12.6373 13.5068 12.6455 13.6154C12.6437 13.6868 12.6124 13.7588 12.5618 13.8076L10.3211 15.173C10.1911 15.2518 10.1123 15.3931 10.1123 15.5452V16.7374C10.1123 16.8742 10.1769 17.0038 10.2867 17.0861C10.396 17.1684 10.5387 17.1951 10.6702 17.1558L12.7721 16.5424L12.8174 17.3615L12.5991 17.4417C11.5983 17.8375 10.5402 18.0385 9.45531 18.0385C6.45683 18.0381 3.72818 16.5011 2.16886 13.9855L2.16881 13.9855ZM17.0879 16.1563L15.0166 15.5517C14.8889 15.5133 14.7512 15.5377 14.6426 15.6145C14.534 15.6916 14.4668 15.8138 14.4594 15.9467L14.3505 17.921C14.3413 18.0761 14.4166 18.2248 14.5474 18.3102L15.3873 18.8572V19.6654L14.3063 18.8111C14.2269 18.7483 14.1315 18.7169 14.036 18.7169C13.9404 18.7169 13.8451 18.7483 13.7657 18.8111L12.6851 19.665L12.6853 18.8568L13.5248 18.3098C13.6556 18.2248 13.7311 18.0761 13.7217 17.9206L13.6128 15.9464C13.6054 15.8135 13.5382 15.6914 13.4296 15.6142C13.321 15.5371 13.1829 15.5136 13.0556 15.5513L10.9847 16.156V15.7893L13.0469 14.5326C13.0634 14.523 13.0792 14.5112 13.0944 14.4995C13.3516 14.2907 13.5098 13.9676 13.5169 13.5957C13.462 12.7667 13.5945 11.5135 14.0361 11.227C14.478 11.5135 14.6105 12.7688 14.5549 13.6337C14.5619 13.9672 14.7201 14.2907 14.9778 14.4995C14.9929 14.5112 15.0087 14.523 15.0252 14.533L17.088 15.7893L17.0879 16.1563Z" fill="#DA8907"/>
</svg>
