<svg width="240" height="116" viewBox="0 0 240 116" fill="none" xmlns="http://www.w3.org/2000/svg">
<path d="M176.996 61H176.416V54.5312C176.416 54.3008 176.416 54.0996 176.416 53.9277C176.416 53.752 176.418 53.5957 176.422 53.459C176.426 53.3184 176.432 53.1855 176.439 53.0605C176.334 53.166 176.232 53.2578 176.135 53.3359C176.037 53.4141 175.912 53.5137 175.76 53.6348L174.494 54.5957L174.166 54.1738L176.498 52.4336H176.996V61ZM184.66 52.4336H187.009C188.068 52.4336 188.841 52.5996 189.33 52.9316C189.822 53.2637 190.068 53.793 190.068 54.5195C190.068 54.8477 190.003 55.1465 189.875 55.416C189.75 55.6855 189.562 55.9121 189.312 56.0957C189.066 56.2754 188.761 56.3984 188.398 56.4648V56.5059C188.832 56.5723 189.189 56.6934 189.47 56.8691C189.755 57.041 189.966 57.2695 190.103 57.5547C190.244 57.8359 190.314 58.1719 190.314 58.5625C190.314 59.125 190.185 59.5859 189.927 59.9453C189.673 60.3047 189.32 60.5703 188.867 60.7422C188.414 60.9141 187.89 61 187.296 61H184.66V52.4336ZM185.263 56.2422H187.162C187.966 56.2422 188.548 56.1016 188.908 55.8203C189.267 55.5391 189.447 55.123 189.447 54.5723C189.447 54.002 189.253 53.5918 188.867 53.3418C188.48 53.0918 187.861 52.9668 187.009 52.9668H185.263V56.2422ZM185.263 56.7695V60.4668H187.279C188.072 60.4668 188.669 60.3066 189.072 59.9863C189.474 59.6621 189.675 59.1797 189.675 58.5391C189.675 58.1172 189.582 57.7773 189.394 57.5195C189.207 57.2578 188.925 57.0684 188.55 56.9512C188.179 56.8301 187.716 56.7695 187.162 56.7695H185.263ZM194.497 54.5195C195.197 54.5195 195.72 54.6953 196.068 55.0469C196.415 55.3984 196.589 55.959 196.589 56.7285V61H196.132L196.027 59.8867H195.991C195.855 60.125 195.689 60.3379 195.493 60.5254C195.298 60.709 195.058 60.8535 194.773 60.959C194.491 61.0645 194.148 61.1172 193.741 61.1172C193.331 61.1172 192.98 61.0488 192.687 60.9121C192.398 60.7754 192.173 60.5762 192.013 60.3145C191.857 60.0527 191.779 59.7344 191.779 59.3594C191.779 58.7266 192.04 58.2461 192.564 57.918C193.087 57.5859 193.839 57.3984 194.82 57.3555L196.003 57.2969V56.834C196.003 56.1816 195.874 55.7168 195.616 55.4395C195.359 55.1621 194.978 55.0234 194.474 55.0234C194.146 55.0234 193.829 55.0664 193.525 55.1523C193.224 55.2344 192.917 55.3535 192.605 55.5098L192.417 55.0176C192.722 54.873 193.048 54.7539 193.396 54.6602C193.747 54.5664 194.115 54.5195 194.497 54.5195ZM195.997 57.7598L194.884 57.8066C194.075 57.8457 193.46 57.9902 193.038 58.2402C192.616 58.4902 192.406 58.8652 192.406 59.3652C192.406 59.7676 192.531 60.0762 192.781 60.291C193.034 60.5059 193.386 60.6133 193.835 60.6133C194.534 60.6133 195.068 60.4141 195.435 60.0156C195.806 59.6172 195.993 59.0742 195.997 58.3867V57.7598ZM200.597 60.6074C200.78 60.6074 200.95 60.5938 201.106 60.5664C201.267 60.5391 201.407 60.5039 201.528 60.4609V60.9531C201.403 60.9961 201.257 61.0332 201.089 61.0645C200.921 61.0996 200.735 61.1172 200.532 61.1172C200.173 61.1172 199.874 61.0508 199.636 60.918C199.397 60.7812 199.218 60.5762 199.097 60.3027C198.976 60.0254 198.915 59.6738 198.915 59.248V55.123H197.966V54.7715L198.909 54.5898L199.114 53.0898H199.507V54.6309H201.493V55.123H199.507V59.2129C199.507 59.6699 199.591 60.0176 199.759 60.2559C199.931 60.4902 200.21 60.6074 200.597 60.6074ZM203.725 51.8828V54.8594C203.725 55.0312 203.721 55.1914 203.714 55.3398C203.71 55.4883 203.702 55.6387 203.69 55.791H203.731C203.837 55.5488 203.987 55.332 204.182 55.1406C204.382 54.9492 204.626 54.7969 204.915 54.6836C205.208 54.5703 205.546 54.5137 205.929 54.5137C206.413 54.5137 206.819 54.5977 207.147 54.7656C207.479 54.9297 207.731 55.1816 207.903 55.5215C208.075 55.8613 208.161 56.2988 208.161 56.834V61H207.575V56.8691C207.575 56.2363 207.43 55.7715 207.141 55.4746C206.852 55.1777 206.432 55.0293 205.882 55.0293C205.413 55.0293 205.018 55.1211 204.698 55.3047C204.378 55.4844 204.136 55.7578 203.971 56.125C203.807 56.4883 203.725 56.9434 203.725 57.4902V61H203.134V51.8828H203.725ZM213.001 54.5195C213.169 54.5195 213.327 54.5293 213.475 54.5488C213.624 54.5684 213.762 54.5957 213.891 54.6309L213.797 55.1758C213.669 55.1406 213.538 55.1152 213.405 55.0996C213.272 55.0801 213.129 55.0703 212.977 55.0703C212.676 55.0703 212.407 55.127 212.169 55.2402C211.934 55.3535 211.735 55.5156 211.571 55.7266C211.407 55.9375 211.282 56.1914 211.196 56.4883C211.11 56.7852 211.067 57.1172 211.067 57.4844V61H210.469V54.6309H210.979L211.038 55.832H211.073C211.17 55.5859 211.307 55.3652 211.483 55.1699C211.663 54.9707 211.879 54.8125 212.133 54.6953C212.387 54.5781 212.676 54.5195 213.001 54.5195ZM220.664 57.8066C220.664 58.2988 220.604 58.748 220.483 59.1543C220.362 59.5566 220.182 59.9043 219.944 60.1973C219.705 60.4902 219.409 60.7168 219.053 60.877C218.701 61.0371 218.291 61.1172 217.823 61.1172C217.377 61.1172 216.981 61.0391 216.633 60.8828C216.285 60.7227 215.991 60.4961 215.748 60.2031C215.51 59.9102 215.328 59.5625 215.203 59.1602C215.078 58.7539 215.016 58.3027 215.016 57.8066C215.016 57.123 215.129 56.5352 215.356 56.043C215.586 55.5469 215.914 55.168 216.34 54.9062C216.77 54.6406 217.284 54.5078 217.881 54.5078C218.498 54.5078 219.012 54.6484 219.422 54.9297C219.836 55.207 220.147 55.5938 220.354 56.0898C220.561 56.5859 220.664 57.1582 220.664 57.8066ZM215.625 57.8066C215.625 58.3652 215.705 58.8535 215.866 59.2715C216.026 59.6895 216.268 60.0156 216.592 60.25C216.92 60.4844 217.334 60.6016 217.834 60.6016C218.346 60.6016 218.766 60.4844 219.094 60.25C219.422 60.0156 219.664 59.6875 219.821 59.2656C219.977 58.8438 220.055 58.3574 220.055 57.8066C220.055 57.2715 219.981 56.7949 219.832 56.377C219.684 55.959 219.45 55.6309 219.129 55.3926C218.809 55.1504 218.391 55.0293 217.875 55.0293C217.137 55.0293 216.576 55.2754 216.194 55.7676C215.815 56.2598 215.625 56.9395 215.625 57.8066ZM227.947 57.8066C227.947 58.2988 227.887 58.748 227.766 59.1543C227.645 59.5566 227.465 59.9043 227.227 60.1973C226.988 60.4902 226.691 60.7168 226.336 60.877C225.984 61.0371 225.574 61.1172 225.106 61.1172C224.66 61.1172 224.264 61.0391 223.916 60.8828C223.568 60.7227 223.274 60.4961 223.031 60.2031C222.793 59.9102 222.611 59.5625 222.486 59.1602C222.361 58.7539 222.299 58.3027 222.299 57.8066C222.299 57.123 222.412 56.5352 222.639 56.043C222.869 55.5469 223.197 55.168 223.623 54.9062C224.053 54.6406 224.566 54.5078 225.164 54.5078C225.781 54.5078 226.295 54.6484 226.705 54.9297C227.119 55.207 227.43 55.5938 227.637 56.0898C227.844 56.5859 227.947 57.1582 227.947 57.8066ZM222.908 57.8066C222.908 58.3652 222.988 58.8535 223.149 59.2715C223.309 59.6895 223.551 60.0156 223.875 60.25C224.203 60.4844 224.617 60.6016 225.117 60.6016C225.629 60.6016 226.049 60.4844 226.377 60.25C226.705 60.0156 226.947 59.6875 227.104 59.2656C227.26 58.8438 227.338 58.3574 227.338 57.8066C227.338 57.2715 227.264 56.7949 227.115 56.377C226.967 55.959 226.732 55.6309 226.412 55.3926C226.092 55.1504 225.674 55.0293 225.158 55.0293C224.42 55.0293 223.859 55.2754 223.477 55.7676C223.098 56.2598 222.908 56.9395 222.908 57.8066ZM236.519 54.5078C237.133 54.5078 237.617 54.6855 237.972 55.041C238.328 55.3965 238.506 55.957 238.506 56.7227V61H237.926V56.7461C237.926 56.1562 237.791 55.7227 237.521 55.4453C237.252 55.168 236.896 55.0293 236.455 55.0293C235.849 55.0293 235.375 55.207 235.031 55.5625C234.691 55.9141 234.521 56.4688 234.521 57.2266V61H233.935V56.7461C233.935 56.3516 233.873 56.0293 233.748 55.7793C233.627 55.5254 233.457 55.3379 233.238 55.2168C233.019 55.0918 232.762 55.0293 232.465 55.0293C232.07 55.0293 231.728 55.1113 231.439 55.2754C231.15 55.4355 230.928 55.6855 230.771 56.0254C230.615 56.3613 230.537 56.7891 230.537 57.3086V61H229.945V54.6309H230.426L230.514 55.6738H230.549C230.654 55.4668 230.795 55.2754 230.971 55.0996C231.146 54.9238 231.363 54.7812 231.621 54.6719C231.883 54.5625 232.189 54.5078 232.541 54.5078C232.998 54.5078 233.385 54.6113 233.701 54.8184C234.021 55.0215 234.244 55.3242 234.369 55.7266H234.41C234.582 55.3438 234.847 55.0449 235.207 54.8301C235.57 54.6152 236.008 54.5078 236.519 54.5078Z" fill="#727272"/>
<path d="M167.173 54.0389H153.198V51.3478C153.198 50.8343 153.615 50.4166 154.129 50.4166C154.52 50.4166 154.872 50.6639 155.005 51.0321L155.073 51.2198L154.682 51.3607C154.536 51.413 154.42 51.5188 154.355 51.6586C154.289 51.7985 154.282 51.9556 154.334 52.1006L154.554 52.71C154.573 52.762 154.611 52.8045 154.661 52.828C154.689 52.8411 154.719 52.8478 154.75 52.8478C154.774 52.8478 154.798 52.8437 154.82 52.8354L156.69 52.1611C156.742 52.1423 156.785 52.1037 156.808 52.0537C156.832 52.0039 156.834 51.9465 156.815 51.8944L156.596 51.285C156.543 51.1397 156.437 51.0238 156.298 50.9581C156.158 50.8921 156.001 50.8849 155.856 50.9376L155.465 51.0787L155.397 50.8908C155.205 50.358 154.695 50 154.129 50C153.385 50 152.781 50.6046 152.781 51.3478V54.039H152.544C152.216 54.039 151.908 54.1662 151.676 54.3986C151.445 54.6325 151.318 54.9401 151.318 55.265C151.318 55.5707 151.433 55.8615 151.632 56.0834C151.631 56.0873 151.629 56.0905 151.629 56.0944C151.629 56.156 151.657 56.2099 151.7 56.2481V57.079C151.7 58.5379 152.683 59.7857 154.072 60.1396L153.762 60.8659C153.686 61.0429 153.683 61.2384 153.755 61.4162C153.826 61.5936 153.963 61.7325 154.139 61.8069C154.233 61.8466 154.327 61.8668 154.419 61.8668C154.708 61.8668 154.967 61.6949 155.079 61.4296L155.555 60.3123C155.565 60.2885 155.57 60.2647 155.578 60.241H164.14C164.147 60.2648 164.152 60.2887 164.163 60.3126L164.638 61.429C164.75 61.6949 165.009 61.8668 165.298 61.8668C165.39 61.8668 165.484 61.8466 165.577 61.8072C165.754 61.7326 165.891 61.5936 165.963 61.4162C166.034 61.2384 166.031 61.0429 165.955 60.8668L165.645 60.1396C167.034 59.7852 168.018 58.5376 168.018 57.0788V56.1544C168.025 56.1471 168.033 56.1395 168.04 56.132C168.041 56.1316 168.041 56.1314 168.041 56.131C168.272 55.8972 168.399 55.5896 168.399 55.265C168.399 54.5889 167.849 54.0389 167.173 54.0389L167.173 54.0389ZM155.997 51.3293C156.015 51.3228 156.033 51.3198 156.052 51.3198C156.075 51.3198 156.098 51.3248 156.12 51.335C156.159 51.3535 156.189 51.3859 156.204 51.4265L156.353 51.8399L154.875 52.3729L154.726 51.9594C154.711 51.9188 154.713 51.8749 154.731 51.8361C154.75 51.7971 154.782 51.7676 154.823 51.7529L155.41 51.5412H155.41C155.41 51.5412 155.41 51.5412 155.41 51.541L155.997 51.3293ZM165.968 54.4555V57.4311H163.724V54.4555H165.968ZM151.971 54.6921C152.124 54.5395 152.327 54.4555 152.544 54.4555H163.308V55.886H152.027C151.843 55.7345 151.735 55.5073 151.735 55.265C151.735 55.0504 151.819 54.8465 151.971 54.6921L151.971 54.6921ZM154.695 61.2671C154.649 61.3784 154.54 61.4501 154.419 61.4501C154.383 61.4501 154.345 61.4414 154.302 61.4231C154.228 61.392 154.171 61.3345 154.141 61.2608C154.111 61.187 154.113 61.1053 154.145 61.0304L154.491 60.2187C154.505 60.2203 154.519 60.2197 154.532 60.2212C154.643 60.2331 154.754 60.2411 154.864 60.2411H155.132L154.695 61.2671ZM165.576 61.2608C165.546 61.3345 165.489 61.392 165.415 61.4231C165.415 61.4233 165.415 61.4233 165.415 61.4233C165.372 61.4414 165.334 61.4501 165.298 61.4501C165.177 61.4501 165.068 61.3784 165.021 61.2665L164.585 60.2411H164.853C164.963 60.2411 165.074 60.233 165.185 60.2212C165.198 60.2197 165.212 60.2203 165.225 60.2187L165.572 61.0313C165.604 61.1054 165.605 61.1869 165.576 61.2608L165.576 61.2608ZM167.745 55.8382C167.712 55.8707 167.677 55.8991 167.641 55.9257C167.568 55.9786 167.537 56.0727 167.565 56.1586C167.573 56.183 167.585 56.2054 167.601 56.2247V57.0789C167.601 58.4221 166.641 59.5598 165.318 59.7843C165.163 59.8109 165.007 59.8245 164.853 59.8245H164.311L155.406 59.8244H154.864C154.71 59.8244 154.553 59.8107 154.398 59.7838C153.075 59.5596 152.116 58.4219 152.116 57.0787V56.3026H163.308V57.6395C163.308 57.7545 163.401 57.8478 163.516 57.8478H166.177C166.292 57.8478 166.385 57.7547 166.385 57.6395L166.385 54.4554H167.173C167.619 54.4554 167.982 54.8186 167.982 55.2649C167.982 55.4791 167.898 55.6827 167.745 55.8381L167.745 55.8382Z" fill="black"/>
<path d="M104.468 61H99.1064V60.4961L101.626 57.8711C102.028 57.4531 102.366 57.0762 102.64 56.7402C102.917 56.4004 103.126 56.0605 103.267 55.7207C103.411 55.3809 103.483 55 103.483 54.5781C103.483 54.0273 103.321 53.5996 102.997 53.2949C102.677 52.9902 102.241 52.8379 101.69 52.8379C101.319 52.8379 100.962 52.9043 100.618 53.0371C100.278 53.1699 99.9463 53.3652 99.6221 53.623L99.2939 53.207C99.5322 53.0117 99.7822 52.8477 100.044 52.7148C100.31 52.582 100.581 52.4824 100.858 52.416C101.136 52.3457 101.413 52.3105 101.69 52.3105C102.179 52.3105 102.601 52.4043 102.956 52.5918C103.315 52.7754 103.595 53.0352 103.794 53.3711C103.993 53.707 104.093 54.1016 104.093 54.5547C104.093 55.0234 104.011 55.4492 103.847 55.832C103.687 56.2109 103.458 56.582 103.161 56.9453C102.864 57.3086 102.513 57.6992 102.106 58.1172L99.874 60.4258V60.4492H104.468V61ZM110.104 52.4336H112.454C113.512 52.4336 114.286 52.5996 114.774 52.9316C115.266 53.2637 115.512 53.793 115.512 54.5195C115.512 54.8477 115.448 55.1465 115.319 55.416C115.194 55.6855 115.006 55.9121 114.756 56.0957C114.51 56.2754 114.206 56.3984 113.842 56.4648V56.5059C114.276 56.5723 114.633 56.6934 114.915 56.8691C115.2 57.041 115.411 57.2695 115.547 57.5547C115.688 57.8359 115.758 58.1719 115.758 58.5625C115.758 59.125 115.629 59.5859 115.372 59.9453C115.118 60.3047 114.764 60.5703 114.311 60.7422C113.858 60.9141 113.334 61 112.741 61H110.104V52.4336ZM110.708 56.2422H112.606C113.411 56.2422 113.993 56.1016 114.352 55.8203C114.711 55.5391 114.891 55.123 114.891 54.5723C114.891 54.002 114.698 53.5918 114.311 53.3418C113.924 53.0918 113.305 52.9668 112.454 52.9668H110.708V56.2422ZM110.708 56.7695V60.4668H112.723C113.516 60.4668 114.114 60.3066 114.516 59.9863C114.918 59.6621 115.12 59.1797 115.12 58.5391C115.12 58.1172 115.026 57.7773 114.838 57.5195C114.651 57.2578 114.37 57.0684 113.995 56.9512C113.624 56.8301 113.161 56.7695 112.606 56.7695H110.708ZM120.129 54.5078C120.672 54.5078 121.123 54.6348 121.483 54.8887C121.846 55.1426 122.116 55.4902 122.291 55.9316C122.471 56.373 122.561 56.8789 122.561 57.4492V57.877H117.961C117.961 58.752 118.162 59.4238 118.565 59.8926C118.971 60.3613 119.551 60.5957 120.305 60.5957C120.699 60.5957 121.041 60.5645 121.33 60.502C121.623 60.4355 121.948 60.3242 122.303 60.168V60.7129C121.991 60.8535 121.678 60.9551 121.366 61.0176C121.053 61.084 120.694 61.1172 120.287 61.1172C119.643 61.1172 119.102 60.9844 118.664 60.7188C118.231 60.4492 117.903 60.0703 117.68 59.582C117.461 59.0938 117.352 58.5234 117.352 57.8711C117.352 57.2344 117.457 56.6621 117.668 56.1543C117.883 55.6465 118.196 55.2461 118.606 54.9531C119.02 54.6562 119.528 54.5078 120.129 54.5078ZM120.123 55.0176C119.514 55.0176 119.02 55.2207 118.641 55.627C118.266 56.0293 118.045 56.6113 117.979 57.373H121.946C121.946 56.9082 121.879 56.498 121.746 56.1426C121.614 55.7871 121.412 55.5117 121.143 55.3164C120.877 55.1172 120.537 55.0176 120.123 55.0176ZM126.861 61.1172C125.99 61.1172 125.326 60.8438 124.869 60.2969C124.416 59.7461 124.189 58.9453 124.189 57.8945C124.189 56.793 124.43 55.9531 124.91 55.375C125.391 54.7969 126.061 54.5078 126.92 54.5078C127.287 54.5078 127.606 54.5645 127.875 54.6777C128.148 54.791 128.377 54.9453 128.561 55.1406C128.748 55.332 128.893 55.5508 128.994 55.7969H129.041C129.025 55.5898 129.014 55.3672 129.006 55.1289C128.998 54.8906 128.994 54.6719 128.994 54.4727V51.8828H129.586V61H129.106L129.029 59.834H128.994C128.889 60.0684 128.742 60.2832 128.555 60.4785C128.371 60.6738 128.141 60.8301 127.863 60.9473C127.586 61.0605 127.252 61.1172 126.861 61.1172ZM126.926 60.6016C127.676 60.6016 128.209 60.3691 128.525 59.9043C128.842 59.4355 129 58.7676 129 57.9004V57.8066C129 56.9082 128.842 56.2207 128.525 55.7441C128.209 55.2637 127.693 55.0234 126.979 55.0234C126.272 55.0234 125.731 55.2695 125.356 55.7617C124.984 56.2539 124.799 56.9688 124.799 57.9062C124.799 58.7891 124.973 59.459 125.32 59.916C125.672 60.373 126.207 60.6016 126.926 60.6016Z" fill="#727272"/>
<path d="M91.3829 52.6H83.5831C83.4618 52.6 83.3665 52.6953 83.3665 52.8166V56.4999H77.7332V50.2166C77.7332 50.0953 77.6379 50 77.5166 50H76.2166C76.0953 50 76 50.0953 76 50.2166V61.4829C76 61.6042 76.0953 61.6995 76.2166 61.6995H77.5166C77.6379 61.6995 77.7332 61.6042 77.7332 61.4829V59.0996H92.0328V61.483C92.0328 61.6043 92.1282 61.6996 92.2495 61.6996H93.5494C93.6707 61.6996 93.766 61.6043 93.766 61.483L93.7662 54.9832C93.7662 53.6701 92.6959 52.5999 91.3829 52.5999L91.3829 52.6ZM83.3666 58.6664H77.5167C77.3954 58.6664 77.3001 58.7617 77.3001 58.883V61.2663H76.4335V50.4331H77.3001L77.3 56.7165C77.3 56.8377 77.3953 56.9331 77.5166 56.9331H83.3664L83.3666 58.6664ZM93.3329 61.2663H92.4663V58.8832C92.4663 58.7619 92.371 58.6666 92.2497 58.6666L83.7999 58.6664V53.0331L91.3832 53.0332C92.4578 53.0332 93.3331 53.9085 93.3331 54.9832L93.3329 61.2663Z" fill="black"/>
<path d="M78.5999 53.6835C78.5999 54.7581 79.4751 55.6334 80.5498 55.6334C81.6245 55.6334 82.4998 54.7581 82.4998 53.6835C82.4998 52.6088 81.6245 51.7335 80.5498 51.7335C79.4751 51.7335 78.5999 52.6088 78.5999 53.6835V53.6835ZM82.0665 53.6835C82.0665 54.5198 81.3862 55.2001 80.55 55.2001C79.7137 55.2001 79.0334 54.5198 79.0334 53.6835C79.0334 52.8472 79.7137 52.1669 80.55 52.1669C81.3862 52.1667 82.0665 52.847 82.0665 53.6835V53.6835Z" fill="black"/>
<path d="M19.293 55.8379C19.8711 55.8379 20.3691 55.9355 20.7871 56.1309C21.209 56.3262 21.5332 56.6113 21.7598 56.9863C21.9902 57.3574 22.1055 57.8125 22.1055 58.3516C22.1055 58.9219 21.9785 59.4141 21.7246 59.8281C21.4707 60.2422 21.1113 60.5605 20.6465 60.7832C20.1855 61.0059 19.6406 61.1172 19.0117 61.1172C18.5586 61.1172 18.1465 61.0742 17.7754 60.9883C17.4082 60.8984 17.0977 60.7793 16.8438 60.6309V60.0332C17.1172 60.1973 17.4434 60.332 17.8223 60.4375C18.2051 60.543 18.6035 60.5957 19.0176 60.5957C19.5176 60.5957 19.9531 60.5117 20.3242 60.3438C20.6953 60.1719 20.9824 59.9219 21.1855 59.5938C21.3926 59.2656 21.4961 58.8633 21.4961 58.3867C21.4961 57.75 21.3027 57.2539 20.916 56.8984C20.5293 56.5391 19.9453 56.3594 19.1641 56.3594C18.8438 56.3594 18.5371 56.3828 18.2441 56.4297C17.9551 56.4727 17.6855 56.5273 17.4355 56.5938L17.0957 56.3535L17.4414 52.4336H21.5547V52.9844H17.9512L17.6875 56.0371C17.8633 55.9941 18.084 55.9512 18.3496 55.9082C18.6191 55.8613 18.9336 55.8379 19.293 55.8379ZM29.1189 61H23.7576V60.4961L26.2771 57.8711C26.6795 57.4531 27.0173 57.0762 27.2908 56.7402C27.5681 56.4004 27.7771 56.0605 27.9177 55.7207C28.0623 55.3809 28.1345 55 28.1345 54.5781C28.1345 54.0273 27.9724 53.5996 27.6482 53.2949C27.3279 52.9902 26.8923 52.8379 26.3416 52.8379C25.9705 52.8379 25.613 52.9043 25.2693 53.0371C24.9295 53.1699 24.5974 53.3652 24.2732 53.623L23.9451 53.207C24.1834 53.0117 24.4334 52.8477 24.6951 52.7148C24.9607 52.582 25.2322 52.4824 25.5095 52.416C25.7869 52.3457 26.0642 52.3105 26.3416 52.3105C26.8298 52.3105 27.2517 52.4043 27.6072 52.5918C27.9666 52.7754 28.2459 53.0352 28.4451 53.3711C28.6443 53.707 28.7439 54.1016 28.7439 54.5547C28.7439 55.0234 28.6619 55.4492 28.4978 55.832C28.3377 56.2109 28.1091 56.582 27.8123 56.9453C27.5154 57.3086 27.1638 57.6992 26.7576 58.1172L24.5252 60.4258V60.4492H29.1189V61ZM38.5872 59.3301C38.5872 59.709 38.4915 60.0332 38.3001 60.3027C38.1126 60.5684 37.8372 60.7715 37.4739 60.9121C37.1106 61.0488 36.6634 61.1172 36.1321 61.1172C35.6907 61.1172 35.2962 61.0781 34.9485 61C34.6009 60.9219 34.3098 60.8262 34.0755 60.7129V60.127C34.3684 60.2715 34.6927 60.3887 35.0481 60.4785C35.4036 60.5684 35.7688 60.6133 36.1438 60.6133C36.8001 60.6133 37.2727 60.502 37.5618 60.2793C37.8509 60.0566 37.9954 59.752 37.9954 59.3652C37.9954 59.1113 37.9231 58.9023 37.7786 58.7383C37.638 58.5703 37.4348 58.4258 37.1692 58.3047C36.9036 58.1836 36.5833 58.0605 36.2083 57.9355C35.8177 57.8027 35.47 57.6719 35.1653 57.543C34.8645 57.4102 34.6282 57.2363 34.4563 57.0215C34.2845 56.8027 34.1985 56.5059 34.1985 56.1309C34.1985 55.6191 34.4036 55.2207 34.8137 54.9355C35.2239 54.6504 35.7747 54.5078 36.4661 54.5078C36.8489 54.5078 37.2044 54.5449 37.5325 54.6191C37.8645 54.6895 38.1653 54.7812 38.4348 54.8945L38.2239 55.3984C37.9817 55.2852 37.7024 55.1934 37.386 55.123C37.0696 55.0527 36.7532 55.0176 36.4368 55.0176C35.9173 55.0176 35.511 55.1094 35.218 55.293C34.9251 55.4766 34.7786 55.7461 34.7786 56.1016C34.7786 56.375 34.8489 56.5898 34.9895 56.7461C35.1302 56.8984 35.3313 57.0273 35.593 57.1328C35.8548 57.2344 36.1653 57.3477 36.5247 57.4727C36.8958 57.6016 37.2376 57.7363 37.5501 57.877C37.8665 58.0176 38.1184 58.1992 38.3059 58.4219C38.4934 58.6445 38.5872 58.9473 38.5872 59.3301ZM44.8506 63.8184V61.0293C44.8506 60.8535 44.8545 60.6426 44.8623 60.3965C44.8702 60.1504 44.878 59.9395 44.8858 59.7637H44.8448C44.6924 60.1543 44.4268 60.4805 44.0479 60.7422C43.669 61 43.1944 61.1289 42.6241 61.1289C41.8077 61.1289 41.1729 60.8516 40.7198 60.2969C40.2705 59.7383 40.0459 58.916 40.0459 57.8301C40.0459 57.1738 40.1455 56.5977 40.3448 56.1016C40.5479 55.6016 40.8506 55.2109 41.253 54.9297C41.6592 54.6484 42.1612 54.5078 42.7588 54.5078C43.3057 54.5078 43.7491 54.6289 44.0889 54.8711C44.4327 55.1094 44.6827 55.3984 44.8389 55.7383H44.8741L44.9678 54.6309H45.4424V63.8184H44.8506ZM42.7002 60.6133C43.2041 60.6133 43.6123 60.5078 43.9248 60.2969C44.2412 60.082 44.4737 59.7734 44.6221 59.3711C44.7745 58.9648 44.8526 58.4727 44.8565 57.8945V57.7422C44.8565 56.8516 44.6944 56.1758 44.3702 55.7148C44.0459 55.2539 43.5264 55.0234 42.8116 55.0234C42.1006 55.0234 41.5635 55.2715 41.2002 55.7676C40.837 56.2637 40.6553 56.9551 40.6553 57.8418C40.6553 58.7402 40.8252 59.4277 41.1651 59.9043C41.5049 60.377 42.0166 60.6133 42.7002 60.6133ZM54.3953 54.5078C55.0086 54.5078 55.493 54.6855 55.8484 55.041C56.2039 55.3965 56.3816 55.957 56.3816 56.7227V61H55.8016V56.7461C55.8016 56.1562 55.6668 55.7227 55.3973 55.4453C55.1277 55.168 54.7723 55.0293 54.3309 55.0293C53.7254 55.0293 53.2508 55.207 52.907 55.5625C52.5672 55.9141 52.3973 56.4688 52.3973 57.2266V61H51.8113V56.7461C51.8113 56.3516 51.7488 56.0293 51.6238 55.7793C51.5027 55.5254 51.3328 55.3379 51.1141 55.2168C50.8953 55.0918 50.6375 55.0293 50.3406 55.0293C49.9461 55.0293 49.6043 55.1113 49.3152 55.2754C49.0262 55.4355 48.8035 55.6855 48.6473 56.0254C48.491 56.3613 48.4129 56.7891 48.4129 57.3086V61H47.8211V54.6309H48.3016L48.3895 55.6738H48.4246C48.5301 55.4668 48.6707 55.2754 48.8465 55.0996C49.0223 54.9238 49.2391 54.7812 49.4969 54.6719C49.7586 54.5625 50.0652 54.5078 50.4168 54.5078C50.8738 54.5078 51.2605 54.6113 51.577 54.8184C51.8973 55.0215 52.1199 55.3242 52.2449 55.7266H52.2859C52.4578 55.3438 52.7234 55.0449 53.0828 54.8301C53.4461 54.6152 53.8836 54.5078 54.3953 54.5078Z" fill="#727272"/>
<path d="M10.3125 50H0.9375C0.420536 50 0 50.4205 0 50.9375V61.0625C0 61.5795 0.420536 62 0.9375 62H10.3125C10.8295 62 11.25 61.5795 11.25 61.0625V50.9375C11.25 50.4205 10.8295 50 10.3125 50ZM10.875 61.0625C10.875 61.3726 10.6226 61.625 10.3125 61.625H0.9375C0.627364 61.625 0.375 61.3726 0.375 61.0625V50.9375C0.375 50.6274 0.627364 50.375 0.9375 50.375H10.3125C10.6226 50.375 10.875 50.6274 10.875 50.9375V61.0625Z" fill="black"/>
<path d="M10.0092 51.1394C9.98626 51.1299 9.9619 51.125 9.93754 51.125H8.06254C7.95908 51.125 7.87504 51.2088 7.87504 51.3125C7.87504 51.4162 7.95908 51.5 8.06254 51.5H9.48494L6.80487 54.1799C6.73155 54.2532 6.73155 54.3717 6.80487 54.4449C6.84145 54.4815 6.8895 54.4999 6.93746 54.4999C6.98543 54.4999 7.03347 54.4815 7.07005 54.445L9.74991 51.765V53.1874C9.74991 53.2911 9.83395 53.3749 9.93741 53.3749C10.0409 53.3749 10.1249 53.2911 10.1249 53.1874V51.3124C10.1249 51.288 10.1199 51.2637 10.1105 51.2407C10.0915 51.1948 10.0549 51.1583 10.0091 51.1393L10.0092 51.1394Z" fill="black"/>
<path d="M4.17986 57.5549L1.5 60.2349V58.8125C1.5 58.7088 1.41596 58.625 1.3125 58.625C1.20904 58.625 1.125 58.7088 1.125 58.8125V60.6875C1.125 60.7119 1.13002 60.7362 1.1394 60.7592C1.15831 60.8051 1.19489 60.8417 1.24085 60.8606C1.26378 60.87 1.28814 60.875 1.3125 60.875H3.1875C3.29096 60.875 3.375 60.7912 3.375 60.6875C3.375 60.5838 3.29096 60.5 3.1875 60.5H1.76509L4.44495 57.8202C4.51828 57.7468 4.51828 57.6283 4.44495 57.5551C4.37171 57.4817 4.25318 57.4817 4.17986 57.555L4.17986 57.5549Z" fill="black"/>
<path d="M2.34375 27V9.86719H4.33594V25.2188H11.9414V27H2.34375ZM25.1953 14.1562V27H23.6016L23.3203 25.1953H23.2148C22.9492 25.6406 22.6055 26.0156 22.1836 26.3203C21.7617 26.625 21.2852 26.8516 20.7539 27C20.2305 27.1562 19.6719 27.2344 19.0781 27.2344C18.0625 27.2344 17.2109 27.0703 16.5234 26.7422C15.8359 26.4141 15.3164 25.9062 14.9648 25.2188C14.6211 24.5312 14.4492 23.6484 14.4492 22.5703V14.1562H16.418V22.4297C16.418 23.5 16.6602 24.3008 17.1445 24.832C17.6289 25.3555 18.3672 25.6172 19.3594 25.6172C20.3125 25.6172 21.0703 25.4375 21.6328 25.0781C22.2031 24.7188 22.6133 24.1914 22.8633 23.4961C23.1133 22.793 23.2383 21.9336 23.2383 20.918V14.1562H25.1953ZM32.3672 20.4258L27.9258 14.1562H30.1523L33.5391 19.1016L36.9141 14.1562H39.1172L34.6758 20.4258L39.3633 27H37.1367L33.5391 21.7617L29.918 27H27.7148L32.3672 20.4258ZM46.8164 13.9219C47.9102 13.9219 48.8477 14.1641 49.6289 14.6484C50.4102 15.1328 51.0078 15.8125 51.4219 16.6875C51.8359 17.5547 52.043 18.5703 52.043 19.7344V20.9414H43.1719C43.1953 22.4492 43.5703 23.5977 44.2969 24.3867C45.0234 25.1758 46.0469 25.5703 47.3672 25.5703C48.1797 25.5703 48.8984 25.4961 49.5234 25.3477C50.1484 25.1992 50.7969 24.9805 51.4688 24.6914V26.4023C50.8203 26.6914 50.1758 26.9023 49.5352 27.0352C48.9023 27.168 48.1523 27.2344 47.2852 27.2344C46.0508 27.2344 44.9727 26.9844 44.0508 26.4844C43.1367 25.9766 42.4258 25.2344 41.918 24.2578C41.4102 23.2812 41.1562 22.0859 41.1562 20.6719C41.1562 19.2891 41.3867 18.0938 41.8477 17.0859C42.3164 16.0703 42.9727 15.2891 43.8164 14.7422C44.668 14.1953 45.668 13.9219 46.8164 13.9219ZM46.793 15.5156C45.7539 15.5156 44.9258 15.8555 44.3086 16.5352C43.6914 17.2148 43.3242 18.1641 43.207 19.3828H50.0039C49.9961 18.6172 49.875 17.9453 49.6406 17.3672C49.4141 16.7812 49.0664 16.3281 48.5977 16.0078C48.1289 15.6797 47.5273 15.5156 46.793 15.5156ZM61.1836 13.9219C61.4414 13.9219 61.7109 13.9375 61.9922 13.9688C62.2734 13.9922 62.5234 14.0273 62.7422 14.0742L62.4961 15.8789C62.2852 15.8242 62.0508 15.7812 61.793 15.75C61.5352 15.7188 61.293 15.7031 61.0664 15.7031C60.5508 15.7031 60.0625 15.8086 59.6016 16.0195C59.1484 16.2227 58.75 16.5195 58.4062 16.9102C58.0625 17.293 57.793 17.7578 57.5977 18.3047C57.4023 18.8438 57.3047 19.4453 57.3047 20.1094V27H55.3477V14.1562H56.9648L57.1758 16.5234H57.2578C57.5234 16.0469 57.8438 15.6133 58.2188 15.2227C58.5938 14.8242 59.0273 14.5078 59.5195 14.2734C60.0195 14.0391 60.5742 13.9219 61.1836 13.9219ZM63.1406 14.1562H65.2266L68.0625 21.6094C68.2266 22.0469 68.3789 22.4688 68.5195 22.875C68.6602 23.2734 68.7852 23.6562 68.8945 24.0234C69.0039 24.3906 69.0898 24.7461 69.1523 25.0898H69.2344C69.3438 24.6992 69.5 24.1875 69.7031 23.5547C69.9062 22.9141 70.125 22.2617 70.3594 21.5977L73.043 14.1562H75.1406L69.5508 28.8867C69.2539 29.6758 68.9062 30.3633 68.5078 30.9492C68.1172 31.5352 67.6406 31.9844 67.0781 32.2969C66.5156 32.6172 65.8359 32.7773 65.0391 32.7773C64.6719 32.7773 64.3477 32.7539 64.0664 32.707C63.7852 32.668 63.543 32.6211 63.3398 32.5664V31.0078C63.5117 31.0469 63.7188 31.082 63.9609 31.1133C64.2109 31.1445 64.4688 31.1602 64.7344 31.1602C65.2188 31.1602 65.6367 31.0664 65.9883 30.8789C66.3477 30.6992 66.6562 30.4336 66.9141 30.082C67.1719 29.7305 67.3945 29.3125 67.582 28.8281L68.2852 27.0234L63.1406 14.1562ZM88.9805 27H86.9766V11.625H81.5859V9.86719H94.3477V11.625H88.9805V27ZM107.098 26.9766L104.812 19.5C104.711 19.1797 104.613 18.8672 104.52 18.5625C104.434 18.25 104.352 17.9531 104.273 17.6719C104.203 17.3828 104.137 17.1172 104.074 16.875C104.02 16.625 103.973 16.4102 103.934 16.2305H103.852C103.82 16.4102 103.777 16.625 103.723 16.875C103.668 17.1172 103.602 17.3828 103.523 17.6719C103.453 17.9609 103.375 18.2656 103.289 18.5859C103.203 18.8984 103.105 19.2148 102.996 19.5352L100.605 26.9766H98.4141L94.875 14.1328H96.8906L98.7422 21.2227C98.8672 21.6914 98.9844 22.1562 99.0938 22.6172C99.2109 23.0703 99.3086 23.5 99.3867 23.9062C99.4727 24.3047 99.5352 24.6523 99.5742 24.9492H99.668C99.7148 24.7539 99.7656 24.5195 99.8203 24.2461C99.8828 23.9727 99.9492 23.6836 100.02 23.3789C100.098 23.0664 100.18 22.7578 100.266 22.4531C100.352 22.1406 100.438 21.8477 100.523 21.5742L102.891 14.1328H104.988L107.273 21.5625C107.391 21.9375 107.504 22.3281 107.613 22.7344C107.73 23.1406 107.836 23.5352 107.93 23.918C108.023 24.293 108.09 24.6289 108.129 24.9258H108.223C108.254 24.6602 108.312 24.332 108.398 23.9414C108.484 23.5508 108.582 23.1211 108.691 22.6523C108.809 22.1836 108.93 21.707 109.055 21.2227L110.93 14.1328H112.91L109.359 26.9766H107.098ZM117.199 14.1562V27H115.254V14.1562H117.199ZM116.25 9.35156C116.57 9.35156 116.844 9.45703 117.07 9.66797C117.305 9.87109 117.422 10.1914 117.422 10.6289C117.422 11.0586 117.305 11.3789 117.07 11.5898C116.844 11.8008 116.57 11.9062 116.25 11.9062C115.914 11.9062 115.633 11.8008 115.406 11.5898C115.188 11.3789 115.078 11.0586 115.078 10.6289C115.078 10.1914 115.188 9.87109 115.406 9.66797C115.633 9.45703 115.914 9.35156 116.25 9.35156ZM127.406 13.9219C128.93 13.9219 130.082 14.2969 130.863 15.0469C131.645 15.7891 132.035 16.9844 132.035 18.6328V27H130.113V18.7617C130.113 17.6914 129.867 16.8906 129.375 16.3594C128.891 15.8281 128.145 15.5625 127.137 15.5625C125.715 15.5625 124.715 15.9648 124.137 16.7695C123.559 17.5742 123.27 18.7422 123.27 20.2734V27H121.324V14.1562H122.895L123.188 16.0078H123.293C123.566 15.5547 123.914 15.1758 124.336 14.8711C124.758 14.5586 125.23 14.3242 125.754 14.168C126.277 14.0039 126.828 13.9219 127.406 13.9219ZM147.199 9.86719C148.605 9.86719 149.766 10.043 150.68 10.3945C151.602 10.7383 152.289 11.2656 152.742 11.9766C153.195 12.6875 153.422 13.5938 153.422 14.6953C153.422 15.6016 153.258 16.3594 152.93 16.9688C152.602 17.5703 152.172 18.0586 151.641 18.4336C151.109 18.8086 150.543 19.0977 149.941 19.3008L154.641 27H152.32L148.125 19.8516H144.562V27H142.57V9.86719H147.199ZM147.082 11.5898H144.562V18.1641H147.281C148.68 18.1641 149.707 17.8789 150.363 17.3086C151.027 16.7383 151.359 15.8984 151.359 14.7891C151.359 13.625 151.008 12.8008 150.305 12.3164C149.609 11.832 148.535 11.5898 147.082 11.5898ZM168.164 20.5547C168.164 21.6094 168.027 22.5508 167.754 23.3789C167.48 24.207 167.086 24.9062 166.57 25.4766C166.055 26.0469 165.43 26.4844 164.695 26.7891C163.969 27.0859 163.145 27.2344 162.223 27.2344C161.363 27.2344 160.574 27.0859 159.855 26.7891C159.145 26.4844 158.527 26.0469 158.004 25.4766C157.488 24.9062 157.086 24.207 156.797 23.3789C156.516 22.5508 156.375 21.6094 156.375 20.5547C156.375 19.1484 156.613 17.9531 157.09 16.9688C157.566 15.9766 158.246 15.2227 159.129 14.707C160.02 14.1836 161.078 13.9219 162.305 13.9219C163.477 13.9219 164.5 14.1836 165.375 14.707C166.258 15.2305 166.941 15.9883 167.426 16.9805C167.918 17.9648 168.164 19.1562 168.164 20.5547ZM158.391 20.5547C158.391 21.5859 158.527 22.4805 158.801 23.2383C159.074 23.9961 159.496 24.582 160.066 24.9961C160.637 25.4102 161.371 25.6172 162.27 25.6172C163.16 25.6172 163.891 25.4102 164.461 24.9961C165.039 24.582 165.465 23.9961 165.738 23.2383C166.012 22.4805 166.148 21.5859 166.148 20.5547C166.148 19.5312 166.012 18.6484 165.738 17.9062C165.465 17.1562 165.043 16.5781 164.473 16.1719C163.902 15.7656 163.164 15.5625 162.258 15.5625C160.922 15.5625 159.941 16.0039 159.316 16.8867C158.699 17.7695 158.391 18.9922 158.391 20.5547ZM182.602 20.5547C182.602 21.6094 182.465 22.5508 182.191 23.3789C181.918 24.207 181.523 24.9062 181.008 25.4766C180.492 26.0469 179.867 26.4844 179.133 26.7891C178.406 27.0859 177.582 27.2344 176.66 27.2344C175.801 27.2344 175.012 27.0859 174.293 26.7891C173.582 26.4844 172.965 26.0469 172.441 25.4766C171.926 24.9062 171.523 24.207 171.234 23.3789C170.953 22.5508 170.812 21.6094 170.812 20.5547C170.812 19.1484 171.051 17.9531 171.527 16.9688C172.004 15.9766 172.684 15.2227 173.566 14.707C174.457 14.1836 175.516 13.9219 176.742 13.9219C177.914 13.9219 178.938 14.1836 179.812 14.707C180.695 15.2305 181.379 15.9883 181.863 16.9805C182.355 17.9648 182.602 19.1562 182.602 20.5547ZM172.828 20.5547C172.828 21.5859 172.965 22.4805 173.238 23.2383C173.512 23.9961 173.934 24.582 174.504 24.9961C175.074 25.4102 175.809 25.6172 176.707 25.6172C177.598 25.6172 178.328 25.4102 178.898 24.9961C179.477 24.582 179.902 23.9961 180.176 23.2383C180.449 22.4805 180.586 21.5859 180.586 20.5547C180.586 19.5312 180.449 18.6484 180.176 17.9062C179.902 17.1562 179.48 16.5781 178.91 16.1719C178.34 15.7656 177.602 15.5625 176.695 15.5625C175.359 15.5625 174.379 16.0039 173.754 16.8867C173.137 17.7695 172.828 18.9922 172.828 20.5547ZM199.91 13.9219C201.324 13.9219 202.391 14.293 203.109 15.0352C203.828 15.7695 204.188 16.9531 204.188 18.5859V27H202.266V18.6797C202.266 17.6406 202.039 16.8633 201.586 16.3477C201.141 15.8242 200.477 15.5625 199.594 15.5625C198.352 15.5625 197.449 15.9219 196.887 16.6406C196.324 17.3594 196.043 18.418 196.043 19.8164V27H194.109V18.6797C194.109 17.9844 194.008 17.4062 193.805 16.9453C193.609 16.4844 193.312 16.1406 192.914 15.9141C192.523 15.6797 192.027 15.5625 191.426 15.5625C190.574 15.5625 189.891 15.7383 189.375 16.0898C188.859 16.4414 188.484 16.9648 188.25 17.6602C188.023 18.3477 187.91 19.1953 187.91 20.2031V27H185.965V14.1562H187.535L187.828 15.9727H187.934C188.191 15.5273 188.516 15.1523 188.906 14.8477C189.297 14.543 189.734 14.3125 190.219 14.1562C190.703 14 191.219 13.9219 191.766 13.9219C192.742 13.9219 193.559 14.1055 194.215 14.4727C194.879 14.832 195.359 15.3828 195.656 16.125H195.762C196.184 15.3828 196.762 14.832 197.496 14.4727C198.23 14.1055 199.035 13.9219 199.91 13.9219Z" fill="#131313"/>
<path d="M7.58789 106.743V103.726C6.37695 103.706 5.25879 103.599 4.2334 103.403C3.21777 103.198 2.33887 102.935 1.59668 102.612V99.4922C2.34863 99.8438 3.27637 100.161 4.37988 100.444C5.4834 100.728 6.55273 100.889 7.58789 100.928V95.4346C6.17188 94.9561 5.01953 94.458 4.13086 93.9404C3.25195 93.4229 2.60742 92.8223 2.19727 92.1387C1.78711 91.4453 1.58203 90.6152 1.58203 89.6484C1.58203 88.6523 1.83105 87.7979 2.3291 87.085C2.83691 86.3623 3.54004 85.791 4.43848 85.3711C5.34668 84.9512 6.39648 84.7021 7.58789 84.624V82.2363H9.49219V84.5801C10.5762 84.6094 11.5771 84.7314 12.4951 84.9463C13.4229 85.1514 14.3066 85.4395 15.1465 85.8105L14.0771 88.5352C13.3447 88.2422 12.583 88.0029 11.792 87.8174C11.001 87.6318 10.2344 87.5049 9.49219 87.4365V92.7979C10.6836 93.1885 11.7432 93.6084 12.6709 94.0576C13.6084 94.5068 14.3408 95.0732 14.8682 95.7568C15.4053 96.4307 15.6738 97.3145 15.6738 98.4082C15.6738 99.8438 15.1465 101.03 14.0918 101.968C13.0371 102.896 11.5039 103.452 9.49219 103.638V106.743H7.58789ZM9.49219 100.811C10.4297 100.693 11.1279 100.449 11.5869 100.078C12.0459 99.6973 12.2754 99.2041 12.2754 98.5986C12.2754 98.1885 12.1777 97.8418 11.9824 97.5586C11.7969 97.2754 11.499 97.0215 11.0889 96.7969C10.6885 96.5723 10.1562 96.3525 9.49219 96.1377V100.811ZM7.58789 92.0801V87.4951C7.02148 87.5537 6.54297 87.6709 6.15234 87.8467C5.76172 88.0225 5.46875 88.252 5.27344 88.5352C5.07812 88.8184 4.98047 89.1553 4.98047 89.5459C4.98047 89.9756 5.06836 90.3418 5.24414 90.6445C5.41992 90.9473 5.69824 91.2109 6.0791 91.4355C6.46973 91.6602 6.97266 91.875 7.58789 92.0801ZM33.0176 105H18.5156V102.407L24.0674 96.7822C25.1416 95.6885 26.0254 94.7461 26.7188 93.9551C27.4121 93.1543 27.9248 92.3975 28.2568 91.6846C28.5986 90.9717 28.7695 90.1953 28.7695 89.3555C28.7695 88.3203 28.4717 87.5391 27.876 87.0117C27.2803 86.4746 26.4941 86.2061 25.5176 86.2061C24.5898 86.2061 23.7305 86.3916 22.9395 86.7627C22.1582 87.124 21.3477 87.6416 20.5078 88.3154L18.6182 86.0449C19.2139 85.5371 19.8486 85.0732 20.5225 84.6533C21.2061 84.2334 21.9678 83.9014 22.8076 83.6572C23.6475 83.4033 24.6045 83.2764 25.6787 83.2764C27.0361 83.2764 28.208 83.5205 29.1943 84.0088C30.1807 84.4873 30.9375 85.1562 31.4648 86.0156C32.002 86.875 32.2705 87.876 32.2705 89.0186C32.2705 90.1709 32.041 91.2354 31.582 92.2119C31.123 93.1885 30.4688 94.1553 29.6191 95.1123C28.7695 96.0596 27.7588 97.0898 26.5869 98.2031L22.8809 101.821V101.982H33.0176V105ZM42.9639 91.6113C44.3408 91.6113 45.5518 91.8604 46.5967 92.3584C47.6514 92.8467 48.4717 93.5693 49.0576 94.5264C49.6436 95.4736 49.9365 96.6357 49.9365 98.0127C49.9365 99.5166 49.6191 100.815 48.9844 101.909C48.3496 102.993 47.417 103.828 46.1865 104.414C44.9561 105 43.457 105.293 41.6895 105.293C40.5664 105.293 39.5166 105.195 38.54 105C37.5732 104.805 36.7383 104.512 36.0352 104.121V101.016C36.7676 101.426 37.6465 101.763 38.6719 102.026C39.6973 102.28 40.6787 102.407 41.6162 102.407C42.6123 102.407 43.4668 102.261 44.1797 101.968C44.8926 101.675 45.4395 101.226 45.8203 100.62C46.2109 100.015 46.4062 99.248 46.4062 98.3203C46.4062 97.0898 46.0107 96.1426 45.2197 95.4785C44.4385 94.8047 43.2129 94.4678 41.543 94.4678C40.957 94.4678 40.332 94.5215 39.668 94.6289C39.0137 94.7266 38.4668 94.834 38.0273 94.9512L36.5186 94.0576L37.3242 83.584H48.457V86.6162H40.3564L39.8877 91.9482C40.2393 91.8701 40.6592 91.7969 41.1475 91.7285C41.6357 91.6504 42.2412 91.6113 42.9639 91.6113ZM67.3535 94.2773C67.3535 96.0059 67.2168 97.5537 66.9434 98.9209C66.6797 100.278 66.2598 101.431 65.6836 102.378C65.1074 103.325 64.3555 104.048 63.4277 104.546C62.5 105.044 61.377 105.293 60.0586 105.293C58.4082 105.293 57.0459 104.858 55.9717 103.989C54.8975 103.11 54.1016 101.851 53.584 100.21C53.0664 98.5596 52.8076 96.582 52.8076 94.2773C52.8076 91.9727 53.042 90 53.5107 88.3594C53.9893 86.709 54.7607 85.4443 55.8252 84.5654C56.8896 83.6865 58.3008 83.2471 60.0586 83.2471C61.7188 83.2471 63.0859 83.6865 64.1602 84.5654C65.2441 85.4346 66.0449 86.6943 66.5625 88.3447C67.0898 89.9854 67.3535 91.9629 67.3535 94.2773ZM56.2793 94.2773C56.2793 96.084 56.3965 97.5928 56.6309 98.8037C56.875 100.015 57.2754 100.923 57.832 101.528C58.3887 102.124 59.1309 102.422 60.0586 102.422C60.9863 102.422 61.7285 102.124 62.2852 101.528C62.8418 100.933 63.2422 100.029 63.4863 98.8184C63.7402 97.6074 63.8672 96.0938 63.8672 94.2773C63.8672 92.4805 63.7451 90.9766 63.501 89.7656C63.2568 88.5547 62.8564 87.6465 62.2998 87.041C61.7432 86.4258 60.9961 86.1182 60.0586 86.1182C59.1211 86.1182 58.374 86.4258 57.8174 87.041C57.2705 87.6465 56.875 88.5547 56.6309 89.7656C56.3965 90.9766 56.2793 92.4805 56.2793 94.2773Z" fill="#384D6C"/>
<path d="M81.3135 92.1504L76.5322 105H75.0908L79.8809 92.1504H81.3135ZM97.9951 105H96.2725L89.2676 94.207H89.1973C89.2148 94.4941 89.2354 94.8223 89.2588 95.1914C89.2822 95.5547 89.2998 95.9443 89.3115 96.3604C89.3291 96.7705 89.3379 97.1895 89.3379 97.6172V105H87.9492V92.1504H89.6631L96.6416 102.908H96.7031C96.6914 102.703 96.6768 102.413 96.6592 102.038C96.6416 101.657 96.624 101.25 96.6064 100.816C96.5947 100.377 96.5889 99.9697 96.5889 99.5947V92.1504H97.9951V105ZM102.741 95.3672V105H101.282V95.3672H102.741ZM102.029 91.7637C102.27 91.7637 102.475 91.8428 102.645 92.001C102.82 92.1533 102.908 92.3936 102.908 92.7217C102.908 93.0439 102.82 93.2842 102.645 93.4424C102.475 93.6006 102.27 93.6797 102.029 93.6797C101.777 93.6797 101.566 93.6006 101.396 93.4424C101.232 93.2842 101.15 93.0439 101.15 92.7217C101.15 92.3936 101.232 92.1533 101.396 92.001C101.566 91.8428 101.777 91.7637 102.029 91.7637ZM108.524 109.324C107.259 109.324 106.283 109.087 105.598 108.612C104.912 108.144 104.569 107.484 104.569 106.635C104.569 106.031 104.76 105.516 105.141 105.088C105.527 104.66 106.061 104.376 106.74 104.235C106.488 104.118 106.271 103.942 106.09 103.708C105.914 103.474 105.826 103.204 105.826 102.899C105.826 102.548 105.923 102.24 106.116 101.977C106.315 101.707 106.617 101.449 107.021 101.203C106.518 100.998 106.107 100.652 105.791 100.166C105.48 99.6738 105.325 99.1025 105.325 98.4521C105.325 97.7607 105.469 97.1719 105.756 96.6855C106.043 96.1934 106.459 95.8184 107.004 95.5605C107.549 95.3027 108.208 95.1738 108.981 95.1738C109.151 95.1738 109.321 95.1826 109.491 95.2002C109.667 95.2119 109.834 95.2324 109.992 95.2617C110.15 95.2852 110.288 95.3145 110.405 95.3496H113.71V96.29L111.935 96.5098C112.11 96.7383 112.257 97.0137 112.374 97.3359C112.491 97.6582 112.55 98.0156 112.55 98.4082C112.55 99.3691 112.225 100.134 111.574 100.702C110.924 101.265 110.03 101.546 108.894 101.546C108.624 101.546 108.349 101.522 108.067 101.476C107.78 101.634 107.561 101.81 107.408 102.003C107.262 102.196 107.188 102.419 107.188 102.671C107.188 102.858 107.244 103.008 107.355 103.119C107.473 103.23 107.64 103.312 107.856 103.365C108.073 103.412 108.334 103.436 108.639 103.436H110.335C111.384 103.436 112.187 103.655 112.743 104.095C113.306 104.534 113.587 105.176 113.587 106.02C113.587 107.086 113.153 107.903 112.286 108.472C111.419 109.04 110.165 109.324 108.524 109.324ZM108.568 108.182C109.365 108.182 110.024 108.1 110.546 107.936C111.073 107.777 111.466 107.546 111.724 107.241C111.987 106.942 112.119 106.585 112.119 106.169C112.119 105.782 112.031 105.489 111.855 105.29C111.68 105.097 111.422 104.968 111.082 104.903C110.742 104.833 110.326 104.798 109.834 104.798H108.164C107.73 104.798 107.353 104.865 107.03 105C106.708 105.135 106.459 105.334 106.283 105.598C106.113 105.861 106.028 106.189 106.028 106.582C106.028 107.104 106.248 107.499 106.688 107.769C107.127 108.044 107.754 108.182 108.568 108.182ZM108.946 100.482C109.644 100.482 110.168 100.307 110.52 99.9551C110.871 99.6035 111.047 99.0908 111.047 98.417C111.047 97.6963 110.868 97.1572 110.511 96.7998C110.153 96.4365 109.626 96.2549 108.929 96.2549C108.261 96.2549 107.745 96.4424 107.382 96.8174C107.024 97.1865 106.846 97.7285 106.846 98.4434C106.846 99.0996 107.027 99.6035 107.391 99.9551C107.754 100.307 108.272 100.482 108.946 100.482ZM117.067 91.3242V95.4111C117.067 95.6455 117.062 95.8828 117.05 96.123C117.038 96.3574 117.018 96.5742 116.988 96.7734H117.085C117.284 96.4336 117.536 96.1494 117.841 95.9209C118.151 95.6865 118.503 95.5107 118.896 95.3936C119.288 95.2705 119.704 95.209 120.144 95.209C120.917 95.209 121.562 95.332 122.077 95.5781C122.599 95.8242 122.988 96.2051 123.246 96.7207C123.51 97.2363 123.642 97.9043 123.642 98.7246V105H122.2V98.8213C122.2 98.0186 122.016 97.418 121.646 97.0195C121.283 96.6211 120.724 96.4219 119.968 96.4219C119.253 96.4219 118.682 96.5596 118.254 96.835C117.832 97.1045 117.527 97.5029 117.34 98.0303C117.158 98.5576 117.067 99.2021 117.067 99.9639V105H115.608V91.3242H117.067ZM129.759 103.98C129.999 103.98 130.245 103.96 130.497 103.919C130.749 103.878 130.954 103.828 131.112 103.77V104.903C130.942 104.979 130.705 105.044 130.4 105.097C130.102 105.149 129.809 105.176 129.521 105.176C129.012 105.176 128.549 105.088 128.133 104.912C127.717 104.73 127.383 104.426 127.131 103.998C126.885 103.57 126.762 102.979 126.762 102.223V96.5098H125.391V95.7979L126.771 95.2266L127.351 93.1348H128.229V95.3672H131.051V96.5098H128.229V102.179C128.229 102.782 128.367 103.233 128.643 103.532C128.924 103.831 129.296 103.98 129.759 103.98Z" fill="#585858"/>
</svg>
