<svg width="289" height="115" viewBox="0 0 289 115" fill="none" xmlns="http://www.w3.org/2000/svg">
<path d="M1.19 84V74.326H2.394V84H1.19ZM6.29803 78.498V82.334C6.29803 82.894 6.56403 83.174 7.09603 83.174C7.40403 83.174 7.7727 83.0853 8.20203 82.908L8.35603 83.846C7.8987 84.0607 7.41803 84.168 6.91403 84.168C6.41003 84.168 5.99003 84.0187 5.65403 83.72C5.31803 83.412 5.15003 82.9453 5.15003 82.32V78.498H4.26803V77.616H5.15003V76.356L6.01803 75.558H6.29803V77.616H8.10403V78.498H6.29803ZM15.1936 76.118C15.0443 76.2673 14.8623 76.342 14.6476 76.342C14.4329 76.342 14.2509 76.2673 14.1016 76.118C13.9523 75.9593 13.8776 75.7727 13.8776 75.558C13.8776 75.3433 13.9523 75.1613 14.1016 75.012C14.2603 74.8533 14.4423 74.774 14.6476 74.774C14.8529 74.774 15.0303 74.8533 15.1796 75.012C15.3383 75.1613 15.4176 75.3433 15.4176 75.558C15.4176 75.7727 15.3429 75.9593 15.1936 76.118ZM14.0596 77.616H15.2496V84H14.0596V77.616ZM20.9353 78.736C20.4593 78.5307 20.0113 78.428 19.5913 78.428C18.7793 78.428 18.3733 78.6753 18.3733 79.17C18.3733 79.5993 18.9146 80.0147 19.9973 80.416C20.3986 80.5653 20.7673 80.7987 21.1033 81.116C21.4486 81.4333 21.6213 81.816 21.6213 82.264C21.6213 82.908 21.4113 83.3887 20.9913 83.706C20.5713 84.014 19.9879 84.168 19.2413 84.168C18.4946 84.168 17.7666 83.9627 17.0573 83.552L17.4073 82.684C17.9953 83.02 18.6626 83.188 19.4093 83.188C19.7266 83.188 19.9833 83.1227 20.1793 82.992C20.3753 82.852 20.4733 82.6653 20.4733 82.432C20.4733 82.1987 20.3613 81.998 20.1373 81.83C19.9133 81.662 19.6426 81.5127 19.3253 81.382C19.0079 81.2513 18.6906 81.1113 18.3733 80.962C18.0559 80.8033 17.7853 80.584 17.5613 80.304C17.3373 80.024 17.2253 79.6927 17.2253 79.31C17.2253 78.7127 17.4259 78.2553 17.8273 77.938C18.2379 77.6113 18.7559 77.448 19.3813 77.448C20.0066 77.448 20.6413 77.588 21.2853 77.868L20.9353 78.736ZM30.8657 80.178V79.562C30.8657 78.806 30.4737 78.428 29.6897 78.428C29.0737 78.428 28.4297 78.6287 27.7577 79.03L27.3517 78.19C28.1357 77.6953 28.9804 77.448 29.8857 77.448C30.5204 77.448 31.0384 77.6113 31.4397 77.938C31.8504 78.2553 32.0557 78.75 32.0557 79.422V84H31.2997L30.9497 83.16C30.6511 83.468 30.2964 83.7153 29.8857 83.902C29.4751 84.0793 29.1017 84.168 28.7657 84.168C28.1871 84.168 27.7251 84.0093 27.3797 83.692C27.0344 83.3747 26.8617 82.9593 26.8617 82.446C26.8617 80.934 28.1964 80.178 30.8657 80.178ZM28.5417 81.536C28.3644 81.6947 28.2431 81.8393 28.1777 81.97C28.1217 82.0913 28.0937 82.2547 28.0937 82.46C28.0937 82.656 28.1777 82.8287 28.3457 82.978C28.5231 83.118 28.7517 83.188 29.0317 83.188C29.6197 83.188 30.2311 82.9267 30.8657 82.404V81.004C29.6897 81.0227 28.9151 81.2 28.5417 81.536ZM38.2877 73.948H39.4357V84H38.2877V73.948ZM44.2905 78.358C43.9359 78.358 43.6279 78.4373 43.3665 78.596C43.1145 78.7547 42.9279 78.96 42.8065 79.212C42.5825 79.688 42.4705 80.1967 42.4705 80.738C42.4705 82.418 43.0539 83.258 44.2205 83.258C44.5752 83.258 44.8785 83.1787 45.1305 83.02C45.3825 82.8613 45.5739 82.656 45.7045 82.404C45.9285 81.9373 46.0405 81.4287 46.0405 80.878C46.0405 79.198 45.4572 78.358 44.2905 78.358ZM44.2905 77.448C45.3265 77.448 46.0825 77.77 46.5585 78.414C47.0345 79.058 47.2725 79.898 47.2725 80.934C47.2725 81.6807 47.0765 82.3713 46.6845 83.006C46.4699 83.3513 46.1479 83.6313 45.7185 83.846C45.2892 84.0607 44.7759 84.168 44.1785 84.168C43.1519 84.168 42.4052 83.86 41.9385 83.244C41.4719 82.628 41.2385 81.802 41.2385 80.766C41.2385 80.1593 41.3319 79.646 41.5185 79.226C41.7145 78.806 41.9199 78.484 42.1345 78.26C42.3492 78.0267 42.6432 77.8353 43.0165 77.686C43.3899 77.5273 43.8145 77.448 44.2905 77.448ZM54.6183 79.17V84H53.4283V79.226C53.4283 78.9833 53.3303 78.7967 53.1343 78.666C52.9476 78.5353 52.6956 78.47 52.3783 78.47C51.7156 78.47 51.0296 78.708 50.3203 79.184V84H49.1303V77.616H49.8863L50.2363 78.344C50.9549 77.7467 51.7343 77.448 52.5743 77.448C53.1996 77.448 53.6943 77.6067 54.0583 77.924C54.4316 78.2413 54.6183 78.6567 54.6183 79.17ZM58.9474 82.194C58.7328 82.194 58.5274 82.18 58.3314 82.152C58.0981 82.6 57.9814 82.894 57.9814 83.034C57.9814 83.0993 58.0654 83.1553 58.2334 83.202L59.9414 83.58C60.7348 83.7573 61.2994 83.9627 61.6354 84.196C61.9714 84.4387 62.1394 84.7933 62.1394 85.26C62.1394 85.7267 61.9761 86.1187 61.6494 86.436C61.0148 87.0707 60.0814 87.388 58.8494 87.388C58.0934 87.388 57.4401 87.248 56.8894 86.968C56.3388 86.688 56.0634 86.2867 56.0634 85.764C56.0634 85.2413 56.4368 84.6393 57.1834 83.958C56.9034 83.8553 56.7634 83.7013 56.7634 83.496C56.7634 83.2907 57.0388 82.782 57.5894 81.97C56.7868 81.6247 56.3854 80.9013 56.3854 79.8C56.3854 79.184 56.6001 78.6473 57.0294 78.19C57.4681 77.7233 58.1074 77.49 58.9474 77.49C59.4328 77.49 59.8574 77.56 60.2214 77.7L62.1814 77.476V78.414H61.1314C61.3741 78.806 61.4954 79.3053 61.4954 79.912C61.4954 80.5093 61.2808 81.0413 60.8514 81.508C60.4221 81.9653 59.7874 82.194 58.9474 82.194ZM60.3754 80.01C60.3754 78.8527 59.9041 78.274 58.9614 78.274C58.5881 78.274 58.2848 78.372 58.0514 78.568C57.6874 78.8853 57.5054 79.282 57.5054 79.758C57.5054 80.2247 57.6174 80.6167 57.8414 80.934C58.0654 81.2513 58.4248 81.41 58.9194 81.41C59.4141 81.41 59.7781 81.2607 60.0114 80.962C60.2541 80.654 60.3754 80.3367 60.3754 80.01ZM57.1834 85.582C57.1834 85.8807 57.3468 86.1093 57.6734 86.268C58.0001 86.4267 58.4248 86.506 58.9474 86.506C59.4701 86.506 59.9554 86.3987 60.4034 86.184C60.8514 85.9787 61.0754 85.694 61.0754 85.33C61.0754 85.1433 60.9681 84.9893 60.7534 84.868C60.5388 84.756 60.1654 84.644 59.6334 84.532L57.9954 84.168C57.4541 84.7093 57.1834 85.1807 57.1834 85.582ZM70.3194 83.188C70.9914 83.188 71.6634 82.9873 72.3354 82.586L72.7414 83.426C71.9574 83.9207 71.1174 84.168 70.2214 84.168C69.3347 84.168 68.63 83.888 68.1074 83.328C67.5847 82.7587 67.3234 81.942 67.3234 80.878C67.3234 79.814 67.594 78.9787 68.1354 78.372C68.6767 77.756 69.3954 77.448 70.2914 77.448C71.1034 77.448 71.7427 77.7 72.2094 78.204C72.4054 78.4093 72.5687 78.708 72.6994 79.1C72.8394 79.492 72.9094 79.954 72.9094 80.486L72.4754 80.976H68.5134C68.5414 82.4507 69.1434 83.188 70.3194 83.188ZM71.7334 80.094C71.7334 79.5713 71.598 79.1513 71.3274 78.834C71.0567 78.5167 70.6974 78.358 70.2494 78.358C69.8107 78.358 69.4374 78.5167 69.1294 78.834C68.8214 79.142 68.6347 79.562 68.5694 80.094H71.7334ZM77.9306 78.736C77.4546 78.5307 77.0066 78.428 76.5866 78.428C75.7746 78.428 75.3686 78.6753 75.3686 79.17C75.3686 79.5993 75.9099 80.0147 76.9926 80.416C77.3939 80.5653 77.7626 80.7987 78.0986 81.116C78.4439 81.4333 78.6166 81.816 78.6166 82.264C78.6166 82.908 78.4066 83.3887 77.9866 83.706C77.5666 84.014 76.9832 84.168 76.2366 84.168C75.4899 84.168 74.7619 83.9627 74.0526 83.552L74.4026 82.684C74.9906 83.02 75.6579 83.188 76.4046 83.188C76.7219 83.188 76.9786 83.1227 77.1746 82.992C77.3706 82.852 77.4686 82.6653 77.4686 82.432C77.4686 82.1987 77.3566 81.998 77.1326 81.83C76.9086 81.662 76.6379 81.5127 76.3206 81.382C76.0032 81.2513 75.6859 81.1113 75.3686 80.962C75.0512 80.8033 74.7806 80.584 74.5566 80.304C74.3326 80.024 74.2206 79.6927 74.2206 79.31C74.2206 78.7127 74.4212 78.2553 74.8226 77.938C75.2332 77.6113 75.7512 77.448 76.3766 77.448C77.0019 77.448 77.6366 77.588 78.2806 77.868L77.9306 78.736ZM81.7356 78.498V82.334C81.7356 82.894 82.0016 83.174 82.5336 83.174C82.8416 83.174 83.2103 83.0853 83.6396 82.908L83.7936 83.846C83.3363 84.0607 82.8556 84.168 82.3516 84.168C81.8476 84.168 81.4276 84.0187 81.0916 83.72C80.7556 83.412 80.5876 82.9453 80.5876 82.32V78.498H79.7056V77.616H80.5876V76.356L81.4556 75.558H81.7356V77.616H83.5416V78.498H81.7356ZM88.8318 80.178V79.562C88.8318 78.806 88.4398 78.428 87.6558 78.428C87.0398 78.428 86.3958 78.6287 85.7238 79.03L85.3178 78.19C86.1018 77.6953 86.9464 77.448 87.8518 77.448C88.4864 77.448 89.0044 77.6113 89.4058 77.938C89.8164 78.2553 90.0218 78.75 90.0218 79.422V84H89.2658L88.9158 83.16C88.6171 83.468 88.2624 83.7153 87.8518 83.902C87.4411 84.0793 87.0678 84.168 86.7318 84.168C86.1531 84.168 85.6911 84.0093 85.3458 83.692C85.0004 83.3747 84.8278 82.9593 84.8278 82.446C84.8278 80.934 86.1624 80.178 88.8318 80.178ZM86.5078 81.536C86.3304 81.6947 86.2091 81.8393 86.1438 81.97C86.0878 82.0913 86.0598 82.2547 86.0598 82.46C86.0598 82.656 86.1438 82.8287 86.3118 82.978C86.4891 83.118 86.7178 83.188 86.9978 83.188C87.5858 83.188 88.1971 82.9267 88.8318 82.404V81.004C87.6558 81.0227 86.8811 81.2 86.5078 81.536ZM94.6503 83.216C95.3503 83.216 95.8916 82.978 96.2743 82.502C96.657 82.026 96.8483 81.452 96.8483 80.78C96.8483 80.108 96.6803 79.5713 96.3443 79.17C96.0083 78.7593 95.5743 78.554 95.0423 78.554C94.5196 78.554 93.9596 78.7127 93.3623 79.03V82.964C93.801 83.132 94.2303 83.216 94.6503 83.216ZM93.3623 73.948V78.134C94.0716 77.7327 94.7856 77.532 95.5043 77.532C96.2323 77.532 96.839 77.826 97.3243 78.414C97.8096 78.9927 98.0523 79.7533 98.0523 80.696C98.0523 81.6387 97.7676 82.4553 97.1983 83.146C96.6383 83.8273 95.8356 84.168 94.7903 84.168C93.9876 84.168 93.129 83.9627 92.2143 83.552V73.948H93.3623ZM99.8494 73.948H100.997V84H99.8494V73.948ZM104.48 76.118C104.331 76.2673 104.149 76.342 103.934 76.342C103.72 76.342 103.538 76.2673 103.388 76.118C103.239 75.9593 103.164 75.7727 103.164 75.558C103.164 75.3433 103.239 75.1613 103.388 75.012C103.547 74.8533 103.729 74.774 103.934 74.774C104.14 74.774 104.317 74.8533 104.466 75.012C104.625 75.1613 104.704 75.3433 104.704 75.558C104.704 75.7727 104.63 75.9593 104.48 76.118ZM103.346 77.616H104.536V84H103.346V77.616ZM110.222 78.736C109.746 78.5307 109.298 78.428 108.878 78.428C108.066 78.428 107.66 78.6753 107.66 79.17C107.66 79.5993 108.201 80.0147 109.284 80.416C109.685 80.5653 110.054 80.7987 110.39 81.116C110.735 81.4333 110.908 81.816 110.908 82.264C110.908 82.908 110.698 83.3887 110.278 83.706C109.858 84.014 109.275 84.168 108.528 84.168C107.781 84.168 107.053 83.9627 106.344 83.552L106.694 82.684C107.282 83.02 107.949 83.188 108.696 83.188C109.013 83.188 109.27 83.1227 109.466 82.992C109.662 82.852 109.76 82.6653 109.76 82.432C109.76 82.1987 109.648 81.998 109.424 81.83C109.2 81.662 108.929 81.5127 108.612 81.382C108.295 81.2513 107.977 81.1113 107.66 80.962C107.343 80.8033 107.072 80.584 106.848 80.304C106.624 80.024 106.512 79.6927 106.512 79.31C106.512 78.7127 106.713 78.2553 107.114 77.938C107.525 77.6113 108.043 77.448 108.668 77.448C109.293 77.448 109.928 77.588 110.572 77.868L110.222 78.736ZM113.733 73.948V78.274C114.433 77.7233 115.184 77.448 115.987 77.448C116.612 77.448 117.107 77.6067 117.471 77.924C117.844 78.232 118.031 78.638 118.031 79.142V84H116.841V79.226C116.841 78.9833 116.743 78.7967 116.547 78.666C116.36 78.5353 116.108 78.47 115.791 78.47C115.128 78.47 114.442 78.708 113.733 79.184V84H112.543V73.948H113.733ZM122.837 83.188C123.509 83.188 124.181 82.9873 124.853 82.586L125.259 83.426C124.475 83.9207 123.635 84.168 122.739 84.168C121.853 84.168 121.148 83.888 120.625 83.328C120.103 82.7587 119.841 81.942 119.841 80.878C119.841 79.814 120.112 78.9787 120.653 78.372C121.195 77.756 121.913 77.448 122.809 77.448C123.621 77.448 124.261 77.7 124.727 78.204C124.923 78.4093 125.087 78.708 125.217 79.1C125.357 79.492 125.427 79.954 125.427 80.486L124.993 80.976H121.031C121.059 82.4507 121.661 83.188 122.837 83.188ZM124.251 80.094C124.251 79.5713 124.116 79.1513 123.845 78.834C123.575 78.5167 123.215 78.358 122.767 78.358C122.329 78.358 121.955 78.5167 121.647 78.834C121.339 79.142 121.153 79.562 121.087 80.094H124.251ZM131.471 73.948H132.619V84H131.863L131.513 83.16C130.813 83.832 130.089 84.168 129.343 84.168C128.605 84.168 127.994 83.8833 127.509 83.314C127.023 82.7353 126.781 81.956 126.781 80.976C126.781 79.996 127.07 79.1793 127.649 78.526C128.227 77.8633 128.974 77.532 129.889 77.532C130.383 77.532 130.911 77.644 131.471 77.868V73.948ZM130.183 78.484C129.483 78.484 128.941 78.722 128.559 79.198C128.176 79.674 127.985 80.2527 127.985 80.934C127.985 81.6153 128.143 82.1613 128.461 82.572C128.778 82.9827 129.189 83.188 129.693 83.188C129.973 83.188 130.271 83.1133 130.589 82.964C130.915 82.8053 131.209 82.5907 131.471 82.32V78.736C131.032 78.568 130.603 78.484 130.183 78.484ZM139.238 77.616V75.922C139.238 75.2313 139.402 74.704 139.728 74.34C140.055 73.9667 140.48 73.78 141.002 73.78C141.534 73.78 142.099 73.92 142.696 74.2L142.29 75.04C141.88 74.872 141.525 74.788 141.226 74.788C140.666 74.788 140.386 75.1613 140.386 75.908V77.616H142.122V78.498H140.386V84H139.238V78.498H138.286V77.616H139.238ZM147.03 80.178V79.562C147.03 78.806 146.638 78.428 145.854 78.428C145.238 78.428 144.594 78.6287 143.922 79.03L143.516 78.19C144.3 77.6953 145.145 77.448 146.05 77.448C146.685 77.448 147.203 77.6113 147.604 77.938C148.015 78.2553 148.22 78.75 148.22 79.422V84H147.464L147.114 83.16C146.816 83.468 146.461 83.7153 146.05 83.902C145.64 84.0793 145.266 84.168 144.93 84.168C144.352 84.168 143.89 84.0093 143.544 83.692C143.199 83.3747 143.026 82.9593 143.026 82.446C143.026 80.934 144.361 80.178 147.03 80.178ZM144.706 81.536C144.529 81.6947 144.408 81.8393 144.342 81.97C144.286 82.0913 144.258 82.2547 144.258 82.46C144.258 82.656 144.342 82.8287 144.51 82.978C144.688 83.118 144.916 83.188 145.196 83.188C145.784 83.188 146.396 82.9267 147.03 82.404V81.004C145.854 81.0227 145.08 81.2 144.706 81.536ZM152.961 77.448C153.586 77.448 154.221 77.588 154.865 77.868L154.515 78.736C154.039 78.5307 153.53 78.428 152.989 78.428C152.457 78.428 152.032 78.6287 151.715 79.03C151.407 79.4313 151.253 80.0193 151.253 80.794C151.253 81.5687 151.416 82.1613 151.743 82.572C152.069 82.9827 152.499 83.188 153.031 83.188C153.563 83.188 154.113 83.0573 154.683 82.796L154.949 83.72C154.295 84.0187 153.633 84.168 152.961 84.168C152.093 84.168 151.383 83.8553 150.833 83.23C150.291 82.5953 150.021 81.7833 150.021 80.794C150.021 79.7953 150.291 78.988 150.833 78.372C151.383 77.756 152.093 77.448 152.961 77.448ZM157.932 78.498V82.334C157.932 82.894 158.198 83.174 158.73 83.174C159.038 83.174 159.407 83.0853 159.836 82.908L159.99 83.846C159.533 84.0607 159.052 84.168 158.548 84.168C158.044 84.168 157.624 84.0187 157.288 83.72C156.952 83.412 156.784 82.9453 156.784 82.32V78.498H155.902V77.616H156.784V76.356L157.652 75.558H157.932V77.616H159.738V78.498H157.932ZM167.01 78.498V82.334C167.01 82.894 167.276 83.174 167.808 83.174C168.116 83.174 168.484 83.0853 168.914 82.908L169.068 83.846C168.61 84.0607 168.13 84.168 167.626 84.168C167.122 84.168 166.702 84.0187 166.366 83.72C166.03 83.412 165.862 82.9453 165.862 82.32V78.498H164.98V77.616H165.862V76.356L166.73 75.558H167.01V77.616H168.816V78.498H167.01ZM171.74 73.948V78.274C172.44 77.7233 173.191 77.448 173.994 77.448C174.619 77.448 175.114 77.6067 175.478 77.924C175.851 78.232 176.038 78.638 176.038 79.142V84H174.848V79.226C174.848 78.9833 174.75 78.7967 174.554 78.666C174.367 78.5353 174.115 78.47 173.798 78.47C173.135 78.47 172.449 78.708 171.74 79.184V84H170.55V73.948H171.74ZM181.782 80.178V79.562C181.782 78.806 181.39 78.428 180.606 78.428C179.99 78.428 179.346 78.6287 178.674 79.03L178.268 78.19C179.052 77.6953 179.897 77.448 180.802 77.448C181.437 77.448 181.955 77.6113 182.356 77.938C182.767 78.2553 182.972 78.75 182.972 79.422V84H182.216L181.866 83.16C181.568 83.468 181.213 83.7153 180.802 83.902C180.392 84.0793 180.018 84.168 179.682 84.168C179.104 84.168 178.642 84.0093 178.296 83.692C177.951 83.3747 177.778 82.9593 177.778 82.446C177.778 80.934 179.113 80.178 181.782 80.178ZM179.458 81.536C179.281 81.6947 179.16 81.8393 179.094 81.97C179.038 82.0913 179.01 82.2547 179.01 82.46C179.01 82.656 179.094 82.8287 179.262 82.978C179.44 83.118 179.668 83.188 179.948 83.188C180.536 83.188 181.148 82.9267 181.782 82.404V81.004C180.606 81.0227 179.832 81.2 179.458 81.536ZM186.635 78.498V82.334C186.635 82.894 186.901 83.174 187.433 83.174C187.741 83.174 188.11 83.0853 188.539 82.908L188.693 83.846C188.236 84.0607 187.755 84.168 187.251 84.168C186.747 84.168 186.327 84.0187 185.991 83.72C185.655 83.412 185.487 82.9453 185.487 82.32V78.498H184.605V77.616H185.487V76.356L186.355 75.558H186.635V77.616H188.441V78.498H186.635ZM197.785 80.178V79.562C197.785 78.806 197.393 78.428 196.609 78.428C195.993 78.428 195.349 78.6287 194.677 79.03L194.271 78.19C195.055 77.6953 195.899 77.448 196.805 77.448C197.439 77.448 197.957 77.6113 198.359 77.938C198.769 78.2553 198.975 78.75 198.975 79.422V84H198.219L197.869 83.16C197.57 83.468 197.215 83.7153 196.805 83.902C196.394 84.0793 196.021 84.168 195.685 84.168C195.106 84.168 194.644 84.0093 194.299 83.692C193.953 83.3747 193.781 82.9593 193.781 82.446C193.781 80.934 195.115 80.178 197.785 80.178ZM195.461 81.536C195.283 81.6947 195.162 81.8393 195.097 81.97C195.041 82.0913 195.013 82.2547 195.013 82.46C195.013 82.656 195.097 82.8287 195.265 82.978C195.442 83.118 195.671 83.188 195.951 83.188C196.539 83.188 197.15 82.9267 197.785 82.404V81.004C196.609 81.0227 195.834 81.2 195.461 81.536ZM205.263 77.616H206.019L206.369 78.736H206.425C206.938 78.0733 207.643 77.672 208.539 77.532L208.665 78.638C208.226 78.666 207.801 78.778 207.391 78.974C206.98 79.17 206.667 79.4313 206.453 79.758V84H205.263V77.616ZM212.521 83.188C213.193 83.188 213.865 82.9873 214.537 82.586L214.943 83.426C214.159 83.9207 213.319 84.168 212.423 84.168C211.536 84.168 210.831 83.888 210.309 83.328C209.786 82.7587 209.525 81.942 209.525 80.878C209.525 79.814 209.795 78.9787 210.337 78.372C210.878 77.756 211.597 77.448 212.493 77.448C213.305 77.448 213.944 77.7 214.411 78.204C214.607 78.4093 214.77 78.708 214.901 79.1C215.041 79.492 215.111 79.954 215.111 80.486L214.677 80.976H210.715C210.743 82.4507 211.345 83.188 212.521 83.188ZM213.935 80.094C213.935 79.5713 213.799 79.1513 213.529 78.834C213.258 78.5167 212.899 78.358 212.451 78.358C212.012 78.358 211.639 78.5167 211.331 78.834C211.023 79.142 210.836 79.562 210.771 80.094H213.935ZM220.356 80.178V79.562C220.356 78.806 219.964 78.428 219.18 78.428C218.564 78.428 217.92 78.6287 217.248 79.03L216.842 78.19C217.626 77.6953 218.47 77.448 219.376 77.448C220.01 77.448 220.528 77.6113 220.93 77.938C221.34 78.2553 221.546 78.75 221.546 79.422V84H220.79L220.44 83.16C220.141 83.468 219.786 83.7153 219.376 83.902C218.965 84.0793 218.592 84.168 218.256 84.168C217.677 84.168 217.215 84.0093 216.87 83.692C216.524 83.3747 216.352 82.9593 216.352 82.446C216.352 80.934 217.686 80.178 220.356 80.178ZM218.032 81.536C217.854 81.6947 217.733 81.8393 217.668 81.97C217.612 82.0913 217.584 82.2547 217.584 82.46C217.584 82.656 217.668 82.8287 217.836 82.978C218.013 83.118 218.242 83.188 218.522 83.188C219.11 83.188 219.721 82.9267 220.356 82.404V81.004C219.18 81.0227 218.405 81.2 218.032 81.536ZM228.078 73.948H229.226V84H228.47L228.12 83.16C227.42 83.832 226.697 84.168 225.95 84.168C225.213 84.168 224.602 83.8833 224.116 83.314C223.631 82.7353 223.388 81.956 223.388 80.976C223.388 79.996 223.678 79.1793 224.256 78.526C224.835 77.8633 225.582 77.532 226.496 77.532C226.991 77.532 227.518 77.644 228.078 77.868V73.948ZM226.79 78.484C226.09 78.484 225.549 78.722 225.166 79.198C224.784 79.674 224.592 80.2527 224.592 80.934C224.592 81.6153 224.751 82.1613 225.068 82.572C225.386 82.9827 225.796 83.188 226.3 83.188C226.58 83.188 226.879 83.1133 227.196 82.964C227.523 82.8053 227.817 82.5907 228.078 82.32V78.736C227.64 78.568 227.21 78.484 226.79 78.484ZM234.032 83.188C234.704 83.188 235.376 82.9873 236.048 82.586L236.454 83.426C235.67 83.9207 234.83 84.168 233.934 84.168C233.048 84.168 232.343 83.888 231.82 83.328C231.298 82.7587 231.036 81.942 231.036 80.878C231.036 79.814 231.307 78.9787 231.848 78.372C232.39 77.756 233.108 77.448 234.004 77.448C234.816 77.448 235.456 77.7 235.922 78.204C236.118 78.4093 236.282 78.708 236.412 79.1C236.552 79.492 236.622 79.954 236.622 80.486L236.188 80.976H232.226C232.254 82.4507 232.856 83.188 234.032 83.188ZM235.446 80.094C235.446 79.5713 235.311 79.1513 235.04 78.834C234.77 78.5167 234.41 78.358 233.962 78.358C233.524 78.358 233.15 78.5167 232.842 78.834C232.534 79.142 232.348 79.562 232.282 80.094H235.446ZM238.368 77.616H239.124L239.474 78.736H239.53C240.043 78.0733 240.748 77.672 241.644 77.532L241.77 78.638C241.331 78.666 240.906 78.778 240.496 78.974C240.085 79.17 239.772 79.4313 239.558 79.758V84H238.368V77.616ZM249.231 84H247.915L246.179 77.616H247.383L248.545 82.726H248.601L250.099 77.616H251.233L252.745 82.726H252.801L253.963 77.616H255.167L253.431 84H252.115L250.687 79.45H250.617L249.231 84ZM257.776 76.118C257.627 76.2673 257.445 76.342 257.23 76.342C257.015 76.342 256.833 76.2673 256.684 76.118C256.535 75.9593 256.46 75.7727 256.46 75.558C256.46 75.3433 256.535 75.1613 256.684 75.012C256.843 74.8533 257.025 74.774 257.23 74.774C257.435 74.774 257.613 74.8533 257.762 75.012C257.921 75.1613 258 75.3433 258 75.558C258 75.7727 257.925 75.9593 257.776 76.118ZM256.642 77.616H257.832V84H256.642V77.616ZM260.186 73.948H261.334V84H260.186V73.948ZM263.514 73.948H264.662V84H263.514V73.948ZM273.347 83.216C274.047 83.216 274.588 82.978 274.971 82.502C275.353 82.026 275.545 81.452 275.545 80.78C275.545 80.108 275.377 79.5713 275.041 79.17C274.705 78.7593 274.271 78.554 273.739 78.554C273.216 78.554 272.656 78.7127 272.059 79.03V82.964C272.497 83.132 272.927 83.216 273.347 83.216ZM272.059 73.948V78.134C272.768 77.7327 273.482 77.532 274.201 77.532C274.929 77.532 275.535 77.826 276.021 78.414C276.506 78.9927 276.749 79.7533 276.749 80.696C276.749 81.6387 276.464 82.4553 275.895 83.146C275.335 83.8273 274.532 84.168 273.487 84.168C272.684 84.168 271.825 83.9627 270.911 83.552V73.948H272.059ZM281.164 83.188C281.836 83.188 282.508 82.9873 283.18 82.586L283.586 83.426C282.802 83.9207 281.962 84.168 281.066 84.168C280.179 84.168 279.474 83.888 278.952 83.328C278.429 82.7587 278.168 81.942 278.168 80.878C278.168 79.814 278.438 78.9787 278.98 78.372C279.521 77.756 280.24 77.448 281.136 77.448C281.948 77.448 282.587 77.7 283.054 78.204C283.25 78.4093 283.413 78.708 283.544 79.1C283.684 79.492 283.754 79.954 283.754 80.486L283.32 80.976H279.358C279.386 82.4507 279.988 83.188 281.164 83.188ZM282.578 80.094C282.578 79.5713 282.442 79.1513 282.172 78.834C281.901 78.5167 281.542 78.358 281.094 78.358C280.655 78.358 280.282 78.5167 279.974 78.834C279.666 79.142 279.479 79.562 279.414 80.094H282.578ZM5.306 97.948H6.454V108H5.698L5.348 107.16C4.648 107.832 3.92467 108.168 3.178 108.168C2.44067 108.168 1.82933 107.883 1.344 107.314C0.858667 106.735 0.616 105.956 0.616 104.976C0.616 103.996 0.905333 103.179 1.484 102.526C2.06267 101.863 2.80933 101.532 3.724 101.532C4.21867 101.532 4.746 101.644 5.306 101.868V97.948ZM4.018 102.484C3.318 102.484 2.77667 102.722 2.394 103.198C2.01133 103.674 1.82 104.253 1.82 104.934C1.82 105.615 1.97867 106.161 2.296 106.572C2.61333 106.983 3.024 107.188 3.528 107.188C3.808 107.188 4.10667 107.113 4.424 106.964C4.75067 106.805 5.04467 106.591 5.306 106.32V102.736C4.86733 102.568 4.438 102.484 4.018 102.484ZM9.94416 100.118C9.79482 100.267 9.61282 100.342 9.39816 100.342C9.18349 100.342 9.00149 100.267 8.85216 100.118C8.70282 99.9593 8.62816 99.7727 8.62816 99.558C8.62816 99.3433 8.70282 99.1613 8.85216 99.012C9.01082 98.8533 9.19282 98.774 9.39816 98.774C9.60349 98.774 9.78082 98.8533 9.93016 99.012C10.0888 99.1613 10.1682 99.3433 10.1682 99.558C10.1682 99.7727 10.0935 99.9593 9.94416 100.118ZM8.81016 101.616H10.0002V108H8.81016V101.616ZM15.6858 102.736C15.2098 102.531 14.7618 102.428 14.3418 102.428C13.5298 102.428 13.1238 102.675 13.1238 103.17C13.1238 103.599 13.6651 104.015 14.7478 104.416C15.1491 104.565 15.5178 104.799 15.8538 105.116C16.1991 105.433 16.3718 105.816 16.3718 106.264C16.3718 106.908 16.1618 107.389 15.7418 107.706C15.3218 108.014 14.7385 108.168 13.9918 108.168C13.2451 108.168 12.5171 107.963 11.8078 107.552L12.1578 106.684C12.7458 107.02 13.4131 107.188 14.1598 107.188C14.4771 107.188 14.7338 107.123 14.9298 106.992C15.1258 106.852 15.2238 106.665 15.2238 106.432C15.2238 106.199 15.1118 105.998 14.8878 105.83C14.6638 105.662 14.3931 105.513 14.0758 105.382C13.7585 105.251 13.4411 105.111 13.1238 104.962C12.8065 104.803 12.5358 104.584 12.3118 104.304C12.0878 104.024 11.9758 103.693 11.9758 103.31C11.9758 102.713 12.1765 102.255 12.5778 101.938C12.9885 101.611 13.5065 101.448 14.1318 101.448C14.7571 101.448 15.3918 101.588 16.0358 101.868L15.6858 102.736ZM19.4908 102.498V106.334C19.4908 106.894 19.7568 107.174 20.2888 107.174C20.5968 107.174 20.9655 107.085 21.3948 106.908L21.5488 107.846C21.0915 108.061 20.6108 108.168 20.1068 108.168C19.6028 108.168 19.1828 108.019 18.8468 107.72C18.5108 107.412 18.3428 106.945 18.3428 106.32V102.498H17.4608V101.616H18.3428V100.356L19.2108 99.558H19.4908V101.616H21.2968V102.498H19.4908ZM23.087 101.616H23.843L24.193 102.736H24.249C24.7623 102.073 25.467 101.672 26.363 101.532L26.489 102.638C26.0503 102.666 25.6257 102.778 25.215 102.974C24.8043 103.17 24.4917 103.431 24.277 103.758V108H23.087V101.616ZM31.283 104.178V103.562C31.283 102.806 30.891 102.428 30.107 102.428C29.491 102.428 28.847 102.629 28.175 103.03L27.769 102.19C28.553 101.695 29.3977 101.448 30.303 101.448C30.9377 101.448 31.4557 101.611 31.857 101.938C32.2677 102.255 32.473 102.75 32.473 103.422V108H31.717L31.367 107.16C31.0683 107.468 30.7137 107.715 30.303 107.902C29.8923 108.079 29.519 108.168 29.183 108.168C28.6043 108.168 28.1423 108.009 27.797 107.692C27.4517 107.375 27.279 106.959 27.279 106.446C27.279 104.934 28.6137 104.178 31.283 104.178ZM28.959 105.536C28.7817 105.695 28.6603 105.839 28.595 105.97C28.539 106.091 28.511 106.255 28.511 106.46C28.511 106.656 28.595 106.829 28.763 106.978C28.9403 107.118 29.169 107.188 29.449 107.188C30.037 107.188 30.6483 106.927 31.283 106.404V105.004C30.107 105.023 29.3323 105.2 28.959 105.536ZM37.2135 101.448C37.8389 101.448 38.4735 101.588 39.1175 101.868L38.7675 102.736C38.2915 102.531 37.7829 102.428 37.2415 102.428C36.7095 102.428 36.2849 102.629 35.9675 103.03C35.6595 103.431 35.5055 104.019 35.5055 104.794C35.5055 105.569 35.6689 106.161 35.9955 106.572C36.3222 106.983 36.7515 107.188 37.2835 107.188C37.8155 107.188 38.3662 107.057 38.9355 106.796L39.2015 107.72C38.5482 108.019 37.8855 108.168 37.2135 108.168C36.3455 108.168 35.6362 107.855 35.0855 107.23C34.5442 106.595 34.2735 105.783 34.2735 104.794C34.2735 103.795 34.5442 102.988 35.0855 102.372C35.6362 101.756 36.3455 101.448 37.2135 101.448ZM42.1851 102.498V106.334C42.1851 106.894 42.4511 107.174 42.9831 107.174C43.2911 107.174 43.6597 107.085 44.0891 106.908L44.2431 107.846C43.7857 108.061 43.3051 108.168 42.8011 108.168C42.2971 108.168 41.8771 108.019 41.5411 107.72C41.2051 107.412 41.0371 106.945 41.0371 106.32V102.498H40.1551V101.616H41.0371V100.356L41.9051 99.558H42.1851V101.616H43.9911V102.498H42.1851ZM48.3432 107.188C49.0152 107.188 49.6872 106.987 50.3592 106.586L50.7652 107.426C49.9812 107.921 49.1412 108.168 48.2452 108.168C47.3585 108.168 46.6539 107.888 46.1312 107.328C45.6085 106.759 45.3472 105.942 45.3472 104.878C45.3472 103.814 45.6179 102.979 46.1592 102.372C46.7005 101.756 47.4192 101.448 48.3152 101.448C49.1272 101.448 49.7665 101.7 50.2332 102.204C50.4292 102.409 50.5925 102.708 50.7232 103.1C50.8632 103.492 50.9332 103.954 50.9332 104.486L50.4992 104.976H46.5372C46.5652 106.451 47.1672 107.188 48.3432 107.188ZM49.7572 104.094C49.7572 103.571 49.6219 103.151 49.3512 102.834C49.0805 102.517 48.7212 102.358 48.2732 102.358C47.8345 102.358 47.4612 102.517 47.1532 102.834C46.8452 103.142 46.6585 103.562 46.5932 104.094H49.7572ZM56.9764 97.948H58.1244V108H57.3684L57.0184 107.16C56.3184 107.832 55.5951 108.168 54.8484 108.168C54.1111 108.168 53.4997 107.883 53.0144 107.314C52.5291 106.735 52.2864 105.956 52.2864 104.976C52.2864 103.996 52.5757 103.179 53.1544 102.526C53.7331 101.863 54.4797 101.532 55.3944 101.532C55.8891 101.532 56.4164 101.644 56.9764 101.868V97.948ZM55.6884 102.484C54.9884 102.484 54.4471 102.722 54.0644 103.198C53.6817 103.674 53.4904 104.253 53.4904 104.934C53.4904 105.615 53.6491 106.161 53.9664 106.572C54.2837 106.983 54.6944 107.188 55.1984 107.188C55.4784 107.188 55.7771 107.113 56.0944 106.964C56.4211 106.805 56.7151 106.591 56.9764 106.32V102.736C56.5377 102.568 56.1084 102.484 55.6884 102.484ZM66.816 107.216C67.516 107.216 68.0573 106.978 68.44 106.502C68.8227 106.026 69.014 105.452 69.014 104.78C69.014 104.108 68.846 103.571 68.51 103.17C68.174 102.759 67.74 102.554 67.208 102.554C66.6853 102.554 66.1253 102.713 65.528 103.03V106.964C65.9667 107.132 66.396 107.216 66.816 107.216ZM65.528 97.948V102.134C66.2373 101.733 66.9513 101.532 67.67 101.532C68.398 101.532 69.0047 101.826 69.49 102.414C69.9753 102.993 70.218 103.753 70.218 104.696C70.218 105.639 69.9333 106.455 69.364 107.146C68.804 107.827 68.0013 108.168 66.956 108.168C66.1533 108.168 65.2947 107.963 64.38 107.552V97.948H65.528ZM74.3111 109.134C74.0031 110.03 73.7185 110.627 73.4571 110.926C73.2051 111.234 72.8271 111.388 72.3231 111.388C71.8191 111.388 71.2638 111.248 70.6571 110.968L71.0911 110.058C71.4925 110.273 71.8378 110.38 72.1271 110.38C72.3791 110.38 72.5471 110.338 72.6311 110.254L72.8131 110.072C72.9345 109.951 73.0418 109.741 73.1351 109.442C73.2285 109.143 73.3031 108.91 73.3591 108.742C73.4151 108.583 73.4571 108.457 73.4851 108.364L71.1471 101.616H72.3511L74.0031 106.726H74.0591L75.7111 101.616H76.9151L74.3111 109.134ZM83.7662 102.498V106.334C83.7662 106.894 84.0322 107.174 84.5642 107.174C84.8722 107.174 85.2408 107.085 85.6702 106.908L85.8242 107.846C85.3668 108.061 84.8862 108.168 84.3822 108.168C83.8782 108.168 83.4582 108.019 83.1222 107.72C82.7862 107.412 82.6182 106.945 82.6182 106.32V102.498H81.7362V101.616H82.6182V100.356L83.4862 99.558H83.7662V101.616H85.5722V102.498H83.7662ZM88.4963 97.948V102.274C89.1963 101.723 89.9476 101.448 90.7503 101.448C91.3756 101.448 91.8703 101.607 92.2343 101.924C92.6076 102.232 92.7943 102.638 92.7943 103.142V108H91.6043V103.226C91.6043 102.983 91.5063 102.797 91.3103 102.666C91.1236 102.535 90.8716 102.47 90.5543 102.47C89.8916 102.47 89.2056 102.708 88.4963 103.184V108H87.3063V97.948H88.4963ZM97.6008 107.188C98.2728 107.188 98.9448 106.987 99.6168 106.586L100.023 107.426C99.2388 107.921 98.3988 108.168 97.5028 108.168C96.6161 108.168 95.9115 107.888 95.3888 107.328C94.8661 106.759 94.6048 105.942 94.6048 104.878C94.6048 103.814 94.8755 102.979 95.4168 102.372C95.9581 101.756 96.6768 101.448 97.5728 101.448C98.3848 101.448 99.0241 101.7 99.4908 102.204C99.6868 102.409 99.8501 102.708 99.9808 103.1C100.121 103.492 100.191 103.954 100.191 104.486L99.7568 104.976H95.7948C95.8228 106.451 96.4248 107.188 97.6008 107.188ZM99.0148 104.094C99.0148 103.571 98.8795 103.151 98.6088 102.834C98.3381 102.517 97.9788 102.358 97.5308 102.358C97.0921 102.358 96.7188 102.517 96.4108 102.834C96.1028 103.142 95.9161 103.562 95.8508 104.094H99.0148ZM105.989 101.616H106.745L107.095 102.736H107.151C107.665 102.073 108.369 101.672 109.265 101.532L109.391 102.638C108.953 102.666 108.528 102.778 108.117 102.974C107.707 103.17 107.394 103.431 107.179 103.758V108H105.989V101.616ZM113.247 107.188C113.919 107.188 114.591 106.987 115.263 106.586L115.669 107.426C114.885 107.921 114.045 108.168 113.149 108.168C112.263 108.168 111.558 107.888 111.035 107.328C110.513 106.759 110.251 105.942 110.251 104.878C110.251 103.814 110.522 102.979 111.063 102.372C111.605 101.756 112.323 101.448 113.219 101.448C114.031 101.448 114.671 101.7 115.137 102.204C115.333 102.409 115.497 102.708 115.627 103.1C115.767 103.492 115.837 103.954 115.837 104.486L115.403 104.976H111.441C111.469 106.451 112.071 107.188 113.247 107.188ZM114.661 104.094C114.661 103.571 114.526 103.151 114.255 102.834C113.985 102.517 113.625 102.358 113.177 102.358C112.739 102.358 112.365 102.517 112.057 102.834C111.749 103.142 111.563 103.562 111.497 104.094H114.661ZM121.083 104.178V103.562C121.083 102.806 120.691 102.428 119.907 102.428C119.291 102.428 118.647 102.629 117.975 103.03L117.569 102.19C118.353 101.695 119.197 101.448 120.103 101.448C120.737 101.448 121.255 101.611 121.657 101.938C122.067 102.255 122.273 102.75 122.273 103.422V108H121.517L121.167 107.16C120.868 107.468 120.513 107.715 120.103 107.902C119.692 108.079 119.319 108.168 118.983 108.168C118.404 108.168 117.942 108.009 117.597 107.692C117.251 107.375 117.079 106.959 117.079 106.446C117.079 104.934 118.413 104.178 121.083 104.178ZM118.759 105.536C118.581 105.695 118.46 105.839 118.395 105.97C118.339 106.091 118.311 106.255 118.311 106.46C118.311 106.656 118.395 106.829 118.563 106.978C118.74 107.118 118.969 107.188 119.249 107.188C119.837 107.188 120.448 106.927 121.083 106.404V105.004C119.907 105.023 119.132 105.2 118.759 105.536ZM128.805 97.948H129.953V108H129.197L128.847 107.16C128.147 107.832 127.424 108.168 126.677 108.168C125.94 108.168 125.328 107.883 124.843 107.314C124.358 106.735 124.115 105.956 124.115 104.976C124.115 103.996 124.404 103.179 124.983 102.526C125.562 101.863 126.308 101.532 127.223 101.532C127.718 101.532 128.245 101.644 128.805 101.868V97.948ZM127.517 102.484C126.817 102.484 126.276 102.722 125.893 103.198C125.51 103.674 125.319 104.253 125.319 104.934C125.319 105.615 125.478 106.161 125.795 106.572C126.112 106.983 126.523 107.188 127.027 107.188C127.307 107.188 127.606 107.113 127.923 106.964C128.25 106.805 128.544 106.591 128.805 106.32V102.736C128.366 102.568 127.937 102.484 127.517 102.484ZM135.697 104.178V103.562C135.697 102.806 135.305 102.428 134.521 102.428C133.905 102.428 133.261 102.629 132.589 103.03L132.183 102.19C132.967 101.695 133.812 101.448 134.717 101.448C135.352 101.448 135.87 101.611 136.271 101.938C136.682 102.255 136.887 102.75 136.887 103.422V108H136.131L135.781 107.16C135.483 107.468 135.128 107.715 134.717 107.902C134.307 108.079 133.933 108.168 133.597 108.168C133.019 108.168 132.557 108.009 132.211 107.692C131.866 107.375 131.693 106.959 131.693 106.446C131.693 104.934 133.028 104.178 135.697 104.178ZM133.373 105.536C133.196 105.695 133.075 105.839 133.009 105.97C132.953 106.091 132.925 106.255 132.925 106.46C132.925 106.656 133.009 106.829 133.177 106.978C133.355 107.118 133.583 107.188 133.863 107.188C134.451 107.188 135.063 106.927 135.697 106.404V105.004C134.521 105.023 133.747 105.2 133.373 105.536ZM141.516 107.216C142.216 107.216 142.757 106.978 143.14 106.502C143.522 106.026 143.714 105.452 143.714 104.78C143.714 104.108 143.546 103.571 143.21 103.17C142.874 102.759 142.44 102.554 141.908 102.554C141.385 102.554 140.825 102.713 140.228 103.03V106.964C140.666 107.132 141.096 107.216 141.516 107.216ZM140.228 97.948V102.134C140.937 101.733 141.651 101.532 142.37 101.532C143.098 101.532 143.704 101.826 144.19 102.414C144.675 102.993 144.918 103.753 144.918 104.696C144.918 105.639 144.633 106.455 144.064 107.146C143.504 107.827 142.701 108.168 141.656 108.168C140.853 108.168 139.994 107.963 139.08 107.552V97.948H140.228ZM146.715 97.948H147.863V108H146.715V97.948ZM152.662 107.188C153.334 107.188 154.006 106.987 154.678 106.586L155.084 107.426C154.3 107.921 153.46 108.168 152.564 108.168C151.677 108.168 150.972 107.888 150.45 107.328C149.927 106.759 149.666 105.942 149.666 104.878C149.666 103.814 149.936 102.979 150.478 102.372C151.019 101.756 151.738 101.448 152.634 101.448C153.446 101.448 154.085 101.7 154.552 102.204C154.748 102.409 154.911 102.708 155.042 103.1C155.182 103.492 155.252 103.954 155.252 104.486L154.818 104.976H150.856C150.884 106.451 151.486 107.188 152.662 107.188ZM154.076 104.094C154.076 103.571 153.94 103.151 153.67 102.834C153.399 102.517 153.04 102.358 152.592 102.358C152.153 102.358 151.78 102.517 151.472 102.834C151.164 103.142 150.977 103.562 150.912 104.094H154.076ZM163.556 101.448C164.182 101.448 164.816 101.588 165.46 101.868L165.11 102.736C164.634 102.531 164.126 102.428 163.584 102.428C163.052 102.428 162.628 102.629 162.31 103.03C162.002 103.431 161.848 104.019 161.848 104.794C161.848 105.569 162.012 106.161 162.338 106.572C162.665 106.983 163.094 107.188 163.626 107.188C164.158 107.188 164.709 107.057 165.278 106.796L165.544 107.72C164.891 108.019 164.228 108.168 163.556 108.168C162.688 108.168 161.979 107.855 161.428 107.23C160.887 106.595 160.616 105.783 160.616 104.794C160.616 103.795 160.887 102.988 161.428 102.372C161.979 101.756 162.688 101.448 163.556 101.448ZM169.718 102.358C169.363 102.358 169.055 102.437 168.794 102.596C168.542 102.755 168.355 102.96 168.234 103.212C168.01 103.688 167.898 104.197 167.898 104.738C167.898 106.418 168.481 107.258 169.648 107.258C170.003 107.258 170.306 107.179 170.558 107.02C170.81 106.861 171.001 106.656 171.132 106.404C171.356 105.937 171.468 105.429 171.468 104.878C171.468 103.198 170.885 102.358 169.718 102.358ZM169.718 101.448C170.754 101.448 171.51 101.77 171.986 102.414C172.462 103.058 172.7 103.898 172.7 104.934C172.7 105.681 172.504 106.371 172.112 107.006C171.897 107.351 171.575 107.631 171.146 107.846C170.717 108.061 170.203 108.168 169.606 108.168C168.579 108.168 167.833 107.86 167.366 107.244C166.899 106.628 166.666 105.802 166.666 104.766C166.666 104.159 166.759 103.646 166.946 103.226C167.142 102.806 167.347 102.484 167.562 102.26C167.777 102.027 168.071 101.835 168.444 101.686C168.817 101.527 169.242 101.448 169.718 101.448ZM180.046 103.17V108H178.856V103.226C178.856 102.983 178.758 102.797 178.562 102.666C178.375 102.535 178.123 102.47 177.806 102.47C177.143 102.47 176.457 102.708 175.748 103.184V108H174.558V101.616H175.314L175.664 102.344C176.382 101.747 177.162 101.448 178.002 101.448C178.627 101.448 179.122 101.607 179.486 101.924C179.859 102.241 180.046 102.657 180.046 103.17ZM183.717 102.498V106.334C183.717 106.894 183.983 107.174 184.515 107.174C184.823 107.174 185.192 107.085 185.621 106.908L185.775 107.846C185.318 108.061 184.837 108.168 184.333 108.168C183.829 108.168 183.409 108.019 183.073 107.72C182.737 107.412 182.569 106.945 182.569 106.32V102.498H181.687V101.616H182.569V100.356L183.437 99.558H183.717V101.616H185.523V102.498H183.717ZM189.875 107.188C190.547 107.188 191.219 106.987 191.891 106.586L192.297 107.426C191.513 107.921 190.673 108.168 189.777 108.168C188.89 108.168 188.186 107.888 187.663 107.328C187.14 106.759 186.879 105.942 186.879 104.878C186.879 103.814 187.15 102.979 187.691 102.372C188.232 101.756 188.951 101.448 189.847 101.448C190.659 101.448 191.298 101.7 191.765 102.204C191.961 102.409 192.124 102.708 192.255 103.1C192.395 103.492 192.465 103.954 192.465 104.486L192.031 104.976H188.069C188.097 106.451 188.699 107.188 189.875 107.188ZM191.289 104.094C191.289 103.571 191.154 103.151 190.883 102.834C190.612 102.517 190.253 102.358 189.805 102.358C189.366 102.358 188.993 102.517 188.685 102.834C188.377 103.142 188.19 103.562 188.125 104.094H191.289ZM199.698 103.17V108H198.508V103.226C198.508 102.983 198.41 102.797 198.214 102.666C198.028 102.535 197.776 102.47 197.458 102.47C196.796 102.47 196.11 102.708 195.4 103.184V108H194.21V101.616H194.966L195.316 102.344C196.035 101.747 196.814 101.448 197.654 101.448C198.28 101.448 198.774 101.607 199.138 101.924C199.512 102.241 199.698 102.657 199.698 103.17ZM203.369 102.498V106.334C203.369 106.894 203.635 107.174 204.167 107.174C204.475 107.174 204.844 107.085 205.273 106.908L205.427 107.846C204.97 108.061 204.489 108.168 203.985 108.168C203.481 108.168 203.061 108.019 202.725 107.72C202.389 107.412 202.221 106.945 202.221 106.32V102.498H201.339V101.616H202.221V100.356L203.089 99.558H203.369V101.616H205.175V102.498H203.369ZM213.637 102.358C213.282 102.358 212.974 102.437 212.713 102.596C212.461 102.755 212.274 102.96 212.153 103.212C211.929 103.688 211.817 104.197 211.817 104.738C211.817 106.418 212.4 107.258 213.567 107.258C213.922 107.258 214.225 107.179 214.477 107.02C214.729 106.861 214.92 106.656 215.051 106.404C215.275 105.937 215.387 105.429 215.387 104.878C215.387 103.198 214.804 102.358 213.637 102.358ZM213.637 101.448C214.673 101.448 215.429 101.77 215.905 102.414C216.381 103.058 216.619 103.898 216.619 104.934C216.619 105.681 216.423 106.371 216.031 107.006C215.816 107.351 215.494 107.631 215.065 107.846C214.636 108.061 214.122 108.168 213.525 108.168C212.498 108.168 211.752 107.86 211.285 107.244C210.818 106.628 210.585 105.802 210.585 104.766C210.585 104.159 210.678 103.646 210.865 103.226C211.061 102.806 211.266 102.484 211.481 102.26C211.696 102.027 211.99 101.835 212.363 101.686C212.736 101.527 213.161 101.448 213.637 101.448ZM218.799 101.616V99.922C218.799 99.2313 218.962 98.704 219.289 98.34C219.615 97.9667 220.04 97.78 220.563 97.78C221.095 97.78 221.659 97.92 222.257 98.2L221.851 99.04C221.44 98.872 221.085 98.788 220.787 98.788C220.227 98.788 219.947 99.1613 219.947 99.908V101.616H221.683V102.498H219.947V108H218.799V102.498H217.847V101.616H218.799ZM230.644 104.178V103.562C230.644 102.806 230.252 102.428 229.468 102.428C228.852 102.428 228.208 102.629 227.536 103.03L227.13 102.19C227.914 101.695 228.759 101.448 229.664 101.448C230.299 101.448 230.817 101.611 231.218 101.938C231.629 102.255 231.834 102.75 231.834 103.422V108H231.078L230.728 107.16C230.429 107.468 230.075 107.715 229.664 107.902C229.253 108.079 228.88 108.168 228.544 108.168C227.965 108.168 227.503 108.009 227.158 107.692C226.813 107.375 226.64 106.959 226.64 106.446C226.64 104.934 227.975 104.178 230.644 104.178ZM228.32 105.536C228.143 105.695 228.021 105.839 227.956 105.97C227.9 106.091 227.872 106.255 227.872 106.46C227.872 106.656 227.956 106.829 228.124 106.978C228.301 107.118 228.53 107.188 228.81 107.188C229.398 107.188 230.009 106.927 230.644 106.404V105.004C229.468 105.023 228.693 105.2 228.32 105.536ZM240.572 107.216C241.272 107.216 241.813 106.978 242.196 106.502C242.579 106.026 242.77 105.447 242.77 104.766C242.77 104.075 242.602 103.52 242.266 103.1C241.939 102.68 241.487 102.47 240.908 102.47C240.684 102.47 240.418 102.535 240.11 102.666C239.802 102.797 239.527 102.969 239.284 103.184V106.964C239.723 107.132 240.152 107.216 240.572 107.216ZM239.284 111.22H238.122V101.616H238.878L239.2 102.344C239.881 101.747 240.605 101.448 241.37 101.448C242.135 101.448 242.761 101.747 243.246 102.344C243.731 102.941 243.974 103.721 243.974 104.682C243.974 105.634 243.689 106.455 243.12 107.146C242.56 107.827 241.757 108.168 240.712 108.168C240.245 108.168 239.769 108.103 239.284 107.972V111.22ZM249.353 104.178V103.562C249.353 102.806 248.961 102.428 248.177 102.428C247.561 102.428 246.917 102.629 246.245 103.03L245.839 102.19C246.623 101.695 247.468 101.448 248.373 101.448C249.008 101.448 249.526 101.611 249.927 101.938C250.338 102.255 250.543 102.75 250.543 103.422V108H249.787L249.437 107.16C249.139 107.468 248.784 107.715 248.373 107.902C247.963 108.079 247.589 108.168 247.253 108.168C246.675 108.168 246.213 108.009 245.867 107.692C245.522 107.375 245.349 106.959 245.349 106.446C245.349 104.934 246.684 104.178 249.353 104.178ZM247.029 105.536C246.852 105.695 246.731 105.839 246.665 105.97C246.609 106.091 246.581 106.255 246.581 106.46C246.581 106.656 246.665 106.829 246.833 106.978C247.011 107.118 247.239 107.188 247.519 107.188C248.107 107.188 248.719 106.927 249.353 106.404V105.004C248.177 105.023 247.403 105.2 247.029 105.536ZM254.864 106.194C254.649 106.194 254.444 106.18 254.248 106.152C254.014 106.6 253.898 106.894 253.898 107.034C253.898 107.099 253.982 107.155 254.15 107.202L255.858 107.58C256.651 107.757 257.216 107.963 257.552 108.196C257.888 108.439 258.056 108.793 258.056 109.26C258.056 109.727 257.892 110.119 257.566 110.436C256.931 111.071 255.998 111.388 254.766 111.388C254.01 111.388 253.356 111.248 252.806 110.968C252.255 110.688 251.98 110.287 251.98 109.764C251.98 109.241 252.353 108.639 253.1 107.958C252.82 107.855 252.68 107.701 252.68 107.496C252.68 107.291 252.955 106.782 253.506 105.97C252.703 105.625 252.302 104.901 252.302 103.8C252.302 103.184 252.516 102.647 252.946 102.19C253.384 101.723 254.024 101.49 254.864 101.49C255.349 101.49 255.774 101.56 256.138 101.7L258.098 101.476V102.414H257.048C257.29 102.806 257.412 103.305 257.412 103.912C257.412 104.509 257.197 105.041 256.768 105.508C256.338 105.965 255.704 106.194 254.864 106.194ZM256.292 104.01C256.292 102.853 255.82 102.274 254.878 102.274C254.504 102.274 254.201 102.372 253.968 102.568C253.604 102.885 253.422 103.282 253.422 103.758C253.422 104.225 253.534 104.617 253.758 104.934C253.982 105.251 254.341 105.41 254.836 105.41C255.33 105.41 255.694 105.261 255.928 104.962C256.17 104.654 256.292 104.337 256.292 104.01ZM253.1 109.582C253.1 109.881 253.263 110.109 253.59 110.268C253.916 110.427 254.341 110.506 254.864 110.506C255.386 110.506 255.872 110.399 256.32 110.184C256.768 109.979 256.992 109.694 256.992 109.33C256.992 109.143 256.884 108.989 256.67 108.868C256.455 108.756 256.082 108.644 255.55 108.532L253.912 108.168C253.37 108.709 253.1 109.181 253.1 109.582ZM262.182 107.188C262.854 107.188 263.526 106.987 264.198 106.586L264.604 107.426C263.82 107.921 262.98 108.168 262.084 108.168C261.198 108.168 260.493 107.888 259.97 107.328C259.448 106.759 259.186 105.942 259.186 104.878C259.186 103.814 259.457 102.979 259.998 102.372C260.54 101.756 261.258 101.448 262.154 101.448C262.966 101.448 263.606 101.7 264.072 102.204C264.268 102.409 264.432 102.708 264.562 103.1C264.702 103.492 264.772 103.954 264.772 104.486L264.338 104.976H260.376C260.404 106.451 261.006 107.188 262.182 107.188ZM263.596 104.094C263.596 103.571 263.461 103.151 263.19 102.834C262.92 102.517 262.56 102.358 262.112 102.358C261.674 102.358 261.3 102.517 260.992 102.834C260.684 103.142 260.498 103.562 260.432 104.094H263.596ZM267.175 107.916C267.035 108.056 266.863 108.126 266.657 108.126C266.452 108.126 266.279 108.056 266.139 107.916C265.999 107.767 265.929 107.585 265.929 107.37C265.929 107.155 265.999 106.978 266.139 106.838C266.279 106.698 266.452 106.628 266.657 106.628C266.863 106.628 267.035 106.698 267.175 106.838C267.325 106.978 267.399 107.155 267.399 107.37C267.399 107.585 267.325 107.767 267.175 107.916Z" fill="#9B9B9B"/>
<path fill-rule="evenodd" clip-rule="evenodd" d="M246.153 11.062C248.819 11.062 250.992 8.57769 250.992 5.53099C250.992 2.48429 248.819 0 246.153 0C243.488 0 241.313 2.48515 241.313 5.53099C241.313 8.57725 243.488 11.062 246.153 11.062Z" fill="#596B86"/>
<path fill-rule="evenodd" clip-rule="evenodd" d="M240.722 14.423C241.715 12.3389 244.188 11.465 246.247 12.4708C247.044 12.8604 247.661 13.4739 248.062 14.2016C248.957 15.5551 250.428 17.1946 252.242 18.538C253.694 19.6121 255.338 20.4721 257.027 20.7856C258.15 20.9939 258.894 22.085 258.687 23.2217C258.482 24.358 257.405 25.1119 256.281 24.9035C253.913 24.4632 251.697 23.3261 249.794 21.9169C249.033 21.3536 248.318 20.7422 247.66 20.1129C247.549 20.7223 247.437 21.4191 247.329 22.1565C246.916 24.9691 246.657 28.0665 246.657 29.4859C246.657 31.4238 248.342 34.2482 249.719 37.7834C250.962 40.9747 251.844 44.6514 251.904 48.4076C251.925 49.7556 250.862 50.8653 249.531 50.886C248.2 50.9071 247.104 49.8321 247.083 48.4841C247.033 45.3854 246.28 42.2888 245.22 39.5624C244.65 38.0982 243.998 36.7582 243.327 35.5962C242.969 37.903 242.336 40.3801 241.386 42.6654C240.12 45.7125 238.277 48.4672 235.747 50.1731C234.635 50.918 233.137 50.61 232.401 49.4839C231.666 48.3577 231.97 46.8415 233.081 46.0962C234.737 44.9789 236.014 43.0085 236.943 40.7702C238.816 36.2648 238.36 34.7597 238.36 29.4852C238.36 27.7809 238.658 24.1617 239.13 20.9417C239.513 18.3264 240.051 15.8294 240.721 14.4227L240.722 14.423Z" fill="#596B86"/>
<path fill-rule="evenodd" clip-rule="evenodd" d="M260.94 24.6133H284.448V20.4649C284.448 20.0846 284.759 19.7736 285.14 19.7736C285.52 19.7736 285.831 20.0842 285.831 20.4649V24.6133C286.212 24.6133 286.523 24.9247 286.523 25.3051C286.523 25.6854 286.212 25.9964 285.831 25.9964V32.9108C286.212 32.9108 286.523 33.2214 286.523 33.6021C286.523 33.9825 286.212 34.2939 285.831 34.2939V41.2079C286.212 41.2079 286.523 41.5193 286.523 41.8992V41.8997C286.523 42.2795 286.212 42.591 285.831 42.591V46.7401C285.831 47.12 285.52 47.4314 285.14 47.4314C284.759 47.4314 284.448 47.12 284.448 46.7401V42.591L260.94 42.5905V46.7397C260.94 47.1196 260.628 47.431 260.249 47.431C259.868 47.431 259.557 47.1196 259.557 46.7397V42.5905C259.176 42.5905 258.865 42.2791 258.865 41.8992V41.8988C258.865 41.5189 259.176 41.2075 259.557 41.2075V34.2926C259.176 34.2926 258.865 33.9812 258.865 33.6009C258.865 33.2206 259.176 32.9095 259.557 32.9095V25.9955C259.176 25.9955 258.865 25.6849 258.865 25.3042C258.865 24.9239 259.176 24.6125 259.557 24.6125V20.4641C259.557 20.0838 259.868 19.7728 260.249 19.7728C260.628 19.7728 260.94 20.0834 260.94 20.4641V24.6133ZM284.447 25.9955H260.94V32.91H284.448L284.447 25.9955ZM284.447 34.2926H260.94V41.2066H284.448L284.447 34.2926Z" fill="#596B86"/>
<path fill-rule="evenodd" clip-rule="evenodd" d="M260.249 50.8863C261.01 50.8863 261.631 50.266 261.631 49.5041C261.631 48.7427 261.01 48.1219 260.249 48.1219C259.487 48.1219 258.866 48.7427 258.866 49.5041C258.866 50.266 259.487 50.8863 260.249 50.8863Z" fill="#596B86"/>
<path fill-rule="evenodd" clip-rule="evenodd" d="M285.139 50.8863C285.901 50.8863 286.522 50.266 286.522 49.5041C286.522 48.7427 285.901 48.1219 285.139 48.1219C284.378 48.1219 283.757 48.7427 283.757 49.5041C283.756 50.266 284.377 50.8863 285.139 50.8863Z" fill="#596B86"/>
<path fill-rule="evenodd" clip-rule="evenodd" d="M270.512 17.0323C274.057 17.3285 276.842 20.2991 276.842 23.9219H263.014C263.014 20.3001 265.8 17.329 269.345 17.0323C269.276 16.9249 269.237 16.7977 269.237 16.6621C269.237 16.2797 269.547 15.9704 269.929 15.9704C270.31 15.9704 270.62 16.2801 270.62 16.6621C270.62 16.7977 270.581 16.9249 270.513 17.0323H270.512Z" fill="#596B86"/>
<path fill-rule="evenodd" clip-rule="evenodd" d="M280.991 10.785C280.991 12.6925 282.373 13.1138 282.373 14.9334V23.2305C282.373 23.6104 282.061 23.9222 281.681 23.9222H278.224C277.844 23.9222 277.532 23.6108 277.532 23.2305V20.1191H280.99V16.6617H277.532V14.9333C277.532 13.1133 278.915 12.6924 278.915 10.7849L278.916 8.71097H280.99V10.7849L280.991 10.785Z" fill="#596B86"/>
<path fill-rule="evenodd" clip-rule="evenodd" d="M278.917 5.4054H280.991V8.17062H278.917V5.4054Z" fill="#596B86"/>
<path d="M6.97266 24.8672C8.37891 24.8672 9.53906 25.043 10.4531 25.3945C11.375 25.7383 12.0625 26.2656 12.5156 26.9766C12.9688 27.6875 13.1953 28.5938 13.1953 29.6953C13.1953 30.6016 13.0312 31.3594 12.7031 31.9688C12.375 32.5703 11.9453 33.0586 11.4141 33.4336C10.8828 33.8086 10.3164 34.0977 9.71484 34.3008L14.4141 42H12.0938L7.89844 34.8516H4.33594V42H2.34375V24.8672H6.97266ZM6.85547 26.5898H4.33594V33.1641H7.05469C8.45312 33.1641 9.48047 32.8789 10.1367 32.3086C10.8008 31.7383 11.1328 30.8984 11.1328 29.7891C11.1328 28.625 10.7812 27.8008 10.0781 27.3164C9.38281 26.832 8.30859 26.5898 6.85547 26.5898ZM27.9375 35.5547C27.9375 36.6094 27.8008 37.5508 27.5273 38.3789C27.2539 39.207 26.8594 39.9062 26.3438 40.4766C25.8281 41.0469 25.2031 41.4844 24.4688 41.7891C23.7422 42.0859 22.918 42.2344 21.9961 42.2344C21.1367 42.2344 20.3477 42.0859 19.6289 41.7891C18.918 41.4844 18.3008 41.0469 17.7773 40.4766C17.2617 39.9062 16.8594 39.207 16.5703 38.3789C16.2891 37.5508 16.1484 36.6094 16.1484 35.5547C16.1484 34.1484 16.3867 32.9531 16.8633 31.9688C17.3398 30.9766 18.0195 30.2227 18.9023 29.707C19.793 29.1836 20.8516 28.9219 22.0781 28.9219C23.25 28.9219 24.2734 29.1836 25.1484 29.707C26.0312 30.2305 26.7148 30.9883 27.1992 31.9805C27.6914 32.9648 27.9375 34.1562 27.9375 35.5547ZM18.1641 35.5547C18.1641 36.5859 18.3008 37.4805 18.5742 38.2383C18.8477 38.9961 19.2695 39.582 19.8398 39.9961C20.4102 40.4102 21.1445 40.6172 22.043 40.6172C22.9336 40.6172 23.6641 40.4102 24.2344 39.9961C24.8125 39.582 25.2383 38.9961 25.5117 38.2383C25.7852 37.4805 25.9219 36.5859 25.9219 35.5547C25.9219 34.5312 25.7852 33.6484 25.5117 32.9062C25.2383 32.1562 24.8164 31.5781 24.2461 31.1719C23.6758 30.7656 22.9375 30.5625 22.0312 30.5625C20.6953 30.5625 19.7148 31.0039 19.0898 31.8867C18.4727 32.7695 18.1641 33.9922 18.1641 35.5547ZM42.375 35.5547C42.375 36.6094 42.2383 37.5508 41.9648 38.3789C41.6914 39.207 41.2969 39.9062 40.7812 40.4766C40.2656 41.0469 39.6406 41.4844 38.9062 41.7891C38.1797 42.0859 37.3555 42.2344 36.4336 42.2344C35.5742 42.2344 34.7852 42.0859 34.0664 41.7891C33.3555 41.4844 32.7383 41.0469 32.2148 40.4766C31.6992 39.9062 31.2969 39.207 31.0078 38.3789C30.7266 37.5508 30.5859 36.6094 30.5859 35.5547C30.5859 34.1484 30.8242 32.9531 31.3008 31.9688C31.7773 30.9766 32.457 30.2227 33.3398 29.707C34.2305 29.1836 35.2891 28.9219 36.5156 28.9219C37.6875 28.9219 38.7109 29.1836 39.5859 29.707C40.4688 30.2305 41.1523 30.9883 41.6367 31.9805C42.1289 32.9648 42.375 34.1562 42.375 35.5547ZM32.6016 35.5547C32.6016 36.5859 32.7383 37.4805 33.0117 38.2383C33.2852 38.9961 33.707 39.582 34.2773 39.9961C34.8477 40.4102 35.582 40.6172 36.4805 40.6172C37.3711 40.6172 38.1016 40.4102 38.6719 39.9961C39.25 39.582 39.6758 38.9961 39.9492 38.2383C40.2227 37.4805 40.3594 36.5859 40.3594 35.5547C40.3594 34.5312 40.2227 33.6484 39.9492 32.9062C39.6758 32.1562 39.2539 31.5781 38.6836 31.1719C38.1133 30.7656 37.375 30.5625 36.4688 30.5625C35.1328 30.5625 34.1523 31.0039 33.5273 31.8867C32.9102 32.7695 32.6016 33.9922 32.6016 35.5547ZM59.6836 28.9219C61.0977 28.9219 62.1641 29.293 62.8828 30.0352C63.6016 30.7695 63.9609 31.9531 63.9609 33.5859V42H62.0391V33.6797C62.0391 32.6406 61.8125 31.8633 61.3594 31.3477C60.9141 30.8242 60.25 30.5625 59.3672 30.5625C58.125 30.5625 57.2227 30.9219 56.6602 31.6406C56.0977 32.3594 55.8164 33.418 55.8164 34.8164V42H53.8828V33.6797C53.8828 32.9844 53.7812 32.4062 53.5781 31.9453C53.3828 31.4844 53.0859 31.1406 52.6875 30.9141C52.2969 30.6797 51.8008 30.5625 51.1992 30.5625C50.3477 30.5625 49.6641 30.7383 49.1484 31.0898C48.6328 31.4414 48.2578 31.9648 48.0234 32.6602C47.7969 33.3477 47.6836 34.1953 47.6836 35.2031V42H45.7383V29.1562H47.3086L47.6016 30.9727H47.707C47.9648 30.5273 48.2891 30.1523 48.6797 29.8477C49.0703 29.543 49.5078 29.3125 49.9922 29.1562C50.4766 29 50.9922 28.9219 51.5391 28.9219C52.5156 28.9219 53.332 29.1055 53.9883 29.4727C54.6523 29.832 55.1328 30.3828 55.4297 31.125H55.5352C55.957 30.3828 56.5352 29.832 57.2695 29.4727C58.0039 29.1055 58.8086 28.9219 59.6836 28.9219ZM84.1523 37.4414C84.1523 38.457 83.8984 39.3242 83.3906 40.043C82.8906 40.7539 82.1875 41.2969 81.2812 41.6719C80.375 42.0469 79.3086 42.2344 78.082 42.2344C77.4336 42.2344 76.8203 42.2031 76.2422 42.1406C75.6641 42.0781 75.1328 41.9883 74.6484 41.8711C74.1641 41.7539 73.7383 41.6094 73.3711 41.4375V39.5273C73.957 39.7695 74.6719 39.9961 75.5156 40.207C76.3594 40.4102 77.2422 40.5117 78.1641 40.5117C79.0234 40.5117 79.75 40.3984 80.3438 40.1719C80.9375 39.9375 81.3867 39.6055 81.6914 39.1758C82.0039 38.7383 82.1602 38.2148 82.1602 37.6055C82.1602 37.0195 82.0312 36.5312 81.7734 36.1406C81.5156 35.7422 81.0859 35.3828 80.4844 35.0625C79.8906 34.7344 79.0781 34.3867 78.0469 34.0195C77.3203 33.7617 76.6797 33.4805 76.125 33.1758C75.5703 32.8633 75.1055 32.5117 74.7305 32.1211C74.3555 31.7305 74.0703 31.2773 73.875 30.7617C73.6875 30.2461 73.5938 29.6562 73.5938 28.9922C73.5938 28.0781 73.8242 27.2969 74.2852 26.6484C74.7539 25.9922 75.3984 25.4922 76.2188 25.1484C77.0469 24.7969 77.9961 24.6211 79.0664 24.6211C79.9805 24.6211 80.8242 24.707 81.5977 24.8789C82.3789 25.0508 83.0938 25.2812 83.7422 25.5703L83.1211 27.2812C82.5039 27.0234 81.8477 26.8086 81.1523 26.6367C80.4648 26.4648 79.7539 26.3789 79.0195 26.3789C78.2852 26.3789 77.6641 26.4883 77.1562 26.707C76.6562 26.918 76.2734 27.2188 76.0078 27.6094C75.7422 28 75.6094 28.4648 75.6094 29.0039C75.6094 29.6055 75.7344 30.1055 75.9844 30.5039C76.2422 30.9023 76.6484 31.2578 77.2031 31.5703C77.7656 31.875 78.5078 32.1953 79.4297 32.5312C80.4375 32.8984 81.293 33.2891 81.9961 33.7031C82.6992 34.1094 83.2344 34.6094 83.6016 35.2031C83.9688 35.7891 84.1523 36.5352 84.1523 37.4414ZM92.3086 28.9219C93.4023 28.9219 94.3398 29.1641 95.1211 29.6484C95.9023 30.1328 96.5 30.8125 96.9141 31.6875C97.3281 32.5547 97.5352 33.5703 97.5352 34.7344V35.9414H88.6641C88.6875 37.4492 89.0625 38.5977 89.7891 39.3867C90.5156 40.1758 91.5391 40.5703 92.8594 40.5703C93.6719 40.5703 94.3906 40.4961 95.0156 40.3477C95.6406 40.1992 96.2891 39.9805 96.9609 39.6914V41.4023C96.3125 41.6914 95.668 41.9023 95.0273 42.0352C94.3945 42.168 93.6445 42.2344 92.7773 42.2344C91.543 42.2344 90.4648 41.9844 89.543 41.4844C88.6289 40.9766 87.918 40.2344 87.4102 39.2578C86.9023 38.2812 86.6484 37.0859 86.6484 35.6719C86.6484 34.2891 86.8789 33.0938 87.3398 32.0859C87.8086 31.0703 88.4648 30.2891 89.3086 29.7422C90.1602 29.1953 91.1602 28.9219 92.3086 28.9219ZM92.2852 30.5156C91.2461 30.5156 90.418 30.8555 89.8008 31.5352C89.1836 32.2148 88.8164 33.1641 88.6992 34.3828H95.4961C95.4883 33.6172 95.3672 32.9453 95.1328 32.3672C94.9062 31.7812 94.5586 31.3281 94.0898 31.0078C93.6211 30.6797 93.0195 30.5156 92.2852 30.5156ZM106.676 28.9219C106.934 28.9219 107.203 28.9375 107.484 28.9688C107.766 28.9922 108.016 29.0273 108.234 29.0742L107.988 30.8789C107.777 30.8242 107.543 30.7812 107.285 30.75C107.027 30.7188 106.785 30.7031 106.559 30.7031C106.043 30.7031 105.555 30.8086 105.094 31.0195C104.641 31.2227 104.242 31.5195 103.898 31.9102C103.555 32.293 103.285 32.7578 103.09 33.3047C102.895 33.8438 102.797 34.4453 102.797 35.1094V42H100.84V29.1562H102.457L102.668 31.5234H102.75C103.016 31.0469 103.336 30.6133 103.711 30.2227C104.086 29.8242 104.52 29.5078 105.012 29.2734C105.512 29.0391 106.066 28.9219 106.676 28.9219ZM113.484 42L108.609 29.1562H110.695L113.52 36.9258C113.715 37.457 113.914 38.043 114.117 38.6836C114.32 39.3242 114.461 39.8398 114.539 40.2305H114.621C114.715 39.8398 114.871 39.3242 115.09 38.6836C115.309 38.0352 115.508 37.4492 115.688 36.9258L118.512 29.1562H120.598L115.711 42H113.484ZM124.605 29.1562V42H122.66V29.1562H124.605ZM123.656 24.3516C123.977 24.3516 124.25 24.457 124.477 24.668C124.711 24.8711 124.828 25.1914 124.828 25.6289C124.828 26.0586 124.711 26.3789 124.477 26.5898C124.25 26.8008 123.977 26.9062 123.656 26.9062C123.32 26.9062 123.039 26.8008 122.812 26.5898C122.594 26.3789 122.484 26.0586 122.484 25.6289C122.484 25.1914 122.594 24.8711 122.812 24.668C123.039 24.457 123.32 24.3516 123.656 24.3516ZM133.875 42.2344C132.719 42.2344 131.699 41.9961 130.816 41.5195C129.934 41.043 129.246 40.3164 128.754 39.3398C128.262 38.3633 128.016 37.1328 128.016 35.6484C128.016 34.0938 128.273 32.8242 128.789 31.8398C129.312 30.8477 130.031 30.1133 130.945 29.6367C131.859 29.1602 132.898 28.9219 134.062 28.9219C134.703 28.9219 135.32 28.9883 135.914 29.1211C136.516 29.2461 137.008 29.4062 137.391 29.6016L136.805 31.2305C136.414 31.0742 135.961 30.9336 135.445 30.8086C134.938 30.6836 134.461 30.6211 134.016 30.6211C133.125 30.6211 132.383 30.8125 131.789 31.1953C131.203 31.5781 130.762 32.1406 130.465 32.8828C130.176 33.625 130.031 34.5391 130.031 35.625C130.031 36.6641 130.172 37.5508 130.453 38.2852C130.742 39.0195 131.168 39.582 131.73 39.9727C132.301 40.3555 133.012 40.5469 133.863 40.5469C134.543 40.5469 135.156 40.4766 135.703 40.3359C136.25 40.1875 136.746 40.0156 137.191 39.8203V41.5547C136.762 41.7734 136.281 41.9414 135.75 42.0586C135.227 42.1758 134.602 42.2344 133.875 42.2344ZM145.184 28.9219C146.277 28.9219 147.215 29.1641 147.996 29.6484C148.777 30.1328 149.375 30.8125 149.789 31.6875C150.203 32.5547 150.41 33.5703 150.41 34.7344V35.9414H141.539C141.562 37.4492 141.938 38.5977 142.664 39.3867C143.391 40.1758 144.414 40.5703 145.734 40.5703C146.547 40.5703 147.266 40.4961 147.891 40.3477C148.516 40.1992 149.164 39.9805 149.836 39.6914V41.4023C149.188 41.6914 148.543 41.9023 147.902 42.0352C147.27 42.168 146.52 42.2344 145.652 42.2344C144.418 42.2344 143.34 41.9844 142.418 41.4844C141.504 40.9766 140.793 40.2344 140.285 39.2578C139.777 38.2812 139.523 37.0859 139.523 35.6719C139.523 34.2891 139.754 33.0938 140.215 32.0859C140.684 31.0703 141.34 30.2891 142.184 29.7422C143.035 29.1953 144.035 28.9219 145.184 28.9219ZM145.16 30.5156C144.121 30.5156 143.293 30.8555 142.676 31.5352C142.059 32.2148 141.691 33.1641 141.574 34.3828H148.371C148.363 33.6172 148.242 32.9453 148.008 32.3672C147.781 31.7812 147.434 31.3281 146.965 31.0078C146.496 30.6797 145.895 30.5156 145.16 30.5156ZM162.023 38.4844C162.023 39.3047 161.816 39.9961 161.402 40.5586C160.996 41.1133 160.41 41.5312 159.645 41.8125C158.887 42.0938 157.98 42.2344 156.926 42.2344C156.027 42.2344 155.25 42.1641 154.594 42.0234C153.938 41.8828 153.363 41.6836 152.871 41.4258V39.6328C153.395 39.8906 154.02 40.125 154.746 40.3359C155.473 40.5469 156.215 40.6523 156.973 40.6523C158.082 40.6523 158.887 40.4727 159.387 40.1133C159.887 39.7539 160.137 39.2656 160.137 38.6484C160.137 38.2969 160.035 37.9883 159.832 37.7227C159.637 37.4492 159.305 37.1875 158.836 36.9375C158.367 36.6797 157.719 36.3984 156.891 36.0938C156.07 35.7812 155.359 35.4727 154.758 35.168C154.164 34.8555 153.703 34.4766 153.375 34.0312C153.055 33.5859 152.895 33.0078 152.895 32.2969C152.895 31.2109 153.332 30.3789 154.207 29.8008C155.09 29.2148 156.246 28.9219 157.676 28.9219C158.449 28.9219 159.172 29 159.844 29.1562C160.523 29.3047 161.156 29.5078 161.742 29.7656L161.086 31.3242C160.555 31.0977 159.988 30.9062 159.387 30.75C158.785 30.5938 158.172 30.5156 157.547 30.5156C156.648 30.5156 155.957 30.6641 155.473 30.9609C154.996 31.2578 154.758 31.6641 154.758 32.1797C154.758 32.5781 154.867 32.9062 155.086 33.1641C155.312 33.4219 155.672 33.6641 156.164 33.8906C156.656 34.1172 157.305 34.3828 158.109 34.6875C158.914 34.9844 159.609 35.293 160.195 35.6133C160.781 35.9258 161.23 36.3086 161.543 36.7617C161.863 37.207 162.023 37.7812 162.023 38.4844Z" fill="#131313"/>
</svg>
