<svg width="267" height="115" viewBox="0 0 267 115" fill="none" xmlns="http://www.w3.org/2000/svg">
<path d="M176.996 60H176.416V53.5312C176.416 53.3008 176.416 53.0996 176.416 52.9277C176.416 52.752 176.418 52.5957 176.422 52.459C176.426 52.3184 176.432 52.1855 176.439 52.0605C176.334 52.166 176.232 52.2578 176.135 52.3359C176.037 52.4141 175.912 52.5137 175.76 52.6348L174.494 53.5957L174.166 53.1738L176.498 51.4336H176.996V60ZM184.66 51.4336H187.009C188.068 51.4336 188.841 51.5996 189.33 51.9316C189.822 52.2637 190.068 52.793 190.068 53.5195C190.068 53.8477 190.003 54.1465 189.875 54.416C189.75 54.6855 189.562 54.9121 189.312 55.0957C189.066 55.2754 188.761 55.3984 188.398 55.4648V55.5059C188.832 55.5723 189.189 55.6934 189.47 55.8691C189.755 56.041 189.966 56.2695 190.103 56.5547C190.244 56.8359 190.314 57.1719 190.314 57.5625C190.314 58.125 190.185 58.5859 189.927 58.9453C189.673 59.3047 189.32 59.5703 188.867 59.7422C188.414 59.9141 187.89 60 187.296 60H184.66V51.4336ZM185.263 55.2422H187.162C187.966 55.2422 188.548 55.1016 188.908 54.8203C189.267 54.5391 189.447 54.123 189.447 53.5723C189.447 53.002 189.253 52.5918 188.867 52.3418C188.48 52.0918 187.861 51.9668 187.009 51.9668H185.263V55.2422ZM185.263 55.7695V59.4668H187.279C188.072 59.4668 188.669 59.3066 189.072 58.9863C189.474 58.6621 189.675 58.1797 189.675 57.5391C189.675 57.1172 189.582 56.7773 189.394 56.5195C189.207 56.2578 188.925 56.0684 188.55 55.9512C188.179 55.8301 187.716 55.7695 187.162 55.7695H185.263ZM194.497 53.5195C195.197 53.5195 195.72 53.6953 196.068 54.0469C196.415 54.3984 196.589 54.959 196.589 55.7285V60H196.132L196.027 58.8867H195.991C195.855 59.125 195.689 59.3379 195.493 59.5254C195.298 59.709 195.058 59.8535 194.773 59.959C194.491 60.0645 194.148 60.1172 193.741 60.1172C193.331 60.1172 192.98 60.0488 192.687 59.9121C192.398 59.7754 192.173 59.5762 192.013 59.3145C191.857 59.0527 191.779 58.7344 191.779 58.3594C191.779 57.7266 192.04 57.2461 192.564 56.918C193.087 56.5859 193.839 56.3984 194.82 56.3555L196.003 56.2969V55.834C196.003 55.1816 195.874 54.7168 195.616 54.4395C195.359 54.1621 194.978 54.0234 194.474 54.0234C194.146 54.0234 193.829 54.0664 193.525 54.1523C193.224 54.2344 192.917 54.3535 192.605 54.5098L192.417 54.0176C192.722 53.873 193.048 53.7539 193.396 53.6602C193.747 53.5664 194.115 53.5195 194.497 53.5195ZM195.997 56.7598L194.884 56.8066C194.075 56.8457 193.46 56.9902 193.038 57.2402C192.616 57.4902 192.406 57.8652 192.406 58.3652C192.406 58.7676 192.531 59.0762 192.781 59.291C193.034 59.5059 193.386 59.6133 193.835 59.6133C194.534 59.6133 195.068 59.4141 195.435 59.0156C195.806 58.6172 195.993 58.0742 195.997 57.3867V56.7598ZM200.597 59.6074C200.78 59.6074 200.95 59.5938 201.106 59.5664C201.267 59.5391 201.407 59.5039 201.528 59.4609V59.9531C201.403 59.9961 201.257 60.0332 201.089 60.0645C200.921 60.0996 200.735 60.1172 200.532 60.1172C200.173 60.1172 199.874 60.0508 199.636 59.918C199.397 59.7812 199.218 59.5762 199.097 59.3027C198.976 59.0254 198.915 58.6738 198.915 58.248V54.123H197.966V53.7715L198.909 53.5898L199.114 52.0898H199.507V53.6309H201.493V54.123H199.507V58.2129C199.507 58.6699 199.591 59.0176 199.759 59.2559C199.931 59.4902 200.21 59.6074 200.597 59.6074ZM203.725 50.8828V53.8594C203.725 54.0312 203.721 54.1914 203.714 54.3398C203.71 54.4883 203.702 54.6387 203.69 54.791H203.731C203.837 54.5488 203.987 54.332 204.182 54.1406C204.382 53.9492 204.626 53.7969 204.915 53.6836C205.208 53.5703 205.546 53.5137 205.929 53.5137C206.413 53.5137 206.819 53.5977 207.147 53.7656C207.479 53.9297 207.731 54.1816 207.903 54.5215C208.075 54.8613 208.161 55.2988 208.161 55.834V60H207.575V55.8691C207.575 55.2363 207.43 54.7715 207.141 54.4746C206.852 54.1777 206.432 54.0293 205.882 54.0293C205.413 54.0293 205.018 54.1211 204.698 54.3047C204.378 54.4844 204.136 54.7578 203.971 55.125C203.807 55.4883 203.725 55.9434 203.725 56.4902V60H203.134V50.8828H203.725ZM213.001 53.5195C213.169 53.5195 213.327 53.5293 213.475 53.5488C213.624 53.5684 213.762 53.5957 213.891 53.6309L213.797 54.1758C213.669 54.1406 213.538 54.1152 213.405 54.0996C213.272 54.0801 213.129 54.0703 212.977 54.0703C212.676 54.0703 212.407 54.127 212.169 54.2402C211.934 54.3535 211.735 54.5156 211.571 54.7266C211.407 54.9375 211.282 55.1914 211.196 55.4883C211.11 55.7852 211.067 56.1172 211.067 56.4844V60H210.469V53.6309H210.979L211.038 54.832H211.073C211.17 54.5859 211.307 54.3652 211.483 54.1699C211.663 53.9707 211.879 53.8125 212.133 53.6953C212.387 53.5781 212.676 53.5195 213.001 53.5195ZM220.664 56.8066C220.664 57.2988 220.604 57.748 220.483 58.1543C220.362 58.5566 220.182 58.9043 219.944 59.1973C219.705 59.4902 219.409 59.7168 219.053 59.877C218.701 60.0371 218.291 60.1172 217.823 60.1172C217.377 60.1172 216.981 60.0391 216.633 59.8828C216.285 59.7227 215.991 59.4961 215.748 59.2031C215.51 58.9102 215.328 58.5625 215.203 58.1602C215.078 57.7539 215.016 57.3027 215.016 56.8066C215.016 56.123 215.129 55.5352 215.356 55.043C215.586 54.5469 215.914 54.168 216.34 53.9062C216.77 53.6406 217.284 53.5078 217.881 53.5078C218.498 53.5078 219.012 53.6484 219.422 53.9297C219.836 54.207 220.147 54.5938 220.354 55.0898C220.561 55.5859 220.664 56.1582 220.664 56.8066ZM215.625 56.8066C215.625 57.3652 215.705 57.8535 215.866 58.2715C216.026 58.6895 216.268 59.0156 216.592 59.25C216.92 59.4844 217.334 59.6016 217.834 59.6016C218.346 59.6016 218.766 59.4844 219.094 59.25C219.422 59.0156 219.664 58.6875 219.821 58.2656C219.977 57.8438 220.055 57.3574 220.055 56.8066C220.055 56.2715 219.981 55.7949 219.832 55.377C219.684 54.959 219.45 54.6309 219.129 54.3926C218.809 54.1504 218.391 54.0293 217.875 54.0293C217.137 54.0293 216.576 54.2754 216.194 54.7676C215.815 55.2598 215.625 55.9395 215.625 56.8066ZM227.947 56.8066C227.947 57.2988 227.887 57.748 227.766 58.1543C227.645 58.5566 227.465 58.9043 227.227 59.1973C226.988 59.4902 226.691 59.7168 226.336 59.877C225.984 60.0371 225.574 60.1172 225.106 60.1172C224.66 60.1172 224.264 60.0391 223.916 59.8828C223.568 59.7227 223.274 59.4961 223.031 59.2031C222.793 58.9102 222.611 58.5625 222.486 58.1602C222.361 57.7539 222.299 57.3027 222.299 56.8066C222.299 56.123 222.412 55.5352 222.639 55.043C222.869 54.5469 223.197 54.168 223.623 53.9062C224.053 53.6406 224.566 53.5078 225.164 53.5078C225.781 53.5078 226.295 53.6484 226.705 53.9297C227.119 54.207 227.43 54.5938 227.637 55.0898C227.844 55.5859 227.947 56.1582 227.947 56.8066ZM222.908 56.8066C222.908 57.3652 222.988 57.8535 223.149 58.2715C223.309 58.6895 223.551 59.0156 223.875 59.25C224.203 59.4844 224.617 59.6016 225.117 59.6016C225.629 59.6016 226.049 59.4844 226.377 59.25C226.705 59.0156 226.947 58.6875 227.104 58.2656C227.26 57.8438 227.338 57.3574 227.338 56.8066C227.338 56.2715 227.264 55.7949 227.115 55.377C226.967 54.959 226.732 54.6309 226.412 54.3926C226.092 54.1504 225.674 54.0293 225.158 54.0293C224.42 54.0293 223.859 54.2754 223.477 54.7676C223.098 55.2598 222.908 55.9395 222.908 56.8066ZM236.519 53.5078C237.133 53.5078 237.617 53.6855 237.972 54.041C238.328 54.3965 238.506 54.957 238.506 55.7227V60H237.926V55.7461C237.926 55.1562 237.791 54.7227 237.521 54.4453C237.252 54.168 236.896 54.0293 236.455 54.0293C235.849 54.0293 235.375 54.207 235.031 54.5625C234.691 54.9141 234.521 55.4688 234.521 56.2266V60H233.935V55.7461C233.935 55.3516 233.873 55.0293 233.748 54.7793C233.627 54.5254 233.457 54.3379 233.238 54.2168C233.019 54.0918 232.762 54.0293 232.465 54.0293C232.07 54.0293 231.728 54.1113 231.439 54.2754C231.15 54.4355 230.928 54.6855 230.771 55.0254C230.615 55.3613 230.537 55.7891 230.537 56.3086V60H229.945V53.6309H230.426L230.514 54.6738H230.549C230.654 54.4668 230.795 54.2754 230.971 54.0996C231.146 53.9238 231.363 53.7812 231.621 53.6719C231.883 53.5625 232.189 53.5078 232.541 53.5078C232.998 53.5078 233.385 53.6113 233.701 53.8184C234.021 54.0215 234.244 54.3242 234.369 54.7266H234.41C234.582 54.3438 234.847 54.0449 235.207 53.8301C235.57 53.6152 236.008 53.5078 236.519 53.5078Z" fill="#727272"/>
<path d="M167.173 53.0389H153.198V50.3478C153.198 49.8343 153.615 49.4166 154.129 49.4166C154.52 49.4166 154.872 49.6639 155.005 50.0321L155.073 50.2198L154.682 50.3607C154.536 50.413 154.42 50.5188 154.355 50.6586C154.289 50.7985 154.282 50.9556 154.334 51.1006L154.554 51.71C154.573 51.762 154.611 51.8045 154.661 51.828C154.689 51.8411 154.719 51.8478 154.75 51.8478C154.774 51.8478 154.798 51.8437 154.82 51.8354L156.69 51.1611C156.742 51.1423 156.785 51.1037 156.808 51.0537C156.832 51.0039 156.834 50.9465 156.815 50.8944L156.596 50.285C156.543 50.1397 156.437 50.0238 156.298 49.9581C156.158 49.8921 156.001 49.8849 155.856 49.9376L155.465 50.0787L155.397 49.8908C155.205 49.358 154.695 49 154.129 49C153.385 49 152.781 49.6046 152.781 50.3478V53.039H152.544C152.216 53.039 151.908 53.1662 151.676 53.3986C151.445 53.6325 151.318 53.9401 151.318 54.265C151.318 54.5707 151.433 54.8615 151.632 55.0834C151.631 55.0873 151.629 55.0905 151.629 55.0944C151.629 55.156 151.657 55.2099 151.7 55.2481V56.079C151.7 57.5379 152.683 58.7857 154.072 59.1396L153.762 59.8659C153.686 60.0429 153.683 60.2384 153.755 60.4162C153.826 60.5936 153.963 60.7325 154.139 60.8069C154.233 60.8466 154.327 60.8668 154.419 60.8668C154.708 60.8668 154.967 60.6949 155.079 60.4296L155.555 59.3123C155.565 59.2885 155.57 59.2647 155.578 59.241H164.14C164.147 59.2648 164.152 59.2887 164.163 59.3126L164.638 60.429C164.75 60.6949 165.009 60.8668 165.298 60.8668C165.39 60.8668 165.484 60.8466 165.577 60.8072C165.754 60.7326 165.891 60.5936 165.963 60.4162C166.034 60.2384 166.031 60.0429 165.955 59.8668L165.645 59.1396C167.034 58.7852 168.018 57.5376 168.018 56.0788V55.1544C168.025 55.1471 168.033 55.1395 168.04 55.132C168.041 55.1316 168.041 55.1314 168.041 55.131C168.272 54.8972 168.399 54.5896 168.399 54.265C168.399 53.5889 167.849 53.0389 167.173 53.0389L167.173 53.0389ZM155.997 50.3293C156.015 50.3228 156.033 50.3198 156.052 50.3198C156.075 50.3198 156.098 50.3248 156.12 50.335C156.159 50.3535 156.189 50.3859 156.204 50.4265L156.353 50.8399L154.875 51.3729L154.726 50.9594C154.711 50.9188 154.713 50.8749 154.731 50.8361C154.75 50.7971 154.782 50.7676 154.823 50.7529L155.41 50.5412H155.41C155.41 50.5412 155.41 50.5412 155.41 50.541L155.997 50.3293ZM165.968 53.4555V56.4311H163.724V53.4555H165.968ZM151.971 53.6921C152.124 53.5395 152.327 53.4555 152.544 53.4555H163.308V54.886H152.027C151.843 54.7345 151.735 54.5073 151.735 54.265C151.735 54.0504 151.819 53.8465 151.971 53.6921L151.971 53.6921ZM154.695 60.2671C154.649 60.3784 154.54 60.4501 154.419 60.4501C154.383 60.4501 154.345 60.4414 154.302 60.4231C154.228 60.392 154.171 60.3345 154.141 60.2608C154.111 60.187 154.113 60.1053 154.145 60.0304L154.491 59.2187C154.505 59.2203 154.519 59.2197 154.532 59.2212C154.643 59.2331 154.754 59.2411 154.864 59.2411H155.132L154.695 60.2671ZM165.576 60.2608C165.546 60.3345 165.489 60.392 165.415 60.4231C165.415 60.4233 165.415 60.4233 165.415 60.4233C165.372 60.4414 165.334 60.4501 165.298 60.4501C165.177 60.4501 165.068 60.3784 165.021 60.2665L164.585 59.2411H164.853C164.963 59.2411 165.074 59.233 165.185 59.2212C165.198 59.2197 165.212 59.2203 165.225 59.2187L165.572 60.0313C165.604 60.1054 165.605 60.1869 165.576 60.2608L165.576 60.2608ZM167.745 54.8382C167.712 54.8707 167.677 54.8991 167.641 54.9257C167.568 54.9786 167.537 55.0727 167.565 55.1586C167.573 55.183 167.585 55.2054 167.601 55.2247V56.0789C167.601 57.4221 166.641 58.5598 165.318 58.7843C165.163 58.8109 165.007 58.8245 164.853 58.8245H164.311L155.406 58.8244H154.864C154.71 58.8244 154.553 58.8107 154.398 58.7838C153.075 58.5596 152.116 57.4219 152.116 56.0787V55.3026H163.308V56.6395C163.308 56.7545 163.401 56.8478 163.516 56.8478H166.177C166.292 56.8478 166.385 56.7547 166.385 56.6395L166.385 53.4554H167.173C167.619 53.4554 167.982 53.8186 167.982 54.2649C167.982 54.4791 167.898 54.6827 167.745 54.8381L167.745 54.8382Z" fill="black"/>
<path d="M104.468 60H99.1064V59.4961L101.626 56.8711C102.028 56.4531 102.366 56.0762 102.64 55.7402C102.917 55.4004 103.126 55.0605 103.267 54.7207C103.411 54.3809 103.483 54 103.483 53.5781C103.483 53.0273 103.321 52.5996 102.997 52.2949C102.677 51.9902 102.241 51.8379 101.69 51.8379C101.319 51.8379 100.962 51.9043 100.618 52.0371C100.278 52.1699 99.9463 52.3652 99.6221 52.623L99.2939 52.207C99.5322 52.0117 99.7822 51.8477 100.044 51.7148C100.31 51.582 100.581 51.4824 100.858 51.416C101.136 51.3457 101.413 51.3105 101.69 51.3105C102.179 51.3105 102.601 51.4043 102.956 51.5918C103.315 51.7754 103.595 52.0352 103.794 52.3711C103.993 52.707 104.093 53.1016 104.093 53.5547C104.093 54.0234 104.011 54.4492 103.847 54.832C103.687 55.2109 103.458 55.582 103.161 55.9453C102.864 56.3086 102.513 56.6992 102.106 57.1172L99.874 59.4258V59.4492H104.468V60ZM110.104 51.4336H112.454C113.512 51.4336 114.286 51.5996 114.774 51.9316C115.266 52.2637 115.512 52.793 115.512 53.5195C115.512 53.8477 115.448 54.1465 115.319 54.416C115.194 54.6855 115.006 54.9121 114.756 55.0957C114.51 55.2754 114.206 55.3984 113.842 55.4648V55.5059C114.276 55.5723 114.633 55.6934 114.915 55.8691C115.2 56.041 115.411 56.2695 115.547 56.5547C115.688 56.8359 115.758 57.1719 115.758 57.5625C115.758 58.125 115.629 58.5859 115.372 58.9453C115.118 59.3047 114.764 59.5703 114.311 59.7422C113.858 59.9141 113.334 60 112.741 60H110.104V51.4336ZM110.708 55.2422H112.606C113.411 55.2422 113.993 55.1016 114.352 54.8203C114.711 54.5391 114.891 54.123 114.891 53.5723C114.891 53.002 114.698 52.5918 114.311 52.3418C113.924 52.0918 113.305 51.9668 112.454 51.9668H110.708V55.2422ZM110.708 55.7695V59.4668H112.723C113.516 59.4668 114.114 59.3066 114.516 58.9863C114.918 58.6621 115.12 58.1797 115.12 57.5391C115.12 57.1172 115.026 56.7773 114.838 56.5195C114.651 56.2578 114.37 56.0684 113.995 55.9512C113.624 55.8301 113.161 55.7695 112.606 55.7695H110.708ZM120.129 53.5078C120.672 53.5078 121.123 53.6348 121.483 53.8887C121.846 54.1426 122.116 54.4902 122.291 54.9316C122.471 55.373 122.561 55.8789 122.561 56.4492V56.877H117.961C117.961 57.752 118.162 58.4238 118.565 58.8926C118.971 59.3613 119.551 59.5957 120.305 59.5957C120.699 59.5957 121.041 59.5645 121.33 59.502C121.623 59.4355 121.948 59.3242 122.303 59.168V59.7129C121.991 59.8535 121.678 59.9551 121.366 60.0176C121.053 60.084 120.694 60.1172 120.287 60.1172C119.643 60.1172 119.102 59.9844 118.664 59.7188C118.231 59.4492 117.903 59.0703 117.68 58.582C117.461 58.0938 117.352 57.5234 117.352 56.8711C117.352 56.2344 117.457 55.6621 117.668 55.1543C117.883 54.6465 118.196 54.2461 118.606 53.9531C119.02 53.6562 119.528 53.5078 120.129 53.5078ZM120.123 54.0176C119.514 54.0176 119.02 54.2207 118.641 54.627C118.266 55.0293 118.045 55.6113 117.979 56.373H121.946C121.946 55.9082 121.879 55.498 121.746 55.1426C121.614 54.7871 121.412 54.5117 121.143 54.3164C120.877 54.1172 120.537 54.0176 120.123 54.0176ZM126.861 60.1172C125.99 60.1172 125.326 59.8438 124.869 59.2969C124.416 58.7461 124.189 57.9453 124.189 56.8945C124.189 55.793 124.43 54.9531 124.91 54.375C125.391 53.7969 126.061 53.5078 126.92 53.5078C127.287 53.5078 127.606 53.5645 127.875 53.6777C128.148 53.791 128.377 53.9453 128.561 54.1406C128.748 54.332 128.893 54.5508 128.994 54.7969H129.041C129.025 54.5898 129.014 54.3672 129.006 54.1289C128.998 53.8906 128.994 53.6719 128.994 53.4727V50.8828H129.586V60H129.106L129.029 58.834H128.994C128.889 59.0684 128.742 59.2832 128.555 59.4785C128.371 59.6738 128.141 59.8301 127.863 59.9473C127.586 60.0605 127.252 60.1172 126.861 60.1172ZM126.926 59.6016C127.676 59.6016 128.209 59.3691 128.525 58.9043C128.842 58.4355 129 57.7676 129 56.9004V56.8066C129 55.9082 128.842 55.2207 128.525 54.7441C128.209 54.2637 127.693 54.0234 126.979 54.0234C126.272 54.0234 125.731 54.2695 125.356 54.7617C124.984 55.2539 124.799 55.9688 124.799 56.9062C124.799 57.7891 124.973 58.459 125.32 58.916C125.672 59.373 126.207 59.6016 126.926 59.6016Z" fill="#727272"/>
<path d="M91.3829 51.6H83.5831C83.4618 51.6 83.3665 51.6953 83.3665 51.8166V55.4999H77.7332V49.2166C77.7332 49.0953 77.6379 49 77.5166 49H76.2166C76.0953 49 76 49.0953 76 49.2166V60.4829C76 60.6042 76.0953 60.6995 76.2166 60.6995H77.5166C77.6379 60.6995 77.7332 60.6042 77.7332 60.4829V58.0996H92.0328V60.483C92.0328 60.6043 92.1282 60.6996 92.2495 60.6996H93.5494C93.6707 60.6996 93.766 60.6043 93.766 60.483L93.7662 53.9832C93.7662 52.6701 92.6959 51.5999 91.3829 51.5999L91.3829 51.6ZM83.3666 57.6664H77.5167C77.3954 57.6664 77.3001 57.7617 77.3001 57.883V60.2663H76.4335V49.4331H77.3001L77.3 55.7165C77.3 55.8377 77.3953 55.9331 77.5166 55.9331H83.3664L83.3666 57.6664ZM93.3329 60.2663H92.4663V57.8832C92.4663 57.7619 92.371 57.6666 92.2497 57.6666L83.7999 57.6664V52.0331L91.3832 52.0332C92.4578 52.0332 93.3331 52.9085 93.3331 53.9832L93.3329 60.2663Z" fill="black"/>
<path d="M78.5999 52.6835C78.5999 53.7581 79.4751 54.6334 80.5498 54.6334C81.6245 54.6334 82.4998 53.7581 82.4998 52.6835C82.4998 51.6088 81.6245 50.7335 80.5498 50.7335C79.4751 50.7335 78.5999 51.6088 78.5999 52.6835V52.6835ZM82.0665 52.6835C82.0665 53.5198 81.3862 54.2001 80.55 54.2001C79.7137 54.2001 79.0334 53.5198 79.0334 52.6835C79.0334 51.8472 79.7137 51.1669 80.55 51.1669C81.3862 51.1667 82.0665 51.847 82.0665 52.6835V52.6835Z" fill="black"/>
<path d="M19.293 54.8379C19.8711 54.8379 20.3691 54.9355 20.7871 55.1309C21.209 55.3262 21.5332 55.6113 21.7598 55.9863C21.9902 56.3574 22.1055 56.8125 22.1055 57.3516C22.1055 57.9219 21.9785 58.4141 21.7246 58.8281C21.4707 59.2422 21.1113 59.5605 20.6465 59.7832C20.1855 60.0059 19.6406 60.1172 19.0117 60.1172C18.5586 60.1172 18.1465 60.0742 17.7754 59.9883C17.4082 59.8984 17.0977 59.7793 16.8438 59.6309V59.0332C17.1172 59.1973 17.4434 59.332 17.8223 59.4375C18.2051 59.543 18.6035 59.5957 19.0176 59.5957C19.5176 59.5957 19.9531 59.5117 20.3242 59.3438C20.6953 59.1719 20.9824 58.9219 21.1855 58.5938C21.3926 58.2656 21.4961 57.8633 21.4961 57.3867C21.4961 56.75 21.3027 56.2539 20.916 55.8984C20.5293 55.5391 19.9453 55.3594 19.1641 55.3594C18.8438 55.3594 18.5371 55.3828 18.2441 55.4297C17.9551 55.4727 17.6855 55.5273 17.4355 55.5938L17.0957 55.3535L17.4414 51.4336H21.5547V51.9844H17.9512L17.6875 55.0371C17.8633 54.9941 18.084 54.9512 18.3496 54.9082C18.6191 54.8613 18.9336 54.8379 19.293 54.8379ZM29.1189 60H23.7576V59.4961L26.2771 56.8711C26.6795 56.4531 27.0173 56.0762 27.2908 55.7402C27.5681 55.4004 27.7771 55.0605 27.9177 54.7207C28.0623 54.3809 28.1345 54 28.1345 53.5781C28.1345 53.0273 27.9724 52.5996 27.6482 52.2949C27.3279 51.9902 26.8923 51.8379 26.3416 51.8379C25.9705 51.8379 25.613 51.9043 25.2693 52.0371C24.9295 52.1699 24.5974 52.3652 24.2732 52.623L23.9451 52.207C24.1834 52.0117 24.4334 51.8477 24.6951 51.7148C24.9607 51.582 25.2322 51.4824 25.5095 51.416C25.7869 51.3457 26.0642 51.3105 26.3416 51.3105C26.8298 51.3105 27.2517 51.4043 27.6072 51.5918C27.9666 51.7754 28.2459 52.0352 28.4451 52.3711C28.6443 52.707 28.7439 53.1016 28.7439 53.5547C28.7439 54.0234 28.6619 54.4492 28.4978 54.832C28.3377 55.2109 28.1091 55.582 27.8123 55.9453C27.5154 56.3086 27.1638 56.6992 26.7576 57.1172L24.5252 59.4258V59.4492H29.1189V60ZM38.5872 58.3301C38.5872 58.709 38.4915 59.0332 38.3001 59.3027C38.1126 59.5684 37.8372 59.7715 37.4739 59.9121C37.1106 60.0488 36.6634 60.1172 36.1321 60.1172C35.6907 60.1172 35.2962 60.0781 34.9485 60C34.6009 59.9219 34.3098 59.8262 34.0755 59.7129V59.127C34.3684 59.2715 34.6927 59.3887 35.0481 59.4785C35.4036 59.5684 35.7688 59.6133 36.1438 59.6133C36.8001 59.6133 37.2727 59.502 37.5618 59.2793C37.8509 59.0566 37.9954 58.752 37.9954 58.3652C37.9954 58.1113 37.9231 57.9023 37.7786 57.7383C37.638 57.5703 37.4348 57.4258 37.1692 57.3047C36.9036 57.1836 36.5833 57.0605 36.2083 56.9355C35.8177 56.8027 35.47 56.6719 35.1653 56.543C34.8645 56.4102 34.6282 56.2363 34.4563 56.0215C34.2845 55.8027 34.1985 55.5059 34.1985 55.1309C34.1985 54.6191 34.4036 54.2207 34.8137 53.9355C35.2239 53.6504 35.7747 53.5078 36.4661 53.5078C36.8489 53.5078 37.2044 53.5449 37.5325 53.6191C37.8645 53.6895 38.1653 53.7812 38.4348 53.8945L38.2239 54.3984C37.9817 54.2852 37.7024 54.1934 37.386 54.123C37.0696 54.0527 36.7532 54.0176 36.4368 54.0176C35.9173 54.0176 35.511 54.1094 35.218 54.293C34.9251 54.4766 34.7786 54.7461 34.7786 55.1016C34.7786 55.375 34.8489 55.5898 34.9895 55.7461C35.1302 55.8984 35.3313 56.0273 35.593 56.1328C35.8548 56.2344 36.1653 56.3477 36.5247 56.4727C36.8958 56.6016 37.2376 56.7363 37.5501 56.877C37.8665 57.0176 38.1184 57.1992 38.3059 57.4219C38.4934 57.6445 38.5872 57.9473 38.5872 58.3301ZM44.8506 62.8184V60.0293C44.8506 59.8535 44.8545 59.6426 44.8623 59.3965C44.8702 59.1504 44.878 58.9395 44.8858 58.7637H44.8448C44.6924 59.1543 44.4268 59.4805 44.0479 59.7422C43.669 60 43.1944 60.1289 42.6241 60.1289C41.8077 60.1289 41.1729 59.8516 40.7198 59.2969C40.2705 58.7383 40.0459 57.916 40.0459 56.8301C40.0459 56.1738 40.1455 55.5977 40.3448 55.1016C40.5479 54.6016 40.8506 54.2109 41.253 53.9297C41.6592 53.6484 42.1612 53.5078 42.7588 53.5078C43.3057 53.5078 43.7491 53.6289 44.0889 53.8711C44.4327 54.1094 44.6827 54.3984 44.8389 54.7383H44.8741L44.9678 53.6309H45.4424V62.8184H44.8506ZM42.7002 59.6133C43.2041 59.6133 43.6123 59.5078 43.9248 59.2969C44.2412 59.082 44.4737 58.7734 44.6221 58.3711C44.7745 57.9648 44.8526 57.4727 44.8565 56.8945V56.7422C44.8565 55.8516 44.6944 55.1758 44.3702 54.7148C44.0459 54.2539 43.5264 54.0234 42.8116 54.0234C42.1006 54.0234 41.5635 54.2715 41.2002 54.7676C40.837 55.2637 40.6553 55.9551 40.6553 56.8418C40.6553 57.7402 40.8252 58.4277 41.1651 58.9043C41.5049 59.377 42.0166 59.6133 42.7002 59.6133ZM54.3953 53.5078C55.0086 53.5078 55.493 53.6855 55.8484 54.041C56.2039 54.3965 56.3816 54.957 56.3816 55.7227V60H55.8016V55.7461C55.8016 55.1562 55.6668 54.7227 55.3973 54.4453C55.1277 54.168 54.7723 54.0293 54.3309 54.0293C53.7254 54.0293 53.2508 54.207 52.907 54.5625C52.5672 54.9141 52.3973 55.4688 52.3973 56.2266V60H51.8113V55.7461C51.8113 55.3516 51.7488 55.0293 51.6238 54.7793C51.5027 54.5254 51.3328 54.3379 51.1141 54.2168C50.8953 54.0918 50.6375 54.0293 50.3406 54.0293C49.9461 54.0293 49.6043 54.1113 49.3152 54.2754C49.0262 54.4355 48.8035 54.6855 48.6473 55.0254C48.491 55.3613 48.4129 55.7891 48.4129 56.3086V60H47.8211V53.6309H48.3016L48.3895 54.6738H48.4246C48.5301 54.4668 48.6707 54.2754 48.8465 54.0996C49.0223 53.9238 49.2391 53.7812 49.4969 53.6719C49.7586 53.5625 50.0652 53.5078 50.4168 53.5078C50.8738 53.5078 51.2605 53.6113 51.577 53.8184C51.8973 54.0215 52.1199 54.3242 52.2449 54.7266H52.2859C52.4578 54.3438 52.7234 54.0449 53.0828 53.8301C53.4461 53.6152 53.8836 53.5078 54.3953 53.5078Z" fill="#727272"/>
<path d="M10.3125 49H0.9375C0.420536 49 0 49.4205 0 49.9375V60.0625C0 60.5795 0.420536 61 0.9375 61H10.3125C10.8295 61 11.25 60.5795 11.25 60.0625V49.9375C11.25 49.4205 10.8295 49 10.3125 49ZM10.875 60.0625C10.875 60.3726 10.6226 60.625 10.3125 60.625H0.9375C0.627364 60.625 0.375 60.3726 0.375 60.0625V49.9375C0.375 49.6274 0.627364 49.375 0.9375 49.375H10.3125C10.6226 49.375 10.875 49.6274 10.875 49.9375V60.0625Z" fill="black"/>
<path d="M10.0092 50.1394C9.98626 50.1299 9.9619 50.125 9.93754 50.125H8.06254C7.95908 50.125 7.87504 50.2088 7.87504 50.3125C7.87504 50.4162 7.95908 50.5 8.06254 50.5H9.48494L6.80487 53.1799C6.73155 53.2532 6.73155 53.3717 6.80487 53.4449C6.84145 53.4815 6.8895 53.4999 6.93746 53.4999C6.98543 53.4999 7.03347 53.4815 7.07005 53.445L9.74991 50.765V52.1874C9.74991 52.2911 9.83395 52.3749 9.93741 52.3749C10.0409 52.3749 10.1249 52.2911 10.1249 52.1874V50.3124C10.1249 50.288 10.1199 50.2637 10.1105 50.2407C10.0915 50.1948 10.0549 50.1583 10.0091 50.1393L10.0092 50.1394Z" fill="black"/>
<path d="M4.17986 56.5549L1.5 59.2349V57.8125C1.5 57.7088 1.41596 57.625 1.3125 57.625C1.20904 57.625 1.125 57.7088 1.125 57.8125V59.6875C1.125 59.7119 1.13002 59.7362 1.1394 59.7592C1.15831 59.8051 1.19489 59.8417 1.24085 59.8606C1.26378 59.87 1.28814 59.875 1.3125 59.875H3.1875C3.29096 59.875 3.375 59.7912 3.375 59.6875C3.375 59.5838 3.29096 59.5 3.1875 59.5H1.76509L4.44495 56.8202C4.51828 56.7468 4.51828 56.6283 4.44495 56.5551C4.37171 56.4817 4.25318 56.4817 4.17986 56.555L4.17986 56.5549Z" fill="black"/>
<path d="M15.9492 18.2695C15.9492 20.1992 15.5977 21.8125 14.8945 23.1094C14.1914 24.3984 13.1719 25.3711 11.8359 26.0273C10.5078 26.6758 8.89453 27 6.99609 27H2.34375V9.86719H7.51172C9.25391 9.86719 10.7539 10.1875 12.0117 10.8281C13.2695 11.4609 14.2383 12.4023 14.918 13.6523C15.6055 14.8945 15.9492 16.4336 15.9492 18.2695ZM13.8516 18.3398C13.8516 16.8008 13.5938 15.5312 13.0781 14.5312C12.5703 13.5312 11.8203 12.7891 10.8281 12.3047C9.84375 11.8125 8.63672 11.5664 7.20703 11.5664H4.33594V25.2891H6.76172C9.12109 25.2891 10.8906 24.707 12.0703 23.543C13.2578 22.3789 13.8516 20.6445 13.8516 18.3398ZM24.4102 13.9219C25.5039 13.9219 26.4414 14.1641 27.2227 14.6484C28.0039 15.1328 28.6016 15.8125 29.0156 16.6875C29.4297 17.5547 29.6367 18.5703 29.6367 19.7344V20.9414H20.7656C20.7891 22.4492 21.1641 23.5977 21.8906 24.3867C22.6172 25.1758 23.6406 25.5703 24.9609 25.5703C25.7734 25.5703 26.4922 25.4961 27.1172 25.3477C27.7422 25.1992 28.3906 24.9805 29.0625 24.6914V26.4023C28.4141 26.6914 27.7695 26.9023 27.1289 27.0352C26.4961 27.168 25.7461 27.2344 24.8789 27.2344C23.6445 27.2344 22.5664 26.9844 21.6445 26.4844C20.7305 25.9766 20.0195 25.2344 19.5117 24.2578C19.0039 23.2812 18.75 22.0859 18.75 20.6719C18.75 19.2891 18.9805 18.0938 19.4414 17.0859C19.9102 16.0703 20.5664 15.2891 21.4102 14.7422C22.2617 14.1953 23.2617 13.9219 24.4102 13.9219ZM24.3867 15.5156C23.3477 15.5156 22.5195 15.8555 21.9023 16.5352C21.2852 17.2148 20.918 18.1641 20.8008 19.3828H27.5977C27.5898 18.6172 27.4688 17.9453 27.2344 17.3672C27.0078 16.7812 26.6602 16.3281 26.1914 16.0078C25.7227 15.6797 25.1211 15.5156 24.3867 15.5156ZM34.8984 27H32.9414V8.76562H34.8984V27ZM49.6172 14.1562V27H48.0234L47.7422 25.1953H47.6367C47.3711 25.6406 47.0273 26.0156 46.6055 26.3203C46.1836 26.625 45.707 26.8516 45.1758 27C44.6523 27.1562 44.0938 27.2344 43.5 27.2344C42.4844 27.2344 41.6328 27.0703 40.9453 26.7422C40.2578 26.4141 39.7383 25.9062 39.3867 25.2188C39.043 24.5312 38.8711 23.6484 38.8711 22.5703V14.1562H40.8398V22.4297C40.8398 23.5 41.082 24.3008 41.5664 24.832C42.0508 25.3555 42.7891 25.6172 43.7812 25.6172C44.7344 25.6172 45.4922 25.4375 46.0547 25.0781C46.625 24.7188 47.0352 24.1914 47.2852 23.4961C47.5352 22.793 47.6602 21.9336 47.6602 20.918V14.1562H49.6172ZM56.7891 20.4258L52.3477 14.1562H54.5742L57.9609 19.1016L61.3359 14.1562H63.5391L59.0977 20.4258L63.7852 27H61.5586L57.9609 21.7617L54.3398 27H52.1367L56.7891 20.4258ZM71.2383 13.9219C72.332 13.9219 73.2695 14.1641 74.0508 14.6484C74.832 15.1328 75.4297 15.8125 75.8438 16.6875C76.2578 17.5547 76.4648 18.5703 76.4648 19.7344V20.9414H67.5938C67.6172 22.4492 67.9922 23.5977 68.7188 24.3867C69.4453 25.1758 70.4688 25.5703 71.7891 25.5703C72.6016 25.5703 73.3203 25.4961 73.9453 25.3477C74.5703 25.1992 75.2188 24.9805 75.8906 24.6914V26.4023C75.2422 26.6914 74.5977 26.9023 73.957 27.0352C73.3242 27.168 72.5742 27.2344 71.707 27.2344C70.4727 27.2344 69.3945 26.9844 68.4727 26.4844C67.5586 25.9766 66.8477 25.2344 66.3398 24.2578C65.832 23.2812 65.5781 22.0859 65.5781 20.6719C65.5781 19.2891 65.8086 18.0938 66.2695 17.0859C66.7383 16.0703 67.3945 15.2891 68.2383 14.7422C69.0898 14.1953 70.0898 13.9219 71.2383 13.9219ZM71.2148 15.5156C70.1758 15.5156 69.3477 15.8555 68.7305 16.5352C68.1133 17.2148 67.7461 18.1641 67.6289 19.3828H74.4258C74.418 18.6172 74.2969 17.9453 74.0625 17.3672C73.8359 16.7812 73.4883 16.3281 73.0195 16.0078C72.5508 15.6797 71.9492 15.5156 71.2148 15.5156ZM93.6211 11.3789C92.6758 11.3789 91.8242 11.543 91.0664 11.8711C90.3164 12.1914 89.6758 12.6602 89.1445 13.2773C88.6211 13.8867 88.2188 14.625 87.9375 15.4922C87.6562 16.3594 87.5156 17.3359 87.5156 18.4219C87.5156 19.8594 87.7383 21.1094 88.1836 22.1719C88.6367 23.2266 89.3086 24.043 90.1992 24.6211C91.0977 25.1992 92.2188 25.4883 93.5625 25.4883C94.3281 25.4883 95.0469 25.4258 95.7188 25.3008C96.3984 25.168 97.0586 25.0039 97.6992 24.8086V26.543C97.0742 26.7773 96.418 26.9492 95.7305 27.0586C95.043 27.1758 94.2266 27.2344 93.2812 27.2344C91.5391 27.2344 90.082 26.875 88.9102 26.1562C87.7461 25.4297 86.8711 24.4062 86.2852 23.0859C85.707 21.7656 85.418 20.207 85.418 18.4102C85.418 17.1133 85.5977 15.9297 85.957 14.8594C86.3242 13.7812 86.8555 12.8516 87.5508 12.0703C88.2539 11.2891 89.1133 10.6875 90.1289 10.2656C91.1523 9.83594 92.3242 9.62109 93.6445 9.62109C94.5117 9.62109 95.3477 9.70703 96.1523 9.87891C96.957 10.0508 97.6836 10.2969 98.332 10.6172L97.5352 12.3047C96.9883 12.0547 96.3867 11.8398 95.7305 11.6602C95.082 11.4727 94.3789 11.3789 93.6211 11.3789ZM112.195 20.5547C112.195 21.6094 112.059 22.5508 111.785 23.3789C111.512 24.207 111.117 24.9062 110.602 25.4766C110.086 26.0469 109.461 26.4844 108.727 26.7891C108 27.0859 107.176 27.2344 106.254 27.2344C105.395 27.2344 104.605 27.0859 103.887 26.7891C103.176 26.4844 102.559 26.0469 102.035 25.4766C101.52 24.9062 101.117 24.207 100.828 23.3789C100.547 22.5508 100.406 21.6094 100.406 20.5547C100.406 19.1484 100.645 17.9531 101.121 16.9688C101.598 15.9766 102.277 15.2227 103.16 14.707C104.051 14.1836 105.109 13.9219 106.336 13.9219C107.508 13.9219 108.531 14.1836 109.406 14.707C110.289 15.2305 110.973 15.9883 111.457 16.9805C111.949 17.9648 112.195 19.1562 112.195 20.5547ZM102.422 20.5547C102.422 21.5859 102.559 22.4805 102.832 23.2383C103.105 23.9961 103.527 24.582 104.098 24.9961C104.668 25.4102 105.402 25.6172 106.301 25.6172C107.191 25.6172 107.922 25.4102 108.492 24.9961C109.07 24.582 109.496 23.9961 109.77 23.2383C110.043 22.4805 110.18 21.5859 110.18 20.5547C110.18 19.5312 110.043 18.6484 109.77 17.9062C109.496 17.1562 109.074 16.5781 108.504 16.1719C107.934 15.7656 107.195 15.5625 106.289 15.5625C104.953 15.5625 103.973 16.0039 103.348 16.8867C102.73 17.7695 102.422 18.9922 102.422 20.5547ZM121.641 13.9219C123.164 13.9219 124.316 14.2969 125.098 15.0469C125.879 15.7891 126.27 16.9844 126.27 18.6328V27H124.348V18.7617C124.348 17.6914 124.102 16.8906 123.609 16.3594C123.125 15.8281 122.379 15.5625 121.371 15.5625C119.949 15.5625 118.949 15.9648 118.371 16.7695C117.793 17.5742 117.504 18.7422 117.504 20.2734V27H115.559V14.1562H117.129L117.422 16.0078H117.527C117.801 15.5547 118.148 15.1758 118.57 14.8711C118.992 14.5586 119.465 14.3242 119.988 14.168C120.512 14.0039 121.062 13.9219 121.641 13.9219ZM134.426 25.6406C134.746 25.6406 135.074 25.6133 135.41 25.5586C135.746 25.5039 136.02 25.4375 136.23 25.3594V26.8711C136.004 26.9727 135.688 27.0586 135.281 27.1289C134.883 27.1992 134.492 27.2344 134.109 27.2344C133.43 27.2344 132.812 27.1172 132.258 26.8828C131.703 26.6406 131.258 26.2344 130.922 25.6641C130.594 25.0938 130.43 24.3047 130.43 23.2969V15.6797H128.602V14.7305L130.441 13.9688L131.215 11.1797H132.387V14.1562H136.148V15.6797H132.387V23.2383C132.387 24.043 132.57 24.6445 132.938 25.043C133.312 25.4414 133.809 25.6406 134.426 25.6406ZM144.668 13.9219C144.926 13.9219 145.195 13.9375 145.477 13.9688C145.758 13.9922 146.008 14.0273 146.227 14.0742L145.98 15.8789C145.77 15.8242 145.535 15.7812 145.277 15.75C145.02 15.7188 144.777 15.7031 144.551 15.7031C144.035 15.7031 143.547 15.8086 143.086 16.0195C142.633 16.2227 142.234 16.5195 141.891 16.9102C141.547 17.293 141.277 17.7578 141.082 18.3047C140.887 18.8438 140.789 19.4453 140.789 20.1094V27H138.832V14.1562H140.449L140.66 16.5234H140.742C141.008 16.0469 141.328 15.6133 141.703 15.2227C142.078 14.8242 142.512 14.5078 143.004 14.2734C143.504 14.0391 144.059 13.9219 144.668 13.9219ZM153.457 13.9453C154.988 13.9453 156.125 14.2891 156.867 14.9766C157.609 15.6641 157.98 16.7617 157.98 18.2695V27H156.562L156.188 25.1016H156.094C155.734 25.5703 155.359 25.9648 154.969 26.2852C154.578 26.5977 154.125 26.8359 153.609 27C153.102 27.1562 152.477 27.2344 151.734 27.2344C150.953 27.2344 150.258 27.0977 149.648 26.8242C149.047 26.5508 148.57 26.1367 148.219 25.582C147.875 25.0273 147.703 24.3242 147.703 23.4727C147.703 22.1914 148.211 21.207 149.227 20.5195C150.242 19.832 151.789 19.457 153.867 19.3945L156.082 19.3008V18.5156C156.082 17.4062 155.844 16.6289 155.367 16.1836C154.891 15.7383 154.219 15.5156 153.352 15.5156C152.68 15.5156 152.039 15.6133 151.43 15.8086C150.82 16.0039 150.242 16.2344 149.695 16.5L149.098 15.0234C149.676 14.7266 150.34 14.4727 151.09 14.2617C151.84 14.0508 152.629 13.9453 153.457 13.9453ZM156.059 20.6719L154.102 20.7539C152.5 20.8164 151.371 21.0781 150.715 21.5391C150.059 22 149.73 22.6523 149.73 23.4961C149.73 24.2305 149.953 24.7734 150.398 25.125C150.844 25.4766 151.434 25.6523 152.168 25.6523C153.309 25.6523 154.242 25.3359 154.969 24.7031C155.695 24.0703 156.059 23.1211 156.059 21.8555V20.6719ZM170.297 23.4844C170.297 24.3047 170.09 24.9961 169.676 25.5586C169.27 26.1133 168.684 26.5312 167.918 26.8125C167.16 27.0938 166.254 27.2344 165.199 27.2344C164.301 27.2344 163.523 27.1641 162.867 27.0234C162.211 26.8828 161.637 26.6836 161.145 26.4258V24.6328C161.668 24.8906 162.293 25.125 163.02 25.3359C163.746 25.5469 164.488 25.6523 165.246 25.6523C166.355 25.6523 167.16 25.4727 167.66 25.1133C168.16 24.7539 168.41 24.2656 168.41 23.6484C168.41 23.2969 168.309 22.9883 168.105 22.7227C167.91 22.4492 167.578 22.1875 167.109 21.9375C166.641 21.6797 165.992 21.3984 165.164 21.0938C164.344 20.7812 163.633 20.4727 163.031 20.168C162.438 19.8555 161.977 19.4766 161.648 19.0312C161.328 18.5859 161.168 18.0078 161.168 17.2969C161.168 16.2109 161.605 15.3789 162.48 14.8008C163.363 14.2148 164.52 13.9219 165.949 13.9219C166.723 13.9219 167.445 14 168.117 14.1562C168.797 14.3047 169.43 14.5078 170.016 14.7656L169.359 16.3242C168.828 16.0977 168.262 15.9062 167.66 15.75C167.059 15.5938 166.445 15.5156 165.82 15.5156C164.922 15.5156 164.23 15.6641 163.746 15.9609C163.27 16.2578 163.031 16.6641 163.031 17.1797C163.031 17.5781 163.141 17.9062 163.359 18.1641C163.586 18.4219 163.945 18.6641 164.438 18.8906C164.93 19.1172 165.578 19.3828 166.383 19.6875C167.188 19.9844 167.883 20.293 168.469 20.6133C169.055 20.9258 169.504 21.3086 169.816 21.7617C170.137 22.207 170.297 22.7812 170.297 23.4844ZM177.574 25.6406C177.895 25.6406 178.223 25.6133 178.559 25.5586C178.895 25.5039 179.168 25.4375 179.379 25.3594V26.8711C179.152 26.9727 178.836 27.0586 178.43 27.1289C178.031 27.1992 177.641 27.2344 177.258 27.2344C176.578 27.2344 175.961 27.1172 175.406 26.8828C174.852 26.6406 174.406 26.2344 174.07 25.6641C173.742 25.0938 173.578 24.3047 173.578 23.2969V15.6797H171.75V14.7305L173.59 13.9688L174.363 11.1797H175.535V14.1562H179.297V15.6797H175.535V23.2383C175.535 24.043 175.719 24.6445 176.086 25.043C176.461 25.4414 176.957 25.6406 177.574 25.6406ZM193.137 9.86719C194.543 9.86719 195.703 10.043 196.617 10.3945C197.539 10.7383 198.227 11.2656 198.68 11.9766C199.133 12.6875 199.359 13.5938 199.359 14.6953C199.359 15.6016 199.195 16.3594 198.867 16.9688C198.539 17.5703 198.109 18.0586 197.578 18.4336C197.047 18.8086 196.48 19.0977 195.879 19.3008L200.578 27H198.258L194.062 19.8516H190.5V27H188.508V9.86719H193.137ZM193.02 11.5898H190.5V18.1641H193.219C194.617 18.1641 195.645 17.8789 196.301 17.3086C196.965 16.7383 197.297 15.8984 197.297 14.7891C197.297 13.625 196.945 12.8008 196.242 12.3164C195.547 11.832 194.473 11.5898 193.02 11.5898ZM214.102 20.5547C214.102 21.6094 213.965 22.5508 213.691 23.3789C213.418 24.207 213.023 24.9062 212.508 25.4766C211.992 26.0469 211.367 26.4844 210.633 26.7891C209.906 27.0859 209.082 27.2344 208.16 27.2344C207.301 27.2344 206.512 27.0859 205.793 26.7891C205.082 26.4844 204.465 26.0469 203.941 25.4766C203.426 24.9062 203.023 24.207 202.734 23.3789C202.453 22.5508 202.312 21.6094 202.312 20.5547C202.312 19.1484 202.551 17.9531 203.027 16.9688C203.504 15.9766 204.184 15.2227 205.066 14.707C205.957 14.1836 207.016 13.9219 208.242 13.9219C209.414 13.9219 210.438 14.1836 211.312 14.707C212.195 15.2305 212.879 15.9883 213.363 16.9805C213.855 17.9648 214.102 19.1562 214.102 20.5547ZM204.328 20.5547C204.328 21.5859 204.465 22.4805 204.738 23.2383C205.012 23.9961 205.434 24.582 206.004 24.9961C206.574 25.4102 207.309 25.6172 208.207 25.6172C209.098 25.6172 209.828 25.4102 210.398 24.9961C210.977 24.582 211.402 23.9961 211.676 23.2383C211.949 22.4805 212.086 21.5859 212.086 20.5547C212.086 19.5312 211.949 18.6484 211.676 17.9062C211.402 17.1562 210.98 16.5781 210.41 16.1719C209.84 15.7656 209.102 15.5625 208.195 15.5625C206.859 15.5625 205.879 16.0039 205.254 16.8867C204.637 17.7695 204.328 18.9922 204.328 20.5547ZM228.539 20.5547C228.539 21.6094 228.402 22.5508 228.129 23.3789C227.855 24.207 227.461 24.9062 226.945 25.4766C226.43 26.0469 225.805 26.4844 225.07 26.7891C224.344 27.0859 223.52 27.2344 222.598 27.2344C221.738 27.2344 220.949 27.0859 220.23 26.7891C219.52 26.4844 218.902 26.0469 218.379 25.4766C217.863 24.9062 217.461 24.207 217.172 23.3789C216.891 22.5508 216.75 21.6094 216.75 20.5547C216.75 19.1484 216.988 17.9531 217.465 16.9688C217.941 15.9766 218.621 15.2227 219.504 14.707C220.395 14.1836 221.453 13.9219 222.68 13.9219C223.852 13.9219 224.875 14.1836 225.75 14.707C226.633 15.2305 227.316 15.9883 227.801 16.9805C228.293 17.9648 228.539 19.1562 228.539 20.5547ZM218.766 20.5547C218.766 21.5859 218.902 22.4805 219.176 23.2383C219.449 23.9961 219.871 24.582 220.441 24.9961C221.012 25.4102 221.746 25.6172 222.645 25.6172C223.535 25.6172 224.266 25.4102 224.836 24.9961C225.414 24.582 225.84 23.9961 226.113 23.2383C226.387 22.4805 226.523 21.5859 226.523 20.5547C226.523 19.5312 226.387 18.6484 226.113 17.9062C225.84 17.1562 225.418 16.5781 224.848 16.1719C224.277 15.7656 223.539 15.5625 222.633 15.5625C221.297 15.5625 220.316 16.0039 219.691 16.8867C219.074 17.7695 218.766 18.9922 218.766 20.5547ZM245.848 13.9219C247.262 13.9219 248.328 14.293 249.047 15.0352C249.766 15.7695 250.125 16.9531 250.125 18.5859V27H248.203V18.6797C248.203 17.6406 247.977 16.8633 247.523 16.3477C247.078 15.8242 246.414 15.5625 245.531 15.5625C244.289 15.5625 243.387 15.9219 242.824 16.6406C242.262 17.3594 241.98 18.418 241.98 19.8164V27H240.047V18.6797C240.047 17.9844 239.945 17.4062 239.742 16.9453C239.547 16.4844 239.25 16.1406 238.852 15.9141C238.461 15.6797 237.965 15.5625 237.363 15.5625C236.512 15.5625 235.828 15.7383 235.312 16.0898C234.797 16.4414 234.422 16.9648 234.188 17.6602C233.961 18.3477 233.848 19.1953 233.848 20.2031V27H231.902V14.1562H233.473L233.766 15.9727H233.871C234.129 15.5273 234.453 15.1523 234.844 14.8477C235.234 14.543 235.672 14.3125 236.156 14.1562C236.641 14 237.156 13.9219 237.703 13.9219C238.68 13.9219 239.496 14.1055 240.152 14.4727C240.816 14.832 241.297 15.3828 241.594 16.125H241.699C242.121 15.3828 242.699 14.832 243.434 14.4727C244.168 14.1055 244.973 13.9219 245.848 13.9219Z" fill="#131313"/>
<path d="M7.58789 105.743V102.726C6.37695 102.706 5.25879 102.599 4.2334 102.403C3.21777 102.198 2.33887 101.935 1.59668 101.612V98.4922C2.34863 98.8438 3.27637 99.1611 4.37988 99.4443C5.4834 99.7275 6.55273 99.8887 7.58789 99.9277V94.4346C6.17188 93.9561 5.01953 93.458 4.13086 92.9404C3.25195 92.4229 2.60742 91.8223 2.19727 91.1387C1.78711 90.4453 1.58203 89.6152 1.58203 88.6484C1.58203 87.6523 1.83105 86.7979 2.3291 86.085C2.83691 85.3623 3.54004 84.791 4.43848 84.3711C5.34668 83.9512 6.39648 83.7021 7.58789 83.624V81.2363H9.49219V83.5801C10.5762 83.6094 11.5771 83.7314 12.4951 83.9463C13.4229 84.1514 14.3066 84.4395 15.1465 84.8105L14.0771 87.5352C13.3447 87.2422 12.583 87.0029 11.792 86.8174C11.001 86.6318 10.2344 86.5049 9.49219 86.4365V91.7979C10.6836 92.1885 11.7432 92.6084 12.6709 93.0576C13.6084 93.5068 14.3408 94.0732 14.8682 94.7568C15.4053 95.4307 15.6738 96.3145 15.6738 97.4082C15.6738 98.8438 15.1465 100.03 14.0918 100.968C13.0371 101.896 11.5039 102.452 9.49219 102.638V105.743H7.58789ZM9.49219 99.8105C10.4297 99.6934 11.1279 99.4492 11.5869 99.0781C12.0459 98.6973 12.2754 98.2041 12.2754 97.5986C12.2754 97.1885 12.1777 96.8418 11.9824 96.5586C11.7969 96.2754 11.499 96.0215 11.0889 95.7969C10.6885 95.5723 10.1562 95.3525 9.49219 95.1377V99.8105ZM7.58789 91.0801V86.4951C7.02148 86.5537 6.54297 86.6709 6.15234 86.8467C5.76172 87.0225 5.46875 87.252 5.27344 87.5352C5.07812 87.8184 4.98047 88.1553 4.98047 88.5459C4.98047 88.9756 5.06836 89.3418 5.24414 89.6445C5.41992 89.9473 5.69824 90.2109 6.0791 90.4355C6.46973 90.6602 6.97266 90.875 7.58789 91.0801ZM33.0176 104H18.5156V101.407L24.0674 95.7822C25.1416 94.6885 26.0254 93.7461 26.7188 92.9551C27.4121 92.1543 27.9248 91.3975 28.2568 90.6846C28.5986 89.9717 28.7695 89.1953 28.7695 88.3555C28.7695 87.3203 28.4717 86.5391 27.876 86.0117C27.2803 85.4746 26.4941 85.2061 25.5176 85.2061C24.5898 85.2061 23.7305 85.3916 22.9395 85.7627C22.1582 86.124 21.3477 86.6416 20.5078 87.3154L18.6182 85.0449C19.2139 84.5371 19.8486 84.0732 20.5225 83.6533C21.2061 83.2334 21.9678 82.9014 22.8076 82.6572C23.6475 82.4033 24.6045 82.2764 25.6787 82.2764C27.0361 82.2764 28.208 82.5205 29.1943 83.0088C30.1807 83.4873 30.9375 84.1562 31.4648 85.0156C32.002 85.875 32.2705 86.876 32.2705 88.0186C32.2705 89.1709 32.041 90.2354 31.582 91.2119C31.123 92.1885 30.4688 93.1553 29.6191 94.1123C28.7695 95.0596 27.7588 96.0898 26.5869 97.2031L22.8809 100.821V100.982H33.0176V104ZM50.1855 93.2773C50.1855 95.0059 50.0488 96.5537 49.7754 97.9209C49.5117 99.2783 49.0918 100.431 48.5156 101.378C47.9395 102.325 47.1875 103.048 46.2598 103.546C45.332 104.044 44.209 104.293 42.8906 104.293C41.2402 104.293 39.8779 103.858 38.8037 102.989C37.7295 102.11 36.9336 100.851 36.416 99.21C35.8984 97.5596 35.6396 95.582 35.6396 93.2773C35.6396 90.9727 35.874 89 36.3428 87.3594C36.8213 85.709 37.5928 84.4443 38.6572 83.5654C39.7217 82.6865 41.1328 82.2471 42.8906 82.2471C44.5508 82.2471 45.918 82.6865 46.9922 83.5654C48.0762 84.4346 48.877 85.6943 49.3945 87.3447C49.9219 88.9854 50.1855 90.9629 50.1855 93.2773ZM39.1113 93.2773C39.1113 95.084 39.2285 96.5928 39.4629 97.8037C39.707 99.0146 40.1074 99.9229 40.6641 100.528C41.2207 101.124 41.9629 101.422 42.8906 101.422C43.8184 101.422 44.5605 101.124 45.1172 100.528C45.6738 99.9326 46.0742 99.0293 46.3184 97.8184C46.5723 96.6074 46.6992 95.0938 46.6992 93.2773C46.6992 91.4805 46.5771 89.9766 46.333 88.7656C46.0889 87.5547 45.6885 86.6465 45.1318 86.041C44.5752 85.4258 43.8281 85.1182 42.8906 85.1182C41.9531 85.1182 41.2061 85.4258 40.6494 86.041C40.1025 86.6465 39.707 87.5547 39.4629 88.7656C39.2285 89.9766 39.1113 91.4805 39.1113 93.2773ZM67.3535 93.2773C67.3535 95.0059 67.2168 96.5537 66.9434 97.9209C66.6797 99.2783 66.2598 100.431 65.6836 101.378C65.1074 102.325 64.3555 103.048 63.4277 103.546C62.5 104.044 61.377 104.293 60.0586 104.293C58.4082 104.293 57.0459 103.858 55.9717 102.989C54.8975 102.11 54.1016 100.851 53.584 99.21C53.0664 97.5596 52.8076 95.582 52.8076 93.2773C52.8076 90.9727 53.042 89 53.5107 87.3594C53.9893 85.709 54.7607 84.4443 55.8252 83.5654C56.8896 82.6865 58.3008 82.2471 60.0586 82.2471C61.7188 82.2471 63.0859 82.6865 64.1602 83.5654C65.2441 84.4346 66.0449 85.6943 66.5625 87.3447C67.0898 88.9854 67.3535 90.9629 67.3535 93.2773ZM56.2793 93.2773C56.2793 95.084 56.3965 96.5928 56.6309 97.8037C56.875 99.0146 57.2754 99.9229 57.832 100.528C58.3887 101.124 59.1309 101.422 60.0586 101.422C60.9863 101.422 61.7285 101.124 62.2852 100.528C62.8418 99.9326 63.2422 99.0293 63.4863 97.8184C63.7402 96.6074 63.8672 95.0938 63.8672 93.2773C63.8672 91.4805 63.7451 89.9766 63.501 88.7656C63.2568 87.5547 62.8564 86.6465 62.2998 86.041C61.7432 85.4258 60.9961 85.1182 60.0586 85.1182C59.1211 85.1182 58.374 85.4258 57.8174 86.041C57.2705 86.6465 56.875 87.5547 56.6309 88.7656C56.3965 89.9766 56.2793 91.4805 56.2793 93.2773Z" fill="#384D6C"/>
<path d="M81.3135 91.1504L76.5322 104H75.0908L79.8809 91.1504H81.3135ZM97.9951 104H96.2725L89.2676 93.207H89.1973C89.2148 93.4941 89.2354 93.8223 89.2588 94.1914C89.2822 94.5547 89.2998 94.9443 89.3115 95.3604C89.3291 95.7705 89.3379 96.1895 89.3379 96.6172V104H87.9492V91.1504H89.6631L96.6416 101.908H96.7031C96.6914 101.703 96.6768 101.413 96.6592 101.038C96.6416 100.657 96.624 100.25 96.6064 99.8164C96.5947 99.377 96.5889 98.9697 96.5889 98.5947V91.1504H97.9951V104ZM102.741 94.3672V104H101.282V94.3672H102.741ZM102.029 90.7637C102.27 90.7637 102.475 90.8428 102.645 91.001C102.82 91.1533 102.908 91.3936 102.908 91.7217C102.908 92.0439 102.82 92.2842 102.645 92.4424C102.475 92.6006 102.27 92.6797 102.029 92.6797C101.777 92.6797 101.566 92.6006 101.396 92.4424C101.232 92.2842 101.15 92.0439 101.15 91.7217C101.15 91.3936 101.232 91.1533 101.396 91.001C101.566 90.8428 101.777 90.7637 102.029 90.7637ZM108.524 108.324C107.259 108.324 106.283 108.087 105.598 107.612C104.912 107.144 104.569 106.484 104.569 105.635C104.569 105.031 104.76 104.516 105.141 104.088C105.527 103.66 106.061 103.376 106.74 103.235C106.488 103.118 106.271 102.942 106.09 102.708C105.914 102.474 105.826 102.204 105.826 101.899C105.826 101.548 105.923 101.24 106.116 100.977C106.315 100.707 106.617 100.449 107.021 100.203C106.518 99.998 106.107 99.6523 105.791 99.166C105.48 98.6738 105.325 98.1025 105.325 97.4521C105.325 96.7607 105.469 96.1719 105.756 95.6855C106.043 95.1934 106.459 94.8184 107.004 94.5605C107.549 94.3027 108.208 94.1738 108.981 94.1738C109.151 94.1738 109.321 94.1826 109.491 94.2002C109.667 94.2119 109.834 94.2324 109.992 94.2617C110.15 94.2852 110.288 94.3145 110.405 94.3496H113.71V95.29L111.935 95.5098C112.11 95.7383 112.257 96.0137 112.374 96.3359C112.491 96.6582 112.55 97.0156 112.55 97.4082C112.55 98.3691 112.225 99.1338 111.574 99.7021C110.924 100.265 110.03 100.546 108.894 100.546C108.624 100.546 108.349 100.522 108.067 100.476C107.78 100.634 107.561 100.81 107.408 101.003C107.262 101.196 107.188 101.419 107.188 101.671C107.188 101.858 107.244 102.008 107.355 102.119C107.473 102.23 107.64 102.312 107.856 102.365C108.073 102.412 108.334 102.436 108.639 102.436H110.335C111.384 102.436 112.187 102.655 112.743 103.095C113.306 103.534 113.587 104.176 113.587 105.02C113.587 106.086 113.153 106.903 112.286 107.472C111.419 108.04 110.165 108.324 108.524 108.324ZM108.568 107.182C109.365 107.182 110.024 107.1 110.546 106.936C111.073 106.777 111.466 106.546 111.724 106.241C111.987 105.942 112.119 105.585 112.119 105.169C112.119 104.782 112.031 104.489 111.855 104.29C111.68 104.097 111.422 103.968 111.082 103.903C110.742 103.833 110.326 103.798 109.834 103.798H108.164C107.73 103.798 107.353 103.865 107.03 104C106.708 104.135 106.459 104.334 106.283 104.598C106.113 104.861 106.028 105.189 106.028 105.582C106.028 106.104 106.248 106.499 106.688 106.769C107.127 107.044 107.754 107.182 108.568 107.182ZM108.946 99.4824C109.644 99.4824 110.168 99.3066 110.52 98.9551C110.871 98.6035 111.047 98.0908 111.047 97.417C111.047 96.6963 110.868 96.1572 110.511 95.7998C110.153 95.4365 109.626 95.2549 108.929 95.2549C108.261 95.2549 107.745 95.4424 107.382 95.8174C107.024 96.1865 106.846 96.7285 106.846 97.4434C106.846 98.0996 107.027 98.6035 107.391 98.9551C107.754 99.3066 108.272 99.4824 108.946 99.4824ZM117.067 90.3242V94.4111C117.067 94.6455 117.062 94.8828 117.05 95.123C117.038 95.3574 117.018 95.5742 116.988 95.7734H117.085C117.284 95.4336 117.536 95.1494 117.841 94.9209C118.151 94.6865 118.503 94.5107 118.896 94.3936C119.288 94.2705 119.704 94.209 120.144 94.209C120.917 94.209 121.562 94.332 122.077 94.5781C122.599 94.8242 122.988 95.2051 123.246 95.7207C123.51 96.2363 123.642 96.9043 123.642 97.7246V104H122.2V97.8213C122.2 97.0186 122.016 96.418 121.646 96.0195C121.283 95.6211 120.724 95.4219 119.968 95.4219C119.253 95.4219 118.682 95.5596 118.254 95.835C117.832 96.1045 117.527 96.5029 117.34 97.0303C117.158 97.5576 117.067 98.2021 117.067 98.9639V104H115.608V90.3242H117.067ZM129.759 102.98C129.999 102.98 130.245 102.96 130.497 102.919C130.749 102.878 130.954 102.828 131.112 102.77V103.903C130.942 103.979 130.705 104.044 130.4 104.097C130.102 104.149 129.809 104.176 129.521 104.176C129.012 104.176 128.549 104.088 128.133 103.912C127.717 103.73 127.383 103.426 127.131 102.998C126.885 102.57 126.762 101.979 126.762 101.223V95.5098H125.391V94.7979L126.771 94.2266L127.351 92.1348H128.229V94.3672H131.051V95.5098H128.229V101.179C128.229 101.782 128.367 102.233 128.643 102.532C128.924 102.831 129.296 102.98 129.759 102.98Z" fill="#585858"/>
</svg>
