<svg width="289" height="116" viewBox="0 0 289 116" fill="none" xmlns="http://www.w3.org/2000/svg">
<path d="M1.19 85V75.326H2.394V85H1.19ZM6.29803 79.498V83.334C6.29803 83.894 6.56403 84.174 7.09603 84.174C7.40403 84.174 7.7727 84.0853 8.20203 83.908L8.35603 84.846C7.8987 85.0607 7.41803 85.168 6.91403 85.168C6.41003 85.168 5.99003 85.0187 5.65403 84.72C5.31803 84.412 5.15003 83.9453 5.15003 83.32V79.498H4.26803V78.616H5.15003V77.356L6.01803 76.558H6.29803V78.616H8.10403V79.498H6.29803ZM15.1936 77.118C15.0443 77.2673 14.8623 77.342 14.6476 77.342C14.4329 77.342 14.2509 77.2673 14.1016 77.118C13.9523 76.9593 13.8776 76.7727 13.8776 76.558C13.8776 76.3433 13.9523 76.1613 14.1016 76.012C14.2603 75.8533 14.4423 75.774 14.6476 75.774C14.8529 75.774 15.0303 75.8533 15.1796 76.012C15.3383 76.1613 15.4176 76.3433 15.4176 76.558C15.4176 76.7727 15.3429 76.9593 15.1936 77.118ZM14.0596 78.616H15.2496V85H14.0596V78.616ZM20.9353 79.736C20.4593 79.5307 20.0113 79.428 19.5913 79.428C18.7793 79.428 18.3733 79.6753 18.3733 80.17C18.3733 80.5993 18.9146 81.0147 19.9973 81.416C20.3986 81.5653 20.7673 81.7987 21.1033 82.116C21.4486 82.4333 21.6213 82.816 21.6213 83.264C21.6213 83.908 21.4113 84.3887 20.9913 84.706C20.5713 85.014 19.9879 85.168 19.2413 85.168C18.4946 85.168 17.7666 84.9627 17.0573 84.552L17.4073 83.684C17.9953 84.02 18.6626 84.188 19.4093 84.188C19.7266 84.188 19.9833 84.1227 20.1793 83.992C20.3753 83.852 20.4733 83.6653 20.4733 83.432C20.4733 83.1987 20.3613 82.998 20.1373 82.83C19.9133 82.662 19.6426 82.5127 19.3253 82.382C19.0079 82.2513 18.6906 82.1113 18.3733 81.962C18.0559 81.8033 17.7853 81.584 17.5613 81.304C17.3373 81.024 17.2253 80.6927 17.2253 80.31C17.2253 79.7127 17.4259 79.2553 17.8273 78.938C18.2379 78.6113 18.7559 78.448 19.3813 78.448C20.0066 78.448 20.6413 78.588 21.2853 78.868L20.9353 79.736ZM30.8657 81.178V80.562C30.8657 79.806 30.4737 79.428 29.6897 79.428C29.0737 79.428 28.4297 79.6287 27.7577 80.03L27.3517 79.19C28.1357 78.6953 28.9804 78.448 29.8857 78.448C30.5204 78.448 31.0384 78.6113 31.4397 78.938C31.8504 79.2553 32.0557 79.75 32.0557 80.422V85H31.2997L30.9497 84.16C30.6511 84.468 30.2964 84.7153 29.8857 84.902C29.4751 85.0793 29.1017 85.168 28.7657 85.168C28.1871 85.168 27.7251 85.0093 27.3797 84.692C27.0344 84.3747 26.8617 83.9593 26.8617 83.446C26.8617 81.934 28.1964 81.178 30.8657 81.178ZM28.5417 82.536C28.3644 82.6947 28.2431 82.8393 28.1777 82.97C28.1217 83.0913 28.0937 83.2547 28.0937 83.46C28.0937 83.656 28.1777 83.8287 28.3457 83.978C28.5231 84.118 28.7517 84.188 29.0317 84.188C29.6197 84.188 30.2311 83.9267 30.8657 83.404V82.004C29.6897 82.0227 28.9151 82.2 28.5417 82.536ZM38.2877 74.948H39.4357V85H38.2877V74.948ZM44.2905 79.358C43.9359 79.358 43.6279 79.4373 43.3665 79.596C43.1145 79.7547 42.9279 79.96 42.8065 80.212C42.5825 80.688 42.4705 81.1967 42.4705 81.738C42.4705 83.418 43.0539 84.258 44.2205 84.258C44.5752 84.258 44.8785 84.1787 45.1305 84.02C45.3825 83.8613 45.5739 83.656 45.7045 83.404C45.9285 82.9373 46.0405 82.4287 46.0405 81.878C46.0405 80.198 45.4572 79.358 44.2905 79.358ZM44.2905 78.448C45.3265 78.448 46.0825 78.77 46.5585 79.414C47.0345 80.058 47.2725 80.898 47.2725 81.934C47.2725 82.6807 47.0765 83.3713 46.6845 84.006C46.4699 84.3513 46.1479 84.6313 45.7185 84.846C45.2892 85.0607 44.7759 85.168 44.1785 85.168C43.1519 85.168 42.4052 84.86 41.9385 84.244C41.4719 83.628 41.2385 82.802 41.2385 81.766C41.2385 81.1593 41.3319 80.646 41.5185 80.226C41.7145 79.806 41.9199 79.484 42.1345 79.26C42.3492 79.0267 42.6432 78.8353 43.0165 78.686C43.3899 78.5273 43.8145 78.448 44.2905 78.448ZM54.6183 80.17V85H53.4283V80.226C53.4283 79.9833 53.3303 79.7967 53.1343 79.666C52.9476 79.5353 52.6956 79.47 52.3783 79.47C51.7156 79.47 51.0296 79.708 50.3203 80.184V85H49.1303V78.616H49.8863L50.2363 79.344C50.9549 78.7467 51.7343 78.448 52.5743 78.448C53.1996 78.448 53.6943 78.6067 54.0583 78.924C54.4316 79.2413 54.6183 79.6567 54.6183 80.17ZM58.9474 83.194C58.7328 83.194 58.5274 83.18 58.3314 83.152C58.0981 83.6 57.9814 83.894 57.9814 84.034C57.9814 84.0993 58.0654 84.1553 58.2334 84.202L59.9414 84.58C60.7348 84.7573 61.2994 84.9627 61.6354 85.196C61.9714 85.4387 62.1394 85.7933 62.1394 86.26C62.1394 86.7267 61.9761 87.1187 61.6494 87.436C61.0148 88.0707 60.0814 88.388 58.8494 88.388C58.0934 88.388 57.4401 88.248 56.8894 87.968C56.3388 87.688 56.0634 87.2867 56.0634 86.764C56.0634 86.2413 56.4368 85.6393 57.1834 84.958C56.9034 84.8553 56.7634 84.7013 56.7634 84.496C56.7634 84.2907 57.0388 83.782 57.5894 82.97C56.7868 82.6247 56.3854 81.9013 56.3854 80.8C56.3854 80.184 56.6001 79.6473 57.0294 79.19C57.4681 78.7233 58.1074 78.49 58.9474 78.49C59.4328 78.49 59.8574 78.56 60.2214 78.7L62.1814 78.476V79.414H61.1314C61.3741 79.806 61.4954 80.3053 61.4954 80.912C61.4954 81.5093 61.2808 82.0413 60.8514 82.508C60.4221 82.9653 59.7874 83.194 58.9474 83.194ZM60.3754 81.01C60.3754 79.8527 59.9041 79.274 58.9614 79.274C58.5881 79.274 58.2848 79.372 58.0514 79.568C57.6874 79.8853 57.5054 80.282 57.5054 80.758C57.5054 81.2247 57.6174 81.6167 57.8414 81.934C58.0654 82.2513 58.4248 82.41 58.9194 82.41C59.4141 82.41 59.7781 82.2607 60.0114 81.962C60.2541 81.654 60.3754 81.3367 60.3754 81.01ZM57.1834 86.582C57.1834 86.8807 57.3468 87.1093 57.6734 87.268C58.0001 87.4267 58.4248 87.506 58.9474 87.506C59.4701 87.506 59.9554 87.3987 60.4034 87.184C60.8514 86.9787 61.0754 86.694 61.0754 86.33C61.0754 86.1433 60.9681 85.9893 60.7534 85.868C60.5388 85.756 60.1654 85.644 59.6334 85.532L57.9954 85.168C57.4541 85.7093 57.1834 86.1807 57.1834 86.582ZM70.3194 84.188C70.9914 84.188 71.6634 83.9873 72.3354 83.586L72.7414 84.426C71.9574 84.9207 71.1174 85.168 70.2214 85.168C69.3347 85.168 68.63 84.888 68.1074 84.328C67.5847 83.7587 67.3234 82.942 67.3234 81.878C67.3234 80.814 67.594 79.9787 68.1354 79.372C68.6767 78.756 69.3954 78.448 70.2914 78.448C71.1034 78.448 71.7427 78.7 72.2094 79.204C72.4054 79.4093 72.5687 79.708 72.6994 80.1C72.8394 80.492 72.9094 80.954 72.9094 81.486L72.4754 81.976H68.5134C68.5414 83.4507 69.1434 84.188 70.3194 84.188ZM71.7334 81.094C71.7334 80.5713 71.598 80.1513 71.3274 79.834C71.0567 79.5167 70.6974 79.358 70.2494 79.358C69.8107 79.358 69.4374 79.5167 69.1294 79.834C68.8214 80.142 68.6347 80.562 68.5694 81.094H71.7334ZM77.9306 79.736C77.4546 79.5307 77.0066 79.428 76.5866 79.428C75.7746 79.428 75.3686 79.6753 75.3686 80.17C75.3686 80.5993 75.9099 81.0147 76.9926 81.416C77.3939 81.5653 77.7626 81.7987 78.0986 82.116C78.4439 82.4333 78.6166 82.816 78.6166 83.264C78.6166 83.908 78.4066 84.3887 77.9866 84.706C77.5666 85.014 76.9832 85.168 76.2366 85.168C75.4899 85.168 74.7619 84.9627 74.0526 84.552L74.4026 83.684C74.9906 84.02 75.6579 84.188 76.4046 84.188C76.7219 84.188 76.9786 84.1227 77.1746 83.992C77.3706 83.852 77.4686 83.6653 77.4686 83.432C77.4686 83.1987 77.3566 82.998 77.1326 82.83C76.9086 82.662 76.6379 82.5127 76.3206 82.382C76.0032 82.2513 75.6859 82.1113 75.3686 81.962C75.0512 81.8033 74.7806 81.584 74.5566 81.304C74.3326 81.024 74.2206 80.6927 74.2206 80.31C74.2206 79.7127 74.4212 79.2553 74.8226 78.938C75.2332 78.6113 75.7512 78.448 76.3766 78.448C77.0019 78.448 77.6366 78.588 78.2806 78.868L77.9306 79.736ZM81.7356 79.498V83.334C81.7356 83.894 82.0016 84.174 82.5336 84.174C82.8416 84.174 83.2103 84.0853 83.6396 83.908L83.7936 84.846C83.3363 85.0607 82.8556 85.168 82.3516 85.168C81.8476 85.168 81.4276 85.0187 81.0916 84.72C80.7556 84.412 80.5876 83.9453 80.5876 83.32V79.498H79.7056V78.616H80.5876V77.356L81.4556 76.558H81.7356V78.616H83.5416V79.498H81.7356ZM88.8318 81.178V80.562C88.8318 79.806 88.4398 79.428 87.6558 79.428C87.0398 79.428 86.3958 79.6287 85.7238 80.03L85.3178 79.19C86.1018 78.6953 86.9464 78.448 87.8518 78.448C88.4864 78.448 89.0044 78.6113 89.4058 78.938C89.8164 79.2553 90.0218 79.75 90.0218 80.422V85H89.2658L88.9158 84.16C88.6171 84.468 88.2624 84.7153 87.8518 84.902C87.4411 85.0793 87.0678 85.168 86.7318 85.168C86.1531 85.168 85.6911 85.0093 85.3458 84.692C85.0004 84.3747 84.8278 83.9593 84.8278 83.446C84.8278 81.934 86.1624 81.178 88.8318 81.178ZM86.5078 82.536C86.3304 82.6947 86.2091 82.8393 86.1438 82.97C86.0878 83.0913 86.0598 83.2547 86.0598 83.46C86.0598 83.656 86.1438 83.8287 86.3118 83.978C86.4891 84.118 86.7178 84.188 86.9978 84.188C87.5858 84.188 88.1971 83.9267 88.8318 83.404V82.004C87.6558 82.0227 86.8811 82.2 86.5078 82.536ZM94.6503 84.216C95.3503 84.216 95.8916 83.978 96.2743 83.502C96.657 83.026 96.8483 82.452 96.8483 81.78C96.8483 81.108 96.6803 80.5713 96.3443 80.17C96.0083 79.7593 95.5743 79.554 95.0423 79.554C94.5196 79.554 93.9596 79.7127 93.3623 80.03V83.964C93.801 84.132 94.2303 84.216 94.6503 84.216ZM93.3623 74.948V79.134C94.0716 78.7327 94.7856 78.532 95.5043 78.532C96.2323 78.532 96.839 78.826 97.3243 79.414C97.8096 79.9927 98.0523 80.7533 98.0523 81.696C98.0523 82.6387 97.7676 83.4553 97.1983 84.146C96.6383 84.8273 95.8356 85.168 94.7903 85.168C93.9876 85.168 93.129 84.9627 92.2143 84.552V74.948H93.3623ZM99.8494 74.948H100.997V85H99.8494V74.948ZM104.48 77.118C104.331 77.2673 104.149 77.342 103.934 77.342C103.72 77.342 103.538 77.2673 103.388 77.118C103.239 76.9593 103.164 76.7727 103.164 76.558C103.164 76.3433 103.239 76.1613 103.388 76.012C103.547 75.8533 103.729 75.774 103.934 75.774C104.14 75.774 104.317 75.8533 104.466 76.012C104.625 76.1613 104.704 76.3433 104.704 76.558C104.704 76.7727 104.63 76.9593 104.48 77.118ZM103.346 78.616H104.536V85H103.346V78.616ZM110.222 79.736C109.746 79.5307 109.298 79.428 108.878 79.428C108.066 79.428 107.66 79.6753 107.66 80.17C107.66 80.5993 108.201 81.0147 109.284 81.416C109.685 81.5653 110.054 81.7987 110.39 82.116C110.735 82.4333 110.908 82.816 110.908 83.264C110.908 83.908 110.698 84.3887 110.278 84.706C109.858 85.014 109.275 85.168 108.528 85.168C107.781 85.168 107.053 84.9627 106.344 84.552L106.694 83.684C107.282 84.02 107.949 84.188 108.696 84.188C109.013 84.188 109.27 84.1227 109.466 83.992C109.662 83.852 109.76 83.6653 109.76 83.432C109.76 83.1987 109.648 82.998 109.424 82.83C109.2 82.662 108.929 82.5127 108.612 82.382C108.295 82.2513 107.977 82.1113 107.66 81.962C107.343 81.8033 107.072 81.584 106.848 81.304C106.624 81.024 106.512 80.6927 106.512 80.31C106.512 79.7127 106.713 79.2553 107.114 78.938C107.525 78.6113 108.043 78.448 108.668 78.448C109.293 78.448 109.928 78.588 110.572 78.868L110.222 79.736ZM113.733 74.948V79.274C114.433 78.7233 115.184 78.448 115.987 78.448C116.612 78.448 117.107 78.6067 117.471 78.924C117.844 79.232 118.031 79.638 118.031 80.142V85H116.841V80.226C116.841 79.9833 116.743 79.7967 116.547 79.666C116.36 79.5353 116.108 79.47 115.791 79.47C115.128 79.47 114.442 79.708 113.733 80.184V85H112.543V74.948H113.733ZM122.837 84.188C123.509 84.188 124.181 83.9873 124.853 83.586L125.259 84.426C124.475 84.9207 123.635 85.168 122.739 85.168C121.853 85.168 121.148 84.888 120.625 84.328C120.103 83.7587 119.841 82.942 119.841 81.878C119.841 80.814 120.112 79.9787 120.653 79.372C121.195 78.756 121.913 78.448 122.809 78.448C123.621 78.448 124.261 78.7 124.727 79.204C124.923 79.4093 125.087 79.708 125.217 80.1C125.357 80.492 125.427 80.954 125.427 81.486L124.993 81.976H121.031C121.059 83.4507 121.661 84.188 122.837 84.188ZM124.251 81.094C124.251 80.5713 124.116 80.1513 123.845 79.834C123.575 79.5167 123.215 79.358 122.767 79.358C122.329 79.358 121.955 79.5167 121.647 79.834C121.339 80.142 121.153 80.562 121.087 81.094H124.251ZM131.471 74.948H132.619V85H131.863L131.513 84.16C130.813 84.832 130.089 85.168 129.343 85.168C128.605 85.168 127.994 84.8833 127.509 84.314C127.023 83.7353 126.781 82.956 126.781 81.976C126.781 80.996 127.07 80.1793 127.649 79.526C128.227 78.8633 128.974 78.532 129.889 78.532C130.383 78.532 130.911 78.644 131.471 78.868V74.948ZM130.183 79.484C129.483 79.484 128.941 79.722 128.559 80.198C128.176 80.674 127.985 81.2527 127.985 81.934C127.985 82.6153 128.143 83.1613 128.461 83.572C128.778 83.9827 129.189 84.188 129.693 84.188C129.973 84.188 130.271 84.1133 130.589 83.964C130.915 83.8053 131.209 83.5907 131.471 83.32V79.736C131.032 79.568 130.603 79.484 130.183 79.484ZM139.238 78.616V76.922C139.238 76.2313 139.402 75.704 139.728 75.34C140.055 74.9667 140.48 74.78 141.002 74.78C141.534 74.78 142.099 74.92 142.696 75.2L142.29 76.04C141.88 75.872 141.525 75.788 141.226 75.788C140.666 75.788 140.386 76.1613 140.386 76.908V78.616H142.122V79.498H140.386V85H139.238V79.498H138.286V78.616H139.238ZM147.03 81.178V80.562C147.03 79.806 146.638 79.428 145.854 79.428C145.238 79.428 144.594 79.6287 143.922 80.03L143.516 79.19C144.3 78.6953 145.145 78.448 146.05 78.448C146.685 78.448 147.203 78.6113 147.604 78.938C148.015 79.2553 148.22 79.75 148.22 80.422V85H147.464L147.114 84.16C146.816 84.468 146.461 84.7153 146.05 84.902C145.64 85.0793 145.266 85.168 144.93 85.168C144.352 85.168 143.89 85.0093 143.544 84.692C143.199 84.3747 143.026 83.9593 143.026 83.446C143.026 81.934 144.361 81.178 147.03 81.178ZM144.706 82.536C144.529 82.6947 144.408 82.8393 144.342 82.97C144.286 83.0913 144.258 83.2547 144.258 83.46C144.258 83.656 144.342 83.8287 144.51 83.978C144.688 84.118 144.916 84.188 145.196 84.188C145.784 84.188 146.396 83.9267 147.03 83.404V82.004C145.854 82.0227 145.08 82.2 144.706 82.536ZM152.961 78.448C153.586 78.448 154.221 78.588 154.865 78.868L154.515 79.736C154.039 79.5307 153.53 79.428 152.989 79.428C152.457 79.428 152.032 79.6287 151.715 80.03C151.407 80.4313 151.253 81.0193 151.253 81.794C151.253 82.5687 151.416 83.1613 151.743 83.572C152.069 83.9827 152.499 84.188 153.031 84.188C153.563 84.188 154.113 84.0573 154.683 83.796L154.949 84.72C154.295 85.0187 153.633 85.168 152.961 85.168C152.093 85.168 151.383 84.8553 150.833 84.23C150.291 83.5953 150.021 82.7833 150.021 81.794C150.021 80.7953 150.291 79.988 150.833 79.372C151.383 78.756 152.093 78.448 152.961 78.448ZM157.932 79.498V83.334C157.932 83.894 158.198 84.174 158.73 84.174C159.038 84.174 159.407 84.0853 159.836 83.908L159.99 84.846C159.533 85.0607 159.052 85.168 158.548 85.168C158.044 85.168 157.624 85.0187 157.288 84.72C156.952 84.412 156.784 83.9453 156.784 83.32V79.498H155.902V78.616H156.784V77.356L157.652 76.558H157.932V78.616H159.738V79.498H157.932ZM167.01 79.498V83.334C167.01 83.894 167.276 84.174 167.808 84.174C168.116 84.174 168.484 84.0853 168.914 83.908L169.068 84.846C168.61 85.0607 168.13 85.168 167.626 85.168C167.122 85.168 166.702 85.0187 166.366 84.72C166.03 84.412 165.862 83.9453 165.862 83.32V79.498H164.98V78.616H165.862V77.356L166.73 76.558H167.01V78.616H168.816V79.498H167.01ZM171.74 74.948V79.274C172.44 78.7233 173.191 78.448 173.994 78.448C174.619 78.448 175.114 78.6067 175.478 78.924C175.851 79.232 176.038 79.638 176.038 80.142V85H174.848V80.226C174.848 79.9833 174.75 79.7967 174.554 79.666C174.367 79.5353 174.115 79.47 173.798 79.47C173.135 79.47 172.449 79.708 171.74 80.184V85H170.55V74.948H171.74ZM181.782 81.178V80.562C181.782 79.806 181.39 79.428 180.606 79.428C179.99 79.428 179.346 79.6287 178.674 80.03L178.268 79.19C179.052 78.6953 179.897 78.448 180.802 78.448C181.437 78.448 181.955 78.6113 182.356 78.938C182.767 79.2553 182.972 79.75 182.972 80.422V85H182.216L181.866 84.16C181.568 84.468 181.213 84.7153 180.802 84.902C180.392 85.0793 180.018 85.168 179.682 85.168C179.104 85.168 178.642 85.0093 178.296 84.692C177.951 84.3747 177.778 83.9593 177.778 83.446C177.778 81.934 179.113 81.178 181.782 81.178ZM179.458 82.536C179.281 82.6947 179.16 82.8393 179.094 82.97C179.038 83.0913 179.01 83.2547 179.01 83.46C179.01 83.656 179.094 83.8287 179.262 83.978C179.44 84.118 179.668 84.188 179.948 84.188C180.536 84.188 181.148 83.9267 181.782 83.404V82.004C180.606 82.0227 179.832 82.2 179.458 82.536ZM186.635 79.498V83.334C186.635 83.894 186.901 84.174 187.433 84.174C187.741 84.174 188.11 84.0853 188.539 83.908L188.693 84.846C188.236 85.0607 187.755 85.168 187.251 85.168C186.747 85.168 186.327 85.0187 185.991 84.72C185.655 84.412 185.487 83.9453 185.487 83.32V79.498H184.605V78.616H185.487V77.356L186.355 76.558H186.635V78.616H188.441V79.498H186.635ZM197.785 81.178V80.562C197.785 79.806 197.393 79.428 196.609 79.428C195.993 79.428 195.349 79.6287 194.677 80.03L194.271 79.19C195.055 78.6953 195.899 78.448 196.805 78.448C197.439 78.448 197.957 78.6113 198.359 78.938C198.769 79.2553 198.975 79.75 198.975 80.422V85H198.219L197.869 84.16C197.57 84.468 197.215 84.7153 196.805 84.902C196.394 85.0793 196.021 85.168 195.685 85.168C195.106 85.168 194.644 85.0093 194.299 84.692C193.953 84.3747 193.781 83.9593 193.781 83.446C193.781 81.934 195.115 81.178 197.785 81.178ZM195.461 82.536C195.283 82.6947 195.162 82.8393 195.097 82.97C195.041 83.0913 195.013 83.2547 195.013 83.46C195.013 83.656 195.097 83.8287 195.265 83.978C195.442 84.118 195.671 84.188 195.951 84.188C196.539 84.188 197.15 83.9267 197.785 83.404V82.004C196.609 82.0227 195.834 82.2 195.461 82.536ZM205.263 78.616H206.019L206.369 79.736H206.425C206.938 79.0733 207.643 78.672 208.539 78.532L208.665 79.638C208.226 79.666 207.801 79.778 207.391 79.974C206.98 80.17 206.667 80.4313 206.453 80.758V85H205.263V78.616ZM212.521 84.188C213.193 84.188 213.865 83.9873 214.537 83.586L214.943 84.426C214.159 84.9207 213.319 85.168 212.423 85.168C211.536 85.168 210.831 84.888 210.309 84.328C209.786 83.7587 209.525 82.942 209.525 81.878C209.525 80.814 209.795 79.9787 210.337 79.372C210.878 78.756 211.597 78.448 212.493 78.448C213.305 78.448 213.944 78.7 214.411 79.204C214.607 79.4093 214.77 79.708 214.901 80.1C215.041 80.492 215.111 80.954 215.111 81.486L214.677 81.976H210.715C210.743 83.4507 211.345 84.188 212.521 84.188ZM213.935 81.094C213.935 80.5713 213.799 80.1513 213.529 79.834C213.258 79.5167 212.899 79.358 212.451 79.358C212.012 79.358 211.639 79.5167 211.331 79.834C211.023 80.142 210.836 80.562 210.771 81.094H213.935ZM220.356 81.178V80.562C220.356 79.806 219.964 79.428 219.18 79.428C218.564 79.428 217.92 79.6287 217.248 80.03L216.842 79.19C217.626 78.6953 218.47 78.448 219.376 78.448C220.01 78.448 220.528 78.6113 220.93 78.938C221.34 79.2553 221.546 79.75 221.546 80.422V85H220.79L220.44 84.16C220.141 84.468 219.786 84.7153 219.376 84.902C218.965 85.0793 218.592 85.168 218.256 85.168C217.677 85.168 217.215 85.0093 216.87 84.692C216.524 84.3747 216.352 83.9593 216.352 83.446C216.352 81.934 217.686 81.178 220.356 81.178ZM218.032 82.536C217.854 82.6947 217.733 82.8393 217.668 82.97C217.612 83.0913 217.584 83.2547 217.584 83.46C217.584 83.656 217.668 83.8287 217.836 83.978C218.013 84.118 218.242 84.188 218.522 84.188C219.11 84.188 219.721 83.9267 220.356 83.404V82.004C219.18 82.0227 218.405 82.2 218.032 82.536ZM228.078 74.948H229.226V85H228.47L228.12 84.16C227.42 84.832 226.697 85.168 225.95 85.168C225.213 85.168 224.602 84.8833 224.116 84.314C223.631 83.7353 223.388 82.956 223.388 81.976C223.388 80.996 223.678 80.1793 224.256 79.526C224.835 78.8633 225.582 78.532 226.496 78.532C226.991 78.532 227.518 78.644 228.078 78.868V74.948ZM226.79 79.484C226.09 79.484 225.549 79.722 225.166 80.198C224.784 80.674 224.592 81.2527 224.592 81.934C224.592 82.6153 224.751 83.1613 225.068 83.572C225.386 83.9827 225.796 84.188 226.3 84.188C226.58 84.188 226.879 84.1133 227.196 83.964C227.523 83.8053 227.817 83.5907 228.078 83.32V79.736C227.64 79.568 227.21 79.484 226.79 79.484ZM234.032 84.188C234.704 84.188 235.376 83.9873 236.048 83.586L236.454 84.426C235.67 84.9207 234.83 85.168 233.934 85.168C233.048 85.168 232.343 84.888 231.82 84.328C231.298 83.7587 231.036 82.942 231.036 81.878C231.036 80.814 231.307 79.9787 231.848 79.372C232.39 78.756 233.108 78.448 234.004 78.448C234.816 78.448 235.456 78.7 235.922 79.204C236.118 79.4093 236.282 79.708 236.412 80.1C236.552 80.492 236.622 80.954 236.622 81.486L236.188 81.976H232.226C232.254 83.4507 232.856 84.188 234.032 84.188ZM235.446 81.094C235.446 80.5713 235.311 80.1513 235.04 79.834C234.77 79.5167 234.41 79.358 233.962 79.358C233.524 79.358 233.15 79.5167 232.842 79.834C232.534 80.142 232.348 80.562 232.282 81.094H235.446ZM238.368 78.616H239.124L239.474 79.736H239.53C240.043 79.0733 240.748 78.672 241.644 78.532L241.77 79.638C241.331 79.666 240.906 79.778 240.496 79.974C240.085 80.17 239.772 80.4313 239.558 80.758V85H238.368V78.616ZM249.231 85H247.915L246.179 78.616H247.383L248.545 83.726H248.601L250.099 78.616H251.233L252.745 83.726H252.801L253.963 78.616H255.167L253.431 85H252.115L250.687 80.45H250.617L249.231 85ZM257.776 77.118C257.627 77.2673 257.445 77.342 257.23 77.342C257.015 77.342 256.833 77.2673 256.684 77.118C256.535 76.9593 256.46 76.7727 256.46 76.558C256.46 76.3433 256.535 76.1613 256.684 76.012C256.843 75.8533 257.025 75.774 257.23 75.774C257.435 75.774 257.613 75.8533 257.762 76.012C257.921 76.1613 258 76.3433 258 76.558C258 76.7727 257.925 76.9593 257.776 77.118ZM256.642 78.616H257.832V85H256.642V78.616ZM260.186 74.948H261.334V85H260.186V74.948ZM263.514 74.948H264.662V85H263.514V74.948ZM273.347 84.216C274.047 84.216 274.588 83.978 274.971 83.502C275.353 83.026 275.545 82.452 275.545 81.78C275.545 81.108 275.377 80.5713 275.041 80.17C274.705 79.7593 274.271 79.554 273.739 79.554C273.216 79.554 272.656 79.7127 272.059 80.03V83.964C272.497 84.132 272.927 84.216 273.347 84.216ZM272.059 74.948V79.134C272.768 78.7327 273.482 78.532 274.201 78.532C274.929 78.532 275.535 78.826 276.021 79.414C276.506 79.9927 276.749 80.7533 276.749 81.696C276.749 82.6387 276.464 83.4553 275.895 84.146C275.335 84.8273 274.532 85.168 273.487 85.168C272.684 85.168 271.825 84.9627 270.911 84.552V74.948H272.059ZM281.164 84.188C281.836 84.188 282.508 83.9873 283.18 83.586L283.586 84.426C282.802 84.9207 281.962 85.168 281.066 85.168C280.179 85.168 279.474 84.888 278.952 84.328C278.429 83.7587 278.168 82.942 278.168 81.878C278.168 80.814 278.438 79.9787 278.98 79.372C279.521 78.756 280.24 78.448 281.136 78.448C281.948 78.448 282.587 78.7 283.054 79.204C283.25 79.4093 283.413 79.708 283.544 80.1C283.684 80.492 283.754 80.954 283.754 81.486L283.32 81.976H279.358C279.386 83.4507 279.988 84.188 281.164 84.188ZM282.578 81.094C282.578 80.5713 282.442 80.1513 282.172 79.834C281.901 79.5167 281.542 79.358 281.094 79.358C280.655 79.358 280.282 79.5167 279.974 79.834C279.666 80.142 279.479 80.562 279.414 81.094H282.578ZM5.306 98.948H6.454V109H5.698L5.348 108.16C4.648 108.832 3.92467 109.168 3.178 109.168C2.44067 109.168 1.82933 108.883 1.344 108.314C0.858667 107.735 0.616 106.956 0.616 105.976C0.616 104.996 0.905333 104.179 1.484 103.526C2.06267 102.863 2.80933 102.532 3.724 102.532C4.21867 102.532 4.746 102.644 5.306 102.868V98.948ZM4.018 103.484C3.318 103.484 2.77667 103.722 2.394 104.198C2.01133 104.674 1.82 105.253 1.82 105.934C1.82 106.615 1.97867 107.161 2.296 107.572C2.61333 107.983 3.024 108.188 3.528 108.188C3.808 108.188 4.10667 108.113 4.424 107.964C4.75067 107.805 5.04467 107.591 5.306 107.32V103.736C4.86733 103.568 4.438 103.484 4.018 103.484ZM9.94416 101.118C9.79482 101.267 9.61282 101.342 9.39816 101.342C9.18349 101.342 9.00149 101.267 8.85216 101.118C8.70282 100.959 8.62816 100.773 8.62816 100.558C8.62816 100.343 8.70282 100.161 8.85216 100.012C9.01082 99.8533 9.19282 99.774 9.39816 99.774C9.60349 99.774 9.78082 99.8533 9.93016 100.012C10.0888 100.161 10.1682 100.343 10.1682 100.558C10.1682 100.773 10.0935 100.959 9.94416 101.118ZM8.81016 102.616H10.0002V109H8.81016V102.616ZM15.6858 103.736C15.2098 103.531 14.7618 103.428 14.3418 103.428C13.5298 103.428 13.1238 103.675 13.1238 104.17C13.1238 104.599 13.6651 105.015 14.7478 105.416C15.1491 105.565 15.5178 105.799 15.8538 106.116C16.1991 106.433 16.3718 106.816 16.3718 107.264C16.3718 107.908 16.1618 108.389 15.7418 108.706C15.3218 109.014 14.7385 109.168 13.9918 109.168C13.2451 109.168 12.5171 108.963 11.8078 108.552L12.1578 107.684C12.7458 108.02 13.4131 108.188 14.1598 108.188C14.4771 108.188 14.7338 108.123 14.9298 107.992C15.1258 107.852 15.2238 107.665 15.2238 107.432C15.2238 107.199 15.1118 106.998 14.8878 106.83C14.6638 106.662 14.3931 106.513 14.0758 106.382C13.7585 106.251 13.4411 106.111 13.1238 105.962C12.8065 105.803 12.5358 105.584 12.3118 105.304C12.0878 105.024 11.9758 104.693 11.9758 104.31C11.9758 103.713 12.1765 103.255 12.5778 102.938C12.9885 102.611 13.5065 102.448 14.1318 102.448C14.7571 102.448 15.3918 102.588 16.0358 102.868L15.6858 103.736ZM19.4908 103.498V107.334C19.4908 107.894 19.7568 108.174 20.2888 108.174C20.5968 108.174 20.9655 108.085 21.3948 107.908L21.5488 108.846C21.0915 109.061 20.6108 109.168 20.1068 109.168C19.6028 109.168 19.1828 109.019 18.8468 108.72C18.5108 108.412 18.3428 107.945 18.3428 107.32V103.498H17.4608V102.616H18.3428V101.356L19.2108 100.558H19.4908V102.616H21.2968V103.498H19.4908ZM23.087 102.616H23.843L24.193 103.736H24.249C24.7623 103.073 25.467 102.672 26.363 102.532L26.489 103.638C26.0503 103.666 25.6257 103.778 25.215 103.974C24.8043 104.17 24.4917 104.431 24.277 104.758V109H23.087V102.616ZM31.283 105.178V104.562C31.283 103.806 30.891 103.428 30.107 103.428C29.491 103.428 28.847 103.629 28.175 104.03L27.769 103.19C28.553 102.695 29.3977 102.448 30.303 102.448C30.9377 102.448 31.4557 102.611 31.857 102.938C32.2677 103.255 32.473 103.75 32.473 104.422V109H31.717L31.367 108.16C31.0683 108.468 30.7137 108.715 30.303 108.902C29.8923 109.079 29.519 109.168 29.183 109.168C28.6043 109.168 28.1423 109.009 27.797 108.692C27.4517 108.375 27.279 107.959 27.279 107.446C27.279 105.934 28.6137 105.178 31.283 105.178ZM28.959 106.536C28.7817 106.695 28.6603 106.839 28.595 106.97C28.539 107.091 28.511 107.255 28.511 107.46C28.511 107.656 28.595 107.829 28.763 107.978C28.9403 108.118 29.169 108.188 29.449 108.188C30.037 108.188 30.6483 107.927 31.283 107.404V106.004C30.107 106.023 29.3323 106.2 28.959 106.536ZM37.2135 102.448C37.8389 102.448 38.4735 102.588 39.1175 102.868L38.7675 103.736C38.2915 103.531 37.7829 103.428 37.2415 103.428C36.7095 103.428 36.2849 103.629 35.9675 104.03C35.6595 104.431 35.5055 105.019 35.5055 105.794C35.5055 106.569 35.6689 107.161 35.9955 107.572C36.3222 107.983 36.7515 108.188 37.2835 108.188C37.8155 108.188 38.3662 108.057 38.9355 107.796L39.2015 108.72C38.5482 109.019 37.8855 109.168 37.2135 109.168C36.3455 109.168 35.6362 108.855 35.0855 108.23C34.5442 107.595 34.2735 106.783 34.2735 105.794C34.2735 104.795 34.5442 103.988 35.0855 103.372C35.6362 102.756 36.3455 102.448 37.2135 102.448ZM42.1851 103.498V107.334C42.1851 107.894 42.4511 108.174 42.9831 108.174C43.2911 108.174 43.6597 108.085 44.0891 107.908L44.2431 108.846C43.7857 109.061 43.3051 109.168 42.8011 109.168C42.2971 109.168 41.8771 109.019 41.5411 108.72C41.2051 108.412 41.0371 107.945 41.0371 107.32V103.498H40.1551V102.616H41.0371V101.356L41.9051 100.558H42.1851V102.616H43.9911V103.498H42.1851ZM48.3432 108.188C49.0152 108.188 49.6872 107.987 50.3592 107.586L50.7652 108.426C49.9812 108.921 49.1412 109.168 48.2452 109.168C47.3585 109.168 46.6539 108.888 46.1312 108.328C45.6085 107.759 45.3472 106.942 45.3472 105.878C45.3472 104.814 45.6179 103.979 46.1592 103.372C46.7005 102.756 47.4192 102.448 48.3152 102.448C49.1272 102.448 49.7665 102.7 50.2332 103.204C50.4292 103.409 50.5925 103.708 50.7232 104.1C50.8632 104.492 50.9332 104.954 50.9332 105.486L50.4992 105.976H46.5372C46.5652 107.451 47.1672 108.188 48.3432 108.188ZM49.7572 105.094C49.7572 104.571 49.6219 104.151 49.3512 103.834C49.0805 103.517 48.7212 103.358 48.2732 103.358C47.8345 103.358 47.4612 103.517 47.1532 103.834C46.8452 104.142 46.6585 104.562 46.5932 105.094H49.7572ZM56.9764 98.948H58.1244V109H57.3684L57.0184 108.16C56.3184 108.832 55.5951 109.168 54.8484 109.168C54.1111 109.168 53.4997 108.883 53.0144 108.314C52.5291 107.735 52.2864 106.956 52.2864 105.976C52.2864 104.996 52.5757 104.179 53.1544 103.526C53.7331 102.863 54.4797 102.532 55.3944 102.532C55.8891 102.532 56.4164 102.644 56.9764 102.868V98.948ZM55.6884 103.484C54.9884 103.484 54.4471 103.722 54.0644 104.198C53.6817 104.674 53.4904 105.253 53.4904 105.934C53.4904 106.615 53.6491 107.161 53.9664 107.572C54.2837 107.983 54.6944 108.188 55.1984 108.188C55.4784 108.188 55.7771 108.113 56.0944 107.964C56.4211 107.805 56.7151 107.591 56.9764 107.32V103.736C56.5377 103.568 56.1084 103.484 55.6884 103.484ZM66.816 108.216C67.516 108.216 68.0573 107.978 68.44 107.502C68.8227 107.026 69.014 106.452 69.014 105.78C69.014 105.108 68.846 104.571 68.51 104.17C68.174 103.759 67.74 103.554 67.208 103.554C66.6853 103.554 66.1253 103.713 65.528 104.03V107.964C65.9667 108.132 66.396 108.216 66.816 108.216ZM65.528 98.948V103.134C66.2373 102.733 66.9513 102.532 67.67 102.532C68.398 102.532 69.0047 102.826 69.49 103.414C69.9753 103.993 70.218 104.753 70.218 105.696C70.218 106.639 69.9333 107.455 69.364 108.146C68.804 108.827 68.0013 109.168 66.956 109.168C66.1533 109.168 65.2947 108.963 64.38 108.552V98.948H65.528ZM74.3111 110.134C74.0031 111.03 73.7185 111.627 73.4571 111.926C73.2051 112.234 72.8271 112.388 72.3231 112.388C71.8191 112.388 71.2638 112.248 70.6571 111.968L71.0911 111.058C71.4925 111.273 71.8378 111.38 72.1271 111.38C72.3791 111.38 72.5471 111.338 72.6311 111.254L72.8131 111.072C72.9345 110.951 73.0418 110.741 73.1351 110.442C73.2285 110.143 73.3031 109.91 73.3591 109.742C73.4151 109.583 73.4571 109.457 73.4851 109.364L71.1471 102.616H72.3511L74.0031 107.726H74.0591L75.7111 102.616H76.9151L74.3111 110.134ZM83.7662 103.498V107.334C83.7662 107.894 84.0322 108.174 84.5642 108.174C84.8722 108.174 85.2408 108.085 85.6702 107.908L85.8242 108.846C85.3668 109.061 84.8862 109.168 84.3822 109.168C83.8782 109.168 83.4582 109.019 83.1222 108.72C82.7862 108.412 82.6182 107.945 82.6182 107.32V103.498H81.7362V102.616H82.6182V101.356L83.4862 100.558H83.7662V102.616H85.5722V103.498H83.7662ZM88.4963 98.948V103.274C89.1963 102.723 89.9476 102.448 90.7503 102.448C91.3756 102.448 91.8703 102.607 92.2343 102.924C92.6076 103.232 92.7943 103.638 92.7943 104.142V109H91.6043V104.226C91.6043 103.983 91.5063 103.797 91.3103 103.666C91.1236 103.535 90.8716 103.47 90.5543 103.47C89.8916 103.47 89.2056 103.708 88.4963 104.184V109H87.3063V98.948H88.4963ZM97.6008 108.188C98.2728 108.188 98.9448 107.987 99.6168 107.586L100.023 108.426C99.2388 108.921 98.3988 109.168 97.5028 109.168C96.6161 109.168 95.9115 108.888 95.3888 108.328C94.8661 107.759 94.6048 106.942 94.6048 105.878C94.6048 104.814 94.8755 103.979 95.4168 103.372C95.9581 102.756 96.6768 102.448 97.5728 102.448C98.3848 102.448 99.0241 102.7 99.4908 103.204C99.6868 103.409 99.8501 103.708 99.9808 104.1C100.121 104.492 100.191 104.954 100.191 105.486L99.7568 105.976H95.7948C95.8228 107.451 96.4248 108.188 97.6008 108.188ZM99.0148 105.094C99.0148 104.571 98.8795 104.151 98.6088 103.834C98.3381 103.517 97.9788 103.358 97.5308 103.358C97.0921 103.358 96.7188 103.517 96.4108 103.834C96.1028 104.142 95.9161 104.562 95.8508 105.094H99.0148ZM105.989 102.616H106.745L107.095 103.736H107.151C107.665 103.073 108.369 102.672 109.265 102.532L109.391 103.638C108.953 103.666 108.528 103.778 108.117 103.974C107.707 104.17 107.394 104.431 107.179 104.758V109H105.989V102.616ZM113.247 108.188C113.919 108.188 114.591 107.987 115.263 107.586L115.669 108.426C114.885 108.921 114.045 109.168 113.149 109.168C112.263 109.168 111.558 108.888 111.035 108.328C110.513 107.759 110.251 106.942 110.251 105.878C110.251 104.814 110.522 103.979 111.063 103.372C111.605 102.756 112.323 102.448 113.219 102.448C114.031 102.448 114.671 102.7 115.137 103.204C115.333 103.409 115.497 103.708 115.627 104.1C115.767 104.492 115.837 104.954 115.837 105.486L115.403 105.976H111.441C111.469 107.451 112.071 108.188 113.247 108.188ZM114.661 105.094C114.661 104.571 114.526 104.151 114.255 103.834C113.985 103.517 113.625 103.358 113.177 103.358C112.739 103.358 112.365 103.517 112.057 103.834C111.749 104.142 111.563 104.562 111.497 105.094H114.661ZM121.083 105.178V104.562C121.083 103.806 120.691 103.428 119.907 103.428C119.291 103.428 118.647 103.629 117.975 104.03L117.569 103.19C118.353 102.695 119.197 102.448 120.103 102.448C120.737 102.448 121.255 102.611 121.657 102.938C122.067 103.255 122.273 103.75 122.273 104.422V109H121.517L121.167 108.16C120.868 108.468 120.513 108.715 120.103 108.902C119.692 109.079 119.319 109.168 118.983 109.168C118.404 109.168 117.942 109.009 117.597 108.692C117.251 108.375 117.079 107.959 117.079 107.446C117.079 105.934 118.413 105.178 121.083 105.178ZM118.759 106.536C118.581 106.695 118.46 106.839 118.395 106.97C118.339 107.091 118.311 107.255 118.311 107.46C118.311 107.656 118.395 107.829 118.563 107.978C118.74 108.118 118.969 108.188 119.249 108.188C119.837 108.188 120.448 107.927 121.083 107.404V106.004C119.907 106.023 119.132 106.2 118.759 106.536ZM128.805 98.948H129.953V109H129.197L128.847 108.16C128.147 108.832 127.424 109.168 126.677 109.168C125.94 109.168 125.328 108.883 124.843 108.314C124.358 107.735 124.115 106.956 124.115 105.976C124.115 104.996 124.404 104.179 124.983 103.526C125.562 102.863 126.308 102.532 127.223 102.532C127.718 102.532 128.245 102.644 128.805 102.868V98.948ZM127.517 103.484C126.817 103.484 126.276 103.722 125.893 104.198C125.51 104.674 125.319 105.253 125.319 105.934C125.319 106.615 125.478 107.161 125.795 107.572C126.112 107.983 126.523 108.188 127.027 108.188C127.307 108.188 127.606 108.113 127.923 107.964C128.25 107.805 128.544 107.591 128.805 107.32V103.736C128.366 103.568 127.937 103.484 127.517 103.484ZM135.697 105.178V104.562C135.697 103.806 135.305 103.428 134.521 103.428C133.905 103.428 133.261 103.629 132.589 104.03L132.183 103.19C132.967 102.695 133.812 102.448 134.717 102.448C135.352 102.448 135.87 102.611 136.271 102.938C136.682 103.255 136.887 103.75 136.887 104.422V109H136.131L135.781 108.16C135.483 108.468 135.128 108.715 134.717 108.902C134.307 109.079 133.933 109.168 133.597 109.168C133.019 109.168 132.557 109.009 132.211 108.692C131.866 108.375 131.693 107.959 131.693 107.446C131.693 105.934 133.028 105.178 135.697 105.178ZM133.373 106.536C133.196 106.695 133.075 106.839 133.009 106.97C132.953 107.091 132.925 107.255 132.925 107.46C132.925 107.656 133.009 107.829 133.177 107.978C133.355 108.118 133.583 108.188 133.863 108.188C134.451 108.188 135.063 107.927 135.697 107.404V106.004C134.521 106.023 133.747 106.2 133.373 106.536ZM141.516 108.216C142.216 108.216 142.757 107.978 143.14 107.502C143.522 107.026 143.714 106.452 143.714 105.78C143.714 105.108 143.546 104.571 143.21 104.17C142.874 103.759 142.44 103.554 141.908 103.554C141.385 103.554 140.825 103.713 140.228 104.03V107.964C140.666 108.132 141.096 108.216 141.516 108.216ZM140.228 98.948V103.134C140.937 102.733 141.651 102.532 142.37 102.532C143.098 102.532 143.704 102.826 144.19 103.414C144.675 103.993 144.918 104.753 144.918 105.696C144.918 106.639 144.633 107.455 144.064 108.146C143.504 108.827 142.701 109.168 141.656 109.168C140.853 109.168 139.994 108.963 139.08 108.552V98.948H140.228ZM146.715 98.948H147.863V109H146.715V98.948ZM152.662 108.188C153.334 108.188 154.006 107.987 154.678 107.586L155.084 108.426C154.3 108.921 153.46 109.168 152.564 109.168C151.677 109.168 150.972 108.888 150.45 108.328C149.927 107.759 149.666 106.942 149.666 105.878C149.666 104.814 149.936 103.979 150.478 103.372C151.019 102.756 151.738 102.448 152.634 102.448C153.446 102.448 154.085 102.7 154.552 103.204C154.748 103.409 154.911 103.708 155.042 104.1C155.182 104.492 155.252 104.954 155.252 105.486L154.818 105.976H150.856C150.884 107.451 151.486 108.188 152.662 108.188ZM154.076 105.094C154.076 104.571 153.94 104.151 153.67 103.834C153.399 103.517 153.04 103.358 152.592 103.358C152.153 103.358 151.78 103.517 151.472 103.834C151.164 104.142 150.977 104.562 150.912 105.094H154.076ZM163.556 102.448C164.182 102.448 164.816 102.588 165.46 102.868L165.11 103.736C164.634 103.531 164.126 103.428 163.584 103.428C163.052 103.428 162.628 103.629 162.31 104.03C162.002 104.431 161.848 105.019 161.848 105.794C161.848 106.569 162.012 107.161 162.338 107.572C162.665 107.983 163.094 108.188 163.626 108.188C164.158 108.188 164.709 108.057 165.278 107.796L165.544 108.72C164.891 109.019 164.228 109.168 163.556 109.168C162.688 109.168 161.979 108.855 161.428 108.23C160.887 107.595 160.616 106.783 160.616 105.794C160.616 104.795 160.887 103.988 161.428 103.372C161.979 102.756 162.688 102.448 163.556 102.448ZM169.718 103.358C169.363 103.358 169.055 103.437 168.794 103.596C168.542 103.755 168.355 103.96 168.234 104.212C168.01 104.688 167.898 105.197 167.898 105.738C167.898 107.418 168.481 108.258 169.648 108.258C170.003 108.258 170.306 108.179 170.558 108.02C170.81 107.861 171.001 107.656 171.132 107.404C171.356 106.937 171.468 106.429 171.468 105.878C171.468 104.198 170.885 103.358 169.718 103.358ZM169.718 102.448C170.754 102.448 171.51 102.77 171.986 103.414C172.462 104.058 172.7 104.898 172.7 105.934C172.7 106.681 172.504 107.371 172.112 108.006C171.897 108.351 171.575 108.631 171.146 108.846C170.717 109.061 170.203 109.168 169.606 109.168C168.579 109.168 167.833 108.86 167.366 108.244C166.899 107.628 166.666 106.802 166.666 105.766C166.666 105.159 166.759 104.646 166.946 104.226C167.142 103.806 167.347 103.484 167.562 103.26C167.777 103.027 168.071 102.835 168.444 102.686C168.817 102.527 169.242 102.448 169.718 102.448ZM180.046 104.17V109H178.856V104.226C178.856 103.983 178.758 103.797 178.562 103.666C178.375 103.535 178.123 103.47 177.806 103.47C177.143 103.47 176.457 103.708 175.748 104.184V109H174.558V102.616H175.314L175.664 103.344C176.382 102.747 177.162 102.448 178.002 102.448C178.627 102.448 179.122 102.607 179.486 102.924C179.859 103.241 180.046 103.657 180.046 104.17ZM183.717 103.498V107.334C183.717 107.894 183.983 108.174 184.515 108.174C184.823 108.174 185.192 108.085 185.621 107.908L185.775 108.846C185.318 109.061 184.837 109.168 184.333 109.168C183.829 109.168 183.409 109.019 183.073 108.72C182.737 108.412 182.569 107.945 182.569 107.32V103.498H181.687V102.616H182.569V101.356L183.437 100.558H183.717V102.616H185.523V103.498H183.717ZM189.875 108.188C190.547 108.188 191.219 107.987 191.891 107.586L192.297 108.426C191.513 108.921 190.673 109.168 189.777 109.168C188.89 109.168 188.186 108.888 187.663 108.328C187.14 107.759 186.879 106.942 186.879 105.878C186.879 104.814 187.15 103.979 187.691 103.372C188.232 102.756 188.951 102.448 189.847 102.448C190.659 102.448 191.298 102.7 191.765 103.204C191.961 103.409 192.124 103.708 192.255 104.1C192.395 104.492 192.465 104.954 192.465 105.486L192.031 105.976H188.069C188.097 107.451 188.699 108.188 189.875 108.188ZM191.289 105.094C191.289 104.571 191.154 104.151 190.883 103.834C190.612 103.517 190.253 103.358 189.805 103.358C189.366 103.358 188.993 103.517 188.685 103.834C188.377 104.142 188.19 104.562 188.125 105.094H191.289ZM199.698 104.17V109H198.508V104.226C198.508 103.983 198.41 103.797 198.214 103.666C198.028 103.535 197.776 103.47 197.458 103.47C196.796 103.47 196.11 103.708 195.4 104.184V109H194.21V102.616H194.966L195.316 103.344C196.035 102.747 196.814 102.448 197.654 102.448C198.28 102.448 198.774 102.607 199.138 102.924C199.512 103.241 199.698 103.657 199.698 104.17ZM203.369 103.498V107.334C203.369 107.894 203.635 108.174 204.167 108.174C204.475 108.174 204.844 108.085 205.273 107.908L205.427 108.846C204.97 109.061 204.489 109.168 203.985 109.168C203.481 109.168 203.061 109.019 202.725 108.72C202.389 108.412 202.221 107.945 202.221 107.32V103.498H201.339V102.616H202.221V101.356L203.089 100.558H203.369V102.616H205.175V103.498H203.369ZM213.637 103.358C213.282 103.358 212.974 103.437 212.713 103.596C212.461 103.755 212.274 103.96 212.153 104.212C211.929 104.688 211.817 105.197 211.817 105.738C211.817 107.418 212.4 108.258 213.567 108.258C213.922 108.258 214.225 108.179 214.477 108.02C214.729 107.861 214.92 107.656 215.051 107.404C215.275 106.937 215.387 106.429 215.387 105.878C215.387 104.198 214.804 103.358 213.637 103.358ZM213.637 102.448C214.673 102.448 215.429 102.77 215.905 103.414C216.381 104.058 216.619 104.898 216.619 105.934C216.619 106.681 216.423 107.371 216.031 108.006C215.816 108.351 215.494 108.631 215.065 108.846C214.636 109.061 214.122 109.168 213.525 109.168C212.498 109.168 211.752 108.86 211.285 108.244C210.818 107.628 210.585 106.802 210.585 105.766C210.585 105.159 210.678 104.646 210.865 104.226C211.061 103.806 211.266 103.484 211.481 103.26C211.696 103.027 211.99 102.835 212.363 102.686C212.736 102.527 213.161 102.448 213.637 102.448ZM218.799 102.616V100.922C218.799 100.231 218.962 99.704 219.289 99.34C219.615 98.9667 220.04 98.78 220.563 98.78C221.095 98.78 221.659 98.92 222.257 99.2L221.851 100.04C221.44 99.872 221.085 99.788 220.787 99.788C220.227 99.788 219.947 100.161 219.947 100.908V102.616H221.683V103.498H219.947V109H218.799V103.498H217.847V102.616H218.799ZM230.644 105.178V104.562C230.644 103.806 230.252 103.428 229.468 103.428C228.852 103.428 228.208 103.629 227.536 104.03L227.13 103.19C227.914 102.695 228.759 102.448 229.664 102.448C230.299 102.448 230.817 102.611 231.218 102.938C231.629 103.255 231.834 103.75 231.834 104.422V109H231.078L230.728 108.16C230.429 108.468 230.075 108.715 229.664 108.902C229.253 109.079 228.88 109.168 228.544 109.168C227.965 109.168 227.503 109.009 227.158 108.692C226.813 108.375 226.64 107.959 226.64 107.446C226.64 105.934 227.975 105.178 230.644 105.178ZM228.32 106.536C228.143 106.695 228.021 106.839 227.956 106.97C227.9 107.091 227.872 107.255 227.872 107.46C227.872 107.656 227.956 107.829 228.124 107.978C228.301 108.118 228.53 108.188 228.81 108.188C229.398 108.188 230.009 107.927 230.644 107.404V106.004C229.468 106.023 228.693 106.2 228.32 106.536ZM240.572 108.216C241.272 108.216 241.813 107.978 242.196 107.502C242.579 107.026 242.77 106.447 242.77 105.766C242.77 105.075 242.602 104.52 242.266 104.1C241.939 103.68 241.487 103.47 240.908 103.47C240.684 103.47 240.418 103.535 240.11 103.666C239.802 103.797 239.527 103.969 239.284 104.184V107.964C239.723 108.132 240.152 108.216 240.572 108.216ZM239.284 112.22H238.122V102.616H238.878L239.2 103.344C239.881 102.747 240.605 102.448 241.37 102.448C242.135 102.448 242.761 102.747 243.246 103.344C243.731 103.941 243.974 104.721 243.974 105.682C243.974 106.634 243.689 107.455 243.12 108.146C242.56 108.827 241.757 109.168 240.712 109.168C240.245 109.168 239.769 109.103 239.284 108.972V112.22ZM249.353 105.178V104.562C249.353 103.806 248.961 103.428 248.177 103.428C247.561 103.428 246.917 103.629 246.245 104.03L245.839 103.19C246.623 102.695 247.468 102.448 248.373 102.448C249.008 102.448 249.526 102.611 249.927 102.938C250.338 103.255 250.543 103.75 250.543 104.422V109H249.787L249.437 108.16C249.139 108.468 248.784 108.715 248.373 108.902C247.963 109.079 247.589 109.168 247.253 109.168C246.675 109.168 246.213 109.009 245.867 108.692C245.522 108.375 245.349 107.959 245.349 107.446C245.349 105.934 246.684 105.178 249.353 105.178ZM247.029 106.536C246.852 106.695 246.731 106.839 246.665 106.97C246.609 107.091 246.581 107.255 246.581 107.46C246.581 107.656 246.665 107.829 246.833 107.978C247.011 108.118 247.239 108.188 247.519 108.188C248.107 108.188 248.719 107.927 249.353 107.404V106.004C248.177 106.023 247.403 106.2 247.029 106.536ZM254.864 107.194C254.649 107.194 254.444 107.18 254.248 107.152C254.014 107.6 253.898 107.894 253.898 108.034C253.898 108.099 253.982 108.155 254.15 108.202L255.858 108.58C256.651 108.757 257.216 108.963 257.552 109.196C257.888 109.439 258.056 109.793 258.056 110.26C258.056 110.727 257.892 111.119 257.566 111.436C256.931 112.071 255.998 112.388 254.766 112.388C254.01 112.388 253.356 112.248 252.806 111.968C252.255 111.688 251.98 111.287 251.98 110.764C251.98 110.241 252.353 109.639 253.1 108.958C252.82 108.855 252.68 108.701 252.68 108.496C252.68 108.291 252.955 107.782 253.506 106.97C252.703 106.625 252.302 105.901 252.302 104.8C252.302 104.184 252.516 103.647 252.946 103.19C253.384 102.723 254.024 102.49 254.864 102.49C255.349 102.49 255.774 102.56 256.138 102.7L258.098 102.476V103.414H257.048C257.29 103.806 257.412 104.305 257.412 104.912C257.412 105.509 257.197 106.041 256.768 106.508C256.338 106.965 255.704 107.194 254.864 107.194ZM256.292 105.01C256.292 103.853 255.82 103.274 254.878 103.274C254.504 103.274 254.201 103.372 253.968 103.568C253.604 103.885 253.422 104.282 253.422 104.758C253.422 105.225 253.534 105.617 253.758 105.934C253.982 106.251 254.341 106.41 254.836 106.41C255.33 106.41 255.694 106.261 255.928 105.962C256.17 105.654 256.292 105.337 256.292 105.01ZM253.1 110.582C253.1 110.881 253.263 111.109 253.59 111.268C253.916 111.427 254.341 111.506 254.864 111.506C255.386 111.506 255.872 111.399 256.32 111.184C256.768 110.979 256.992 110.694 256.992 110.33C256.992 110.143 256.884 109.989 256.67 109.868C256.455 109.756 256.082 109.644 255.55 109.532L253.912 109.168C253.37 109.709 253.1 110.181 253.1 110.582ZM262.182 108.188C262.854 108.188 263.526 107.987 264.198 107.586L264.604 108.426C263.82 108.921 262.98 109.168 262.084 109.168C261.198 109.168 260.493 108.888 259.97 108.328C259.448 107.759 259.186 106.942 259.186 105.878C259.186 104.814 259.457 103.979 259.998 103.372C260.54 102.756 261.258 102.448 262.154 102.448C262.966 102.448 263.606 102.7 264.072 103.204C264.268 103.409 264.432 103.708 264.562 104.1C264.702 104.492 264.772 104.954 264.772 105.486L264.338 105.976H260.376C260.404 107.451 261.006 108.188 262.182 108.188ZM263.596 105.094C263.596 104.571 263.461 104.151 263.19 103.834C262.92 103.517 262.56 103.358 262.112 103.358C261.674 103.358 261.3 103.517 260.992 103.834C260.684 104.142 260.498 104.562 260.432 105.094H263.596ZM267.175 108.916C267.035 109.056 266.863 109.126 266.657 109.126C266.452 109.126 266.279 109.056 266.139 108.916C265.999 108.767 265.929 108.585 265.929 108.37C265.929 108.155 265.999 107.978 266.139 107.838C266.279 107.698 266.452 107.628 266.657 107.628C266.863 107.628 267.035 107.698 267.175 107.838C267.325 107.978 267.399 108.155 267.399 108.37C267.399 108.585 267.325 108.767 267.175 108.916Z" fill="#9B9B9B"/>
<path d="M262.337 46.7929C262.337 48.5642 260.901 50 259.13 50C257.359 50 255.923 48.5642 255.923 46.7929C255.923 45.0217 257.359 43.5858 259.13 43.5858C260.901 43.5858 262.337 45.0217 262.337 46.7929Z" fill="#596B86"/>
<path d="M272.646 30.8774C268.83 27.7624 264.056 26.0607 259.13 26.0607C254.205 26.0607 249.43 27.7624 245.615 30.8774C245 31.3658 244.606 32.0809 244.524 32.8622C244.441 33.6435 244.675 34.4253 245.175 35.0319C245.674 35.6386 246.396 36.019 247.178 36.0881C247.961 36.1568 248.738 35.9086 249.336 35.3989C252.103 33.1465 255.563 31.9169 259.131 31.9169C262.699 31.9169 266.158 33.1465 268.926 35.3989C269.523 35.911 270.302 36.1613 271.086 36.093C271.87 36.0251 272.593 35.6443 273.093 35.0364C273.593 34.4289 273.828 33.6456 273.743 32.863C273.659 32.0809 273.264 31.365 272.646 30.8774L272.646 30.8774Z" fill="#596B86"/>
<path d="M285.236 24.5701C285.883 17.4801 279.871 10.8254 272.754 10.7417C268.85 -2.73594 251.341 -3.80933 245.981 9.10298C237.592 11.1 232.754 16.9987 234.052 23.9472C230.656 25.5957 229.617 29.2188 230.119 32.0144C230.361 33.5897 231.163 35.0251 232.378 36.0568C233.593 37.0885 235.14 37.6476 236.733 37.6313H244.172C244.457 37.6198 244.707 37.4358 244.802 37.1666C244.897 36.8974 244.818 36.5976 244.604 36.4094C243.657 35.5651 243.127 34.3485 243.153 33.0796C243.18 31.8111 243.761 30.6178 244.743 29.8144C248.804 26.4981 253.886 24.6863 259.13 24.6863C264.373 24.6863 269.455 26.4981 273.516 29.8144C275.57 31.4093 275.662 34.7706 273.639 36.4237C273.427 36.613 273.352 36.9133 273.451 37.1804C273.551 37.4471 273.803 37.6263 274.088 37.6312H281.437C285.274 37.8104 288.201 34.3149 288.251 30.5429C288.17 27.8725 287.105 25.7703 285.236 24.5705L285.236 24.5701ZM240.63 25.1276C240.451 25.4614 240.034 25.5866 239.701 25.407C238.283 24.6429 236.614 24.4923 235.082 24.9902C235.423 24.867 235.61 24.5001 235.508 24.152C235.451 23.9315 235.407 23.7082 235.376 23.4828C237.067 23.1375 238.826 23.3903 240.351 24.1978C240.685 24.3774 240.81 24.7938 240.63 25.1276H240.63ZM255.149 11.2552C254.964 11.5866 254.546 11.7056 254.214 11.5207C251.901 10.2812 249.234 9.86895 246.655 10.3525C246.869 10.2968 247.042 10.1418 247.122 9.93561C247.274 9.56009 247.434 9.18865 247.612 8.83153C250.13 8.60574 252.658 9.1232 254.883 10.3206C255.215 10.505 255.334 10.9235 255.149 11.2553L255.149 11.2552ZM262.942 16.9544C262.84 17.1123 262.678 17.2215 262.494 17.2567C262.31 17.2918 262.119 17.2501 261.966 17.1409C261.813 17.0321 261.712 16.8652 261.685 16.6795C261.658 16.4938 261.708 16.3052 261.825 16.1575C264.017 13.0244 267.504 11.0458 271.317 10.7693C271.409 11.0442 271.492 11.3191 271.569 11.603V11.6034C271.657 11.8991 271.925 12.1045 272.234 12.1118C268.531 12.1106 265.062 13.9187 262.942 16.9543L262.942 16.9544ZM281.122 24.6882C280.742 24.6882 280.434 24.3806 280.434 24.001C280.434 23.6214 280.742 23.3138 281.122 23.3138C282.072 23.3113 283.014 23.4966 283.894 23.859C283.889 24.1936 283.866 24.5324 283.829 24.867C283.8 25.1304 283.925 25.3869 284.15 25.5268C283.237 24.9742 282.189 24.6841 281.122 24.6882H281.122Z" fill="#596B86"/>
<path d="M266.122 37.1722C264.059 35.772 261.624 35.0233 259.13 35.0233C256.637 35.0233 254.201 35.7719 252.139 37.1722C251.281 37.7739 250.809 38.7872 250.902 39.8307C250.994 40.8743 251.635 41.7893 252.585 42.2316C253.535 42.6734 254.649 42.5752 255.506 41.9739C256.581 41.2625 257.841 40.8833 259.13 40.8833C260.419 40.8833 261.68 41.2625 262.754 41.9739C263.391 42.4202 264.179 42.5957 264.945 42.4611C265.711 42.3265 266.392 41.8933 266.839 41.2568C267.285 40.6199 267.46 39.832 267.326 39.0658C267.192 38.3 266.759 37.619 266.122 37.1722L266.122 37.1722Z" fill="#596B86"/>
<path d="M4.33594 45H2.34375V27.8672H11.8828V29.625H4.33594V35.9062H11.4258V37.6523H4.33594V45ZM16.3945 32.1562V45H14.4492V32.1562H16.3945ZM15.4453 27.3516C15.7656 27.3516 16.0391 27.457 16.2656 27.668C16.5 27.8711 16.6172 28.1914 16.6172 28.6289C16.6172 29.0586 16.5 29.3789 16.2656 29.5898C16.0391 29.8008 15.7656 29.9062 15.4453 29.9062C15.1094 29.9062 14.8281 29.8008 14.6016 29.5898C14.3828 29.3789 14.2734 29.0586 14.2734 28.6289C14.2734 28.1914 14.3828 27.8711 14.6016 27.668C14.8281 27.457 15.1094 27.3516 15.4453 27.3516ZM22.4648 26.7656V31.3242C22.4648 31.8477 22.4492 32.3555 22.418 32.8477C22.3945 33.3398 22.375 33.7227 22.3594 33.9961H22.4648C22.8164 33.418 23.3242 32.9297 23.9883 32.5312C24.6523 32.1328 25.5 31.9336 26.5312 31.9336C28.1406 31.9336 29.4219 32.4922 30.375 33.6094C31.3359 34.7188 31.8164 36.3711 31.8164 38.5664C31.8164 40.0117 31.5977 41.2305 31.1602 42.2227C30.7227 43.2148 30.1055 43.9648 29.3086 44.4727C28.5117 44.9805 27.5703 45.2344 26.4844 45.2344C25.4688 45.2344 24.6328 45.0469 23.9766 44.6719C23.3281 44.2891 22.8281 43.8242 22.4766 43.2773H22.3242L21.9258 45H20.5195V26.7656H22.4648ZM26.2148 33.5625C25.2852 33.5625 24.5469 33.7461 24 34.1133C23.4531 34.4727 23.0586 35.0195 22.8164 35.7539C22.582 36.4805 22.4648 37.4023 22.4648 38.5195V38.625C22.4648 40.2422 22.7344 41.4805 23.2734 42.3398C23.8125 43.1914 24.793 43.6172 26.2148 43.6172C27.4102 43.6172 28.3047 43.1797 28.8984 42.3047C29.5 41.4297 29.8008 40.1797 29.8008 38.5547C29.8008 36.8984 29.5039 35.6523 28.9102 34.8164C28.3242 33.9805 27.4258 33.5625 26.2148 33.5625ZM41.0508 31.9219C41.3086 31.9219 41.5781 31.9375 41.8594 31.9688C42.1406 31.9922 42.3906 32.0273 42.6094 32.0742L42.3633 33.8789C42.1523 33.8242 41.918 33.7812 41.6602 33.75C41.4023 33.7188 41.1602 33.7031 40.9336 33.7031C40.418 33.7031 39.9297 33.8086 39.4688 34.0195C39.0156 34.2227 38.6172 34.5195 38.2734 34.9102C37.9297 35.293 37.6602 35.7578 37.4648 36.3047C37.2695 36.8438 37.1719 37.4453 37.1719 38.1094V45H35.2148V32.1562H36.832L37.043 34.5234H37.125C37.3906 34.0469 37.7109 33.6133 38.0859 33.2227C38.4609 32.8242 38.8945 32.5078 39.3867 32.2734C39.8867 32.0391 40.4414 31.9219 41.0508 31.9219ZM49.9805 31.9219C51.0742 31.9219 52.0117 32.1641 52.793 32.6484C53.5742 33.1328 54.1719 33.8125 54.5859 34.6875C55 35.5547 55.207 36.5703 55.207 37.7344V38.9414H46.3359C46.3594 40.4492 46.7344 41.5977 47.4609 42.3867C48.1875 43.1758 49.2109 43.5703 50.5312 43.5703C51.3438 43.5703 52.0625 43.4961 52.6875 43.3477C53.3125 43.1992 53.9609 42.9805 54.6328 42.6914V44.4023C53.9844 44.6914 53.3398 44.9023 52.6992 45.0352C52.0664 45.168 51.3164 45.2344 50.4492 45.2344C49.2148 45.2344 48.1367 44.9844 47.2148 44.4844C46.3008 43.9766 45.5898 43.2344 45.082 42.2578C44.5742 41.2812 44.3203 40.0859 44.3203 38.6719C44.3203 37.2891 44.5508 36.0938 45.0117 35.0859C45.4805 34.0703 46.1367 33.2891 46.9805 32.7422C47.832 32.1953 48.832 31.9219 49.9805 31.9219ZM49.957 33.5156C48.918 33.5156 48.0898 33.8555 47.4727 34.5352C46.8555 35.2148 46.4883 36.1641 46.3711 37.3828H53.168C53.1602 36.6172 53.0391 35.9453 52.8047 35.3672C52.5781 34.7812 52.2305 34.3281 51.7617 34.0078C51.293 33.6797 50.6914 33.5156 49.957 33.5156ZM65.0391 45V27.8672H67.0312V45H65.0391ZM77.5312 31.9219C79.0547 31.9219 80.207 32.2969 80.9883 33.0469C81.7695 33.7891 82.1602 34.9844 82.1602 36.6328V45H80.2383V36.7617C80.2383 35.6914 79.9922 34.8906 79.5 34.3594C79.0156 33.8281 78.2695 33.5625 77.2617 33.5625C75.8398 33.5625 74.8398 33.9648 74.2617 34.7695C73.6836 35.5742 73.3945 36.7422 73.3945 38.2734V45H71.4492V32.1562H73.0195L73.3125 34.0078H73.418C73.6914 33.5547 74.0391 33.1758 74.4609 32.8711C74.8828 32.5586 75.3555 32.3242 75.8789 32.168C76.4023 32.0039 76.9531 31.9219 77.5312 31.9219ZM90.3164 43.6406C90.6367 43.6406 90.9648 43.6133 91.3008 43.5586C91.6367 43.5039 91.9102 43.4375 92.1211 43.3594V44.8711C91.8945 44.9727 91.5781 45.0586 91.1719 45.1289C90.7734 45.1992 90.3828 45.2344 90 45.2344C89.3203 45.2344 88.7031 45.1172 88.1484 44.8828C87.5938 44.6406 87.1484 44.2344 86.8125 43.6641C86.4844 43.0938 86.3203 42.3047 86.3203 41.2969V33.6797H84.4922V32.7305L86.332 31.9688L87.1055 29.1797H88.2773V32.1562H92.0391V33.6797H88.2773V41.2383C88.2773 42.043 88.4609 42.6445 88.8281 43.043C89.2031 43.4414 89.6992 43.6406 90.3164 43.6406ZM99.668 31.9219C100.762 31.9219 101.699 32.1641 102.48 32.6484C103.262 33.1328 103.859 33.8125 104.273 34.6875C104.688 35.5547 104.895 36.5703 104.895 37.7344V38.9414H96.0234C96.0469 40.4492 96.4219 41.5977 97.1484 42.3867C97.875 43.1758 98.8984 43.5703 100.219 43.5703C101.031 43.5703 101.75 43.4961 102.375 43.3477C103 43.1992 103.648 42.9805 104.32 42.6914V44.4023C103.672 44.6914 103.027 44.9023 102.387 45.0352C101.754 45.168 101.004 45.2344 100.137 45.2344C98.9023 45.2344 97.8242 44.9844 96.9023 44.4844C95.9883 43.9766 95.2773 43.2344 94.7695 42.2578C94.2617 41.2812 94.0078 40.0859 94.0078 38.6719C94.0078 37.2891 94.2383 36.0938 94.6992 35.0859C95.168 34.0703 95.8242 33.2891 96.668 32.7422C97.5195 32.1953 98.5195 31.9219 99.668 31.9219ZM99.6445 33.5156C98.6055 33.5156 97.7773 33.8555 97.1602 34.5352C96.543 35.2148 96.1758 36.1641 96.0586 37.3828H102.855C102.848 36.6172 102.727 35.9453 102.492 35.3672C102.266 34.7812 101.918 34.3281 101.449 34.0078C100.98 33.6797 100.379 33.5156 99.6445 33.5156ZM114.035 31.9219C114.293 31.9219 114.562 31.9375 114.844 31.9688C115.125 31.9922 115.375 32.0273 115.594 32.0742L115.348 33.8789C115.137 33.8242 114.902 33.7812 114.645 33.75C114.387 33.7188 114.145 33.7031 113.918 33.7031C113.402 33.7031 112.914 33.8086 112.453 34.0195C112 34.2227 111.602 34.5195 111.258 34.9102C110.914 35.293 110.645 35.7578 110.449 36.3047C110.254 36.8438 110.156 37.4453 110.156 38.1094V45H108.199V32.1562H109.816L110.027 34.5234H110.109C110.375 34.0469 110.695 33.6133 111.07 33.2227C111.445 32.8242 111.879 32.5078 112.371 32.2734C112.871 32.0391 113.426 31.9219 114.035 31.9219ZM124.102 31.9219C125.625 31.9219 126.777 32.2969 127.559 33.0469C128.34 33.7891 128.73 34.9844 128.73 36.6328V45H126.809V36.7617C126.809 35.6914 126.562 34.8906 126.07 34.3594C125.586 33.8281 124.84 33.5625 123.832 33.5625C122.41 33.5625 121.41 33.9648 120.832 34.7695C120.254 35.5742 119.965 36.7422 119.965 38.2734V45H118.02V32.1562H119.59L119.883 34.0078H119.988C120.262 33.5547 120.609 33.1758 121.031 32.8711C121.453 32.5586 121.926 32.3242 122.449 32.168C122.973 32.0039 123.523 31.9219 124.102 31.9219ZM137.684 31.9219C138.777 31.9219 139.715 32.1641 140.496 32.6484C141.277 33.1328 141.875 33.8125 142.289 34.6875C142.703 35.5547 142.91 36.5703 142.91 37.7344V38.9414H134.039C134.062 40.4492 134.438 41.5977 135.164 42.3867C135.891 43.1758 136.914 43.5703 138.234 43.5703C139.047 43.5703 139.766 43.4961 140.391 43.3477C141.016 43.1992 141.664 42.9805 142.336 42.6914V44.4023C141.688 44.6914 141.043 44.9023 140.402 45.0352C139.77 45.168 139.02 45.2344 138.152 45.2344C136.918 45.2344 135.84 44.9844 134.918 44.4844C134.004 43.9766 133.293 43.2344 132.785 42.2578C132.277 41.2812 132.023 40.0859 132.023 38.6719C132.023 37.2891 132.254 36.0938 132.715 35.0859C133.184 34.0703 133.84 33.2891 134.684 32.7422C135.535 32.1953 136.535 31.9219 137.684 31.9219ZM137.66 33.5156C136.621 33.5156 135.793 33.8555 135.176 34.5352C134.559 35.2148 134.191 36.1641 134.074 37.3828H140.871C140.863 36.6172 140.742 35.9453 140.508 35.3672C140.281 34.7812 139.934 34.3281 139.465 34.0078C138.996 33.6797 138.395 33.5156 137.66 33.5156ZM150.363 43.6406C150.684 43.6406 151.012 43.6133 151.348 43.5586C151.684 43.5039 151.957 43.4375 152.168 43.3594V44.8711C151.941 44.9727 151.625 45.0586 151.219 45.1289C150.82 45.1992 150.43 45.2344 150.047 45.2344C149.367 45.2344 148.75 45.1172 148.195 44.8828C147.641 44.6406 147.195 44.2344 146.859 43.6641C146.531 43.0938 146.367 42.3047 146.367 41.2969V33.6797H144.539V32.7305L146.379 31.9688L147.152 29.1797H148.324V32.1562H152.086V33.6797H148.324V41.2383C148.324 42.043 148.508 42.6445 148.875 43.043C149.25 43.4414 149.746 43.6406 150.363 43.6406Z" fill="#131313"/>
</svg>
