<svg width="287" height="115" viewBox="0 0 287 115" fill="none" xmlns="http://www.w3.org/2000/svg">
<path d="M1.05 84V74.326H2.254V82.936H6.356V84H1.05ZM10.3318 78.358C9.97711 78.358 9.66911 78.4373 9.40778 78.596C9.15578 78.7547 8.96911 78.96 8.84778 79.212C8.62378 79.688 8.51178 80.1967 8.51178 80.738C8.51178 82.418 9.09511 83.258 10.2618 83.258C10.6164 83.258 10.9198 83.1787 11.1718 83.02C11.4238 82.8613 11.6151 82.656 11.7458 82.404C11.9698 81.9373 12.0818 81.4287 12.0818 80.878C12.0818 79.198 11.4984 78.358 10.3318 78.358ZM10.3318 77.448C11.3678 77.448 12.1238 77.77 12.5998 78.414C13.0758 79.058 13.3138 79.898 13.3138 80.934C13.3138 81.6807 13.1178 82.3713 12.7258 83.006C12.5111 83.3513 12.1891 83.6313 11.7598 83.846C11.3304 84.0607 10.8171 84.168 10.2198 84.168C9.19311 84.168 8.44645 83.86 7.97978 83.244C7.51311 82.628 7.27978 81.802 7.27978 80.766C7.27978 80.1593 7.37311 79.646 7.55978 79.226C7.75578 78.806 7.96111 78.484 8.17578 78.26C8.39045 78.0267 8.68445 77.8353 9.05778 77.686C9.43111 77.5273 9.85578 77.448 10.3318 77.448ZM15.1715 77.616H15.9275L16.2775 78.736H16.3335C16.8468 78.0733 17.5515 77.672 18.4475 77.532L18.5735 78.638C18.1348 78.666 17.7102 78.778 17.2995 78.974C16.8888 79.17 16.5762 79.4313 16.3615 79.758V84H15.1715V77.616ZM22.4295 83.188C23.1015 83.188 23.7735 82.9873 24.4455 82.586L24.8515 83.426C24.0675 83.9207 23.2275 84.168 22.3315 84.168C21.4449 84.168 20.7402 83.888 20.2175 83.328C19.6949 82.7587 19.4335 81.942 19.4335 80.878C19.4335 79.814 19.7042 78.9787 20.2455 78.372C20.7869 77.756 21.5055 77.448 22.4015 77.448C23.2135 77.448 23.8529 77.7 24.3195 78.204C24.5155 78.4093 24.6789 78.708 24.8095 79.1C24.9495 79.492 25.0195 79.954 25.0195 80.486L24.5855 80.976H20.6235C20.6515 82.4507 21.2535 83.188 22.4295 83.188ZM23.8435 80.094C23.8435 79.5713 23.7082 79.1513 23.4375 78.834C23.1669 78.5167 22.8075 78.358 22.3595 78.358C21.9209 78.358 21.5475 78.5167 21.2395 78.834C20.9315 79.142 20.7449 79.562 20.6795 80.094H23.8435ZM27.8707 78.344C28.5614 77.7467 29.3267 77.448 30.1667 77.448C31.0067 77.448 31.5807 77.7747 31.8887 78.428C32.6261 77.7747 33.4007 77.448 34.2127 77.448C34.8101 77.448 35.2814 77.6067 35.6267 77.924C35.9814 78.2413 36.1587 78.6567 36.1587 79.17V84H34.9687V79.226C34.9687 78.9833 34.8801 78.7967 34.7027 78.666C34.5254 78.5353 34.2874 78.47 33.9887 78.47C33.3821 78.47 32.7334 78.7173 32.0427 79.212V84H30.8527V79.226C30.8527 78.9833 30.7641 78.7967 30.5867 78.666C30.4094 78.5353 30.1714 78.47 29.8727 78.47C29.2474 78.47 28.6081 78.708 27.9547 79.184V84H26.7647V77.616H27.5207L27.8707 78.344ZM42.6278 84V74.326H43.8318V84H42.6278ZM48.7578 83.216C49.4578 83.216 49.9992 82.978 50.3818 82.502C50.7645 82.026 50.9558 81.4473 50.9558 80.766C50.9558 80.0753 50.7878 79.52 50.4518 79.1C50.1252 78.68 49.6725 78.47 49.0938 78.47C48.8698 78.47 48.6038 78.5353 48.2958 78.666C47.9878 78.7967 47.7125 78.9693 47.4698 79.184V82.964C47.9085 83.132 48.3378 83.216 48.7578 83.216ZM47.4698 87.22H46.3078V77.616H47.0638L47.3858 78.344C48.0672 77.7467 48.7905 77.448 49.5558 77.448C50.3212 77.448 50.9465 77.7467 51.4318 78.344C51.9172 78.9413 52.1598 79.7207 52.1598 80.682C52.1598 81.634 51.8752 82.4553 51.3058 83.146C50.7458 83.8273 49.9432 84.168 48.8978 84.168C48.4312 84.168 47.9552 84.1027 47.4698 83.972V87.22ZM57.315 78.736C56.839 78.5307 56.391 78.428 55.971 78.428C55.159 78.428 54.753 78.6753 54.753 79.17C54.753 79.5993 55.2944 80.0147 56.377 80.416C56.7784 80.5653 57.147 80.7987 57.483 81.116C57.8284 81.4333 58.001 81.816 58.001 82.264C58.001 82.908 57.791 83.3887 57.371 83.706C56.951 84.014 56.3677 84.168 55.621 84.168C54.8744 84.168 54.1464 83.9627 53.437 83.552L53.787 82.684C54.375 83.02 55.0424 83.188 55.789 83.188C56.1064 83.188 56.363 83.1227 56.559 82.992C56.755 82.852 56.853 82.6653 56.853 82.432C56.853 82.1987 56.741 81.998 56.517 81.83C56.293 81.662 56.0224 81.5127 55.705 81.382C55.3877 81.2513 55.0704 81.1113 54.753 80.962C54.4357 80.8033 54.165 80.584 53.941 80.304C53.717 80.024 53.605 79.6927 53.605 79.31C53.605 78.7127 53.8057 78.2553 54.207 77.938C54.6177 77.6113 55.1357 77.448 55.761 77.448C56.3864 77.448 57.021 77.588 57.665 77.868L57.315 78.736ZM60.8261 77.616V82.362C60.8261 82.6233 60.9194 82.8287 61.1061 82.978C61.3021 83.118 61.5541 83.188 61.8621 83.188C62.5247 83.188 63.2061 82.9267 63.9061 82.404V77.616H65.0961V84H64.3401L63.9901 83.16C63.2714 83.832 62.4734 84.168 61.5961 84.168C61.0361 84.168 60.5694 84.0187 60.1961 83.72C59.8227 83.4213 59.6361 82.9873 59.6361 82.418V77.616H60.8261ZM68.5019 78.344C69.1926 77.7467 69.9579 77.448 70.7979 77.448C71.6379 77.448 72.2119 77.7747 72.5199 78.428C73.2572 77.7747 74.0319 77.448 74.8439 77.448C75.4412 77.448 75.9126 77.6067 76.2579 77.924C76.6126 78.2413 76.7899 78.6567 76.7899 79.17V84H75.5999V79.226C75.5999 78.9833 75.5112 78.7967 75.3339 78.666C75.1566 78.5353 74.9186 78.47 74.6199 78.47C74.0132 78.47 73.3646 78.7173 72.6739 79.212V84H71.4839V79.226C71.4839 78.9833 71.3952 78.7967 71.2179 78.666C71.0406 78.5353 70.8026 78.47 70.5039 78.47C69.8786 78.47 69.2392 78.708 68.5859 79.184V84H67.3959V77.616H68.1519L68.5019 78.344ZM84.323 76.118C84.1737 76.2673 83.9917 76.342 83.777 76.342C83.5623 76.342 83.3803 76.2673 83.231 76.118C83.0817 75.9593 83.007 75.7727 83.007 75.558C83.007 75.3433 83.0817 75.1613 83.231 75.012C83.3897 74.8533 83.5717 74.774 83.777 74.774C83.9823 74.774 84.1597 74.8533 84.309 75.012C84.4677 75.1613 84.547 75.3433 84.547 75.558C84.547 75.7727 84.4723 75.9593 84.323 76.118ZM83.189 77.616H84.379V84H83.189V77.616ZM90.0646 78.736C89.5886 78.5307 89.1406 78.428 88.7206 78.428C87.9086 78.428 87.5026 78.6753 87.5026 79.17C87.5026 79.5993 88.044 80.0147 89.1266 80.416C89.528 80.5653 89.8966 80.7987 90.2326 81.116C90.578 81.4333 90.7506 81.816 90.7506 82.264C90.7506 82.908 90.5406 83.3887 90.1206 83.706C89.7006 84.014 89.1173 84.168 88.3706 84.168C87.624 84.168 86.896 83.9627 86.1866 83.552L86.5366 82.684C87.1246 83.02 87.792 83.188 88.5386 83.188C88.856 83.188 89.1126 83.1227 89.3086 82.992C89.5046 82.852 89.6026 82.6653 89.6026 82.432C89.6026 82.1987 89.4906 81.998 89.2666 81.83C89.0426 81.662 88.772 81.5127 88.4546 81.382C88.1373 81.2513 87.82 81.1113 87.5026 80.962C87.1853 80.8033 86.9146 80.584 86.6906 80.304C86.4666 80.024 86.3546 79.6927 86.3546 79.31C86.3546 78.7127 86.5553 78.2553 86.9566 77.938C87.3673 77.6113 87.8853 77.448 88.5106 77.448C89.136 77.448 89.7706 77.588 90.4146 77.868L90.0646 78.736ZM99.7711 78.736C99.2951 78.5307 98.8471 78.428 98.4271 78.428C97.6151 78.428 97.2091 78.6753 97.2091 79.17C97.2091 79.5993 97.7504 80.0147 98.8331 80.416C99.2344 80.5653 99.6031 80.7987 99.9391 81.116C100.284 81.4333 100.457 81.816 100.457 82.264C100.457 82.908 100.247 83.3887 99.8271 83.706C99.4071 84.014 98.8238 84.168 98.0771 84.168C97.3304 84.168 96.6024 83.9627 95.8931 83.552L96.2431 82.684C96.8311 83.02 97.4984 83.188 98.2451 83.188C98.5624 83.188 98.8191 83.1227 99.0151 82.992C99.2111 82.852 99.3091 82.6653 99.3091 82.432C99.3091 82.1987 99.1971 81.998 98.9731 81.83C98.7491 81.662 98.4784 81.5127 98.1611 81.382C97.8438 81.2513 97.5264 81.1113 97.2091 80.962C96.8918 80.8033 96.6211 80.584 96.3971 80.304C96.1731 80.024 96.0611 79.6927 96.0611 79.31C96.0611 78.7127 96.2618 78.2553 96.6631 77.938C97.0738 77.6113 97.5918 77.448 98.2171 77.448C98.8424 77.448 99.4771 77.588 100.121 77.868L99.7711 78.736ZM103.394 76.118C103.245 76.2673 103.063 76.342 102.848 76.342C102.633 76.342 102.451 76.2673 102.302 76.118C102.153 75.9593 102.078 75.7727 102.078 75.558C102.078 75.3433 102.153 75.1613 102.302 75.012C102.461 74.8533 102.643 74.774 102.848 74.774C103.053 74.774 103.231 74.8533 103.38 75.012C103.539 75.1613 103.618 75.3433 103.618 75.558C103.618 75.7727 103.543 75.9593 103.394 76.118ZM102.26 77.616H103.45V84H102.26V77.616ZM106.966 78.344C107.656 77.7467 108.422 77.448 109.262 77.448C110.102 77.448 110.676 77.7747 110.984 78.428C111.721 77.7747 112.496 77.448 113.308 77.448C113.905 77.448 114.376 77.6067 114.722 77.924C115.076 78.2413 115.254 78.6567 115.254 79.17V84H114.064V79.226C114.064 78.9833 113.975 78.7967 113.798 78.666C113.62 78.5353 113.382 78.47 113.084 78.47C112.477 78.47 111.828 78.7173 111.138 79.212V84H109.948V79.226C109.948 78.9833 109.859 78.7967 109.682 78.666C109.504 78.5353 109.266 78.47 108.968 78.47C108.342 78.47 107.703 78.708 107.05 79.184V84H105.86V77.616H106.616L106.966 78.344ZM119.937 83.216C120.637 83.216 121.179 82.978 121.561 82.502C121.944 82.026 122.135 81.4473 122.135 80.766C122.135 80.0753 121.967 79.52 121.631 79.1C121.305 78.68 120.852 78.47 120.273 78.47C120.049 78.47 119.783 78.5353 119.475 78.666C119.167 78.7967 118.892 78.9693 118.649 79.184V82.964C119.088 83.132 119.517 83.216 119.937 83.216ZM118.649 87.22H117.487V77.616H118.243L118.565 78.344C119.247 77.7467 119.97 77.448 120.735 77.448C121.501 77.448 122.126 77.7467 122.611 78.344C123.097 78.9413 123.339 79.7207 123.339 80.682C123.339 81.634 123.055 82.4553 122.485 83.146C121.925 83.8273 121.123 84.168 120.077 84.168C119.611 84.168 119.135 84.1027 118.649 83.972V87.22ZM125.163 73.948H126.311V84H125.163V73.948ZM130.787 85.134C130.479 86.03 130.195 86.6273 129.933 86.926C129.681 87.234 129.303 87.388 128.799 87.388C128.295 87.388 127.74 87.248 127.133 86.968L127.567 86.058C127.969 86.2727 128.314 86.38 128.603 86.38C128.855 86.38 129.023 86.338 129.107 86.254L129.289 86.072C129.411 85.9507 129.518 85.7407 129.611 85.442C129.705 85.1433 129.779 84.91 129.835 84.742C129.891 84.5833 129.933 84.4573 129.961 84.364L127.623 77.616H128.827L130.479 82.726H130.535L132.187 77.616H133.391L130.787 85.134ZM143.112 73.948H144.26V84H143.504L143.154 83.16C142.454 83.832 141.731 84.168 140.984 84.168C140.247 84.168 139.636 83.8833 139.15 83.314C138.665 82.7353 138.422 81.956 138.422 80.976C138.422 79.996 138.712 79.1793 139.29 78.526C139.869 77.8633 140.616 77.532 141.53 77.532C142.025 77.532 142.552 77.644 143.112 77.868V73.948ZM141.824 78.484C141.124 78.484 140.583 78.722 140.2 79.198C139.818 79.674 139.626 80.2527 139.626 80.934C139.626 81.6153 139.785 82.1613 140.102 82.572C140.42 82.9827 140.83 83.188 141.334 83.188C141.614 83.188 141.913 83.1133 142.23 82.964C142.557 82.8053 142.851 82.5907 143.112 82.32V78.736C142.674 78.568 142.244 78.484 141.824 78.484ZM147.639 77.616V82.362C147.639 82.6233 147.732 82.8287 147.919 82.978C148.115 83.118 148.367 83.188 148.675 83.188C149.337 83.188 150.019 82.9267 150.719 82.404V77.616H151.909V84H151.153L150.803 83.16C150.084 83.832 149.286 84.168 148.409 84.168C147.849 84.168 147.382 84.0187 147.009 83.72C146.635 83.4213 146.449 82.9873 146.449 82.418V77.616H147.639ZM155.314 78.344C156.005 77.7467 156.77 77.448 157.61 77.448C158.45 77.448 159.024 77.7747 159.332 78.428C160.07 77.7747 160.844 77.448 161.656 77.448C162.254 77.448 162.725 77.6067 163.07 77.924C163.425 78.2413 163.602 78.6567 163.602 79.17V84H162.412V79.226C162.412 78.9833 162.324 78.7967 162.146 78.666C161.969 78.5353 161.731 78.47 161.432 78.47C160.826 78.47 160.177 78.7173 159.486 79.212V84H158.296V79.226C158.296 78.9833 158.208 78.7967 158.03 78.666C157.853 78.5353 157.615 78.47 157.316 78.47C156.691 78.47 156.052 78.708 155.398 79.184V84H154.208V77.616H154.964L155.314 78.344ZM166.942 78.344C167.633 77.7467 168.398 77.448 169.238 77.448C170.078 77.448 170.652 77.7747 170.96 78.428C171.697 77.7747 172.472 77.448 173.284 77.448C173.881 77.448 174.353 77.6067 174.698 77.924C175.053 78.2413 175.23 78.6567 175.23 79.17V84H174.04V79.226C174.04 78.9833 173.951 78.7967 173.774 78.666C173.597 78.5353 173.359 78.47 173.06 78.47C172.453 78.47 171.805 78.7173 171.114 79.212V84H169.924V79.226C169.924 78.9833 169.835 78.7967 169.658 78.666C169.481 78.5353 169.243 78.47 168.944 78.47C168.319 78.47 167.679 78.708 167.026 79.184V84H165.836V77.616H166.592L166.942 78.344ZM179.704 85.134C179.396 86.03 179.111 86.6273 178.85 86.926C178.598 87.234 178.22 87.388 177.716 87.388C177.212 87.388 176.656 87.248 176.05 86.968L176.484 86.058C176.885 86.2727 177.23 86.38 177.52 86.38C177.772 86.38 177.94 86.338 178.024 86.254L178.206 86.072C178.327 85.9507 178.434 85.7407 178.528 85.442C178.621 85.1433 178.696 84.91 178.752 84.742C178.808 84.5833 178.85 84.4573 178.878 84.364L176.54 77.616H177.744L179.396 82.726H179.452L181.104 77.616H182.308L179.704 85.134ZM189.159 78.498V82.334C189.159 82.894 189.425 83.174 189.957 83.174C190.265 83.174 190.633 83.0853 191.063 82.908L191.217 83.846C190.759 84.0607 190.279 84.168 189.775 84.168C189.271 84.168 188.851 84.0187 188.515 83.72C188.179 83.412 188.011 82.9453 188.011 82.32V78.498H187.129V77.616H188.011V76.356L188.879 75.558H189.159V77.616H190.965V78.498H189.159ZM195.317 83.188C195.989 83.188 196.661 82.9873 197.333 82.586L197.739 83.426C196.955 83.9207 196.115 84.168 195.219 84.168C194.332 84.168 193.628 83.888 193.105 83.328C192.582 82.7587 192.321 81.942 192.321 80.878C192.321 79.814 192.592 78.9787 193.133 78.372C193.674 77.756 194.393 77.448 195.289 77.448C196.101 77.448 196.74 77.7 197.207 78.204C197.403 78.4093 197.566 78.708 197.697 79.1C197.837 79.492 197.907 79.954 197.907 80.486L197.473 80.976H193.511C193.539 82.4507 194.141 83.188 195.317 83.188ZM196.731 80.094C196.731 79.5713 196.596 79.1513 196.325 78.834C196.054 78.5167 195.695 78.358 195.247 78.358C194.808 78.358 194.435 78.5167 194.127 78.834C193.819 79.142 193.632 79.562 193.567 80.094H196.731ZM198.84 77.616H200.212L201.822 79.828L203.376 77.616H204.72L202.466 80.724L204.874 84H203.502L201.71 81.55L199.988 84H198.644L201.066 80.668L198.84 77.616ZM207.595 78.498V82.334C207.595 82.894 207.861 83.174 208.393 83.174C208.701 83.174 209.069 83.0853 209.499 82.908L209.653 83.846C209.195 84.0607 208.715 84.168 208.211 84.168C207.707 84.168 207.287 84.0187 206.951 83.72C206.615 83.412 206.447 82.9453 206.447 82.32V78.498H205.565V77.616H206.447V76.356L207.315 75.558H207.595V77.616H209.401V78.498H207.595ZM217.862 78.358C217.507 78.358 217.199 78.4373 216.938 78.596C216.686 78.7547 216.499 78.96 216.378 79.212C216.154 79.688 216.042 80.1967 216.042 80.738C216.042 82.418 216.625 83.258 217.792 83.258C218.147 83.258 218.45 83.1787 218.702 83.02C218.954 82.8613 219.145 82.656 219.276 82.404C219.5 81.9373 219.612 81.4287 219.612 80.878C219.612 79.198 219.029 78.358 217.862 78.358ZM217.862 77.448C218.898 77.448 219.654 77.77 220.13 78.414C220.606 79.058 220.844 79.898 220.844 80.934C220.844 81.6807 220.648 82.3713 220.256 83.006C220.041 83.3513 219.719 83.6313 219.29 83.846C218.861 84.0607 218.347 84.168 217.75 84.168C216.723 84.168 215.977 83.86 215.51 83.244C215.043 82.628 214.81 81.802 214.81 80.766C214.81 80.1593 214.903 79.646 215.09 79.226C215.286 78.806 215.491 78.484 215.706 78.26C215.921 78.0267 216.215 77.8353 216.588 77.686C216.961 77.5273 217.386 77.448 217.862 77.448ZM223.024 77.616V75.922C223.024 75.2313 223.187 74.704 223.514 74.34C223.84 73.9667 224.265 73.78 224.788 73.78C225.32 73.78 225.884 73.92 226.482 74.2L226.076 75.04C225.665 74.872 225.31 74.788 225.012 74.788C224.452 74.788 224.172 75.1613 224.172 75.908V77.616H225.908V78.498H224.172V84H223.024V78.498H222.072V77.616H223.024ZM232.797 78.498V82.334C232.797 82.894 233.063 83.174 233.595 83.174C233.903 83.174 234.272 83.0853 234.701 82.908L234.855 83.846C234.398 84.0607 233.917 84.168 233.413 84.168C232.909 84.168 232.489 84.0187 232.153 83.72C231.817 83.412 231.649 82.9453 231.649 82.32V78.498H230.767V77.616H231.649V76.356L232.517 75.558H232.797V77.616H234.603V78.498H232.797ZM237.527 73.948V78.274C238.227 77.7233 238.979 77.448 239.781 77.448C240.407 77.448 240.901 77.6067 241.265 77.924C241.639 78.232 241.825 78.638 241.825 79.142V84H240.635V79.226C240.635 78.9833 240.537 78.7967 240.341 78.666C240.155 78.5353 239.903 78.47 239.585 78.47C238.923 78.47 238.237 78.708 237.527 79.184V84H236.337V73.948H237.527ZM246.632 83.188C247.304 83.188 247.976 82.9873 248.648 82.586L249.054 83.426C248.27 83.9207 247.43 84.168 246.534 84.168C245.647 84.168 244.943 83.888 244.42 83.328C243.897 82.7587 243.636 81.942 243.636 80.878C243.636 79.814 243.907 78.9787 244.448 78.372C244.989 77.756 245.708 77.448 246.604 77.448C247.416 77.448 248.055 77.7 248.522 78.204C248.718 78.4093 248.881 78.708 249.012 79.1C249.152 79.492 249.222 79.954 249.222 80.486L248.788 80.976H244.826C244.854 82.4507 245.456 83.188 246.632 83.188ZM248.046 80.094C248.046 79.5713 247.911 79.1513 247.64 78.834C247.369 78.5167 247.01 78.358 246.562 78.358C246.123 78.358 245.75 78.5167 245.442 78.834C245.134 79.142 244.947 79.562 244.882 80.094H248.046ZM3.458 107.216C4.158 107.216 4.69933 106.978 5.082 106.502C5.46467 106.026 5.656 105.447 5.656 104.766C5.656 104.075 5.488 103.52 5.152 103.1C4.82533 102.68 4.37267 102.47 3.794 102.47C3.57 102.47 3.304 102.535 2.996 102.666C2.688 102.797 2.41267 102.969 2.17 103.184V106.964C2.60867 107.132 3.038 107.216 3.458 107.216ZM2.17 111.22H1.008V101.616H1.764L2.086 102.344C2.76733 101.747 3.49067 101.448 4.256 101.448C5.02133 101.448 5.64667 101.747 6.132 102.344C6.61733 102.941 6.86 103.721 6.86 104.682C6.86 105.634 6.57533 106.455 6.006 107.146C5.446 107.827 4.64333 108.168 3.598 108.168C3.13133 108.168 2.65533 108.103 2.17 107.972V111.22ZM8.73917 101.616H9.49517L9.84517 102.736H9.90117C10.4145 102.073 11.1192 101.672 12.0152 101.532L12.1412 102.638C11.7025 102.666 11.2778 102.778 10.8672 102.974C10.4565 103.17 10.1438 103.431 9.92917 103.758V108H8.73917V101.616ZM14.6812 100.118C14.5319 100.267 14.3499 100.342 14.1352 100.342C13.9205 100.342 13.7385 100.267 13.5892 100.118C13.4399 99.9593 13.3652 99.7727 13.3652 99.558C13.3652 99.3433 13.4399 99.1613 13.5892 99.012C13.7479 98.8533 13.9299 98.774 14.1352 98.774C14.3405 98.774 14.5179 98.8533 14.6672 99.012C14.8259 99.1613 14.9052 99.3433 14.9052 99.558C14.9052 99.7727 14.8305 99.9593 14.6812 100.118ZM13.5472 101.616H14.7372V108H13.5472V101.616ZM22.6348 103.17V108H21.4448V103.226C21.4448 102.983 21.3468 102.797 21.1508 102.666C20.9642 102.535 20.7122 102.47 20.3948 102.47C19.7322 102.47 19.0462 102.708 18.3368 103.184V108H17.1468V101.616H17.9028L18.2528 102.344C18.9715 101.747 19.7508 101.448 20.5908 101.448C21.2162 101.448 21.7108 101.607 22.0748 101.924C22.4482 102.241 22.6348 102.657 22.6348 103.17ZM26.306 102.498V106.334C26.306 106.894 26.572 107.174 27.104 107.174C27.412 107.174 27.7807 107.085 28.21 106.908L28.364 107.846C27.9067 108.061 27.426 108.168 26.922 108.168C26.418 108.168 25.998 108.019 25.662 107.72C25.326 107.412 25.158 106.945 25.158 106.32V102.498H24.276V101.616H25.158V100.356L26.026 99.558H26.306V101.616H28.112V102.498H26.306ZM31.1481 100.118C30.9988 100.267 30.8168 100.342 30.6021 100.342C30.3875 100.342 30.2055 100.267 30.0561 100.118C29.9068 99.9593 29.8321 99.7727 29.8321 99.558C29.8321 99.3433 29.9068 99.1613 30.0561 99.012C30.2148 98.8533 30.3968 98.774 30.6021 98.774C30.8075 98.774 30.9848 98.8533 31.1341 99.012C31.2928 99.1613 31.3721 99.3433 31.3721 99.558C31.3721 99.7727 31.2975 99.9593 31.1481 100.118ZM30.0141 101.616H31.2041V108H30.0141V101.616ZM39.1018 103.17V108H37.9118V103.226C37.9118 102.983 37.8138 102.797 37.6178 102.666C37.4311 102.535 37.1791 102.47 36.8618 102.47C36.1991 102.47 35.5131 102.708 34.8038 103.184V108H33.6138V101.616H34.3698L34.7198 102.344C35.4384 101.747 36.2178 101.448 37.0578 101.448C37.6831 101.448 38.1778 101.607 38.5418 101.924C38.9151 102.241 39.1018 102.657 39.1018 103.17ZM43.431 106.194C43.2163 106.194 43.011 106.18 42.815 106.152C42.5816 106.6 42.465 106.894 42.465 107.034C42.465 107.099 42.549 107.155 42.717 107.202L44.425 107.58C45.2183 107.757 45.783 107.963 46.119 108.196C46.455 108.439 46.623 108.793 46.623 109.26C46.623 109.727 46.4596 110.119 46.133 110.436C45.4983 111.071 44.565 111.388 43.333 111.388C42.577 111.388 41.9236 111.248 41.373 110.968C40.8223 110.688 40.547 110.287 40.547 109.764C40.547 109.241 40.9203 108.639 41.667 107.958C41.387 107.855 41.247 107.701 41.247 107.496C41.247 107.291 41.5223 106.782 42.073 105.97C41.2703 105.625 40.869 104.901 40.869 103.8C40.869 103.184 41.0836 102.647 41.513 102.19C41.9516 101.723 42.591 101.49 43.431 101.49C43.9163 101.49 44.341 101.56 44.705 101.7L46.665 101.476V102.414H45.615C45.8576 102.806 45.979 103.305 45.979 103.912C45.979 104.509 45.7643 105.041 45.335 105.508C44.9056 105.965 44.271 106.194 43.431 106.194ZM44.859 104.01C44.859 102.853 44.3876 102.274 43.445 102.274C43.0716 102.274 42.7683 102.372 42.535 102.568C42.171 102.885 41.989 103.282 41.989 103.758C41.989 104.225 42.101 104.617 42.325 104.934C42.549 105.251 42.9083 105.41 43.403 105.41C43.8976 105.41 44.2616 105.261 44.495 104.962C44.7376 104.654 44.859 104.337 44.859 104.01ZM41.667 109.582C41.667 109.881 41.8303 110.109 42.157 110.268C42.4836 110.427 42.9083 110.506 43.431 110.506C43.9536 110.506 44.439 110.399 44.887 110.184C45.335 109.979 45.559 109.694 45.559 109.33C45.559 109.143 45.4516 108.989 45.237 108.868C45.0223 108.756 44.649 108.644 44.117 108.532L42.479 108.168C41.9376 108.709 41.667 109.181 41.667 109.582ZM55.7409 104.178V103.562C55.7409 102.806 55.3489 102.428 54.5649 102.428C53.9489 102.428 53.3049 102.629 52.6329 103.03L52.2269 102.19C53.0109 101.695 53.8556 101.448 54.7609 101.448C55.3956 101.448 55.9136 101.611 56.3149 101.938C56.7256 102.255 56.9309 102.75 56.9309 103.422V108H56.1749L55.8249 107.16C55.5262 107.468 55.1716 107.715 54.7609 107.902C54.3502 108.079 53.9769 108.168 53.6409 108.168C53.0622 108.168 52.6002 108.009 52.2549 107.692C51.9096 107.375 51.7369 106.959 51.7369 106.446C51.7369 104.934 53.0716 104.178 55.7409 104.178ZM53.4169 105.536C53.2396 105.695 53.1182 105.839 53.0529 105.97C52.9969 106.091 52.9689 106.255 52.9689 106.46C52.9689 106.656 53.0529 106.829 53.2209 106.978C53.3982 107.118 53.6269 107.188 53.9069 107.188C54.4949 107.188 55.1062 106.927 55.7409 106.404V105.004C54.5649 105.023 53.7902 105.2 53.4169 105.536ZM64.6534 103.17V108H63.4634V103.226C63.4634 102.983 63.3654 102.797 63.1694 102.666C62.9828 102.535 62.7308 102.47 62.4134 102.47C61.7508 102.47 61.0648 102.708 60.3554 103.184V108H59.1654V101.616H59.9214L60.2714 102.344C60.9901 101.747 61.7694 101.448 62.6094 101.448C63.2348 101.448 63.7294 101.607 64.0934 101.924C64.4668 102.241 64.6534 102.657 64.6534 103.17ZM71.1946 97.948H72.3426V108H71.5866L71.2366 107.16C70.5366 107.832 69.8133 108.168 69.0666 108.168C68.3293 108.168 67.7179 107.883 67.2326 107.314C66.7473 106.735 66.5046 105.956 66.5046 104.976C66.5046 103.996 66.7939 103.179 67.3726 102.526C67.9513 101.863 68.6979 101.532 69.6126 101.532C70.1073 101.532 70.6346 101.644 71.1946 101.868V97.948ZM69.9066 102.484C69.2066 102.484 68.6653 102.722 68.2826 103.198C67.8999 103.674 67.7086 104.253 67.7086 104.934C67.7086 105.615 67.8673 106.161 68.1846 106.572C68.5019 106.983 68.9126 107.188 69.4166 107.188C69.6966 107.188 69.9953 107.113 70.3126 106.964C70.6393 106.805 70.9333 106.591 71.1946 106.32V102.736C70.7559 102.568 70.3266 102.484 69.9066 102.484ZM80.0682 102.498V106.334C80.0682 106.894 80.3342 107.174 80.8662 107.174C81.1742 107.174 81.5429 107.085 81.9722 106.908L82.1262 107.846C81.6689 108.061 81.1882 108.168 80.6842 108.168C80.1802 108.168 79.7602 108.019 79.4242 107.72C79.0882 107.412 78.9202 106.945 78.9202 106.32V102.498H78.0382V101.616H78.9202V100.356L79.7882 99.558H80.0682V101.616H81.8742V102.498H80.0682ZM85.9043 109.134C85.5963 110.03 85.3117 110.627 85.0503 110.926C84.7983 111.234 84.4203 111.388 83.9163 111.388C83.4123 111.388 82.857 111.248 82.2503 110.968L82.6843 110.058C83.0857 110.273 83.431 110.38 83.7203 110.38C83.9723 110.38 84.1403 110.338 84.2243 110.254L84.4063 110.072C84.5277 109.951 84.635 109.741 84.7283 109.442C84.8217 109.143 84.8963 108.91 84.9523 108.742C85.0083 108.583 85.0503 108.457 85.0783 108.364L82.7403 101.616H83.9443L85.5963 106.726H85.6523L87.3043 101.616H88.5083L85.9043 109.134ZM92.3279 107.216C93.0279 107.216 93.5693 106.978 93.9519 106.502C94.3346 106.026 94.5259 105.447 94.5259 104.766C94.5259 104.075 94.3579 103.52 94.0219 103.1C93.6953 102.68 93.2426 102.47 92.6639 102.47C92.4399 102.47 92.1739 102.535 91.8659 102.666C91.5579 102.797 91.2826 102.969 91.0399 103.184V106.964C91.4786 107.132 91.9079 107.216 92.3279 107.216ZM91.0399 111.22H89.8779V101.616H90.6339L90.9559 102.344C91.6373 101.747 92.3606 101.448 93.1259 101.448C93.8913 101.448 94.5166 101.747 95.0019 102.344C95.4873 102.941 95.7299 103.721 95.7299 104.682C95.7299 105.634 95.4453 106.455 94.8759 107.146C94.3159 107.827 93.5133 108.168 92.4679 108.168C92.0013 108.168 91.5253 108.103 91.0399 107.972V111.22ZM100.171 107.188C100.843 107.188 101.515 106.987 102.187 106.586L102.593 107.426C101.809 107.921 100.969 108.168 100.073 108.168C99.1864 108.168 98.4818 107.888 97.9591 107.328C97.4364 106.759 97.1751 105.942 97.1751 104.878C97.1751 103.814 97.4458 102.979 97.9871 102.372C98.5284 101.756 99.2471 101.448 100.143 101.448C100.955 101.448 101.594 101.7 102.061 102.204C102.257 102.409 102.42 102.708 102.551 103.1C102.691 103.492 102.761 103.954 102.761 104.486L102.327 104.976H98.3651C98.3931 106.451 98.9951 107.188 100.171 107.188ZM101.585 104.094C101.585 103.571 101.45 103.151 101.179 102.834C100.908 102.517 100.549 102.358 100.101 102.358C99.6624 102.358 99.2891 102.517 98.9811 102.834C98.6731 103.142 98.4864 103.562 98.4211 104.094H101.585ZM107.782 102.736C107.306 102.531 106.858 102.428 106.438 102.428C105.626 102.428 105.22 102.675 105.22 103.17C105.22 103.599 105.762 104.015 106.844 104.416C107.246 104.565 107.614 104.799 107.95 105.116C108.296 105.433 108.468 105.816 108.468 106.264C108.468 106.908 108.258 107.389 107.838 107.706C107.418 108.014 106.835 108.168 106.088 108.168C105.342 108.168 104.614 107.963 103.904 107.552L104.254 106.684C104.842 107.02 105.51 107.188 106.256 107.188C106.574 107.188 106.83 107.123 107.026 106.992C107.222 106.852 107.32 106.665 107.32 106.432C107.32 106.199 107.208 105.998 106.984 105.83C106.76 105.662 106.49 105.513 106.172 105.382C105.855 105.251 105.538 105.111 105.22 104.962C104.903 104.803 104.632 104.584 104.408 104.304C104.184 104.024 104.072 103.693 104.072 103.31C104.072 102.713 104.273 102.255 104.674 101.938C105.085 101.611 105.603 101.448 106.228 101.448C106.854 101.448 107.488 101.588 108.132 101.868L107.782 102.736ZM112.721 107.188C113.393 107.188 114.065 106.987 114.737 106.586L115.143 107.426C114.359 107.921 113.519 108.168 112.623 108.168C111.737 108.168 111.032 107.888 110.509 107.328C109.987 106.759 109.725 105.942 109.725 104.878C109.725 103.814 109.996 102.979 110.537 102.372C111.079 101.756 111.797 101.448 112.693 101.448C113.505 101.448 114.145 101.7 114.611 102.204C114.807 102.409 114.971 102.708 115.101 103.1C115.241 103.492 115.311 103.954 115.311 104.486L114.877 104.976H110.915C110.943 106.451 111.545 107.188 112.721 107.188ZM114.135 104.094C114.135 103.571 114 103.151 113.729 102.834C113.459 102.517 113.099 102.358 112.651 102.358C112.213 102.358 111.839 102.517 111.531 102.834C111.223 103.142 111.037 103.562 110.971 104.094H114.135ZM118.485 102.498V106.334C118.485 106.894 118.751 107.174 119.283 107.174C119.591 107.174 119.959 107.085 120.389 106.908L120.543 107.846C120.085 108.061 119.605 108.168 119.101 108.168C118.597 108.168 118.177 108.019 117.841 107.72C117.505 107.412 117.337 106.945 117.337 106.32V102.498H116.455V101.616H117.337V100.356L118.205 99.558H118.485V101.616H120.291V102.498H118.485ZM123.509 102.498V106.334C123.509 106.894 123.775 107.174 124.307 107.174C124.615 107.174 124.983 107.085 125.413 106.908L125.567 107.846C125.109 108.061 124.629 108.168 124.125 108.168C123.621 108.168 123.201 108.019 122.865 107.72C122.529 107.412 122.361 106.945 122.361 106.32V102.498H121.479V101.616H122.361V100.356L123.229 99.558H123.509V101.616H125.315V102.498H123.509ZM128.351 100.118C128.201 100.267 128.019 100.342 127.805 100.342C127.59 100.342 127.408 100.267 127.259 100.118C127.109 99.9593 127.035 99.7727 127.035 99.558C127.035 99.3433 127.109 99.1613 127.259 99.012C127.417 98.8533 127.599 98.774 127.805 98.774C128.01 98.774 128.187 98.8533 128.337 99.012C128.495 99.1613 128.575 99.3433 128.575 99.558C128.575 99.7727 128.5 99.9593 128.351 100.118ZM127.217 101.616H128.407V108H127.217V101.616ZM136.304 103.17V108H135.114V103.226C135.114 102.983 135.016 102.797 134.82 102.666C134.634 102.535 134.382 102.47 134.064 102.47C133.402 102.47 132.716 102.708 132.006 103.184V108H130.816V101.616H131.572L131.922 102.344C132.641 101.747 133.42 101.448 134.26 101.448C134.886 101.448 135.38 101.607 135.744 101.924C136.118 102.241 136.304 102.657 136.304 103.17ZM140.634 106.194C140.419 106.194 140.214 106.18 140.018 106.152C139.784 106.6 139.668 106.894 139.668 107.034C139.668 107.099 139.752 107.155 139.92 107.202L141.628 107.58C142.421 107.757 142.986 107.963 143.322 108.196C143.658 108.439 143.826 108.793 143.826 109.26C143.826 109.727 143.662 110.119 143.336 110.436C142.701 111.071 141.768 111.388 140.536 111.388C139.78 111.388 139.126 111.248 138.576 110.968C138.025 110.688 137.75 110.287 137.75 109.764C137.75 109.241 138.123 108.639 138.87 107.958C138.59 107.855 138.45 107.701 138.45 107.496C138.45 107.291 138.725 106.782 139.276 105.97C138.473 105.625 138.072 104.901 138.072 103.8C138.072 103.184 138.286 102.647 138.716 102.19C139.154 101.723 139.794 101.49 140.634 101.49C141.119 101.49 141.544 101.56 141.908 101.7L143.868 101.476V102.414H142.818C143.06 102.806 143.182 103.305 143.182 103.912C143.182 104.509 142.967 105.041 142.538 105.508C142.108 105.965 141.474 106.194 140.634 106.194ZM142.062 104.01C142.062 102.853 141.59 102.274 140.648 102.274C140.274 102.274 139.971 102.372 139.738 102.568C139.374 102.885 139.192 103.282 139.192 103.758C139.192 104.225 139.304 104.617 139.528 104.934C139.752 105.251 140.111 105.41 140.606 105.41C141.1 105.41 141.464 105.261 141.698 104.962C141.94 104.654 142.062 104.337 142.062 104.01ZM138.87 109.582C138.87 109.881 139.033 110.109 139.36 110.268C139.686 110.427 140.111 110.506 140.634 110.506C141.156 110.506 141.642 110.399 142.09 110.184C142.538 109.979 142.762 109.694 142.762 109.33C142.762 109.143 142.654 108.989 142.44 108.868C142.225 108.756 141.852 108.644 141.32 108.532L139.682 108.168C139.14 108.709 138.87 109.181 138.87 109.582ZM150.69 100.118C150.54 100.267 150.358 100.342 150.144 100.342C149.929 100.342 149.747 100.267 149.598 100.118C149.448 99.9593 149.374 99.7727 149.374 99.558C149.374 99.3433 149.448 99.1613 149.598 99.012C149.756 98.8533 149.938 98.774 150.144 98.774C150.349 98.774 150.526 98.8533 150.676 99.012C150.834 99.1613 150.914 99.3433 150.914 99.558C150.914 99.7727 150.839 99.9593 150.69 100.118ZM149.556 101.616H150.746V108H149.556V101.616ZM158.643 103.17V108H157.453V103.226C157.453 102.983 157.355 102.797 157.159 102.666C156.973 102.535 156.721 102.47 156.403 102.47C155.741 102.47 155.055 102.708 154.345 103.184V108H153.155V101.616H153.911L154.261 102.344C154.98 101.747 155.759 101.448 156.599 101.448C157.225 101.448 157.719 101.607 158.083 101.924C158.457 102.241 158.643 102.657 158.643 103.17ZM165.184 97.948H166.332V108H165.576L165.226 107.16C164.526 107.832 163.803 108.168 163.056 108.168C162.319 108.168 161.708 107.883 161.222 107.314C160.737 106.735 160.494 105.956 160.494 104.976C160.494 103.996 160.784 103.179 161.362 102.526C161.941 101.863 162.688 101.532 163.602 101.532C164.097 101.532 164.624 101.644 165.184 101.868V97.948ZM163.896 102.484C163.196 102.484 162.655 102.722 162.272 103.198C161.89 103.674 161.698 104.253 161.698 104.934C161.698 105.615 161.857 106.161 162.174 106.572C162.492 106.983 162.902 107.188 163.406 107.188C163.686 107.188 163.985 107.113 164.302 106.964C164.629 106.805 164.923 106.591 165.184 106.32V102.736C164.746 102.568 164.316 102.484 163.896 102.484ZM169.711 101.616V106.362C169.711 106.623 169.804 106.829 169.991 106.978C170.187 107.118 170.439 107.188 170.747 107.188C171.409 107.188 172.091 106.927 172.791 106.404V101.616H173.981V108H173.225L172.875 107.16C172.156 107.832 171.358 108.168 170.481 108.168C169.921 108.168 169.454 108.019 169.081 107.72C168.707 107.421 168.521 106.987 168.521 106.418V101.616H169.711ZM179.556 102.736C179.08 102.531 178.632 102.428 178.212 102.428C177.4 102.428 176.994 102.675 176.994 103.17C176.994 103.599 177.536 104.015 178.618 104.416C179.02 104.565 179.388 104.799 179.724 105.116C180.07 105.433 180.242 105.816 180.242 106.264C180.242 106.908 180.032 107.389 179.612 107.706C179.192 108.014 178.609 108.168 177.862 108.168C177.116 108.168 176.388 107.963 175.678 107.552L176.028 106.684C176.616 107.02 177.284 107.188 178.03 107.188C178.348 107.188 178.604 107.123 178.8 106.992C178.996 106.852 179.094 106.665 179.094 106.432C179.094 106.199 178.982 105.998 178.758 105.83C178.534 105.662 178.264 105.513 177.946 105.382C177.629 105.251 177.312 105.111 176.994 104.962C176.677 104.803 176.406 104.584 176.182 104.304C175.958 104.024 175.846 103.693 175.846 103.31C175.846 102.713 176.047 102.255 176.448 101.938C176.859 101.611 177.377 101.448 178.002 101.448C178.628 101.448 179.262 101.588 179.906 101.868L179.556 102.736ZM183.361 102.498V106.334C183.361 106.894 183.627 107.174 184.159 107.174C184.467 107.174 184.836 107.085 185.265 106.908L185.419 107.846C184.962 108.061 184.481 108.168 183.977 108.168C183.473 108.168 183.053 108.019 182.717 107.72C182.381 107.412 182.213 106.945 182.213 106.32V102.498H181.331V101.616H182.213V100.356L183.081 99.558H183.361V101.616H185.167V102.498H183.361ZM186.958 101.616H187.714L188.064 102.736H188.12C188.633 102.073 189.338 101.672 190.234 101.532L190.36 102.638C189.921 102.666 189.496 102.778 189.086 102.974C188.675 103.17 188.362 103.431 188.148 103.758V108H186.958V101.616ZM193.894 109.134C193.586 110.03 193.301 110.627 193.04 110.926C192.788 111.234 192.41 111.388 191.906 111.388C191.402 111.388 190.846 111.248 190.24 110.968L190.674 110.058C191.075 110.273 191.42 110.38 191.71 110.38C191.962 110.38 192.13 110.338 192.214 110.254L192.396 110.072C192.517 109.951 192.624 109.741 192.718 109.442C192.811 109.143 192.886 108.91 192.942 108.742C192.998 108.583 193.04 108.457 193.068 108.364L190.73 101.616H191.934L193.586 106.726H193.642L195.294 101.616H196.498L193.894 109.134ZM198.525 107.916C198.385 108.056 198.212 108.126 198.007 108.126C197.802 108.126 197.629 108.056 197.489 107.916C197.349 107.767 197.279 107.585 197.279 107.37C197.279 107.155 197.349 106.978 197.489 106.838C197.629 106.698 197.802 106.628 198.007 106.628C198.212 106.628 198.385 106.698 198.525 106.838C198.674 106.978 198.749 107.155 198.749 107.37C198.749 107.585 198.674 107.767 198.525 107.916Z" fill="#9B9B9B"/>
<path d="M286.996 11.5039V9.87392C286.996 9.63949 286.974 9.42044 286.967 9.18896C286.969 9.14353 286.993 9.10471 286.993 9.05855V2.53766C286.993 1.19115 285.893 0.0915222 284.547 0.0915222H282.917C280.676 0.0915222 278.843 4.49505 278.843 9.87381V24.6318C280.44 24.9556 281.699 26.2113 282.023 27.8112H282.103V46.5619C282.103 47.9069 283.203 49.0065 284.546 49.0065H284.552C285.897 49.0065 287 47.9069 287 46.5619L286.999 27.8105V11.5037L286.996 11.5039Z" fill="#596B86"/>
<path d="M227.591 0C227.143 0 226.777 0.366294 226.777 0.814655V12.2306C226.777 12.6819 226.412 13.0453 225.962 13.0453C225.511 13.0453 225.147 12.6812 225.147 12.2306V0.814655C225.147 0.366313 224.781 0 224.333 0C223.884 0 223.518 0.366294 223.518 0.814655V12.2306C223.518 12.6819 223.152 13.0453 222.703 13.0453C222.25 13.0453 221.889 12.6812 221.889 12.2306V0.814655C221.889 0.366313 221.522 0 221.074 0C220.623 0 220.259 0.366294 220.259 0.814655V12.2306C220.257 12.6819 219.893 13.0453 219.445 13.0453C218.991 13.0453 218.63 12.6812 218.63 12.2306V0.814655C218.63 0.366313 218.264 0 217.813 0C217.365 0 217 0.366294 217 0.814655V15.9573C217 17.5199 218.369 18.8466 220.261 19.3485V46.4711C220.261 47.8161 221.36 48.9157 222.707 48.9157C224.051 48.9157 225.153 47.8161 225.153 46.4711L225.149 19.3485C227.039 18.8467 228.41 17.5199 228.41 15.9573V0.814655C228.406 0.366313 228.04 0 227.591 0H227.591Z" fill="#596B86"/>
<path d="M252 9.33592C245.556 9.33592 240.332 14.5607 240.332 21.0055H263.67C263.669 14.5609 258.445 9.33592 252 9.33592H252ZM252 11.4362C256.556 11.4362 260.377 14.634 261.337 18.9035H242.664C243.624 14.6338 247.444 11.4362 252 11.4362V11.4362Z" fill="#596B86"/>
<path d="M250.948 0H253.046V7.00213H250.948V0Z" fill="#596B86"/>
<path d="M233.932 8.42635L239.996 11.9259L238.946 13.7449L232.882 10.2454L233.932 8.42635Z" fill="#596B86"/>
<path d="M242.57 1.87167L246.07 7.93534L244.251 8.98515L240.751 2.92148L242.57 1.87167Z" fill="#596B86"/>
<path d="M270.104 8.42261L271.155 10.2409L265.094 13.745L264.043 11.9267L270.104 8.42261Z" fill="#596B86"/>
<path d="M261.464 1.87167L263.282 2.92295L259.778 8.98361L257.959 7.93234L261.464 1.87167Z" fill="#596B86"/>
<path d="M268.723 25.6729L262.114 25.6751H235.674V35.59C235.674 41.0426 240.139 45.5056 245.59 45.5056H257.159C261.447 45.5056 265.084 42.729 266.459 38.8962H268.724C272.373 38.8962 275.335 35.9358 275.335 32.283C275.335 28.634 272.373 25.6728 268.724 25.6728L268.723 25.6729ZM268.723 34.4355H267.071V30.1374H268.723C269.91 30.1374 270.872 31.0993 270.872 32.2838C270.872 33.4735 269.905 34.4355 268.723 34.4355Z" fill="#596B86"/>
<path d="M2.34375 26.8672H7.19531C9.33594 26.8672 10.9453 27.1875 12.0234 27.8281C13.1016 28.4688 13.6406 29.5586 13.6406 31.0977C13.6406 31.7617 13.5117 32.3594 13.2539 32.8906C13.0039 33.4141 12.6367 33.8477 12.1523 34.1914C11.668 34.5352 11.0703 34.7734 10.3594 34.9062V35.0234C11.1094 35.1406 11.7734 35.3555 12.3516 35.668C12.9297 35.9805 13.3828 36.418 13.7109 36.9805C14.0391 37.543 14.2031 38.2578 14.2031 39.125C14.2031 40.1797 13.957 41.0703 13.4648 41.7969C12.9805 42.5234 12.293 43.0742 11.4023 43.4492C10.5117 43.8164 9.45703 44 8.23828 44H2.34375V26.8672ZM4.33594 34.2148H7.61719C9.10938 34.2148 10.1406 33.9688 10.7109 33.4766C11.2891 32.9844 11.5781 32.2656 11.5781 31.3203C11.5781 30.3438 11.2344 29.6406 10.5469 29.2109C9.86719 28.7812 8.78125 28.5664 7.28906 28.5664H4.33594V34.2148ZM4.33594 35.8906V42.3008H7.89844C9.42188 42.3008 10.5 42.0039 11.1328 41.4102C11.7656 40.8086 12.082 40 12.082 38.9844C12.082 38.3359 11.9375 37.7812 11.6484 37.3203C11.3672 36.8594 10.9062 36.5078 10.2656 36.2656C9.63281 36.0156 8.78516 35.8906 7.72266 35.8906H4.33594ZM23.4023 30.9219C23.6602 30.9219 23.9297 30.9375 24.2109 30.9688C24.4922 30.9922 24.7422 31.0273 24.9609 31.0742L24.7148 32.8789C24.5039 32.8242 24.2695 32.7812 24.0117 32.75C23.7539 32.7188 23.5117 32.7031 23.2852 32.7031C22.7695 32.7031 22.2812 32.8086 21.8203 33.0195C21.3672 33.2227 20.9688 33.5195 20.625 33.9102C20.2812 34.293 20.0117 34.7578 19.8164 35.3047C19.6211 35.8438 19.5234 36.4453 19.5234 37.1094V44H17.5664V31.1562H19.1836L19.3945 33.5234H19.4766C19.7422 33.0469 20.0625 32.6133 20.4375 32.2227C20.8125 31.8242 21.2461 31.5078 21.7383 31.2734C22.2383 31.0391 22.793 30.9219 23.4023 30.9219ZM32.332 30.9219C33.4258 30.9219 34.3633 31.1641 35.1445 31.6484C35.9258 32.1328 36.5234 32.8125 36.9375 33.6875C37.3516 34.5547 37.5586 35.5703 37.5586 36.7344V37.9414H28.6875C28.7109 39.4492 29.0859 40.5977 29.8125 41.3867C30.5391 42.1758 31.5625 42.5703 32.8828 42.5703C33.6953 42.5703 34.4141 42.4961 35.0391 42.3477C35.6641 42.1992 36.3125 41.9805 36.9844 41.6914V43.4023C36.3359 43.6914 35.6914 43.9023 35.0508 44.0352C34.418 44.168 33.668 44.2344 32.8008 44.2344C31.5664 44.2344 30.4883 43.9844 29.5664 43.4844C28.6523 42.9766 27.9414 42.2344 27.4336 41.2578C26.9258 40.2812 26.6719 39.0859 26.6719 37.6719C26.6719 36.2891 26.9023 35.0938 27.3633 34.0859C27.832 33.0703 28.4883 32.2891 29.332 31.7422C30.1836 31.1953 31.1836 30.9219 32.332 30.9219ZM32.3086 32.5156C31.2695 32.5156 30.4414 32.8555 29.8242 33.5352C29.207 34.2148 28.8398 35.1641 28.7227 36.3828H35.5195C35.5117 35.6172 35.3906 34.9453 35.1562 34.3672C34.9297 33.7812 34.582 33.3281 34.1133 33.0078C33.6445 32.6797 33.043 32.5156 32.3086 32.5156ZM45.668 30.9453C47.1992 30.9453 48.3359 31.2891 49.0781 31.9766C49.8203 32.6641 50.1914 33.7617 50.1914 35.2695V44H48.7734L48.3984 42.1016H48.3047C47.9453 42.5703 47.5703 42.9648 47.1797 43.2852C46.7891 43.5977 46.3359 43.8359 45.8203 44C45.3125 44.1562 44.6875 44.2344 43.9453 44.2344C43.1641 44.2344 42.4688 44.0977 41.8594 43.8242C41.2578 43.5508 40.7812 43.1367 40.4297 42.582C40.0859 42.0273 39.9141 41.3242 39.9141 40.4727C39.9141 39.1914 40.4219 38.207 41.4375 37.5195C42.4531 36.832 44 36.457 46.0781 36.3945L48.293 36.3008V35.5156C48.293 34.4062 48.0547 33.6289 47.5781 33.1836C47.1016 32.7383 46.4297 32.5156 45.5625 32.5156C44.8906 32.5156 44.25 32.6133 43.6406 32.8086C43.0312 33.0039 42.4531 33.2344 41.9062 33.5L41.3086 32.0234C41.8867 31.7266 42.5508 31.4727 43.3008 31.2617C44.0508 31.0508 44.8398 30.9453 45.668 30.9453ZM48.2695 37.6719L46.3125 37.7539C44.7109 37.8164 43.582 38.0781 42.9258 38.5391C42.2695 39 41.9414 39.6523 41.9414 40.4961C41.9414 41.2305 42.1641 41.7734 42.6094 42.125C43.0547 42.4766 43.6445 42.6523 44.3789 42.6523C45.5195 42.6523 46.4531 42.3359 47.1797 41.7031C47.9062 41.0703 48.2695 40.1211 48.2695 38.8555V37.6719ZM56.1328 25.7656V35.2344C56.1328 35.5469 56.1211 35.9297 56.0977 36.3828C56.0742 36.8281 56.0547 37.2227 56.0391 37.5664H56.1211C56.2852 37.3633 56.5234 37.0625 56.8359 36.6641C57.1562 36.2656 57.4258 35.9453 57.6445 35.7031L61.9102 31.1562H64.1953L59.0273 36.6406L64.5703 44H62.2266L57.6914 37.918L56.1328 39.3477V44H54.1992V25.7656H56.1328ZM72.5273 32.6797H69.3281V44H67.3828V32.6797H65.1094V31.7422L67.3828 31.0977V30.2422C67.3828 29.1641 67.543 28.2891 67.8633 27.6172C68.1836 26.9375 68.6484 26.4375 69.2578 26.1172C69.8672 25.7969 70.6094 25.6367 71.4844 25.6367C71.9766 25.6367 72.4258 25.6797 72.832 25.7656C73.2461 25.8516 73.6094 25.9492 73.9219 26.0586L73.418 27.5938C73.1523 27.5078 72.8516 27.4297 72.5156 27.3594C72.1875 27.2812 71.8516 27.2422 71.5078 27.2422C70.7656 27.2422 70.2148 27.4844 69.8555 27.9688C69.5039 28.4453 69.3281 29.1953 69.3281 30.2188V31.1562H72.5273V32.6797ZM79.6992 30.9453C81.2305 30.9453 82.3672 31.2891 83.1094 31.9766C83.8516 32.6641 84.2227 33.7617 84.2227 35.2695V44H82.8047L82.4297 42.1016H82.3359C81.9766 42.5703 81.6016 42.9648 81.2109 43.2852C80.8203 43.5977 80.3672 43.8359 79.8516 44C79.3438 44.1562 78.7188 44.2344 77.9766 44.2344C77.1953 44.2344 76.5 44.0977 75.8906 43.8242C75.2891 43.5508 74.8125 43.1367 74.4609 42.582C74.1172 42.0273 73.9453 41.3242 73.9453 40.4727C73.9453 39.1914 74.4531 38.207 75.4688 37.5195C76.4844 36.832 78.0312 36.457 80.1094 36.3945L82.3242 36.3008V35.5156C82.3242 34.4062 82.0859 33.6289 81.6094 33.1836C81.1328 32.7383 80.4609 32.5156 79.5938 32.5156C78.9219 32.5156 78.2812 32.6133 77.6719 32.8086C77.0625 33.0039 76.4844 33.2344 75.9375 33.5L75.3398 32.0234C75.918 31.7266 76.582 31.4727 77.332 31.2617C78.082 31.0508 78.8711 30.9453 79.6992 30.9453ZM82.3008 37.6719L80.3438 37.7539C78.7422 37.8164 77.6133 38.0781 76.957 38.5391C76.3008 39 75.9727 39.6523 75.9727 40.4961C75.9727 41.2305 76.1953 41.7734 76.6406 42.125C77.0859 42.4766 77.6758 42.6523 78.4102 42.6523C79.5508 42.6523 80.4844 42.3359 81.2109 41.7031C81.9375 41.0703 82.3008 40.1211 82.3008 38.8555V37.6719ZM96.5391 40.4844C96.5391 41.3047 96.332 41.9961 95.918 42.5586C95.5117 43.1133 94.9258 43.5312 94.1602 43.8125C93.4023 44.0938 92.4961 44.2344 91.4414 44.2344C90.543 44.2344 89.7656 44.1641 89.1094 44.0234C88.4531 43.8828 87.8789 43.6836 87.3867 43.4258V41.6328C87.9102 41.8906 88.5352 42.125 89.2617 42.3359C89.9883 42.5469 90.7305 42.6523 91.4883 42.6523C92.5977 42.6523 93.4023 42.4727 93.9023 42.1133C94.4023 41.7539 94.6523 41.2656 94.6523 40.6484C94.6523 40.2969 94.5508 39.9883 94.3477 39.7227C94.1523 39.4492 93.8203 39.1875 93.3516 38.9375C92.8828 38.6797 92.2344 38.3984 91.4062 38.0938C90.5859 37.7812 89.875 37.4727 89.2734 37.168C88.6797 36.8555 88.2188 36.4766 87.8906 36.0312C87.5703 35.5859 87.4102 35.0078 87.4102 34.2969C87.4102 33.2109 87.8477 32.3789 88.7227 31.8008C89.6055 31.2148 90.7617 30.9219 92.1914 30.9219C92.9648 30.9219 93.6875 31 94.3594 31.1562C95.0391 31.3047 95.6719 31.5078 96.2578 31.7656L95.6016 33.3242C95.0703 33.0977 94.5039 32.9062 93.9023 32.75C93.3008 32.5938 92.6875 32.5156 92.0625 32.5156C91.1641 32.5156 90.4727 32.6641 89.9883 32.9609C89.5117 33.2578 89.2734 33.6641 89.2734 34.1797C89.2734 34.5781 89.3828 34.9062 89.6016 35.1641C89.8281 35.4219 90.1875 35.6641 90.6797 35.8906C91.1719 36.1172 91.8203 36.3828 92.625 36.6875C93.4297 36.9844 94.125 37.293 94.7109 37.6133C95.2969 37.9258 95.7461 38.3086 96.0586 38.7617C96.3789 39.207 96.5391 39.7812 96.5391 40.4844ZM103.816 42.6406C104.137 42.6406 104.465 42.6133 104.801 42.5586C105.137 42.5039 105.41 42.4375 105.621 42.3594V43.8711C105.395 43.9727 105.078 44.0586 104.672 44.1289C104.273 44.1992 103.883 44.2344 103.5 44.2344C102.82 44.2344 102.203 44.1172 101.648 43.8828C101.094 43.6406 100.648 43.2344 100.312 42.6641C99.9844 42.0938 99.8203 41.3047 99.8203 40.2969V32.6797H97.9922V31.7305L99.832 30.9688L100.605 28.1797H101.777V31.1562H105.539V32.6797H101.777V40.2383C101.777 41.043 101.961 41.6445 102.328 42.043C102.703 42.4414 103.199 42.6406 103.816 42.6406Z" fill="#131313"/>
</svg>
