<svg width="289" height="117" viewBox="0 0 289 117" fill="none" xmlns="http://www.w3.org/2000/svg">
<path d="M1.19 86V76.326H2.394V86H1.19ZM6.29803 80.498V84.334C6.29803 84.894 6.56403 85.174 7.09603 85.174C7.40403 85.174 7.7727 85.0853 8.20203 84.908L8.35603 85.846C7.8987 86.0607 7.41803 86.168 6.91403 86.168C6.41003 86.168 5.99003 86.0187 5.65403 85.72C5.31803 85.412 5.15003 84.9453 5.15003 84.32V80.498H4.26803V79.616H5.15003V78.356L6.01803 77.558H6.29803V79.616H8.10403V80.498H6.29803ZM15.1936 78.118C15.0443 78.2673 14.8623 78.342 14.6476 78.342C14.4329 78.342 14.2509 78.2673 14.1016 78.118C13.9523 77.9593 13.8776 77.7727 13.8776 77.558C13.8776 77.3433 13.9523 77.1613 14.1016 77.012C14.2603 76.8533 14.4423 76.774 14.6476 76.774C14.8529 76.774 15.0303 76.8533 15.1796 77.012C15.3383 77.1613 15.4176 77.3433 15.4176 77.558C15.4176 77.7727 15.3429 77.9593 15.1936 78.118ZM14.0596 79.616H15.2496V86H14.0596V79.616ZM20.9353 80.736C20.4593 80.5307 20.0113 80.428 19.5913 80.428C18.7793 80.428 18.3733 80.6753 18.3733 81.17C18.3733 81.5993 18.9146 82.0147 19.9973 82.416C20.3986 82.5653 20.7673 82.7987 21.1033 83.116C21.4486 83.4333 21.6213 83.816 21.6213 84.264C21.6213 84.908 21.4113 85.3887 20.9913 85.706C20.5713 86.014 19.9879 86.168 19.2413 86.168C18.4946 86.168 17.7666 85.9627 17.0573 85.552L17.4073 84.684C17.9953 85.02 18.6626 85.188 19.4093 85.188C19.7266 85.188 19.9833 85.1227 20.1793 84.992C20.3753 84.852 20.4733 84.6653 20.4733 84.432C20.4733 84.1987 20.3613 83.998 20.1373 83.83C19.9133 83.662 19.6426 83.5127 19.3253 83.382C19.0079 83.2513 18.6906 83.1113 18.3733 82.962C18.0559 82.8033 17.7853 82.584 17.5613 82.304C17.3373 82.024 17.2253 81.6927 17.2253 81.31C17.2253 80.7127 17.4259 80.2553 17.8273 79.938C18.2379 79.6113 18.7559 79.448 19.3813 79.448C20.0066 79.448 20.6413 79.588 21.2853 79.868L20.9353 80.736ZM30.8657 82.178V81.562C30.8657 80.806 30.4737 80.428 29.6897 80.428C29.0737 80.428 28.4297 80.6287 27.7577 81.03L27.3517 80.19C28.1357 79.6953 28.9804 79.448 29.8857 79.448C30.5204 79.448 31.0384 79.6113 31.4397 79.938C31.8504 80.2553 32.0557 80.75 32.0557 81.422V86H31.2997L30.9497 85.16C30.6511 85.468 30.2964 85.7153 29.8857 85.902C29.4751 86.0793 29.1017 86.168 28.7657 86.168C28.1871 86.168 27.7251 86.0093 27.3797 85.692C27.0344 85.3747 26.8617 84.9593 26.8617 84.446C26.8617 82.934 28.1964 82.178 30.8657 82.178ZM28.5417 83.536C28.3644 83.6947 28.2431 83.8393 28.1777 83.97C28.1217 84.0913 28.0937 84.2547 28.0937 84.46C28.0937 84.656 28.1777 84.8287 28.3457 84.978C28.5231 85.118 28.7517 85.188 29.0317 85.188C29.6197 85.188 30.2311 84.9267 30.8657 84.404V83.004C29.6897 83.0227 28.9151 83.2 28.5417 83.536ZM38.2877 75.948H39.4357V86H38.2877V75.948ZM44.2905 80.358C43.9359 80.358 43.6279 80.4373 43.3665 80.596C43.1145 80.7547 42.9279 80.96 42.8065 81.212C42.5825 81.688 42.4705 82.1967 42.4705 82.738C42.4705 84.418 43.0539 85.258 44.2205 85.258C44.5752 85.258 44.8785 85.1787 45.1305 85.02C45.3825 84.8613 45.5739 84.656 45.7045 84.404C45.9285 83.9373 46.0405 83.4287 46.0405 82.878C46.0405 81.198 45.4572 80.358 44.2905 80.358ZM44.2905 79.448C45.3265 79.448 46.0825 79.77 46.5585 80.414C47.0345 81.058 47.2725 81.898 47.2725 82.934C47.2725 83.6807 47.0765 84.3713 46.6845 85.006C46.4699 85.3513 46.1479 85.6313 45.7185 85.846C45.2892 86.0607 44.7759 86.168 44.1785 86.168C43.1519 86.168 42.4052 85.86 41.9385 85.244C41.4719 84.628 41.2385 83.802 41.2385 82.766C41.2385 82.1593 41.3319 81.646 41.5185 81.226C41.7145 80.806 41.9199 80.484 42.1345 80.26C42.3492 80.0267 42.6432 79.8353 43.0165 79.686C43.3899 79.5273 43.8145 79.448 44.2905 79.448ZM54.6183 81.17V86H53.4283V81.226C53.4283 80.9833 53.3303 80.7967 53.1343 80.666C52.9476 80.5353 52.6956 80.47 52.3783 80.47C51.7156 80.47 51.0296 80.708 50.3203 81.184V86H49.1303V79.616H49.8863L50.2363 80.344C50.9549 79.7467 51.7343 79.448 52.5743 79.448C53.1996 79.448 53.6943 79.6067 54.0583 79.924C54.4316 80.2413 54.6183 80.6567 54.6183 81.17ZM58.9474 84.194C58.7328 84.194 58.5274 84.18 58.3314 84.152C58.0981 84.6 57.9814 84.894 57.9814 85.034C57.9814 85.0993 58.0654 85.1553 58.2334 85.202L59.9414 85.58C60.7348 85.7573 61.2994 85.9627 61.6354 86.196C61.9714 86.4387 62.1394 86.7933 62.1394 87.26C62.1394 87.7267 61.9761 88.1187 61.6494 88.436C61.0148 89.0707 60.0814 89.388 58.8494 89.388C58.0934 89.388 57.4401 89.248 56.8894 88.968C56.3388 88.688 56.0634 88.2867 56.0634 87.764C56.0634 87.2413 56.4368 86.6393 57.1834 85.958C56.9034 85.8553 56.7634 85.7013 56.7634 85.496C56.7634 85.2907 57.0388 84.782 57.5894 83.97C56.7868 83.6247 56.3854 82.9013 56.3854 81.8C56.3854 81.184 56.6001 80.6473 57.0294 80.19C57.4681 79.7233 58.1074 79.49 58.9474 79.49C59.4328 79.49 59.8574 79.56 60.2214 79.7L62.1814 79.476V80.414H61.1314C61.3741 80.806 61.4954 81.3053 61.4954 81.912C61.4954 82.5093 61.2808 83.0413 60.8514 83.508C60.4221 83.9653 59.7874 84.194 58.9474 84.194ZM60.3754 82.01C60.3754 80.8527 59.9041 80.274 58.9614 80.274C58.5881 80.274 58.2848 80.372 58.0514 80.568C57.6874 80.8853 57.5054 81.282 57.5054 81.758C57.5054 82.2247 57.6174 82.6167 57.8414 82.934C58.0654 83.2513 58.4248 83.41 58.9194 83.41C59.4141 83.41 59.7781 83.2607 60.0114 82.962C60.2541 82.654 60.3754 82.3367 60.3754 82.01ZM57.1834 87.582C57.1834 87.8807 57.3468 88.1093 57.6734 88.268C58.0001 88.4267 58.4248 88.506 58.9474 88.506C59.4701 88.506 59.9554 88.3987 60.4034 88.184C60.8514 87.9787 61.0754 87.694 61.0754 87.33C61.0754 87.1433 60.9681 86.9893 60.7534 86.868C60.5388 86.756 60.1654 86.644 59.6334 86.532L57.9954 86.168C57.4541 86.7093 57.1834 87.1807 57.1834 87.582ZM70.3194 85.188C70.9914 85.188 71.6634 84.9873 72.3354 84.586L72.7414 85.426C71.9574 85.9207 71.1174 86.168 70.2214 86.168C69.3347 86.168 68.63 85.888 68.1074 85.328C67.5847 84.7587 67.3234 83.942 67.3234 82.878C67.3234 81.814 67.594 80.9787 68.1354 80.372C68.6767 79.756 69.3954 79.448 70.2914 79.448C71.1034 79.448 71.7427 79.7 72.2094 80.204C72.4054 80.4093 72.5687 80.708 72.6994 81.1C72.8394 81.492 72.9094 81.954 72.9094 82.486L72.4754 82.976H68.5134C68.5414 84.4507 69.1434 85.188 70.3194 85.188ZM71.7334 82.094C71.7334 81.5713 71.598 81.1513 71.3274 80.834C71.0567 80.5167 70.6974 80.358 70.2494 80.358C69.8107 80.358 69.4374 80.5167 69.1294 80.834C68.8214 81.142 68.6347 81.562 68.5694 82.094H71.7334ZM77.9306 80.736C77.4546 80.5307 77.0066 80.428 76.5866 80.428C75.7746 80.428 75.3686 80.6753 75.3686 81.17C75.3686 81.5993 75.9099 82.0147 76.9926 82.416C77.3939 82.5653 77.7626 82.7987 78.0986 83.116C78.4439 83.4333 78.6166 83.816 78.6166 84.264C78.6166 84.908 78.4066 85.3887 77.9866 85.706C77.5666 86.014 76.9832 86.168 76.2366 86.168C75.4899 86.168 74.7619 85.9627 74.0526 85.552L74.4026 84.684C74.9906 85.02 75.6579 85.188 76.4046 85.188C76.7219 85.188 76.9786 85.1227 77.1746 84.992C77.3706 84.852 77.4686 84.6653 77.4686 84.432C77.4686 84.1987 77.3566 83.998 77.1326 83.83C76.9086 83.662 76.6379 83.5127 76.3206 83.382C76.0032 83.2513 75.6859 83.1113 75.3686 82.962C75.0512 82.8033 74.7806 82.584 74.5566 82.304C74.3326 82.024 74.2206 81.6927 74.2206 81.31C74.2206 80.7127 74.4212 80.2553 74.8226 79.938C75.2332 79.6113 75.7512 79.448 76.3766 79.448C77.0019 79.448 77.6366 79.588 78.2806 79.868L77.9306 80.736ZM81.7356 80.498V84.334C81.7356 84.894 82.0016 85.174 82.5336 85.174C82.8416 85.174 83.2103 85.0853 83.6396 84.908L83.7936 85.846C83.3363 86.0607 82.8556 86.168 82.3516 86.168C81.8476 86.168 81.4276 86.0187 81.0916 85.72C80.7556 85.412 80.5876 84.9453 80.5876 84.32V80.498H79.7056V79.616H80.5876V78.356L81.4556 77.558H81.7356V79.616H83.5416V80.498H81.7356ZM88.8318 82.178V81.562C88.8318 80.806 88.4398 80.428 87.6558 80.428C87.0398 80.428 86.3958 80.6287 85.7238 81.03L85.3178 80.19C86.1018 79.6953 86.9464 79.448 87.8518 79.448C88.4864 79.448 89.0044 79.6113 89.4058 79.938C89.8164 80.2553 90.0218 80.75 90.0218 81.422V86H89.2658L88.9158 85.16C88.6171 85.468 88.2624 85.7153 87.8518 85.902C87.4411 86.0793 87.0678 86.168 86.7318 86.168C86.1531 86.168 85.6911 86.0093 85.3458 85.692C85.0004 85.3747 84.8278 84.9593 84.8278 84.446C84.8278 82.934 86.1624 82.178 88.8318 82.178ZM86.5078 83.536C86.3304 83.6947 86.2091 83.8393 86.1438 83.97C86.0878 84.0913 86.0598 84.2547 86.0598 84.46C86.0598 84.656 86.1438 84.8287 86.3118 84.978C86.4891 85.118 86.7178 85.188 86.9978 85.188C87.5858 85.188 88.1971 84.9267 88.8318 84.404V83.004C87.6558 83.0227 86.8811 83.2 86.5078 83.536ZM94.6503 85.216C95.3503 85.216 95.8916 84.978 96.2743 84.502C96.657 84.026 96.8483 83.452 96.8483 82.78C96.8483 82.108 96.6803 81.5713 96.3443 81.17C96.0083 80.7593 95.5743 80.554 95.0423 80.554C94.5196 80.554 93.9596 80.7127 93.3623 81.03V84.964C93.801 85.132 94.2303 85.216 94.6503 85.216ZM93.3623 75.948V80.134C94.0716 79.7327 94.7856 79.532 95.5043 79.532C96.2323 79.532 96.839 79.826 97.3243 80.414C97.8096 80.9927 98.0523 81.7533 98.0523 82.696C98.0523 83.6387 97.7676 84.4553 97.1983 85.146C96.6383 85.8273 95.8356 86.168 94.7903 86.168C93.9876 86.168 93.129 85.9627 92.2143 85.552V75.948H93.3623ZM99.8494 75.948H100.997V86H99.8494V75.948ZM104.48 78.118C104.331 78.2673 104.149 78.342 103.934 78.342C103.72 78.342 103.538 78.2673 103.388 78.118C103.239 77.9593 103.164 77.7727 103.164 77.558C103.164 77.3433 103.239 77.1613 103.388 77.012C103.547 76.8533 103.729 76.774 103.934 76.774C104.14 76.774 104.317 76.8533 104.466 77.012C104.625 77.1613 104.704 77.3433 104.704 77.558C104.704 77.7727 104.63 77.9593 104.48 78.118ZM103.346 79.616H104.536V86H103.346V79.616ZM110.222 80.736C109.746 80.5307 109.298 80.428 108.878 80.428C108.066 80.428 107.66 80.6753 107.66 81.17C107.66 81.5993 108.201 82.0147 109.284 82.416C109.685 82.5653 110.054 82.7987 110.39 83.116C110.735 83.4333 110.908 83.816 110.908 84.264C110.908 84.908 110.698 85.3887 110.278 85.706C109.858 86.014 109.275 86.168 108.528 86.168C107.781 86.168 107.053 85.9627 106.344 85.552L106.694 84.684C107.282 85.02 107.949 85.188 108.696 85.188C109.013 85.188 109.27 85.1227 109.466 84.992C109.662 84.852 109.76 84.6653 109.76 84.432C109.76 84.1987 109.648 83.998 109.424 83.83C109.2 83.662 108.929 83.5127 108.612 83.382C108.295 83.2513 107.977 83.1113 107.66 82.962C107.343 82.8033 107.072 82.584 106.848 82.304C106.624 82.024 106.512 81.6927 106.512 81.31C106.512 80.7127 106.713 80.2553 107.114 79.938C107.525 79.6113 108.043 79.448 108.668 79.448C109.293 79.448 109.928 79.588 110.572 79.868L110.222 80.736ZM113.733 75.948V80.274C114.433 79.7233 115.184 79.448 115.987 79.448C116.612 79.448 117.107 79.6067 117.471 79.924C117.844 80.232 118.031 80.638 118.031 81.142V86H116.841V81.226C116.841 80.9833 116.743 80.7967 116.547 80.666C116.36 80.5353 116.108 80.47 115.791 80.47C115.128 80.47 114.442 80.708 113.733 81.184V86H112.543V75.948H113.733ZM122.837 85.188C123.509 85.188 124.181 84.9873 124.853 84.586L125.259 85.426C124.475 85.9207 123.635 86.168 122.739 86.168C121.853 86.168 121.148 85.888 120.625 85.328C120.103 84.7587 119.841 83.942 119.841 82.878C119.841 81.814 120.112 80.9787 120.653 80.372C121.195 79.756 121.913 79.448 122.809 79.448C123.621 79.448 124.261 79.7 124.727 80.204C124.923 80.4093 125.087 80.708 125.217 81.1C125.357 81.492 125.427 81.954 125.427 82.486L124.993 82.976H121.031C121.059 84.4507 121.661 85.188 122.837 85.188ZM124.251 82.094C124.251 81.5713 124.116 81.1513 123.845 80.834C123.575 80.5167 123.215 80.358 122.767 80.358C122.329 80.358 121.955 80.5167 121.647 80.834C121.339 81.142 121.153 81.562 121.087 82.094H124.251ZM131.471 75.948H132.619V86H131.863L131.513 85.16C130.813 85.832 130.089 86.168 129.343 86.168C128.605 86.168 127.994 85.8833 127.509 85.314C127.023 84.7353 126.781 83.956 126.781 82.976C126.781 81.996 127.07 81.1793 127.649 80.526C128.227 79.8633 128.974 79.532 129.889 79.532C130.383 79.532 130.911 79.644 131.471 79.868V75.948ZM130.183 80.484C129.483 80.484 128.941 80.722 128.559 81.198C128.176 81.674 127.985 82.2527 127.985 82.934C127.985 83.6153 128.143 84.1613 128.461 84.572C128.778 84.9827 129.189 85.188 129.693 85.188C129.973 85.188 130.271 85.1133 130.589 84.964C130.915 84.8053 131.209 84.5907 131.471 84.32V80.736C131.032 80.568 130.603 80.484 130.183 80.484ZM139.238 79.616V77.922C139.238 77.2313 139.402 76.704 139.728 76.34C140.055 75.9667 140.48 75.78 141.002 75.78C141.534 75.78 142.099 75.92 142.696 76.2L142.29 77.04C141.88 76.872 141.525 76.788 141.226 76.788C140.666 76.788 140.386 77.1613 140.386 77.908V79.616H142.122V80.498H140.386V86H139.238V80.498H138.286V79.616H139.238ZM147.03 82.178V81.562C147.03 80.806 146.638 80.428 145.854 80.428C145.238 80.428 144.594 80.6287 143.922 81.03L143.516 80.19C144.3 79.6953 145.145 79.448 146.05 79.448C146.685 79.448 147.203 79.6113 147.604 79.938C148.015 80.2553 148.22 80.75 148.22 81.422V86H147.464L147.114 85.16C146.816 85.468 146.461 85.7153 146.05 85.902C145.64 86.0793 145.266 86.168 144.93 86.168C144.352 86.168 143.89 86.0093 143.544 85.692C143.199 85.3747 143.026 84.9593 143.026 84.446C143.026 82.934 144.361 82.178 147.03 82.178ZM144.706 83.536C144.529 83.6947 144.408 83.8393 144.342 83.97C144.286 84.0913 144.258 84.2547 144.258 84.46C144.258 84.656 144.342 84.8287 144.51 84.978C144.688 85.118 144.916 85.188 145.196 85.188C145.784 85.188 146.396 84.9267 147.03 84.404V83.004C145.854 83.0227 145.08 83.2 144.706 83.536ZM152.961 79.448C153.586 79.448 154.221 79.588 154.865 79.868L154.515 80.736C154.039 80.5307 153.53 80.428 152.989 80.428C152.457 80.428 152.032 80.6287 151.715 81.03C151.407 81.4313 151.253 82.0193 151.253 82.794C151.253 83.5687 151.416 84.1613 151.743 84.572C152.069 84.9827 152.499 85.188 153.031 85.188C153.563 85.188 154.113 85.0573 154.683 84.796L154.949 85.72C154.295 86.0187 153.633 86.168 152.961 86.168C152.093 86.168 151.383 85.8553 150.833 85.23C150.291 84.5953 150.021 83.7833 150.021 82.794C150.021 81.7953 150.291 80.988 150.833 80.372C151.383 79.756 152.093 79.448 152.961 79.448ZM157.932 80.498V84.334C157.932 84.894 158.198 85.174 158.73 85.174C159.038 85.174 159.407 85.0853 159.836 84.908L159.99 85.846C159.533 86.0607 159.052 86.168 158.548 86.168C158.044 86.168 157.624 86.0187 157.288 85.72C156.952 85.412 156.784 84.9453 156.784 84.32V80.498H155.902V79.616H156.784V78.356L157.652 77.558H157.932V79.616H159.738V80.498H157.932ZM167.01 80.498V84.334C167.01 84.894 167.276 85.174 167.808 85.174C168.116 85.174 168.484 85.0853 168.914 84.908L169.068 85.846C168.61 86.0607 168.13 86.168 167.626 86.168C167.122 86.168 166.702 86.0187 166.366 85.72C166.03 85.412 165.862 84.9453 165.862 84.32V80.498H164.98V79.616H165.862V78.356L166.73 77.558H167.01V79.616H168.816V80.498H167.01ZM171.74 75.948V80.274C172.44 79.7233 173.191 79.448 173.994 79.448C174.619 79.448 175.114 79.6067 175.478 79.924C175.851 80.232 176.038 80.638 176.038 81.142V86H174.848V81.226C174.848 80.9833 174.75 80.7967 174.554 80.666C174.367 80.5353 174.115 80.47 173.798 80.47C173.135 80.47 172.449 80.708 171.74 81.184V86H170.55V75.948H171.74ZM181.782 82.178V81.562C181.782 80.806 181.39 80.428 180.606 80.428C179.99 80.428 179.346 80.6287 178.674 81.03L178.268 80.19C179.052 79.6953 179.897 79.448 180.802 79.448C181.437 79.448 181.955 79.6113 182.356 79.938C182.767 80.2553 182.972 80.75 182.972 81.422V86H182.216L181.866 85.16C181.568 85.468 181.213 85.7153 180.802 85.902C180.392 86.0793 180.018 86.168 179.682 86.168C179.104 86.168 178.642 86.0093 178.296 85.692C177.951 85.3747 177.778 84.9593 177.778 84.446C177.778 82.934 179.113 82.178 181.782 82.178ZM179.458 83.536C179.281 83.6947 179.16 83.8393 179.094 83.97C179.038 84.0913 179.01 84.2547 179.01 84.46C179.01 84.656 179.094 84.8287 179.262 84.978C179.44 85.118 179.668 85.188 179.948 85.188C180.536 85.188 181.148 84.9267 181.782 84.404V83.004C180.606 83.0227 179.832 83.2 179.458 83.536ZM186.635 80.498V84.334C186.635 84.894 186.901 85.174 187.433 85.174C187.741 85.174 188.11 85.0853 188.539 84.908L188.693 85.846C188.236 86.0607 187.755 86.168 187.251 86.168C186.747 86.168 186.327 86.0187 185.991 85.72C185.655 85.412 185.487 84.9453 185.487 84.32V80.498H184.605V79.616H185.487V78.356L186.355 77.558H186.635V79.616H188.441V80.498H186.635ZM197.785 82.178V81.562C197.785 80.806 197.393 80.428 196.609 80.428C195.993 80.428 195.349 80.6287 194.677 81.03L194.271 80.19C195.055 79.6953 195.899 79.448 196.805 79.448C197.439 79.448 197.957 79.6113 198.359 79.938C198.769 80.2553 198.975 80.75 198.975 81.422V86H198.219L197.869 85.16C197.57 85.468 197.215 85.7153 196.805 85.902C196.394 86.0793 196.021 86.168 195.685 86.168C195.106 86.168 194.644 86.0093 194.299 85.692C193.953 85.3747 193.781 84.9593 193.781 84.446C193.781 82.934 195.115 82.178 197.785 82.178ZM195.461 83.536C195.283 83.6947 195.162 83.8393 195.097 83.97C195.041 84.0913 195.013 84.2547 195.013 84.46C195.013 84.656 195.097 84.8287 195.265 84.978C195.442 85.118 195.671 85.188 195.951 85.188C196.539 85.188 197.15 84.9267 197.785 84.404V83.004C196.609 83.0227 195.834 83.2 195.461 83.536ZM205.263 79.616H206.019L206.369 80.736H206.425C206.938 80.0733 207.643 79.672 208.539 79.532L208.665 80.638C208.226 80.666 207.801 80.778 207.391 80.974C206.98 81.17 206.667 81.4313 206.453 81.758V86H205.263V79.616ZM212.521 85.188C213.193 85.188 213.865 84.9873 214.537 84.586L214.943 85.426C214.159 85.9207 213.319 86.168 212.423 86.168C211.536 86.168 210.831 85.888 210.309 85.328C209.786 84.7587 209.525 83.942 209.525 82.878C209.525 81.814 209.795 80.9787 210.337 80.372C210.878 79.756 211.597 79.448 212.493 79.448C213.305 79.448 213.944 79.7 214.411 80.204C214.607 80.4093 214.77 80.708 214.901 81.1C215.041 81.492 215.111 81.954 215.111 82.486L214.677 82.976H210.715C210.743 84.4507 211.345 85.188 212.521 85.188ZM213.935 82.094C213.935 81.5713 213.799 81.1513 213.529 80.834C213.258 80.5167 212.899 80.358 212.451 80.358C212.012 80.358 211.639 80.5167 211.331 80.834C211.023 81.142 210.836 81.562 210.771 82.094H213.935ZM220.356 82.178V81.562C220.356 80.806 219.964 80.428 219.18 80.428C218.564 80.428 217.92 80.6287 217.248 81.03L216.842 80.19C217.626 79.6953 218.47 79.448 219.376 79.448C220.01 79.448 220.528 79.6113 220.93 79.938C221.34 80.2553 221.546 80.75 221.546 81.422V86H220.79L220.44 85.16C220.141 85.468 219.786 85.7153 219.376 85.902C218.965 86.0793 218.592 86.168 218.256 86.168C217.677 86.168 217.215 86.0093 216.87 85.692C216.524 85.3747 216.352 84.9593 216.352 84.446C216.352 82.934 217.686 82.178 220.356 82.178ZM218.032 83.536C217.854 83.6947 217.733 83.8393 217.668 83.97C217.612 84.0913 217.584 84.2547 217.584 84.46C217.584 84.656 217.668 84.8287 217.836 84.978C218.013 85.118 218.242 85.188 218.522 85.188C219.11 85.188 219.721 84.9267 220.356 84.404V83.004C219.18 83.0227 218.405 83.2 218.032 83.536ZM228.078 75.948H229.226V86H228.47L228.12 85.16C227.42 85.832 226.697 86.168 225.95 86.168C225.213 86.168 224.602 85.8833 224.116 85.314C223.631 84.7353 223.388 83.956 223.388 82.976C223.388 81.996 223.678 81.1793 224.256 80.526C224.835 79.8633 225.582 79.532 226.496 79.532C226.991 79.532 227.518 79.644 228.078 79.868V75.948ZM226.79 80.484C226.09 80.484 225.549 80.722 225.166 81.198C224.784 81.674 224.592 82.2527 224.592 82.934C224.592 83.6153 224.751 84.1613 225.068 84.572C225.386 84.9827 225.796 85.188 226.3 85.188C226.58 85.188 226.879 85.1133 227.196 84.964C227.523 84.8053 227.817 84.5907 228.078 84.32V80.736C227.64 80.568 227.21 80.484 226.79 80.484ZM234.032 85.188C234.704 85.188 235.376 84.9873 236.048 84.586L236.454 85.426C235.67 85.9207 234.83 86.168 233.934 86.168C233.048 86.168 232.343 85.888 231.82 85.328C231.298 84.7587 231.036 83.942 231.036 82.878C231.036 81.814 231.307 80.9787 231.848 80.372C232.39 79.756 233.108 79.448 234.004 79.448C234.816 79.448 235.456 79.7 235.922 80.204C236.118 80.4093 236.282 80.708 236.412 81.1C236.552 81.492 236.622 81.954 236.622 82.486L236.188 82.976H232.226C232.254 84.4507 232.856 85.188 234.032 85.188ZM235.446 82.094C235.446 81.5713 235.311 81.1513 235.04 80.834C234.77 80.5167 234.41 80.358 233.962 80.358C233.524 80.358 233.15 80.5167 232.842 80.834C232.534 81.142 232.348 81.562 232.282 82.094H235.446ZM238.368 79.616H239.124L239.474 80.736H239.53C240.043 80.0733 240.748 79.672 241.644 79.532L241.77 80.638C241.331 80.666 240.906 80.778 240.496 80.974C240.085 81.17 239.772 81.4313 239.558 81.758V86H238.368V79.616ZM249.231 86H247.915L246.179 79.616H247.383L248.545 84.726H248.601L250.099 79.616H251.233L252.745 84.726H252.801L253.963 79.616H255.167L253.431 86H252.115L250.687 81.45H250.617L249.231 86ZM257.776 78.118C257.627 78.2673 257.445 78.342 257.23 78.342C257.015 78.342 256.833 78.2673 256.684 78.118C256.535 77.9593 256.46 77.7727 256.46 77.558C256.46 77.3433 256.535 77.1613 256.684 77.012C256.843 76.8533 257.025 76.774 257.23 76.774C257.435 76.774 257.613 76.8533 257.762 77.012C257.921 77.1613 258 77.3433 258 77.558C258 77.7727 257.925 77.9593 257.776 78.118ZM256.642 79.616H257.832V86H256.642V79.616ZM260.186 75.948H261.334V86H260.186V75.948ZM263.514 75.948H264.662V86H263.514V75.948ZM273.347 85.216C274.047 85.216 274.588 84.978 274.971 84.502C275.353 84.026 275.545 83.452 275.545 82.78C275.545 82.108 275.377 81.5713 275.041 81.17C274.705 80.7593 274.271 80.554 273.739 80.554C273.216 80.554 272.656 80.7127 272.059 81.03V84.964C272.497 85.132 272.927 85.216 273.347 85.216ZM272.059 75.948V80.134C272.768 79.7327 273.482 79.532 274.201 79.532C274.929 79.532 275.535 79.826 276.021 80.414C276.506 80.9927 276.749 81.7533 276.749 82.696C276.749 83.6387 276.464 84.4553 275.895 85.146C275.335 85.8273 274.532 86.168 273.487 86.168C272.684 86.168 271.825 85.9627 270.911 85.552V75.948H272.059ZM281.164 85.188C281.836 85.188 282.508 84.9873 283.18 84.586L283.586 85.426C282.802 85.9207 281.962 86.168 281.066 86.168C280.179 86.168 279.474 85.888 278.952 85.328C278.429 84.7587 278.168 83.942 278.168 82.878C278.168 81.814 278.438 80.9787 278.98 80.372C279.521 79.756 280.24 79.448 281.136 79.448C281.948 79.448 282.587 79.7 283.054 80.204C283.25 80.4093 283.413 80.708 283.544 81.1C283.684 81.492 283.754 81.954 283.754 82.486L283.32 82.976H279.358C279.386 84.4507 279.988 85.188 281.164 85.188ZM282.578 82.094C282.578 81.5713 282.442 81.1513 282.172 80.834C281.901 80.5167 281.542 80.358 281.094 80.358C280.655 80.358 280.282 80.5167 279.974 80.834C279.666 81.142 279.479 81.562 279.414 82.094H282.578ZM5.306 99.948H6.454V110H5.698L5.348 109.16C4.648 109.832 3.92467 110.168 3.178 110.168C2.44067 110.168 1.82933 109.883 1.344 109.314C0.858667 108.735 0.616 107.956 0.616 106.976C0.616 105.996 0.905333 105.179 1.484 104.526C2.06267 103.863 2.80933 103.532 3.724 103.532C4.21867 103.532 4.746 103.644 5.306 103.868V99.948ZM4.018 104.484C3.318 104.484 2.77667 104.722 2.394 105.198C2.01133 105.674 1.82 106.253 1.82 106.934C1.82 107.615 1.97867 108.161 2.296 108.572C2.61333 108.983 3.024 109.188 3.528 109.188C3.808 109.188 4.10667 109.113 4.424 108.964C4.75067 108.805 5.04467 108.591 5.306 108.32V104.736C4.86733 104.568 4.438 104.484 4.018 104.484ZM9.94416 102.118C9.79482 102.267 9.61282 102.342 9.39816 102.342C9.18349 102.342 9.00149 102.267 8.85216 102.118C8.70282 101.959 8.62816 101.773 8.62816 101.558C8.62816 101.343 8.70282 101.161 8.85216 101.012C9.01082 100.853 9.19282 100.774 9.39816 100.774C9.60349 100.774 9.78082 100.853 9.93016 101.012C10.0888 101.161 10.1682 101.343 10.1682 101.558C10.1682 101.773 10.0935 101.959 9.94416 102.118ZM8.81016 103.616H10.0002V110H8.81016V103.616ZM15.6858 104.736C15.2098 104.531 14.7618 104.428 14.3418 104.428C13.5298 104.428 13.1238 104.675 13.1238 105.17C13.1238 105.599 13.6651 106.015 14.7478 106.416C15.1491 106.565 15.5178 106.799 15.8538 107.116C16.1991 107.433 16.3718 107.816 16.3718 108.264C16.3718 108.908 16.1618 109.389 15.7418 109.706C15.3218 110.014 14.7385 110.168 13.9918 110.168C13.2451 110.168 12.5171 109.963 11.8078 109.552L12.1578 108.684C12.7458 109.02 13.4131 109.188 14.1598 109.188C14.4771 109.188 14.7338 109.123 14.9298 108.992C15.1258 108.852 15.2238 108.665 15.2238 108.432C15.2238 108.199 15.1118 107.998 14.8878 107.83C14.6638 107.662 14.3931 107.513 14.0758 107.382C13.7585 107.251 13.4411 107.111 13.1238 106.962C12.8065 106.803 12.5358 106.584 12.3118 106.304C12.0878 106.024 11.9758 105.693 11.9758 105.31C11.9758 104.713 12.1765 104.255 12.5778 103.938C12.9885 103.611 13.5065 103.448 14.1318 103.448C14.7571 103.448 15.3918 103.588 16.0358 103.868L15.6858 104.736ZM19.4908 104.498V108.334C19.4908 108.894 19.7568 109.174 20.2888 109.174C20.5968 109.174 20.9655 109.085 21.3948 108.908L21.5488 109.846C21.0915 110.061 20.6108 110.168 20.1068 110.168C19.6028 110.168 19.1828 110.019 18.8468 109.72C18.5108 109.412 18.3428 108.945 18.3428 108.32V104.498H17.4608V103.616H18.3428V102.356L19.2108 101.558H19.4908V103.616H21.2968V104.498H19.4908ZM23.087 103.616H23.843L24.193 104.736H24.249C24.7623 104.073 25.467 103.672 26.363 103.532L26.489 104.638C26.0503 104.666 25.6257 104.778 25.215 104.974C24.8043 105.17 24.4917 105.431 24.277 105.758V110H23.087V103.616ZM31.283 106.178V105.562C31.283 104.806 30.891 104.428 30.107 104.428C29.491 104.428 28.847 104.629 28.175 105.03L27.769 104.19C28.553 103.695 29.3977 103.448 30.303 103.448C30.9377 103.448 31.4557 103.611 31.857 103.938C32.2677 104.255 32.473 104.75 32.473 105.422V110H31.717L31.367 109.16C31.0683 109.468 30.7137 109.715 30.303 109.902C29.8923 110.079 29.519 110.168 29.183 110.168C28.6043 110.168 28.1423 110.009 27.797 109.692C27.4517 109.375 27.279 108.959 27.279 108.446C27.279 106.934 28.6137 106.178 31.283 106.178ZM28.959 107.536C28.7817 107.695 28.6603 107.839 28.595 107.97C28.539 108.091 28.511 108.255 28.511 108.46C28.511 108.656 28.595 108.829 28.763 108.978C28.9403 109.118 29.169 109.188 29.449 109.188C30.037 109.188 30.6483 108.927 31.283 108.404V107.004C30.107 107.023 29.3323 107.2 28.959 107.536ZM37.2135 103.448C37.8389 103.448 38.4735 103.588 39.1175 103.868L38.7675 104.736C38.2915 104.531 37.7829 104.428 37.2415 104.428C36.7095 104.428 36.2849 104.629 35.9675 105.03C35.6595 105.431 35.5055 106.019 35.5055 106.794C35.5055 107.569 35.6689 108.161 35.9955 108.572C36.3222 108.983 36.7515 109.188 37.2835 109.188C37.8155 109.188 38.3662 109.057 38.9355 108.796L39.2015 109.72C38.5482 110.019 37.8855 110.168 37.2135 110.168C36.3455 110.168 35.6362 109.855 35.0855 109.23C34.5442 108.595 34.2735 107.783 34.2735 106.794C34.2735 105.795 34.5442 104.988 35.0855 104.372C35.6362 103.756 36.3455 103.448 37.2135 103.448ZM42.1851 104.498V108.334C42.1851 108.894 42.4511 109.174 42.9831 109.174C43.2911 109.174 43.6597 109.085 44.0891 108.908L44.2431 109.846C43.7857 110.061 43.3051 110.168 42.8011 110.168C42.2971 110.168 41.8771 110.019 41.5411 109.72C41.2051 109.412 41.0371 108.945 41.0371 108.32V104.498H40.1551V103.616H41.0371V102.356L41.9051 101.558H42.1851V103.616H43.9911V104.498H42.1851ZM48.3432 109.188C49.0152 109.188 49.6872 108.987 50.3592 108.586L50.7652 109.426C49.9812 109.921 49.1412 110.168 48.2452 110.168C47.3585 110.168 46.6539 109.888 46.1312 109.328C45.6085 108.759 45.3472 107.942 45.3472 106.878C45.3472 105.814 45.6179 104.979 46.1592 104.372C46.7005 103.756 47.4192 103.448 48.3152 103.448C49.1272 103.448 49.7665 103.7 50.2332 104.204C50.4292 104.409 50.5925 104.708 50.7232 105.1C50.8632 105.492 50.9332 105.954 50.9332 106.486L50.4992 106.976H46.5372C46.5652 108.451 47.1672 109.188 48.3432 109.188ZM49.7572 106.094C49.7572 105.571 49.6219 105.151 49.3512 104.834C49.0805 104.517 48.7212 104.358 48.2732 104.358C47.8345 104.358 47.4612 104.517 47.1532 104.834C46.8452 105.142 46.6585 105.562 46.5932 106.094H49.7572ZM56.9764 99.948H58.1244V110H57.3684L57.0184 109.16C56.3184 109.832 55.5951 110.168 54.8484 110.168C54.1111 110.168 53.4997 109.883 53.0144 109.314C52.5291 108.735 52.2864 107.956 52.2864 106.976C52.2864 105.996 52.5757 105.179 53.1544 104.526C53.7331 103.863 54.4797 103.532 55.3944 103.532C55.8891 103.532 56.4164 103.644 56.9764 103.868V99.948ZM55.6884 104.484C54.9884 104.484 54.4471 104.722 54.0644 105.198C53.6817 105.674 53.4904 106.253 53.4904 106.934C53.4904 107.615 53.6491 108.161 53.9664 108.572C54.2837 108.983 54.6944 109.188 55.1984 109.188C55.4784 109.188 55.7771 109.113 56.0944 108.964C56.4211 108.805 56.7151 108.591 56.9764 108.32V104.736C56.5377 104.568 56.1084 104.484 55.6884 104.484ZM66.816 109.216C67.516 109.216 68.0573 108.978 68.44 108.502C68.8227 108.026 69.014 107.452 69.014 106.78C69.014 106.108 68.846 105.571 68.51 105.17C68.174 104.759 67.74 104.554 67.208 104.554C66.6853 104.554 66.1253 104.713 65.528 105.03V108.964C65.9667 109.132 66.396 109.216 66.816 109.216ZM65.528 99.948V104.134C66.2373 103.733 66.9513 103.532 67.67 103.532C68.398 103.532 69.0047 103.826 69.49 104.414C69.9753 104.993 70.218 105.753 70.218 106.696C70.218 107.639 69.9333 108.455 69.364 109.146C68.804 109.827 68.0013 110.168 66.956 110.168C66.1533 110.168 65.2947 109.963 64.38 109.552V99.948H65.528ZM74.3111 111.134C74.0031 112.03 73.7185 112.627 73.4571 112.926C73.2051 113.234 72.8271 113.388 72.3231 113.388C71.8191 113.388 71.2638 113.248 70.6571 112.968L71.0911 112.058C71.4925 112.273 71.8378 112.38 72.1271 112.38C72.3791 112.38 72.5471 112.338 72.6311 112.254L72.8131 112.072C72.9345 111.951 73.0418 111.741 73.1351 111.442C73.2285 111.143 73.3031 110.91 73.3591 110.742C73.4151 110.583 73.4571 110.457 73.4851 110.364L71.1471 103.616H72.3511L74.0031 108.726H74.0591L75.7111 103.616H76.9151L74.3111 111.134ZM83.7662 104.498V108.334C83.7662 108.894 84.0322 109.174 84.5642 109.174C84.8722 109.174 85.2408 109.085 85.6702 108.908L85.8242 109.846C85.3668 110.061 84.8862 110.168 84.3822 110.168C83.8782 110.168 83.4582 110.019 83.1222 109.72C82.7862 109.412 82.6182 108.945 82.6182 108.32V104.498H81.7362V103.616H82.6182V102.356L83.4862 101.558H83.7662V103.616H85.5722V104.498H83.7662ZM88.4963 99.948V104.274C89.1963 103.723 89.9476 103.448 90.7503 103.448C91.3756 103.448 91.8703 103.607 92.2343 103.924C92.6076 104.232 92.7943 104.638 92.7943 105.142V110H91.6043V105.226C91.6043 104.983 91.5063 104.797 91.3103 104.666C91.1236 104.535 90.8716 104.47 90.5543 104.47C89.8916 104.47 89.2056 104.708 88.4963 105.184V110H87.3063V99.948H88.4963ZM97.6008 109.188C98.2728 109.188 98.9448 108.987 99.6168 108.586L100.023 109.426C99.2388 109.921 98.3988 110.168 97.5028 110.168C96.6161 110.168 95.9115 109.888 95.3888 109.328C94.8661 108.759 94.6048 107.942 94.6048 106.878C94.6048 105.814 94.8755 104.979 95.4168 104.372C95.9581 103.756 96.6768 103.448 97.5728 103.448C98.3848 103.448 99.0241 103.7 99.4908 104.204C99.6868 104.409 99.8501 104.708 99.9808 105.1C100.121 105.492 100.191 105.954 100.191 106.486L99.7568 106.976H95.7948C95.8228 108.451 96.4248 109.188 97.6008 109.188ZM99.0148 106.094C99.0148 105.571 98.8795 105.151 98.6088 104.834C98.3381 104.517 97.9788 104.358 97.5308 104.358C97.0921 104.358 96.7188 104.517 96.4108 104.834C96.1028 105.142 95.9161 105.562 95.8508 106.094H99.0148ZM105.989 103.616H106.745L107.095 104.736H107.151C107.665 104.073 108.369 103.672 109.265 103.532L109.391 104.638C108.953 104.666 108.528 104.778 108.117 104.974C107.707 105.17 107.394 105.431 107.179 105.758V110H105.989V103.616ZM113.247 109.188C113.919 109.188 114.591 108.987 115.263 108.586L115.669 109.426C114.885 109.921 114.045 110.168 113.149 110.168C112.263 110.168 111.558 109.888 111.035 109.328C110.513 108.759 110.251 107.942 110.251 106.878C110.251 105.814 110.522 104.979 111.063 104.372C111.605 103.756 112.323 103.448 113.219 103.448C114.031 103.448 114.671 103.7 115.137 104.204C115.333 104.409 115.497 104.708 115.627 105.1C115.767 105.492 115.837 105.954 115.837 106.486L115.403 106.976H111.441C111.469 108.451 112.071 109.188 113.247 109.188ZM114.661 106.094C114.661 105.571 114.526 105.151 114.255 104.834C113.985 104.517 113.625 104.358 113.177 104.358C112.739 104.358 112.365 104.517 112.057 104.834C111.749 105.142 111.563 105.562 111.497 106.094H114.661ZM121.083 106.178V105.562C121.083 104.806 120.691 104.428 119.907 104.428C119.291 104.428 118.647 104.629 117.975 105.03L117.569 104.19C118.353 103.695 119.197 103.448 120.103 103.448C120.737 103.448 121.255 103.611 121.657 103.938C122.067 104.255 122.273 104.75 122.273 105.422V110H121.517L121.167 109.16C120.868 109.468 120.513 109.715 120.103 109.902C119.692 110.079 119.319 110.168 118.983 110.168C118.404 110.168 117.942 110.009 117.597 109.692C117.251 109.375 117.079 108.959 117.079 108.446C117.079 106.934 118.413 106.178 121.083 106.178ZM118.759 107.536C118.581 107.695 118.46 107.839 118.395 107.97C118.339 108.091 118.311 108.255 118.311 108.46C118.311 108.656 118.395 108.829 118.563 108.978C118.74 109.118 118.969 109.188 119.249 109.188C119.837 109.188 120.448 108.927 121.083 108.404V107.004C119.907 107.023 119.132 107.2 118.759 107.536ZM128.805 99.948H129.953V110H129.197L128.847 109.16C128.147 109.832 127.424 110.168 126.677 110.168C125.94 110.168 125.328 109.883 124.843 109.314C124.358 108.735 124.115 107.956 124.115 106.976C124.115 105.996 124.404 105.179 124.983 104.526C125.562 103.863 126.308 103.532 127.223 103.532C127.718 103.532 128.245 103.644 128.805 103.868V99.948ZM127.517 104.484C126.817 104.484 126.276 104.722 125.893 105.198C125.51 105.674 125.319 106.253 125.319 106.934C125.319 107.615 125.478 108.161 125.795 108.572C126.112 108.983 126.523 109.188 127.027 109.188C127.307 109.188 127.606 109.113 127.923 108.964C128.25 108.805 128.544 108.591 128.805 108.32V104.736C128.366 104.568 127.937 104.484 127.517 104.484ZM135.697 106.178V105.562C135.697 104.806 135.305 104.428 134.521 104.428C133.905 104.428 133.261 104.629 132.589 105.03L132.183 104.19C132.967 103.695 133.812 103.448 134.717 103.448C135.352 103.448 135.87 103.611 136.271 103.938C136.682 104.255 136.887 104.75 136.887 105.422V110H136.131L135.781 109.16C135.483 109.468 135.128 109.715 134.717 109.902C134.307 110.079 133.933 110.168 133.597 110.168C133.019 110.168 132.557 110.009 132.211 109.692C131.866 109.375 131.693 108.959 131.693 108.446C131.693 106.934 133.028 106.178 135.697 106.178ZM133.373 107.536C133.196 107.695 133.075 107.839 133.009 107.97C132.953 108.091 132.925 108.255 132.925 108.46C132.925 108.656 133.009 108.829 133.177 108.978C133.355 109.118 133.583 109.188 133.863 109.188C134.451 109.188 135.063 108.927 135.697 108.404V107.004C134.521 107.023 133.747 107.2 133.373 107.536ZM141.516 109.216C142.216 109.216 142.757 108.978 143.14 108.502C143.522 108.026 143.714 107.452 143.714 106.78C143.714 106.108 143.546 105.571 143.21 105.17C142.874 104.759 142.44 104.554 141.908 104.554C141.385 104.554 140.825 104.713 140.228 105.03V108.964C140.666 109.132 141.096 109.216 141.516 109.216ZM140.228 99.948V104.134C140.937 103.733 141.651 103.532 142.37 103.532C143.098 103.532 143.704 103.826 144.19 104.414C144.675 104.993 144.918 105.753 144.918 106.696C144.918 107.639 144.633 108.455 144.064 109.146C143.504 109.827 142.701 110.168 141.656 110.168C140.853 110.168 139.994 109.963 139.08 109.552V99.948H140.228ZM146.715 99.948H147.863V110H146.715V99.948ZM152.662 109.188C153.334 109.188 154.006 108.987 154.678 108.586L155.084 109.426C154.3 109.921 153.46 110.168 152.564 110.168C151.677 110.168 150.972 109.888 150.45 109.328C149.927 108.759 149.666 107.942 149.666 106.878C149.666 105.814 149.936 104.979 150.478 104.372C151.019 103.756 151.738 103.448 152.634 103.448C153.446 103.448 154.085 103.7 154.552 104.204C154.748 104.409 154.911 104.708 155.042 105.1C155.182 105.492 155.252 105.954 155.252 106.486L154.818 106.976H150.856C150.884 108.451 151.486 109.188 152.662 109.188ZM154.076 106.094C154.076 105.571 153.94 105.151 153.67 104.834C153.399 104.517 153.04 104.358 152.592 104.358C152.153 104.358 151.78 104.517 151.472 104.834C151.164 105.142 150.977 105.562 150.912 106.094H154.076ZM163.556 103.448C164.182 103.448 164.816 103.588 165.46 103.868L165.11 104.736C164.634 104.531 164.126 104.428 163.584 104.428C163.052 104.428 162.628 104.629 162.31 105.03C162.002 105.431 161.848 106.019 161.848 106.794C161.848 107.569 162.012 108.161 162.338 108.572C162.665 108.983 163.094 109.188 163.626 109.188C164.158 109.188 164.709 109.057 165.278 108.796L165.544 109.72C164.891 110.019 164.228 110.168 163.556 110.168C162.688 110.168 161.979 109.855 161.428 109.23C160.887 108.595 160.616 107.783 160.616 106.794C160.616 105.795 160.887 104.988 161.428 104.372C161.979 103.756 162.688 103.448 163.556 103.448ZM169.718 104.358C169.363 104.358 169.055 104.437 168.794 104.596C168.542 104.755 168.355 104.96 168.234 105.212C168.01 105.688 167.898 106.197 167.898 106.738C167.898 108.418 168.481 109.258 169.648 109.258C170.003 109.258 170.306 109.179 170.558 109.02C170.81 108.861 171.001 108.656 171.132 108.404C171.356 107.937 171.468 107.429 171.468 106.878C171.468 105.198 170.885 104.358 169.718 104.358ZM169.718 103.448C170.754 103.448 171.51 103.77 171.986 104.414C172.462 105.058 172.7 105.898 172.7 106.934C172.7 107.681 172.504 108.371 172.112 109.006C171.897 109.351 171.575 109.631 171.146 109.846C170.717 110.061 170.203 110.168 169.606 110.168C168.579 110.168 167.833 109.86 167.366 109.244C166.899 108.628 166.666 107.802 166.666 106.766C166.666 106.159 166.759 105.646 166.946 105.226C167.142 104.806 167.347 104.484 167.562 104.26C167.777 104.027 168.071 103.835 168.444 103.686C168.817 103.527 169.242 103.448 169.718 103.448ZM180.046 105.17V110H178.856V105.226C178.856 104.983 178.758 104.797 178.562 104.666C178.375 104.535 178.123 104.47 177.806 104.47C177.143 104.47 176.457 104.708 175.748 105.184V110H174.558V103.616H175.314L175.664 104.344C176.382 103.747 177.162 103.448 178.002 103.448C178.627 103.448 179.122 103.607 179.486 103.924C179.859 104.241 180.046 104.657 180.046 105.17ZM183.717 104.498V108.334C183.717 108.894 183.983 109.174 184.515 109.174C184.823 109.174 185.192 109.085 185.621 108.908L185.775 109.846C185.318 110.061 184.837 110.168 184.333 110.168C183.829 110.168 183.409 110.019 183.073 109.72C182.737 109.412 182.569 108.945 182.569 108.32V104.498H181.687V103.616H182.569V102.356L183.437 101.558H183.717V103.616H185.523V104.498H183.717ZM189.875 109.188C190.547 109.188 191.219 108.987 191.891 108.586L192.297 109.426C191.513 109.921 190.673 110.168 189.777 110.168C188.89 110.168 188.186 109.888 187.663 109.328C187.14 108.759 186.879 107.942 186.879 106.878C186.879 105.814 187.15 104.979 187.691 104.372C188.232 103.756 188.951 103.448 189.847 103.448C190.659 103.448 191.298 103.7 191.765 104.204C191.961 104.409 192.124 104.708 192.255 105.1C192.395 105.492 192.465 105.954 192.465 106.486L192.031 106.976H188.069C188.097 108.451 188.699 109.188 189.875 109.188ZM191.289 106.094C191.289 105.571 191.154 105.151 190.883 104.834C190.612 104.517 190.253 104.358 189.805 104.358C189.366 104.358 188.993 104.517 188.685 104.834C188.377 105.142 188.19 105.562 188.125 106.094H191.289ZM199.698 105.17V110H198.508V105.226C198.508 104.983 198.41 104.797 198.214 104.666C198.028 104.535 197.776 104.47 197.458 104.47C196.796 104.47 196.11 104.708 195.4 105.184V110H194.21V103.616H194.966L195.316 104.344C196.035 103.747 196.814 103.448 197.654 103.448C198.28 103.448 198.774 103.607 199.138 103.924C199.512 104.241 199.698 104.657 199.698 105.17ZM203.369 104.498V108.334C203.369 108.894 203.635 109.174 204.167 109.174C204.475 109.174 204.844 109.085 205.273 108.908L205.427 109.846C204.97 110.061 204.489 110.168 203.985 110.168C203.481 110.168 203.061 110.019 202.725 109.72C202.389 109.412 202.221 108.945 202.221 108.32V104.498H201.339V103.616H202.221V102.356L203.089 101.558H203.369V103.616H205.175V104.498H203.369ZM213.637 104.358C213.282 104.358 212.974 104.437 212.713 104.596C212.461 104.755 212.274 104.96 212.153 105.212C211.929 105.688 211.817 106.197 211.817 106.738C211.817 108.418 212.4 109.258 213.567 109.258C213.922 109.258 214.225 109.179 214.477 109.02C214.729 108.861 214.92 108.656 215.051 108.404C215.275 107.937 215.387 107.429 215.387 106.878C215.387 105.198 214.804 104.358 213.637 104.358ZM213.637 103.448C214.673 103.448 215.429 103.77 215.905 104.414C216.381 105.058 216.619 105.898 216.619 106.934C216.619 107.681 216.423 108.371 216.031 109.006C215.816 109.351 215.494 109.631 215.065 109.846C214.636 110.061 214.122 110.168 213.525 110.168C212.498 110.168 211.752 109.86 211.285 109.244C210.818 108.628 210.585 107.802 210.585 106.766C210.585 106.159 210.678 105.646 210.865 105.226C211.061 104.806 211.266 104.484 211.481 104.26C211.696 104.027 211.99 103.835 212.363 103.686C212.736 103.527 213.161 103.448 213.637 103.448ZM218.799 103.616V101.922C218.799 101.231 218.962 100.704 219.289 100.34C219.615 99.9667 220.04 99.78 220.563 99.78C221.095 99.78 221.659 99.92 222.257 100.2L221.851 101.04C221.44 100.872 221.085 100.788 220.787 100.788C220.227 100.788 219.947 101.161 219.947 101.908V103.616H221.683V104.498H219.947V110H218.799V104.498H217.847V103.616H218.799ZM230.644 106.178V105.562C230.644 104.806 230.252 104.428 229.468 104.428C228.852 104.428 228.208 104.629 227.536 105.03L227.13 104.19C227.914 103.695 228.759 103.448 229.664 103.448C230.299 103.448 230.817 103.611 231.218 103.938C231.629 104.255 231.834 104.75 231.834 105.422V110H231.078L230.728 109.16C230.429 109.468 230.075 109.715 229.664 109.902C229.253 110.079 228.88 110.168 228.544 110.168C227.965 110.168 227.503 110.009 227.158 109.692C226.813 109.375 226.64 108.959 226.64 108.446C226.64 106.934 227.975 106.178 230.644 106.178ZM228.32 107.536C228.143 107.695 228.021 107.839 227.956 107.97C227.9 108.091 227.872 108.255 227.872 108.46C227.872 108.656 227.956 108.829 228.124 108.978C228.301 109.118 228.53 109.188 228.81 109.188C229.398 109.188 230.009 108.927 230.644 108.404V107.004C229.468 107.023 228.693 107.2 228.32 107.536ZM240.572 109.216C241.272 109.216 241.813 108.978 242.196 108.502C242.579 108.026 242.77 107.447 242.77 106.766C242.77 106.075 242.602 105.52 242.266 105.1C241.939 104.68 241.487 104.47 240.908 104.47C240.684 104.47 240.418 104.535 240.11 104.666C239.802 104.797 239.527 104.969 239.284 105.184V108.964C239.723 109.132 240.152 109.216 240.572 109.216ZM239.284 113.22H238.122V103.616H238.878L239.2 104.344C239.881 103.747 240.605 103.448 241.37 103.448C242.135 103.448 242.761 103.747 243.246 104.344C243.731 104.941 243.974 105.721 243.974 106.682C243.974 107.634 243.689 108.455 243.12 109.146C242.56 109.827 241.757 110.168 240.712 110.168C240.245 110.168 239.769 110.103 239.284 109.972V113.22ZM249.353 106.178V105.562C249.353 104.806 248.961 104.428 248.177 104.428C247.561 104.428 246.917 104.629 246.245 105.03L245.839 104.19C246.623 103.695 247.468 103.448 248.373 103.448C249.008 103.448 249.526 103.611 249.927 103.938C250.338 104.255 250.543 104.75 250.543 105.422V110H249.787L249.437 109.16C249.139 109.468 248.784 109.715 248.373 109.902C247.963 110.079 247.589 110.168 247.253 110.168C246.675 110.168 246.213 110.009 245.867 109.692C245.522 109.375 245.349 108.959 245.349 108.446C245.349 106.934 246.684 106.178 249.353 106.178ZM247.029 107.536C246.852 107.695 246.731 107.839 246.665 107.97C246.609 108.091 246.581 108.255 246.581 108.46C246.581 108.656 246.665 108.829 246.833 108.978C247.011 109.118 247.239 109.188 247.519 109.188C248.107 109.188 248.719 108.927 249.353 108.404V107.004C248.177 107.023 247.403 107.2 247.029 107.536ZM254.864 108.194C254.649 108.194 254.444 108.18 254.248 108.152C254.014 108.6 253.898 108.894 253.898 109.034C253.898 109.099 253.982 109.155 254.15 109.202L255.858 109.58C256.651 109.757 257.216 109.963 257.552 110.196C257.888 110.439 258.056 110.793 258.056 111.26C258.056 111.727 257.892 112.119 257.566 112.436C256.931 113.071 255.998 113.388 254.766 113.388C254.01 113.388 253.356 113.248 252.806 112.968C252.255 112.688 251.98 112.287 251.98 111.764C251.98 111.241 252.353 110.639 253.1 109.958C252.82 109.855 252.68 109.701 252.68 109.496C252.68 109.291 252.955 108.782 253.506 107.97C252.703 107.625 252.302 106.901 252.302 105.8C252.302 105.184 252.516 104.647 252.946 104.19C253.384 103.723 254.024 103.49 254.864 103.49C255.349 103.49 255.774 103.56 256.138 103.7L258.098 103.476V104.414H257.048C257.29 104.806 257.412 105.305 257.412 105.912C257.412 106.509 257.197 107.041 256.768 107.508C256.338 107.965 255.704 108.194 254.864 108.194ZM256.292 106.01C256.292 104.853 255.82 104.274 254.878 104.274C254.504 104.274 254.201 104.372 253.968 104.568C253.604 104.885 253.422 105.282 253.422 105.758C253.422 106.225 253.534 106.617 253.758 106.934C253.982 107.251 254.341 107.41 254.836 107.41C255.33 107.41 255.694 107.261 255.928 106.962C256.17 106.654 256.292 106.337 256.292 106.01ZM253.1 111.582C253.1 111.881 253.263 112.109 253.59 112.268C253.916 112.427 254.341 112.506 254.864 112.506C255.386 112.506 255.872 112.399 256.32 112.184C256.768 111.979 256.992 111.694 256.992 111.33C256.992 111.143 256.884 110.989 256.67 110.868C256.455 110.756 256.082 110.644 255.55 110.532L253.912 110.168C253.37 110.709 253.1 111.181 253.1 111.582ZM262.182 109.188C262.854 109.188 263.526 108.987 264.198 108.586L264.604 109.426C263.82 109.921 262.98 110.168 262.084 110.168C261.198 110.168 260.493 109.888 259.97 109.328C259.448 108.759 259.186 107.942 259.186 106.878C259.186 105.814 259.457 104.979 259.998 104.372C260.54 103.756 261.258 103.448 262.154 103.448C262.966 103.448 263.606 103.7 264.072 104.204C264.268 104.409 264.432 104.708 264.562 105.1C264.702 105.492 264.772 105.954 264.772 106.486L264.338 106.976H260.376C260.404 108.451 261.006 109.188 262.182 109.188ZM263.596 106.094C263.596 105.571 263.461 105.151 263.19 104.834C262.92 104.517 262.56 104.358 262.112 104.358C261.674 104.358 261.3 104.517 260.992 104.834C260.684 105.142 260.498 105.562 260.432 106.094H263.596ZM267.175 109.916C267.035 110.056 266.863 110.126 266.657 110.126C266.452 110.126 266.279 110.056 266.139 109.916C265.999 109.767 265.929 109.585 265.929 109.37C265.929 109.155 265.999 108.978 266.139 108.838C266.279 108.698 266.452 108.628 266.657 108.628C266.863 108.628 267.035 108.698 267.175 108.838C267.325 108.978 267.399 109.155 267.399 109.37C267.399 109.585 267.325 109.767 267.175 109.916Z" fill="#9B9B9B"/>
<path d="M286.165 50.8946H278.537C279.98 49.9666 280.942 48.3464 280.942 46.4986C280.942 43.6127 278.597 41.2674 275.711 41.2674C272.817 41.2674 270.48 43.6128 270.48 46.4986C270.48 48.3464 271.433 49.9662 272.876 50.8946H249.977C251.419 49.9666 252.382 48.3464 252.382 46.4986C252.382 43.6127 250.036 41.2674 247.15 41.2674C244.256 41.2674 241.919 43.6128 241.919 46.4986C241.919 48.3464 242.872 49.9662 244.316 50.8946H234.123C233.659 50.8946 233.288 51.2741 233.288 51.7297C233.288 52.1854 233.659 52.5649 234.123 52.5649H286.165C286.629 52.5649 287 52.1854 287 51.7297C287 51.2741 286.629 50.8946 286.165 50.8946H286.165ZM275.702 44.3893C276.867 44.3893 277.812 45.3344 277.812 46.4986C277.812 47.6631 276.867 48.6078 275.702 48.6078C274.538 48.6078 273.593 47.6627 273.593 46.4986C273.585 45.334 274.538 44.3893 275.702 44.3893V44.3893ZM247.142 44.3893C248.306 44.3893 249.251 45.3344 249.251 46.4986C249.251 47.6631 248.306 48.6078 247.142 48.6078C245.977 48.6078 245.032 47.6627 245.032 46.4986C245.032 45.334 245.977 44.3893 247.142 44.3893Z" fill="#596B86"/>
<path d="M235.464 15.1451L242.577 15.2294C243.801 15.2461 244.804 14.2676 244.813 13.044C244.83 11.8203 243.842 10.8167 242.627 10.8081H242.594C242.602 10.7658 242.602 10.7405 242.602 10.6986C242.619 9.07019 241.311 7.73707 239.683 7.71181C238.096 7.6951 236.789 8.92689 236.704 10.4962C236.35 10.2938 235.953 10.1839 235.514 10.1757C234.148 10.1501 233.017 11.2556 233 12.6307C232.983 14.0062 234.089 15.1284 235.464 15.1451L235.464 15.1451Z" fill="#596B86"/>
<path d="M274.75 2.5649C275.214 2.5649 275.585 2.18539 275.585 1.72975V0.835155C275.585 0.370959 275.214 0 274.75 0C274.286 0 273.915 0.379511 273.915 0.835155V1.7212C273.906 2.18501 274.286 2.56491 274.75 2.56491V2.5649Z" fill="#596B86"/>
<path d="M271.45 2.83489C271.602 3.10486 271.889 3.25675 272.176 3.25675C272.319 3.25675 272.463 3.22295 272.598 3.1472C273.003 2.91957 273.138 2.40489 272.902 1.99974L272.454 1.22323C272.227 0.818087 271.712 0.683293 271.307 0.919468C270.902 1.1471 270.767 1.66178 271.003 2.06693L271.45 2.83489Z" fill="#596B86"/>
<path d="M269.104 4.58137L269.872 5.02032C270.008 5.09607 270.151 5.12987 270.294 5.12987C270.581 5.12987 270.868 4.97799 271.02 4.70801C271.248 4.30287 271.113 3.79672 270.716 3.56055L269.948 3.11345C269.543 2.87727 269.037 3.02061 268.801 3.41721C268.565 3.83052 268.7 4.34521 269.104 4.58138L269.104 4.58137Z" fill="#596B86"/>
<path d="M268.708 7.71181H269.594C270.058 7.71181 270.429 7.3323 270.429 6.87666C270.429 6.41246 270.058 6.0415 269.594 6.0415H268.708C268.244 6.0415 267.873 6.42101 267.873 6.87666C267.873 7.33192 268.244 7.71181 268.708 7.71181Z" fill="#596B86"/>
<path d="M276.901 3.13867C277.036 3.21441 277.179 3.24821 277.323 3.24821C277.61 3.24821 277.896 3.09633 278.048 2.82636L278.495 2.0584C278.723 1.65325 278.588 1.1471 278.192 0.910934C277.786 0.674759 277.28 0.818096 277.044 1.2147L276.597 1.98266C276.36 2.39596 276.496 2.9025 276.901 3.13868L276.901 3.13867Z" fill="#596B86"/>
<path d="M275.433 8.18416C275.062 7.97324 274.64 7.86369 274.184 7.86369C272.741 7.86369 271.577 9.03641 271.577 10.471C271.577 11.9055 272.75 13.0782 274.184 13.0782H281.643C282.926 13.0782 283.963 12.0403 283.963 10.7581C283.963 9.47545 282.917 8.43787 281.643 8.43787H281.609C281.618 8.39553 281.618 8.36212 281.618 8.31978C281.618 6.60709 280.226 5.22305 278.521 5.22305C276.859 5.23121 275.5 6.53867 275.433 8.18414L275.433 8.18416Z" fill="#596B86"/>
<path d="M271.425 6.86777C271.425 6.97731 271.442 7.0787 271.451 7.18824C272.193 6.57217 273.138 6.18407 274.176 6.18407H274.244C274.716 5.23899 275.492 4.47954 276.446 4.02389C275.948 3.72013 275.374 3.543 274.75 3.543C272.919 3.54339 271.425 5.03692 271.425 6.86775L271.425 6.86777Z" fill="#596B86"/>
<path d="M236.072 35.8082C236.072 35.1416 236.181 34.4918 236.401 33.8846L237.861 29.6828C237.473 29.4466 237.017 29.3114 236.536 29.3114C235.11 29.3114 233.954 30.4674 233.954 31.8934V39.2257C233.954 40.4913 234.874 41.5459 236.08 41.7568L236.08 35.8082L236.072 35.8082Z" fill="#596B86"/>
<path d="M240.746 26.4686L237.979 34.4505C237.827 34.8894 237.752 35.3532 237.752 35.8088V41.9851H241.928C243.194 40.5171 245.067 39.5887 247.151 39.5887C249.235 39.5887 251.108 40.5253 252.374 41.9851H270.489C271.755 40.5171 273.628 39.5887 275.712 39.5887C277.796 39.5887 279.669 40.5253 280.934 41.9851H283.837V39.4707C283.837 39.1502 283.803 38.8465 283.744 38.5427C283.339 36.5178 281.618 34.9566 279.492 34.8051L273.299 34.3661L268.371 25.7597C267.629 24.4771 266.262 23.6757 264.777 23.6757H244.662C242.89 23.6842 241.329 24.7979 240.747 26.4686L240.746 26.4686ZM255.571 27.6246C255.571 27.0932 256.002 26.6543 256.542 26.6543H264.76C265.182 26.6543 265.57 26.8819 265.781 27.2447L269.383 33.5391C269.755 34.189 269.291 34.9904 268.54 34.9904H256.542C256.011 34.9904 255.572 34.56 255.572 34.0201L255.571 27.6246ZM252.964 27.6246V34.0285C252.964 34.5599 252.534 34.9989 251.994 34.9989H242.299C241.633 34.9989 241.169 34.3408 241.388 33.7163L243.556 27.4471C243.717 26.9748 244.164 26.6625 244.661 26.6625H251.994C252.534 26.6543 252.964 27.0847 252.964 27.6246H252.964Z" fill="#596B86"/>
<path d="M282.613 46.4992C282.613 47.0392 282.545 47.5624 282.427 48.0685H284.469C285.034 48.0685 285.498 47.6129 285.498 47.0391V44.6937C285.498 44.1285 285.043 43.6642 284.469 43.6642H281.997C282.385 44.5332 282.613 45.4864 282.613 46.4991L282.613 46.4992Z" fill="#596B86"/>
<path d="M237.093 43.6642C236.528 43.6642 236.064 44.1198 236.064 44.6936V47.039C236.064 47.6042 236.519 48.0684 237.093 48.0684H240.417C240.299 47.5623 240.232 47.039 240.232 46.4992C240.232 45.4864 240.451 44.5332 240.848 43.6643L237.093 43.6642Z" fill="#596B86"/>
<path d="M253.444 43.6642C253.832 44.5331 254.06 45.4867 254.06 46.4991C254.06 47.039 253.993 47.5622 253.875 48.0683H268.986C268.868 47.5622 268.8 47.0389 268.8 46.4991C268.8 45.4863 269.02 44.5331 269.416 43.6642H253.444Z" fill="#596B86"/>
<path d="M6.82031 26.8672C9.03125 26.8672 10.6445 27.3008 11.6602 28.168C12.6836 29.0273 13.1953 30.2617 13.1953 31.8711C13.1953 32.5977 13.0742 33.2891 12.832 33.9453C12.5977 34.5938 12.2148 35.168 11.6836 35.668C11.1523 36.1602 10.4531 36.5508 9.58594 36.8398C8.72656 37.1211 7.67188 37.2617 6.42188 37.2617H4.33594V44H2.34375V26.8672H6.82031ZM6.63281 28.5664H4.33594V35.5508H6.19922C7.29297 35.5508 8.20312 35.4336 8.92969 35.1992C9.66406 34.9648 10.2148 34.5859 10.582 34.0625C10.9492 33.5312 11.1328 32.8281 11.1328 31.9531C11.1328 30.8125 10.7695 29.9648 10.043 29.4102C9.31641 28.8477 8.17969 28.5664 6.63281 28.5664ZM18.4336 31.1562V44H16.4883V31.1562H18.4336ZM17.4844 26.3516C17.8047 26.3516 18.0781 26.457 18.3047 26.668C18.5391 26.8711 18.6562 27.1914 18.6562 27.6289C18.6562 28.0586 18.5391 28.3789 18.3047 28.5898C18.0781 28.8008 17.8047 28.9062 17.4844 28.9062C17.1484 28.9062 16.8672 28.8008 16.6406 28.5898C16.4219 28.3789 16.3125 28.0586 16.3125 27.6289C16.3125 27.1914 16.4219 26.8711 16.6406 26.668C16.8672 26.457 17.1484 26.3516 17.4844 26.3516ZM27.7031 44.2344C26.5469 44.2344 25.5273 43.9961 24.6445 43.5195C23.7617 43.043 23.0742 42.3164 22.582 41.3398C22.0898 40.3633 21.8438 39.1328 21.8438 37.6484C21.8438 36.0938 22.1016 34.8242 22.6172 33.8398C23.1406 32.8477 23.8594 32.1133 24.7734 31.6367C25.6875 31.1602 26.7266 30.9219 27.8906 30.9219C28.5312 30.9219 29.1484 30.9883 29.7422 31.1211C30.3438 31.2461 30.8359 31.4062 31.2188 31.6016L30.6328 33.2305C30.2422 33.0742 29.7891 32.9336 29.2734 32.8086C28.7656 32.6836 28.2891 32.6211 27.8438 32.6211C26.9531 32.6211 26.2109 32.8125 25.6172 33.1953C25.0312 33.5781 24.5898 34.1406 24.293 34.8828C24.0039 35.625 23.8594 36.5391 23.8594 37.625C23.8594 38.6641 24 39.5508 24.2812 40.2852C24.5703 41.0195 24.9961 41.582 25.5586 41.9727C26.1289 42.3555 26.8398 42.5469 27.6914 42.5469C28.3711 42.5469 28.9844 42.4766 29.5312 42.3359C30.0781 42.1875 30.5742 42.0156 31.0195 41.8203V43.5547C30.5898 43.7734 30.1094 43.9414 29.5781 44.0586C29.0547 44.1758 28.4297 44.2344 27.7031 44.2344ZM36 25.7656V35.2344C36 35.5469 35.9883 35.9297 35.9648 36.3828C35.9414 36.8281 35.9219 37.2227 35.9062 37.5664H35.9883C36.1523 37.3633 36.3906 37.0625 36.7031 36.6641C37.0234 36.2656 37.293 35.9453 37.5117 35.7031L41.7773 31.1562H44.0625L38.8945 36.6406L44.4375 44H42.0938L37.5586 37.918L36 39.3477V44H34.0664V25.7656H36ZM63.5156 31.1562V44H61.9219L61.6406 42.1953H61.5352C61.2695 42.6406 60.9258 43.0156 60.5039 43.3203C60.082 43.625 59.6055 43.8516 59.0742 44C58.5508 44.1562 57.9922 44.2344 57.3984 44.2344C56.3828 44.2344 55.5312 44.0703 54.8438 43.7422C54.1562 43.4141 53.6367 42.9062 53.2852 42.2188C52.9414 41.5312 52.7695 40.6484 52.7695 39.5703V31.1562H54.7383V39.4297C54.7383 40.5 54.9805 41.3008 55.4648 41.832C55.9492 42.3555 56.6875 42.6172 57.6797 42.6172C58.6328 42.6172 59.3906 42.4375 59.9531 42.0781C60.5234 41.7188 60.9336 41.1914 61.1836 40.4961C61.4336 39.793 61.5586 38.9336 61.5586 37.918V31.1562H63.5156ZM73.6641 30.9219C75.2656 30.9219 76.543 31.4727 77.4961 32.5742C78.4492 33.6758 78.9258 35.332 78.9258 37.543C78.9258 39.0039 78.707 40.2305 78.2695 41.2227C77.832 42.2148 77.2148 42.9648 76.418 43.4727C75.6289 43.9805 74.6953 44.2344 73.6172 44.2344C72.9375 44.2344 72.3398 44.1445 71.8242 43.9648C71.3086 43.7852 70.8672 43.543 70.5 43.2383C70.1328 42.9336 69.8281 42.6016 69.5859 42.2422H69.4453C69.4688 42.5469 69.4961 42.9141 69.5273 43.3438C69.5664 43.7734 69.5859 44.1484 69.5859 44.4688V49.7422H67.6289V31.1562H69.2344L69.4922 33.0547H69.5859C69.8359 32.6641 70.1406 32.3086 70.5 31.9883C70.8594 31.6602 71.2969 31.4023 71.8125 31.2148C72.3359 31.0195 72.9531 30.9219 73.6641 30.9219ZM73.3242 32.5625C72.4336 32.5625 71.7148 32.7344 71.168 33.0781C70.6289 33.4219 70.2344 33.9375 69.9844 34.625C69.7344 35.3047 69.6016 36.1602 69.5859 37.1914V37.5664C69.5859 38.6523 69.7031 39.5703 69.9375 40.3203C70.1797 41.0703 70.5742 41.6406 71.1211 42.0312C71.6758 42.4219 72.418 42.6172 73.3477 42.6172C74.1445 42.6172 74.8086 42.4023 75.3398 41.9727C75.8711 41.543 76.2656 40.9453 76.5234 40.1797C76.7891 39.4062 76.9219 38.5195 76.9219 37.5195C76.9219 36.0039 76.625 34.8008 76.0312 33.9102C75.4453 33.0117 74.543 32.5625 73.3242 32.5625ZM93.8086 26.5977C94.6523 26.5977 95.3789 26.7461 95.9883 27.043C96.6055 27.332 97.0781 27.75 97.4062 28.2969C97.7422 28.8438 97.9102 29.5039 97.9102 30.2773C97.9102 31.293 97.5781 32.1523 96.9141 32.8555C96.2578 33.5586 95.4219 34.1992 94.4062 34.7773L99.1641 39.3945C99.5938 38.8945 99.9453 38.3164 100.219 37.6602C100.492 36.9961 100.723 36.2773 100.91 35.5039H102.879C102.629 36.5352 102.305 37.4844 101.906 38.3516C101.516 39.2188 101.023 39.9805 100.43 40.6367L103.863 44H101.227L99.1055 41.9258C98.6055 42.3867 98.0664 42.793 97.4883 43.1445C96.918 43.4883 96.2812 43.7578 95.5781 43.9531C94.8828 44.1406 94.0859 44.2344 93.1875 44.2344C92.0938 44.2344 91.1445 44.0547 90.3398 43.6953C89.5352 43.3359 88.9102 42.8086 88.4648 42.1133C88.0273 41.418 87.8086 40.5664 87.8086 39.5586C87.8086 38.7305 87.9609 38.0195 88.2656 37.4258C88.5703 36.832 89.0039 36.3047 89.5664 35.8438C90.1289 35.3828 90.8008 34.9336 91.582 34.4961C91.2148 34.0898 90.8672 33.6797 90.5391 33.2656C90.2109 32.8438 89.9453 32.3945 89.7422 31.918C89.5391 31.4336 89.4375 30.9023 89.4375 30.3242C89.4375 29.543 89.6133 28.875 89.9648 28.3203C90.3242 27.7656 90.8281 27.3398 91.4766 27.043C92.1328 26.7461 92.9102 26.5977 93.8086 26.5977ZM92.7539 35.7266C92.1445 36.0781 91.6211 36.4258 91.1836 36.7695C90.7539 37.1133 90.4219 37.5 90.1875 37.9297C89.9609 38.3594 89.8477 38.8789 89.8477 39.4883C89.8477 40.4023 90.1562 41.1367 90.7734 41.6914C91.3906 42.2383 92.2148 42.5117 93.2461 42.5117C94.3086 42.5117 95.2109 42.3359 95.9531 41.9844C96.7031 41.6328 97.3398 41.207 97.8633 40.707L92.7539 35.7266ZM93.7383 28.2031C93.0273 28.2031 92.4492 28.3906 92.0039 28.7656C91.5664 29.1328 91.3477 29.6484 91.3477 30.3125C91.3477 30.9062 91.5078 31.4531 91.8281 31.9531C92.1484 32.4531 92.6055 33.0078 93.1992 33.6172C94.1758 33.0781 94.8828 32.5586 95.3203 32.0586C95.7656 31.5508 95.9883 30.957 95.9883 30.2773C95.9883 29.6602 95.7812 29.1602 95.3672 28.7773C94.9609 28.3945 94.418 28.2031 93.7383 28.2031ZM126.176 35.2695C126.176 37.1992 125.824 38.8125 125.121 40.1094C124.418 41.3984 123.398 42.3711 122.062 43.0273C120.734 43.6758 119.121 44 117.223 44H112.57V26.8672H117.738C119.48 26.8672 120.98 27.1875 122.238 27.8281C123.496 28.4609 124.465 29.4023 125.145 30.6523C125.832 31.8945 126.176 33.4336 126.176 35.2695ZM124.078 35.3398C124.078 33.8008 123.82 32.5312 123.305 31.5312C122.797 30.5312 122.047 29.7891 121.055 29.3047C120.07 28.8125 118.863 28.5664 117.434 28.5664H114.562V42.2891H116.988C119.348 42.2891 121.117 41.707 122.297 40.543C123.484 39.3789 124.078 37.6445 124.078 35.3398ZM135.527 30.9219C135.785 30.9219 136.055 30.9375 136.336 30.9688C136.617 30.9922 136.867 31.0273 137.086 31.0742L136.84 32.8789C136.629 32.8242 136.395 32.7812 136.137 32.75C135.879 32.7188 135.637 32.7031 135.41 32.7031C134.895 32.7031 134.406 32.8086 133.945 33.0195C133.492 33.2227 133.094 33.5195 132.75 33.9102C132.406 34.293 132.137 34.7578 131.941 35.3047C131.746 35.8438 131.648 36.4453 131.648 37.1094V44H129.691V31.1562H131.309L131.52 33.5234H131.602C131.867 33.0469 132.188 32.6133 132.562 32.2227C132.938 31.8242 133.371 31.5078 133.863 31.2734C134.363 31.0391 134.918 30.9219 135.527 30.9219ZM150.586 37.5547C150.586 38.6094 150.449 39.5508 150.176 40.3789C149.902 41.207 149.508 41.9062 148.992 42.4766C148.477 43.0469 147.852 43.4844 147.117 43.7891C146.391 44.0859 145.566 44.2344 144.645 44.2344C143.785 44.2344 142.996 44.0859 142.277 43.7891C141.566 43.4844 140.949 43.0469 140.426 42.4766C139.91 41.9062 139.508 41.207 139.219 40.3789C138.938 39.5508 138.797 38.6094 138.797 37.5547C138.797 36.1484 139.035 34.9531 139.512 33.9688C139.988 32.9766 140.668 32.2227 141.551 31.707C142.441 31.1836 143.5 30.9219 144.727 30.9219C145.898 30.9219 146.922 31.1836 147.797 31.707C148.68 32.2305 149.363 32.9883 149.848 33.9805C150.34 34.9648 150.586 36.1562 150.586 37.5547ZM140.812 37.5547C140.812 38.5859 140.949 39.4805 141.223 40.2383C141.496 40.9961 141.918 41.582 142.488 41.9961C143.059 42.4102 143.793 42.6172 144.691 42.6172C145.582 42.6172 146.312 42.4102 146.883 41.9961C147.461 41.582 147.887 40.9961 148.16 40.2383C148.434 39.4805 148.57 38.5859 148.57 37.5547C148.57 36.5312 148.434 35.6484 148.16 34.9062C147.887 34.1562 147.465 33.5781 146.895 33.1719C146.324 32.7656 145.586 32.5625 144.68 32.5625C143.344 32.5625 142.363 33.0039 141.738 33.8867C141.121 34.7695 140.812 35.9922 140.812 37.5547ZM159.984 30.9219C161.586 30.9219 162.863 31.4727 163.816 32.5742C164.77 33.6758 165.246 35.332 165.246 37.543C165.246 39.0039 165.027 40.2305 164.59 41.2227C164.152 42.2148 163.535 42.9648 162.738 43.4727C161.949 43.9805 161.016 44.2344 159.938 44.2344C159.258 44.2344 158.66 44.1445 158.145 43.9648C157.629 43.7852 157.188 43.543 156.82 43.2383C156.453 42.9336 156.148 42.6016 155.906 42.2422H155.766C155.789 42.5469 155.816 42.9141 155.848 43.3438C155.887 43.7734 155.906 44.1484 155.906 44.4688V49.7422H153.949V31.1562H155.555L155.812 33.0547H155.906C156.156 32.6641 156.461 32.3086 156.82 31.9883C157.18 31.6602 157.617 31.4023 158.133 31.2148C158.656 31.0195 159.273 30.9219 159.984 30.9219ZM159.645 32.5625C158.754 32.5625 158.035 32.7344 157.488 33.0781C156.949 33.4219 156.555 33.9375 156.305 34.625C156.055 35.3047 155.922 36.1602 155.906 37.1914V37.5664C155.906 38.6523 156.023 39.5703 156.258 40.3203C156.5 41.0703 156.895 41.6406 157.441 42.0312C157.996 42.4219 158.738 42.6172 159.668 42.6172C160.465 42.6172 161.129 42.4023 161.66 41.9727C162.191 41.543 162.586 40.9453 162.844 40.1797C163.109 39.4062 163.242 38.5195 163.242 37.5195C163.242 36.0039 162.945 34.8008 162.352 33.9102C161.766 33.0117 160.863 32.5625 159.645 32.5625Z" fill="#131313"/>
</svg>
