<svg width="249" height="39" viewBox="0 0 249 39" fill="none" xmlns="http://www.w3.org/2000/svg">
<path d="M0.05 11V1.326H1.254V9.936H5.356V11H0.05ZM9.33178 5.358C8.97711 5.358 8.66911 5.43733 8.40778 5.596C8.15578 5.75467 7.96911 5.96 7.84778 6.212C7.62378 6.688 7.51178 7.19667 7.51178 7.738C7.51178 9.418 8.09511 10.258 9.26178 10.258C9.61645 10.258 9.91978 10.1787 10.1718 10.02C10.4238 9.86133 10.6151 9.656 10.7458 9.404C10.9698 8.93733 11.0818 8.42867 11.0818 7.878C11.0818 6.198 10.4984 5.358 9.33178 5.358ZM9.33178 4.448C10.3678 4.448 11.1238 4.77 11.5998 5.414C12.0758 6.058 12.3138 6.898 12.3138 7.934C12.3138 8.68067 12.1178 9.37133 11.7258 10.006C11.5111 10.3513 11.1891 10.6313 10.7598 10.846C10.3304 11.0607 9.81712 11.168 9.21978 11.168C8.19311 11.168 7.44645 10.86 6.97978 10.244C6.51311 9.628 6.27978 8.802 6.27978 7.766C6.27978 7.15933 6.37311 6.646 6.55978 6.226C6.75578 5.806 6.96111 5.484 7.17578 5.26C7.39045 5.02667 7.68445 4.83533 8.05778 4.686C8.43111 4.52733 8.85578 4.448 9.33178 4.448ZM14.1715 4.616H14.9275L15.2775 5.736H15.3335C15.8468 5.07333 16.5515 4.672 17.4475 4.532L17.5735 5.638C17.1348 5.666 16.7102 5.778 16.2995 5.974C15.8888 6.17 15.5762 6.43133 15.3615 6.758V11H14.1715V4.616ZM21.4295 10.188C22.1015 10.188 22.7735 9.98733 23.4455 9.586L23.8515 10.426C23.0675 10.9207 22.2275 11.168 21.3315 11.168C20.4449 11.168 19.7402 10.888 19.2175 10.328C18.6949 9.75867 18.4335 8.942 18.4335 7.878C18.4335 6.814 18.7042 5.97867 19.2455 5.372C19.7869 4.756 20.5055 4.448 21.4015 4.448C22.2135 4.448 22.8529 4.7 23.3195 5.204C23.5155 5.40933 23.6789 5.708 23.8095 6.1C23.9495 6.492 24.0195 6.954 24.0195 7.486L23.5855 7.976H19.6235C19.6515 9.45067 20.2535 10.188 21.4295 10.188ZM22.8435 7.094C22.8435 6.57133 22.7082 6.15133 22.4375 5.834C22.1669 5.51667 21.8075 5.358 21.3595 5.358C20.9209 5.358 20.5475 5.51667 20.2395 5.834C19.9315 6.142 19.7449 6.562 19.6795 7.094H22.8435ZM26.8707 5.344C27.5614 4.74667 28.3267 4.448 29.1667 4.448C30.0067 4.448 30.5807 4.77467 30.8887 5.428C31.6261 4.77467 32.4007 4.448 33.2127 4.448C33.8101 4.448 34.2814 4.60667 34.6267 4.924C34.9814 5.24133 35.1587 5.65667 35.1587 6.17V11H33.9687V6.226C33.9687 5.98333 33.8801 5.79667 33.7027 5.666C33.5254 5.53533 33.2874 5.47 32.9887 5.47C32.3821 5.47 31.7334 5.71733 31.0427 6.212V11H29.8527V6.226C29.8527 5.98333 29.7641 5.79667 29.5867 5.666C29.4094 5.53533 29.1714 5.47 28.8727 5.47C28.2474 5.47 27.6081 5.708 26.9547 6.184V11H25.7647V4.616H26.5207L26.8707 5.344ZM41.6278 11V1.326H42.8318V11H41.6278ZM47.7578 10.216C48.4578 10.216 48.9992 9.978 49.3818 9.502C49.7645 9.026 49.9558 8.44733 49.9558 7.766C49.9558 7.07533 49.7878 6.52 49.4518 6.1C49.1252 5.68 48.6725 5.47 48.0938 5.47C47.8698 5.47 47.6038 5.53533 47.2958 5.666C46.9878 5.79667 46.7125 5.96933 46.4698 6.184V9.964C46.9085 10.132 47.3378 10.216 47.7578 10.216ZM46.4698 14.22H45.3078V4.616H46.0638L46.3858 5.344C47.0672 4.74667 47.7905 4.448 48.5558 4.448C49.3212 4.448 49.9465 4.74667 50.4318 5.344C50.9172 5.94133 51.1598 6.72067 51.1598 7.682C51.1598 8.634 50.8752 9.45533 50.3058 10.146C49.7458 10.8273 48.9432 11.168 47.8978 11.168C47.4312 11.168 46.9552 11.1027 46.4698 10.972V14.22ZM56.315 5.736C55.839 5.53067 55.391 5.428 54.971 5.428C54.159 5.428 53.753 5.67533 53.753 6.17C53.753 6.59933 54.2944 7.01467 55.377 7.416C55.7784 7.56533 56.147 7.79867 56.483 8.116C56.8284 8.43333 57.001 8.816 57.001 9.264C57.001 9.908 56.791 10.3887 56.371 10.706C55.951 11.014 55.3677 11.168 54.621 11.168C53.8744 11.168 53.1464 10.9627 52.437 10.552L52.787 9.684C53.375 10.02 54.0424 10.188 54.789 10.188C55.1064 10.188 55.363 10.1227 55.559 9.992C55.755 9.852 55.853 9.66533 55.853 9.432C55.853 9.19867 55.741 8.998 55.517 8.83C55.293 8.662 55.0224 8.51267 54.705 8.382C54.3877 8.25133 54.0704 8.11133 53.753 7.962C53.4357 7.80333 53.165 7.584 52.941 7.304C52.717 7.024 52.605 6.69267 52.605 6.31C52.605 5.71267 52.8057 5.25533 53.207 4.938C53.6177 4.61133 54.1357 4.448 54.761 4.448C55.3864 4.448 56.021 4.588 56.665 4.868L56.315 5.736ZM59.8261 4.616V9.362C59.8261 9.62333 59.9194 9.82867 60.1061 9.978C60.3021 10.118 60.5541 10.188 60.8621 10.188C61.5247 10.188 62.2061 9.92667 62.9061 9.404V4.616H64.0961V11H63.3401L62.9901 10.16C62.2714 10.832 61.4734 11.168 60.5961 11.168C60.0361 11.168 59.5694 11.0187 59.1961 10.72C58.8227 10.4213 58.6361 9.98733 58.6361 9.418V4.616H59.8261ZM67.5019 5.344C68.1926 4.74667 68.9579 4.448 69.7979 4.448C70.6379 4.448 71.2119 4.77467 71.5199 5.428C72.2572 4.77467 73.0319 4.448 73.8439 4.448C74.4412 4.448 74.9126 4.60667 75.2579 4.924C75.6126 5.24133 75.7899 5.65667 75.7899 6.17V11H74.5999V6.226C74.5999 5.98333 74.5112 5.79667 74.3339 5.666C74.1566 5.53533 73.9186 5.47 73.6199 5.47C73.0132 5.47 72.3646 5.71733 71.6739 6.212V11H70.4839V6.226C70.4839 5.98333 70.3952 5.79667 70.2179 5.666C70.0406 5.53533 69.8026 5.47 69.5039 5.47C68.8786 5.47 68.2392 5.708 67.5859 6.184V11H66.3959V4.616H67.1519L67.5019 5.344ZM83.323 3.118C83.1737 3.26733 82.9917 3.342 82.777 3.342C82.5623 3.342 82.3803 3.26733 82.231 3.118C82.0817 2.95933 82.007 2.77267 82.007 2.558C82.007 2.34333 82.0817 2.16133 82.231 2.012C82.3897 1.85333 82.5717 1.774 82.777 1.774C82.9823 1.774 83.1597 1.85333 83.309 2.012C83.4677 2.16133 83.547 2.34333 83.547 2.558C83.547 2.77267 83.4723 2.95933 83.323 3.118ZM82.189 4.616H83.379V11H82.189V4.616ZM89.0646 5.736C88.5886 5.53067 88.1406 5.428 87.7206 5.428C86.9086 5.428 86.5026 5.67533 86.5026 6.17C86.5026 6.59933 87.044 7.01467 88.1266 7.416C88.528 7.56533 88.8966 7.79867 89.2326 8.116C89.578 8.43333 89.7506 8.816 89.7506 9.264C89.7506 9.908 89.5406 10.3887 89.1206 10.706C88.7006 11.014 88.1173 11.168 87.3706 11.168C86.624 11.168 85.896 10.9627 85.1866 10.552L85.5366 9.684C86.1246 10.02 86.792 10.188 87.5386 10.188C87.856 10.188 88.1126 10.1227 88.3086 9.992C88.5046 9.852 88.6026 9.66533 88.6026 9.432C88.6026 9.19867 88.4906 8.998 88.2666 8.83C88.0426 8.662 87.772 8.51267 87.4546 8.382C87.1373 8.25133 86.82 8.11133 86.5026 7.962C86.1853 7.80333 85.9146 7.584 85.6906 7.304C85.4666 7.024 85.3546 6.69267 85.3546 6.31C85.3546 5.71267 85.5553 5.25533 85.9566 4.938C86.3673 4.61133 86.8853 4.448 87.5106 4.448C88.136 4.448 88.7706 4.588 89.4146 4.868L89.0646 5.736ZM98.7711 5.736C98.2951 5.53067 97.8471 5.428 97.4271 5.428C96.6151 5.428 96.2091 5.67533 96.2091 6.17C96.2091 6.59933 96.7504 7.01467 97.8331 7.416C98.2344 7.56533 98.6031 7.79867 98.9391 8.116C99.2844 8.43333 99.4571 8.816 99.4571 9.264C99.4571 9.908 99.2471 10.3887 98.8271 10.706C98.4071 11.014 97.8238 11.168 97.0771 11.168C96.3304 11.168 95.6024 10.9627 94.8931 10.552L95.2431 9.684C95.8311 10.02 96.4984 10.188 97.2451 10.188C97.5624 10.188 97.8191 10.1227 98.0151 9.992C98.2111 9.852 98.3091 9.66533 98.3091 9.432C98.3091 9.19867 98.1971 8.998 97.9731 8.83C97.7491 8.662 97.4784 8.51267 97.1611 8.382C96.8438 8.25133 96.5264 8.11133 96.2091 7.962C95.8918 7.80333 95.6211 7.584 95.3971 7.304C95.1731 7.024 95.0611 6.69267 95.0611 6.31C95.0611 5.71267 95.2618 5.25533 95.6631 4.938C96.0738 4.61133 96.5918 4.448 97.2171 4.448C97.8424 4.448 98.4771 4.588 99.1211 4.868L98.7711 5.736ZM102.394 3.118C102.245 3.26733 102.063 3.342 101.848 3.342C101.633 3.342 101.451 3.26733 101.302 3.118C101.153 2.95933 101.078 2.77267 101.078 2.558C101.078 2.34333 101.153 2.16133 101.302 2.012C101.461 1.85333 101.643 1.774 101.848 1.774C102.053 1.774 102.231 1.85333 102.38 2.012C102.539 2.16133 102.618 2.34333 102.618 2.558C102.618 2.77267 102.543 2.95933 102.394 3.118ZM101.26 4.616H102.45V11H101.26V4.616ZM105.966 5.344C106.656 4.74667 107.422 4.448 108.262 4.448C109.102 4.448 109.676 4.77467 109.984 5.428C110.721 4.77467 111.496 4.448 112.308 4.448C112.905 4.448 113.376 4.60667 113.722 4.924C114.076 5.24133 114.254 5.65667 114.254 6.17V11H113.064V6.226C113.064 5.98333 112.975 5.79667 112.798 5.666C112.62 5.53533 112.382 5.47 112.084 5.47C111.477 5.47 110.828 5.71733 110.138 6.212V11H108.948V6.226C108.948 5.98333 108.859 5.79667 108.682 5.666C108.504 5.53533 108.266 5.47 107.968 5.47C107.342 5.47 106.703 5.708 106.05 6.184V11H104.86V4.616H105.616L105.966 5.344ZM118.937 10.216C119.637 10.216 120.179 9.978 120.561 9.502C120.944 9.026 121.135 8.44733 121.135 7.766C121.135 7.07533 120.967 6.52 120.631 6.1C120.305 5.68 119.852 5.47 119.273 5.47C119.049 5.47 118.783 5.53533 118.475 5.666C118.167 5.79667 117.892 5.96933 117.649 6.184V9.964C118.088 10.132 118.517 10.216 118.937 10.216ZM117.649 14.22H116.487V4.616H117.243L117.565 5.344C118.247 4.74667 118.97 4.448 119.735 4.448C120.501 4.448 121.126 4.74667 121.611 5.344C122.097 5.94133 122.339 6.72067 122.339 7.682C122.339 8.634 122.055 9.45533 121.485 10.146C120.925 10.8273 120.123 11.168 119.077 11.168C118.611 11.168 118.135 11.1027 117.649 10.972V14.22ZM124.163 0.947999H125.311V11H124.163V0.947999ZM129.787 12.134C129.479 13.03 129.195 13.6273 128.933 13.926C128.681 14.234 128.303 14.388 127.799 14.388C127.295 14.388 126.74 14.248 126.133 13.968L126.567 13.058C126.969 13.2727 127.314 13.38 127.603 13.38C127.855 13.38 128.023 13.338 128.107 13.254L128.289 13.072C128.411 12.9507 128.518 12.7407 128.611 12.442C128.705 12.1433 128.779 11.91 128.835 11.742C128.891 11.5833 128.933 11.4573 128.961 11.364L126.623 4.616H127.827L129.479 9.726H129.535L131.187 4.616H132.391L129.787 12.134ZM142.112 0.947999H143.26V11H142.504L142.154 10.16C141.454 10.832 140.731 11.168 139.984 11.168C139.247 11.168 138.636 10.8833 138.15 10.314C137.665 9.73533 137.422 8.956 137.422 7.976C137.422 6.996 137.712 6.17933 138.29 5.526C138.869 4.86333 139.616 4.532 140.53 4.532C141.025 4.532 141.552 4.644 142.112 4.868V0.947999ZM140.824 5.484C140.124 5.484 139.583 5.722 139.2 6.198C138.818 6.674 138.626 7.25267 138.626 7.934C138.626 8.61533 138.785 9.16133 139.102 9.572C139.42 9.98267 139.83 10.188 140.334 10.188C140.614 10.188 140.913 10.1133 141.23 9.964C141.557 9.80533 141.851 9.59067 142.112 9.32V5.736C141.674 5.568 141.244 5.484 140.824 5.484ZM146.639 4.616V9.362C146.639 9.62333 146.732 9.82867 146.919 9.978C147.115 10.118 147.367 10.188 147.675 10.188C148.337 10.188 149.019 9.92667 149.719 9.404V4.616H150.909V11H150.153L149.803 10.16C149.084 10.832 148.286 11.168 147.409 11.168C146.849 11.168 146.382 11.0187 146.009 10.72C145.635 10.4213 145.449 9.98733 145.449 9.418V4.616H146.639ZM154.314 5.344C155.005 4.74667 155.77 4.448 156.61 4.448C157.45 4.448 158.024 4.77467 158.332 5.428C159.07 4.77467 159.844 4.448 160.656 4.448C161.254 4.448 161.725 4.60667 162.07 4.924C162.425 5.24133 162.602 5.65667 162.602 6.17V11H161.412V6.226C161.412 5.98333 161.324 5.79667 161.146 5.666C160.969 5.53533 160.731 5.47 160.432 5.47C159.826 5.47 159.177 5.71733 158.486 6.212V11H157.296V6.226C157.296 5.98333 157.208 5.79667 157.03 5.666C156.853 5.53533 156.615 5.47 156.316 5.47C155.691 5.47 155.052 5.708 154.398 6.184V11H153.208V4.616H153.964L154.314 5.344ZM165.942 5.344C166.633 4.74667 167.398 4.448 168.238 4.448C169.078 4.448 169.652 4.77467 169.96 5.428C170.697 4.77467 171.472 4.448 172.284 4.448C172.881 4.448 173.353 4.60667 173.698 4.924C174.053 5.24133 174.23 5.65667 174.23 6.17V11H173.04V6.226C173.04 5.98333 172.951 5.79667 172.774 5.666C172.597 5.53533 172.359 5.47 172.06 5.47C171.453 5.47 170.805 5.71733 170.114 6.212V11H168.924V6.226C168.924 5.98333 168.835 5.79667 168.658 5.666C168.481 5.53533 168.243 5.47 167.944 5.47C167.319 5.47 166.679 5.708 166.026 6.184V11H164.836V4.616H165.592L165.942 5.344ZM178.704 12.134C178.396 13.03 178.111 13.6273 177.85 13.926C177.598 14.234 177.22 14.388 176.716 14.388C176.212 14.388 175.656 14.248 175.05 13.968L175.484 13.058C175.885 13.2727 176.23 13.38 176.52 13.38C176.772 13.38 176.94 13.338 177.024 13.254L177.206 13.072C177.327 12.9507 177.434 12.7407 177.528 12.442C177.621 12.1433 177.696 11.91 177.752 11.742C177.808 11.5833 177.85 11.4573 177.878 11.364L175.54 4.616H176.744L178.396 9.726H178.452L180.104 4.616H181.308L178.704 12.134ZM188.159 5.498V9.334C188.159 9.894 188.425 10.174 188.957 10.174C189.265 10.174 189.633 10.0853 190.063 9.908L190.217 10.846C189.759 11.0607 189.279 11.168 188.775 11.168C188.271 11.168 187.851 11.0187 187.515 10.72C187.179 10.412 187.011 9.94533 187.011 9.32V5.498H186.129V4.616H187.011V3.356L187.879 2.558H188.159V4.616H189.965V5.498H188.159ZM194.317 10.188C194.989 10.188 195.661 9.98733 196.333 9.586L196.739 10.426C195.955 10.9207 195.115 11.168 194.219 11.168C193.332 11.168 192.628 10.888 192.105 10.328C191.582 9.75867 191.321 8.942 191.321 7.878C191.321 6.814 191.592 5.97867 192.133 5.372C192.674 4.756 193.393 4.448 194.289 4.448C195.101 4.448 195.74 4.7 196.207 5.204C196.403 5.40933 196.566 5.708 196.697 6.1C196.837 6.492 196.907 6.954 196.907 7.486L196.473 7.976H192.511C192.539 9.45067 193.141 10.188 194.317 10.188ZM195.731 7.094C195.731 6.57133 195.596 6.15133 195.325 5.834C195.054 5.51667 194.695 5.358 194.247 5.358C193.808 5.358 193.435 5.51667 193.127 5.834C192.819 6.142 192.632 6.562 192.567 7.094H195.731ZM197.84 4.616H199.212L200.822 6.828L202.376 4.616H203.72L201.466 7.724L203.874 11H202.502L200.71 8.55L198.988 11H197.644L200.066 7.668L197.84 4.616ZM206.595 5.498V9.334C206.595 9.894 206.861 10.174 207.393 10.174C207.701 10.174 208.069 10.0853 208.499 9.908L208.653 10.846C208.195 11.0607 207.715 11.168 207.211 11.168C206.707 11.168 206.287 11.0187 205.951 10.72C205.615 10.412 205.447 9.94533 205.447 9.32V5.498H204.565V4.616H205.447V3.356L206.315 2.558H206.595V4.616H208.401V5.498H206.595ZM216.862 5.358C216.507 5.358 216.199 5.43733 215.938 5.596C215.686 5.75467 215.499 5.96 215.378 6.212C215.154 6.688 215.042 7.19667 215.042 7.738C215.042 9.418 215.625 10.258 216.792 10.258C217.147 10.258 217.45 10.1787 217.702 10.02C217.954 9.86133 218.145 9.656 218.276 9.404C218.5 8.93733 218.612 8.42867 218.612 7.878C218.612 6.198 218.029 5.358 216.862 5.358ZM216.862 4.448C217.898 4.448 218.654 4.77 219.13 5.414C219.606 6.058 219.844 6.898 219.844 7.934C219.844 8.68067 219.648 9.37133 219.256 10.006C219.041 10.3513 218.719 10.6313 218.29 10.846C217.861 11.0607 217.347 11.168 216.75 11.168C215.723 11.168 214.977 10.86 214.51 10.244C214.043 9.628 213.81 8.802 213.81 7.766C213.81 7.15933 213.903 6.646 214.09 6.226C214.286 5.806 214.491 5.484 214.706 5.26C214.921 5.02667 215.215 4.83533 215.588 4.686C215.961 4.52733 216.386 4.448 216.862 4.448ZM222.024 4.616V2.922C222.024 2.23133 222.187 1.704 222.514 1.34C222.84 0.966666 223.265 0.78 223.788 0.78C224.32 0.78 224.884 0.92 225.482 1.2L225.076 2.04C224.665 1.872 224.31 1.788 224.012 1.788C223.452 1.788 223.172 2.16133 223.172 2.908V4.616H224.908V5.498H223.172V11H222.024V5.498H221.072V4.616H222.024ZM231.797 5.498V9.334C231.797 9.894 232.063 10.174 232.595 10.174C232.903 10.174 233.272 10.0853 233.701 9.908L233.855 10.846C233.398 11.0607 232.917 11.168 232.413 11.168C231.909 11.168 231.489 11.0187 231.153 10.72C230.817 10.412 230.649 9.94533 230.649 9.32V5.498H229.767V4.616H230.649V3.356L231.517 2.558H231.797V4.616H233.603V5.498H231.797ZM236.527 0.947999V5.274C237.227 4.72333 237.979 4.448 238.781 4.448C239.407 4.448 239.901 4.60667 240.265 4.924C240.639 5.232 240.825 5.638 240.825 6.142V11H239.635V6.226C239.635 5.98333 239.537 5.79667 239.341 5.666C239.155 5.53533 238.903 5.47 238.585 5.47C237.923 5.47 237.237 5.708 236.527 6.184V11H235.337V0.947999H236.527ZM245.632 10.188C246.304 10.188 246.976 9.98733 247.648 9.586L248.054 10.426C247.27 10.9207 246.43 11.168 245.534 11.168C244.647 11.168 243.943 10.888 243.42 10.328C242.897 9.75867 242.636 8.942 242.636 7.878C242.636 6.814 242.907 5.97867 243.448 5.372C243.989 4.756 244.708 4.448 245.604 4.448C246.416 4.448 247.055 4.7 247.522 5.204C247.718 5.40933 247.881 5.708 248.012 6.1C248.152 6.492 248.222 6.954 248.222 7.486L247.788 7.976H243.826C243.854 9.45067 244.456 10.188 245.632 10.188ZM247.046 7.094C247.046 6.57133 246.911 6.15133 246.64 5.834C246.369 5.51667 246.01 5.358 245.562 5.358C245.123 5.358 244.75 5.51667 244.442 5.834C244.134 6.142 243.947 6.562 243.882 7.094H247.046ZM2.458 34.216C3.158 34.216 3.69933 33.978 4.082 33.502C4.46467 33.026 4.656 32.4473 4.656 31.766C4.656 31.0753 4.488 30.52 4.152 30.1C3.82533 29.68 3.37267 29.47 2.794 29.47C2.57 29.47 2.304 29.5353 1.996 29.666C1.688 29.7967 1.41267 29.9693 1.17 30.184V33.964C1.60867 34.132 2.038 34.216 2.458 34.216ZM1.17 38.22H0.00800006V28.616H0.764L1.086 29.344C1.76733 28.7467 2.49067 28.448 3.256 28.448C4.02133 28.448 4.64667 28.7467 5.132 29.344C5.61733 29.9413 5.86 30.7207 5.86 31.682C5.86 32.634 5.57533 33.4553 5.006 34.146C4.446 34.8273 3.64333 35.168 2.598 35.168C2.13133 35.168 1.65533 35.1027 1.17 34.972V38.22ZM7.73917 28.616H8.49517L8.84517 29.736H8.90117C9.41451 29.0733 10.1192 28.672 11.0152 28.532L11.1412 29.638C10.7025 29.666 10.2778 29.778 9.86717 29.974C9.45651 30.17 9.14384 30.4313 8.92917 30.758V35H7.73917V28.616ZM13.6812 27.118C13.5319 27.2673 13.3499 27.342 13.1352 27.342C12.9205 27.342 12.7385 27.2673 12.5892 27.118C12.4399 26.9593 12.3652 26.7727 12.3652 26.558C12.3652 26.3433 12.4399 26.1613 12.5892 26.012C12.7479 25.8533 12.9299 25.774 13.1352 25.774C13.3405 25.774 13.5179 25.8533 13.6672 26.012C13.8259 26.1613 13.9052 26.3433 13.9052 26.558C13.9052 26.7727 13.8305 26.9593 13.6812 27.118ZM12.5472 28.616H13.7372V35H12.5472V28.616ZM21.6348 30.17V35H20.4448V30.226C20.4448 29.9833 20.3468 29.7967 20.1508 29.666C19.9642 29.5353 19.7122 29.47 19.3948 29.47C18.7322 29.47 18.0462 29.708 17.3368 30.184V35H16.1468V28.616H16.9028L17.2528 29.344C17.9715 28.7467 18.7508 28.448 19.5908 28.448C20.2162 28.448 20.7108 28.6067 21.0748 28.924C21.4482 29.2413 21.6348 29.6567 21.6348 30.17ZM25.306 29.498V33.334C25.306 33.894 25.572 34.174 26.104 34.174C26.412 34.174 26.7807 34.0853 27.21 33.908L27.364 34.846C26.9067 35.0607 26.426 35.168 25.922 35.168C25.418 35.168 24.998 35.0187 24.662 34.72C24.326 34.412 24.158 33.9453 24.158 33.32V29.498H23.276V28.616H24.158V27.356L25.026 26.558H25.306V28.616H27.112V29.498H25.306ZM30.1481 27.118C29.9988 27.2673 29.8168 27.342 29.6021 27.342C29.3875 27.342 29.2055 27.2673 29.0561 27.118C28.9068 26.9593 28.8321 26.7727 28.8321 26.558C28.8321 26.3433 28.9068 26.1613 29.0561 26.012C29.2148 25.8533 29.3968 25.774 29.6021 25.774C29.8075 25.774 29.9848 25.8533 30.1341 26.012C30.2928 26.1613 30.3721 26.3433 30.3721 26.558C30.3721 26.7727 30.2975 26.9593 30.1481 27.118ZM29.0141 28.616H30.2041V35H29.0141V28.616ZM38.1018 30.17V35H36.9118V30.226C36.9118 29.9833 36.8138 29.7967 36.6178 29.666C36.4311 29.5353 36.1791 29.47 35.8618 29.47C35.1991 29.47 34.5131 29.708 33.8038 30.184V35H32.6138V28.616H33.3698L33.7198 29.344C34.4384 28.7467 35.2178 28.448 36.0578 28.448C36.6831 28.448 37.1778 28.6067 37.5418 28.924C37.9151 29.2413 38.1018 29.6567 38.1018 30.17ZM42.431 33.194C42.2163 33.194 42.011 33.18 41.815 33.152C41.5816 33.6 41.465 33.894 41.465 34.034C41.465 34.0993 41.549 34.1553 41.717 34.202L43.425 34.58C44.2183 34.7573 44.783 34.9627 45.119 35.196C45.455 35.4387 45.623 35.7933 45.623 36.26C45.623 36.7267 45.4596 37.1187 45.133 37.436C44.4983 38.0707 43.565 38.388 42.333 38.388C41.577 38.388 40.9236 38.248 40.373 37.968C39.8223 37.688 39.547 37.2867 39.547 36.764C39.547 36.2413 39.9203 35.6393 40.667 34.958C40.387 34.8553 40.247 34.7013 40.247 34.496C40.247 34.2907 40.5223 33.782 41.073 32.97C40.2703 32.6247 39.869 31.9013 39.869 30.8C39.869 30.184 40.0836 29.6473 40.513 29.19C40.9516 28.7233 41.591 28.49 42.431 28.49C42.9163 28.49 43.341 28.56 43.705 28.7L45.665 28.476V29.414H44.615C44.8576 29.806 44.979 30.3053 44.979 30.912C44.979 31.5093 44.7643 32.0413 44.335 32.508C43.9056 32.9653 43.271 33.194 42.431 33.194ZM43.859 31.01C43.859 29.8527 43.3876 29.274 42.445 29.274C42.0716 29.274 41.7683 29.372 41.535 29.568C41.171 29.8853 40.989 30.282 40.989 30.758C40.989 31.2247 41.101 31.6167 41.325 31.934C41.549 32.2513 41.9083 32.41 42.403 32.41C42.8976 32.41 43.2616 32.2607 43.495 31.962C43.7376 31.654 43.859 31.3367 43.859 31.01ZM40.667 36.582C40.667 36.8807 40.8303 37.1093 41.157 37.268C41.4836 37.4267 41.9083 37.506 42.431 37.506C42.9536 37.506 43.439 37.3987 43.887 37.184C44.335 36.9787 44.559 36.694 44.559 36.33C44.559 36.1433 44.4516 35.9893 44.237 35.868C44.0223 35.756 43.649 35.644 43.117 35.532L41.479 35.168C40.9376 35.7093 40.667 36.1807 40.667 36.582ZM54.7409 31.178V30.562C54.7409 29.806 54.3489 29.428 53.5649 29.428C52.9489 29.428 52.3049 29.6287 51.6329 30.03L51.2269 29.19C52.0109 28.6953 52.8556 28.448 53.7609 28.448C54.3956 28.448 54.9136 28.6113 55.3149 28.938C55.7256 29.2553 55.9309 29.75 55.9309 30.422V35H55.1749L54.8249 34.16C54.5262 34.468 54.1716 34.7153 53.7609 34.902C53.3502 35.0793 52.9769 35.168 52.6409 35.168C52.0622 35.168 51.6002 35.0093 51.2549 34.692C50.9096 34.3747 50.7369 33.9593 50.7369 33.446C50.7369 31.934 52.0716 31.178 54.7409 31.178ZM52.4169 32.536C52.2396 32.6947 52.1182 32.8393 52.0529 32.97C51.9969 33.0913 51.9689 33.2547 51.9689 33.46C51.9689 33.656 52.0529 33.8287 52.2209 33.978C52.3982 34.118 52.6269 34.188 52.9069 34.188C53.4949 34.188 54.1062 33.9267 54.7409 33.404V32.004C53.5649 32.0227 52.7902 32.2 52.4169 32.536ZM63.6534 30.17V35H62.4634V30.226C62.4634 29.9833 62.3654 29.7967 62.1694 29.666C61.9828 29.5353 61.7308 29.47 61.4134 29.47C60.7508 29.47 60.0648 29.708 59.3554 30.184V35H58.1654V28.616H58.9214L59.2714 29.344C59.9901 28.7467 60.7694 28.448 61.6094 28.448C62.2348 28.448 62.7294 28.6067 63.0934 28.924C63.4668 29.2413 63.6534 29.6567 63.6534 30.17ZM70.1946 24.948H71.3426V35H70.5866L70.2366 34.16C69.5366 34.832 68.8133 35.168 68.0666 35.168C67.3293 35.168 66.7179 34.8833 66.2326 34.314C65.7473 33.7353 65.5046 32.956 65.5046 31.976C65.5046 30.996 65.7939 30.1793 66.3726 29.526C66.9513 28.8633 67.6979 28.532 68.6126 28.532C69.1073 28.532 69.6346 28.644 70.1946 28.868V24.948ZM68.9066 29.484C68.2066 29.484 67.6653 29.722 67.2826 30.198C66.8999 30.674 66.7086 31.2527 66.7086 31.934C66.7086 32.6153 66.8673 33.1613 67.1846 33.572C67.5019 33.9827 67.9126 34.188 68.4166 34.188C68.6966 34.188 68.9953 34.1133 69.3126 33.964C69.6393 33.8053 69.9333 33.5907 70.1946 33.32V29.736C69.7559 29.568 69.3266 29.484 68.9066 29.484ZM79.0682 29.498V33.334C79.0682 33.894 79.3342 34.174 79.8662 34.174C80.1742 34.174 80.5429 34.0853 80.9722 33.908L81.1262 34.846C80.6689 35.0607 80.1882 35.168 79.6842 35.168C79.1802 35.168 78.7602 35.0187 78.4242 34.72C78.0882 34.412 77.9202 33.9453 77.9202 33.32V29.498H77.0382V28.616H77.9202V27.356L78.7882 26.558H79.0682V28.616H80.8742V29.498H79.0682ZM84.9043 36.134C84.5963 37.03 84.3117 37.6273 84.0503 37.926C83.7983 38.234 83.4203 38.388 82.9163 38.388C82.4123 38.388 81.857 38.248 81.2503 37.968L81.6843 37.058C82.0857 37.2727 82.431 37.38 82.7203 37.38C82.9723 37.38 83.1403 37.338 83.2243 37.254L83.4063 37.072C83.5277 36.9507 83.635 36.7407 83.7283 36.442C83.8217 36.1433 83.8963 35.91 83.9523 35.742C84.0083 35.5833 84.0503 35.4573 84.0783 35.364L81.7403 28.616H82.9443L84.5963 33.726H84.6523L86.3043 28.616H87.5083L84.9043 36.134ZM91.3279 34.216C92.0279 34.216 92.5693 33.978 92.9519 33.502C93.3346 33.026 93.5259 32.4473 93.5259 31.766C93.5259 31.0753 93.3579 30.52 93.0219 30.1C92.6953 29.68 92.2426 29.47 91.6639 29.47C91.4399 29.47 91.1739 29.5353 90.8659 29.666C90.5579 29.7967 90.2826 29.9693 90.0399 30.184V33.964C90.4786 34.132 90.9079 34.216 91.3279 34.216ZM90.0399 38.22H88.8779V28.616H89.6339L89.9559 29.344C90.6373 28.7467 91.3606 28.448 92.1259 28.448C92.8913 28.448 93.5166 28.7467 94.0019 29.344C94.4873 29.9413 94.7299 30.7207 94.7299 31.682C94.7299 32.634 94.4453 33.4553 93.8759 34.146C93.3159 34.8273 92.5133 35.168 91.4679 35.168C91.0013 35.168 90.5253 35.1027 90.0399 34.972V38.22ZM99.1711 34.188C99.8431 34.188 100.515 33.9873 101.187 33.586L101.593 34.426C100.809 34.9207 99.9691 35.168 99.0731 35.168C98.1864 35.168 97.4818 34.888 96.9591 34.328C96.4364 33.7587 96.1751 32.942 96.1751 31.878C96.1751 30.814 96.4458 29.9787 96.9871 29.372C97.5284 28.756 98.2471 28.448 99.1431 28.448C99.9551 28.448 100.594 28.7 101.061 29.204C101.257 29.4093 101.42 29.708 101.551 30.1C101.691 30.492 101.761 30.954 101.761 31.486L101.327 31.976H97.3651C97.3931 33.4507 97.9951 34.188 99.1711 34.188ZM100.585 31.094C100.585 30.5713 100.45 30.1513 100.179 29.834C99.9084 29.5167 99.5491 29.358 99.1011 29.358C98.6624 29.358 98.2891 29.5167 97.9811 29.834C97.6731 30.142 97.4864 30.562 97.4211 31.094H100.585ZM106.782 29.736C106.306 29.5307 105.858 29.428 105.438 29.428C104.626 29.428 104.22 29.6753 104.22 30.17C104.22 30.5993 104.762 31.0147 105.844 31.416C106.246 31.5653 106.614 31.7987 106.95 32.116C107.296 32.4333 107.468 32.816 107.468 33.264C107.468 33.908 107.258 34.3887 106.838 34.706C106.418 35.014 105.835 35.168 105.088 35.168C104.342 35.168 103.614 34.9627 102.904 34.552L103.254 33.684C103.842 34.02 104.51 34.188 105.256 34.188C105.574 34.188 105.83 34.1227 106.026 33.992C106.222 33.852 106.32 33.6653 106.32 33.432C106.32 33.1987 106.208 32.998 105.984 32.83C105.76 32.662 105.49 32.5127 105.172 32.382C104.855 32.2513 104.538 32.1113 104.22 31.962C103.903 31.8033 103.632 31.584 103.408 31.304C103.184 31.024 103.072 30.6927 103.072 30.31C103.072 29.7127 103.273 29.2553 103.674 28.938C104.085 28.6113 104.603 28.448 105.228 28.448C105.854 28.448 106.488 28.588 107.132 28.868L106.782 29.736ZM111.721 34.188C112.393 34.188 113.065 33.9873 113.737 33.586L114.143 34.426C113.359 34.9207 112.519 35.168 111.623 35.168C110.737 35.168 110.032 34.888 109.509 34.328C108.987 33.7587 108.725 32.942 108.725 31.878C108.725 30.814 108.996 29.9787 109.537 29.372C110.079 28.756 110.797 28.448 111.693 28.448C112.505 28.448 113.145 28.7 113.611 29.204C113.807 29.4093 113.971 29.708 114.101 30.1C114.241 30.492 114.311 30.954 114.311 31.486L113.877 31.976H109.915C109.943 33.4507 110.545 34.188 111.721 34.188ZM113.135 31.094C113.135 30.5713 113 30.1513 112.729 29.834C112.459 29.5167 112.099 29.358 111.651 29.358C111.213 29.358 110.839 29.5167 110.531 29.834C110.223 30.142 110.037 30.562 109.971 31.094H113.135ZM117.485 29.498V33.334C117.485 33.894 117.751 34.174 118.283 34.174C118.591 34.174 118.959 34.0853 119.389 33.908L119.543 34.846C119.085 35.0607 118.605 35.168 118.101 35.168C117.597 35.168 117.177 35.0187 116.841 34.72C116.505 34.412 116.337 33.9453 116.337 33.32V29.498H115.455V28.616H116.337V27.356L117.205 26.558H117.485V28.616H119.291V29.498H117.485ZM122.509 29.498V33.334C122.509 33.894 122.775 34.174 123.307 34.174C123.615 34.174 123.983 34.0853 124.413 33.908L124.567 34.846C124.109 35.0607 123.629 35.168 123.125 35.168C122.621 35.168 122.201 35.0187 121.865 34.72C121.529 34.412 121.361 33.9453 121.361 33.32V29.498H120.479V28.616H121.361V27.356L122.229 26.558H122.509V28.616H124.315V29.498H122.509ZM127.351 27.118C127.201 27.2673 127.019 27.342 126.805 27.342C126.59 27.342 126.408 27.2673 126.259 27.118C126.109 26.9593 126.035 26.7727 126.035 26.558C126.035 26.3433 126.109 26.1613 126.259 26.012C126.417 25.8533 126.599 25.774 126.805 25.774C127.01 25.774 127.187 25.8533 127.337 26.012C127.495 26.1613 127.575 26.3433 127.575 26.558C127.575 26.7727 127.5 26.9593 127.351 27.118ZM126.217 28.616H127.407V35H126.217V28.616ZM135.304 30.17V35H134.114V30.226C134.114 29.9833 134.016 29.7967 133.82 29.666C133.634 29.5353 133.382 29.47 133.064 29.47C132.402 29.47 131.716 29.708 131.006 30.184V35H129.816V28.616H130.572L130.922 29.344C131.641 28.7467 132.42 28.448 133.26 28.448C133.886 28.448 134.38 28.6067 134.744 28.924C135.118 29.2413 135.304 29.6567 135.304 30.17ZM139.634 33.194C139.419 33.194 139.214 33.18 139.018 33.152C138.784 33.6 138.668 33.894 138.668 34.034C138.668 34.0993 138.752 34.1553 138.92 34.202L140.628 34.58C141.421 34.7573 141.986 34.9627 142.322 35.196C142.658 35.4387 142.826 35.7933 142.826 36.26C142.826 36.7267 142.662 37.1187 142.336 37.436C141.701 38.0707 140.768 38.388 139.536 38.388C138.78 38.388 138.126 38.248 137.576 37.968C137.025 37.688 136.75 37.2867 136.75 36.764C136.75 36.2413 137.123 35.6393 137.87 34.958C137.59 34.8553 137.45 34.7013 137.45 34.496C137.45 34.2907 137.725 33.782 138.276 32.97C137.473 32.6247 137.072 31.9013 137.072 30.8C137.072 30.184 137.286 29.6473 137.716 29.19C138.154 28.7233 138.794 28.49 139.634 28.49C140.119 28.49 140.544 28.56 140.908 28.7L142.868 28.476V29.414H141.818C142.06 29.806 142.182 30.3053 142.182 30.912C142.182 31.5093 141.967 32.0413 141.538 32.508C141.108 32.9653 140.474 33.194 139.634 33.194ZM141.062 31.01C141.062 29.8527 140.59 29.274 139.648 29.274C139.274 29.274 138.971 29.372 138.738 29.568C138.374 29.8853 138.192 30.282 138.192 30.758C138.192 31.2247 138.304 31.6167 138.528 31.934C138.752 32.2513 139.111 32.41 139.606 32.41C140.1 32.41 140.464 32.2607 140.698 31.962C140.94 31.654 141.062 31.3367 141.062 31.01ZM137.87 36.582C137.87 36.8807 138.033 37.1093 138.36 37.268C138.686 37.4267 139.111 37.506 139.634 37.506C140.156 37.506 140.642 37.3987 141.09 37.184C141.538 36.9787 141.762 36.694 141.762 36.33C141.762 36.1433 141.654 35.9893 141.44 35.868C141.225 35.756 140.852 35.644 140.32 35.532L138.682 35.168C138.14 35.7093 137.87 36.1807 137.87 36.582ZM149.69 27.118C149.54 27.2673 149.358 27.342 149.144 27.342C148.929 27.342 148.747 27.2673 148.598 27.118C148.448 26.9593 148.374 26.7727 148.374 26.558C148.374 26.3433 148.448 26.1613 148.598 26.012C148.756 25.8533 148.938 25.774 149.144 25.774C149.349 25.774 149.526 25.8533 149.676 26.012C149.834 26.1613 149.914 26.3433 149.914 26.558C149.914 26.7727 149.839 26.9593 149.69 27.118ZM148.556 28.616H149.746V35H148.556V28.616ZM157.643 30.17V35H156.453V30.226C156.453 29.9833 156.355 29.7967 156.159 29.666C155.973 29.5353 155.721 29.47 155.403 29.47C154.741 29.47 154.055 29.708 153.345 30.184V35H152.155V28.616H152.911L153.261 29.344C153.98 28.7467 154.759 28.448 155.599 28.448C156.225 28.448 156.719 28.6067 157.083 28.924C157.457 29.2413 157.643 29.6567 157.643 30.17ZM164.184 24.948H165.332V35H164.576L164.226 34.16C163.526 34.832 162.803 35.168 162.056 35.168C161.319 35.168 160.708 34.8833 160.222 34.314C159.737 33.7353 159.494 32.956 159.494 31.976C159.494 30.996 159.784 30.1793 160.362 29.526C160.941 28.8633 161.688 28.532 162.602 28.532C163.097 28.532 163.624 28.644 164.184 28.868V24.948ZM162.896 29.484C162.196 29.484 161.655 29.722 161.272 30.198C160.89 30.674 160.698 31.2527 160.698 31.934C160.698 32.6153 160.857 33.1613 161.174 33.572C161.492 33.9827 161.902 34.188 162.406 34.188C162.686 34.188 162.985 34.1133 163.302 33.964C163.629 33.8053 163.923 33.5907 164.184 33.32V29.736C163.746 29.568 163.316 29.484 162.896 29.484ZM168.711 28.616V33.362C168.711 33.6233 168.804 33.8287 168.991 33.978C169.187 34.118 169.439 34.188 169.747 34.188C170.409 34.188 171.091 33.9267 171.791 33.404V28.616H172.981V35H172.225L171.875 34.16C171.156 34.832 170.358 35.168 169.481 35.168C168.921 35.168 168.454 35.0187 168.081 34.72C167.707 34.4213 167.521 33.9873 167.521 33.418V28.616H168.711ZM178.556 29.736C178.08 29.5307 177.632 29.428 177.212 29.428C176.4 29.428 175.994 29.6753 175.994 30.17C175.994 30.5993 176.536 31.0147 177.618 31.416C178.02 31.5653 178.388 31.7987 178.724 32.116C179.07 32.4333 179.242 32.816 179.242 33.264C179.242 33.908 179.032 34.3887 178.612 34.706C178.192 35.014 177.609 35.168 176.862 35.168C176.116 35.168 175.388 34.9627 174.678 34.552L175.028 33.684C175.616 34.02 176.284 34.188 177.03 34.188C177.348 34.188 177.604 34.1227 177.8 33.992C177.996 33.852 178.094 33.6653 178.094 33.432C178.094 33.1987 177.982 32.998 177.758 32.83C177.534 32.662 177.264 32.5127 176.946 32.382C176.629 32.2513 176.312 32.1113 175.994 31.962C175.677 31.8033 175.406 31.584 175.182 31.304C174.958 31.024 174.846 30.6927 174.846 30.31C174.846 29.7127 175.047 29.2553 175.448 28.938C175.859 28.6113 176.377 28.448 177.002 28.448C177.628 28.448 178.262 28.588 178.906 28.868L178.556 29.736ZM182.361 29.498V33.334C182.361 33.894 182.627 34.174 183.159 34.174C183.467 34.174 183.836 34.0853 184.265 33.908L184.419 34.846C183.962 35.0607 183.481 35.168 182.977 35.168C182.473 35.168 182.053 35.0187 181.717 34.72C181.381 34.412 181.213 33.9453 181.213 33.32V29.498H180.331V28.616H181.213V27.356L182.081 26.558H182.361V28.616H184.167V29.498H182.361ZM185.958 28.616H186.714L187.064 29.736H187.12C187.633 29.0733 188.338 28.672 189.234 28.532L189.36 29.638C188.921 29.666 188.496 29.778 188.086 29.974C187.675 30.17 187.362 30.4313 187.148 30.758V35H185.958V28.616ZM192.894 36.134C192.586 37.03 192.301 37.6273 192.04 37.926C191.788 38.234 191.41 38.388 190.906 38.388C190.402 38.388 189.846 38.248 189.24 37.968L189.674 37.058C190.075 37.2727 190.42 37.38 190.71 37.38C190.962 37.38 191.13 37.338 191.214 37.254L191.396 37.072C191.517 36.9507 191.624 36.7407 191.718 36.442C191.811 36.1433 191.886 35.91 191.942 35.742C191.998 35.5833 192.04 35.4573 192.068 35.364L189.73 28.616H190.934L192.586 33.726H192.642L194.294 28.616H195.498L192.894 36.134ZM197.525 34.916C197.385 35.056 197.212 35.126 197.007 35.126C196.802 35.126 196.629 35.056 196.489 34.916C196.349 34.7667 196.279 34.5847 196.279 34.37C196.279 34.1553 196.349 33.978 196.489 33.838C196.629 33.698 196.802 33.628 197.007 33.628C197.212 33.628 197.385 33.698 197.525 33.838C197.674 33.978 197.749 34.1553 197.749 34.37C197.749 34.5847 197.674 34.7667 197.525 34.916Z" fill="#9B9B9B"/>
</svg>
