<svg width="154" height="25" viewBox="0 0 154 25" fill="none" xmlns="http://www.w3.org/2000/svg">
<path d="M4.82031 1.86719C7.03125 1.86719 8.64453 2.30078 9.66016 3.16797C10.6836 4.02734 11.1953 5.26172 11.1953 6.87109C11.1953 7.59766 11.0742 8.28906 10.832 8.94531C10.5977 9.59375 10.2148 10.168 9.68359 10.668C9.15234 11.1602 8.45312 11.5508 7.58594 11.8398C6.72656 12.1211 5.67188 12.2617 4.42188 12.2617H2.33594V19H0.34375V1.86719H4.82031ZM4.63281 3.56641H2.33594V10.5508H4.19922C5.29297 10.5508 6.20312 10.4336 6.92969 10.1992C7.66406 9.96484 8.21484 9.58594 8.58203 9.0625C8.94922 8.53125 9.13281 7.82812 9.13281 6.95312C9.13281 5.8125 8.76953 4.96484 8.04297 4.41016C7.31641 3.84766 6.17969 3.56641 4.63281 3.56641ZM19.293 5.94531C20.8242 5.94531 21.9609 6.28906 22.7031 6.97656C23.4453 7.66406 23.8164 8.76172 23.8164 10.2695V19H22.3984L22.0234 17.1016H21.9297C21.5703 17.5703 21.1953 17.9648 20.8047 18.2852C20.4141 18.5977 19.9609 18.8359 19.4453 19C18.9375 19.1562 18.3125 19.2344 17.5703 19.2344C16.7891 19.2344 16.0938 19.0977 15.4844 18.8242C14.8828 18.5508 14.4062 18.1367 14.0547 17.582C13.7109 17.0273 13.5391 16.3242 13.5391 15.4727C13.5391 14.1914 14.0469 13.207 15.0625 12.5195C16.0781 11.832 17.625 11.457 19.7031 11.3945L21.918 11.3008V10.5156C21.918 9.40625 21.6797 8.62891 21.2031 8.18359C20.7266 7.73828 20.0547 7.51562 19.1875 7.51562C18.5156 7.51562 17.875 7.61328 17.2656 7.80859C16.6562 8.00391 16.0781 8.23438 15.5312 8.5L14.9336 7.02344C15.5117 6.72656 16.1758 6.47266 16.9258 6.26172C17.6758 6.05078 18.4648 5.94531 19.293 5.94531ZM21.8945 12.6719L19.9375 12.7539C18.3359 12.8164 17.207 13.0781 16.5508 13.5391C15.8945 14 15.5664 14.6523 15.5664 15.4961C15.5664 16.2305 15.7891 16.7734 16.2344 17.125C16.6797 17.4766 17.2695 17.6523 18.0039 17.6523C19.1445 17.6523 20.0781 17.3359 20.8047 16.7031C21.5312 16.0703 21.8945 15.1211 21.8945 13.8555V12.6719ZM33.6602 5.92188C33.918 5.92188 34.1875 5.9375 34.4688 5.96875C34.75 5.99219 35 6.02734 35.2188 6.07422L34.9727 7.87891C34.7617 7.82422 34.5273 7.78125 34.2695 7.75C34.0117 7.71875 33.7695 7.70312 33.543 7.70312C33.0273 7.70312 32.5391 7.80859 32.0781 8.01953C31.625 8.22266 31.2266 8.51953 30.8828 8.91016C30.5391 9.29297 30.2695 9.75781 30.0742 10.3047C29.8789 10.8438 29.7812 11.4453 29.7812 12.1094V19H27.8242V6.15625H29.4414L29.6523 8.52344H29.7344C30 8.04688 30.3203 7.61328 30.6953 7.22266C31.0703 6.82422 31.5039 6.50781 31.9961 6.27344C32.4961 6.03906 33.0508 5.92188 33.6602 5.92188ZM39.5781 0.765625V10.2344C39.5781 10.5469 39.5664 10.9297 39.543 11.3828C39.5195 11.8281 39.5 12.2227 39.4844 12.5664H39.5664C39.7305 12.3633 39.9688 12.0625 40.2812 11.6641C40.6016 11.2656 40.8711 10.9453 41.0898 10.7031L45.3555 6.15625H47.6406L42.4727 11.6406L48.0156 19H45.6719L41.1367 12.918L39.5781 14.3477V19H37.6445V0.765625H39.5781ZM52.1992 6.15625V19H50.2539V6.15625H52.1992ZM51.25 1.35156C51.5703 1.35156 51.8438 1.45703 52.0703 1.66797C52.3047 1.87109 52.4219 2.19141 52.4219 2.62891C52.4219 3.05859 52.3047 3.37891 52.0703 3.58984C51.8438 3.80078 51.5703 3.90625 51.25 3.90625C50.9141 3.90625 50.6328 3.80078 50.4062 3.58984C50.1875 3.37891 50.0781 3.05859 50.0781 2.62891C50.0781 2.19141 50.1875 1.87109 50.4062 1.66797C50.6328 1.45703 50.9141 1.35156 51.25 1.35156ZM62.4062 5.92188C63.9297 5.92188 65.082 6.29688 65.8633 7.04688C66.6445 7.78906 67.0352 8.98438 67.0352 10.6328V19H65.1133V10.7617C65.1133 9.69141 64.8672 8.89062 64.375 8.35938C63.8906 7.82812 63.1445 7.5625 62.1367 7.5625C60.7148 7.5625 59.7148 7.96484 59.1367 8.76953C58.5586 9.57422 58.2695 10.7422 58.2695 12.2734V19H56.3242V6.15625H57.8945L58.1875 8.00781H58.293C58.5664 7.55469 58.9141 7.17578 59.3359 6.87109C59.7578 6.55859 60.2305 6.32422 60.7539 6.16797C61.2773 6.00391 61.8281 5.92188 62.4062 5.92188ZM74.6289 24.7656C72.9414 24.7656 71.6406 24.4492 70.7266 23.8164C69.8125 23.1914 69.3555 22.3125 69.3555 21.1797C69.3555 20.375 69.6094 19.6875 70.1172 19.1172C70.6328 18.5469 71.3438 18.168 72.25 17.9805C71.9141 17.8242 71.625 17.5898 71.3828 17.2773C71.1484 16.9648 71.0312 16.6055 71.0312 16.1992C71.0312 15.7305 71.1602 15.3203 71.418 14.9688C71.6836 14.6094 72.0859 14.2656 72.625 13.9375C71.9531 13.6641 71.4062 13.2031 70.9844 12.5547C70.5703 11.8984 70.3633 11.1367 70.3633 10.2695C70.3633 9.34766 70.5547 8.5625 70.9375 7.91406C71.3203 7.25781 71.875 6.75781 72.6016 6.41406C73.3281 6.07031 74.207 5.89844 75.2383 5.89844C75.4648 5.89844 75.6914 5.91016 75.918 5.93359C76.1523 5.94922 76.375 5.97656 76.5859 6.01562C76.7969 6.04688 76.9805 6.08594 77.1367 6.13281H81.543V7.38672L79.1758 7.67969C79.4102 7.98438 79.6055 8.35156 79.7617 8.78125C79.918 9.21094 79.9961 9.6875 79.9961 10.2109C79.9961 11.4922 79.5625 12.5117 78.6953 13.2695C77.8281 14.0195 76.6367 14.3945 75.1211 14.3945C74.7617 14.3945 74.3945 14.3633 74.0195 14.3008C73.6367 14.5117 73.3438 14.7461 73.1406 15.0039C72.9453 15.2617 72.8477 15.5586 72.8477 15.8945C72.8477 16.1445 72.9219 16.3438 73.0703 16.4922C73.2266 16.6406 73.4492 16.75 73.7383 16.8203C74.0273 16.8828 74.375 16.9141 74.7812 16.9141H77.043C78.4414 16.9141 79.5117 17.207 80.2539 17.793C81.0039 18.3789 81.3789 19.2344 81.3789 20.3594C81.3789 21.7812 80.8008 22.8711 79.6445 23.6289C78.4883 24.3867 76.8164 24.7656 74.6289 24.7656ZM74.6875 23.2422C75.75 23.2422 76.6289 23.1328 77.3242 22.9141C78.0273 22.7031 78.5508 22.3945 78.8945 21.9883C79.2461 21.5898 79.4219 21.1133 79.4219 20.5586C79.4219 20.043 79.3047 19.6523 79.0703 19.3867C78.8359 19.1289 78.4922 18.957 78.0391 18.8711C77.5859 18.7773 77.0312 18.7305 76.375 18.7305H74.1484C73.5703 18.7305 73.0664 18.8203 72.6367 19C72.207 19.1797 71.875 19.4453 71.6406 19.7969C71.4141 20.1484 71.3008 20.5859 71.3008 21.1094C71.3008 21.8047 71.5938 22.332 72.1797 22.6914C72.7656 23.0586 73.6016 23.2422 74.6875 23.2422ZM75.1914 12.9766C76.1211 12.9766 76.8203 12.7422 77.2891 12.2734C77.7578 11.8047 77.9922 11.1211 77.9922 10.2227C77.9922 9.26172 77.7539 8.54297 77.2773 8.06641C76.8008 7.58203 76.0977 7.33984 75.168 7.33984C74.2773 7.33984 73.5898 7.58984 73.1055 8.08984C72.6289 8.58203 72.3906 9.30469 72.3906 10.2578C72.3906 11.1328 72.6328 11.8047 73.1172 12.2734C73.6016 12.7422 74.293 12.9766 75.1914 12.9766ZM100.27 14.4414C100.27 15.457 100.016 16.3242 99.5078 17.043C99.0078 17.7539 98.3047 18.2969 97.3984 18.6719C96.4922 19.0469 95.4258 19.2344 94.1992 19.2344C93.5508 19.2344 92.9375 19.2031 92.3594 19.1406C91.7812 19.0781 91.25 18.9883 90.7656 18.8711C90.2812 18.7539 89.8555 18.6094 89.4883 18.4375V16.5273C90.0742 16.7695 90.7891 16.9961 91.6328 17.207C92.4766 17.4102 93.3594 17.5117 94.2812 17.5117C95.1406 17.5117 95.8672 17.3984 96.4609 17.1719C97.0547 16.9375 97.5039 16.6055 97.8086 16.1758C98.1211 15.7383 98.2773 15.2148 98.2773 14.6055C98.2773 14.0195 98.1484 13.5312 97.8906 13.1406C97.6328 12.7422 97.2031 12.3828 96.6016 12.0625C96.0078 11.7344 95.1953 11.3867 94.1641 11.0195C93.4375 10.7617 92.7969 10.4805 92.2422 10.1758C91.6875 9.86328 91.2227 9.51172 90.8477 9.12109C90.4727 8.73047 90.1875 8.27734 89.9922 7.76172C89.8047 7.24609 89.7109 6.65625 89.7109 5.99219C89.7109 5.07812 89.9414 4.29688 90.4023 3.64844C90.8711 2.99219 91.5156 2.49219 92.3359 2.14844C93.1641 1.79688 94.1133 1.62109 95.1836 1.62109C96.0977 1.62109 96.9414 1.70703 97.7148 1.87891C98.4961 2.05078 99.2109 2.28125 99.8594 2.57031L99.2383 4.28125C98.6211 4.02344 97.9648 3.80859 97.2695 3.63672C96.582 3.46484 95.8711 3.37891 95.1367 3.37891C94.4023 3.37891 93.7812 3.48828 93.2734 3.70703C92.7734 3.91797 92.3906 4.21875 92.125 4.60938C91.8594 5 91.7266 5.46484 91.7266 6.00391C91.7266 6.60547 91.8516 7.10547 92.1016 7.50391C92.3594 7.90234 92.7656 8.25781 93.3203 8.57031C93.8828 8.875 94.625 9.19531 95.5469 9.53125C96.5547 9.89844 97.4102 10.2891 98.1133 10.7031C98.8164 11.1094 99.3516 11.6094 99.7188 12.2031C100.086 12.7891 100.27 13.5352 100.27 14.4414ZM109.516 5.92188C111.117 5.92188 112.395 6.47266 113.348 7.57422C114.301 8.67578 114.777 10.332 114.777 12.543C114.777 14.0039 114.559 15.2305 114.121 16.2227C113.684 17.2148 113.066 17.9648 112.27 18.4727C111.48 18.9805 110.547 19.2344 109.469 19.2344C108.789 19.2344 108.191 19.1445 107.676 18.9648C107.16 18.7852 106.719 18.543 106.352 18.2383C105.984 17.9336 105.68 17.6016 105.438 17.2422H105.297C105.32 17.5469 105.348 17.9141 105.379 18.3438C105.418 18.7734 105.438 19.1484 105.438 19.4688V24.7422H103.48V6.15625H105.086L105.344 8.05469H105.438C105.688 7.66406 105.992 7.30859 106.352 6.98828C106.711 6.66016 107.148 6.40234 107.664 6.21484C108.188 6.01953 108.805 5.92188 109.516 5.92188ZM109.176 7.5625C108.285 7.5625 107.566 7.73438 107.02 8.07812C106.48 8.42188 106.086 8.9375 105.836 9.625C105.586 10.3047 105.453 11.1602 105.438 12.1914V12.5664C105.438 13.6523 105.555 14.5703 105.789 15.3203C106.031 16.0703 106.426 16.6406 106.973 17.0312C107.527 17.4219 108.27 17.6172 109.199 17.6172C109.996 17.6172 110.66 17.4023 111.191 16.9727C111.723 16.543 112.117 15.9453 112.375 15.1797C112.641 14.4062 112.773 13.5195 112.773 12.5195C112.773 11.0039 112.477 9.80078 111.883 8.91016C111.297 8.01172 110.395 7.5625 109.176 7.5625ZM122.98 5.94531C124.512 5.94531 125.648 6.28906 126.391 6.97656C127.133 7.66406 127.504 8.76172 127.504 10.2695V19H126.086L125.711 17.1016H125.617C125.258 17.5703 124.883 17.9648 124.492 18.2852C124.102 18.5977 123.648 18.8359 123.133 19C122.625 19.1562 122 19.2344 121.258 19.2344C120.477 19.2344 119.781 19.0977 119.172 18.8242C118.57 18.5508 118.094 18.1367 117.742 17.582C117.398 17.0273 117.227 16.3242 117.227 15.4727C117.227 14.1914 117.734 13.207 118.75 12.5195C119.766 11.832 121.312 11.457 123.391 11.3945L125.605 11.3008V10.5156C125.605 9.40625 125.367 8.62891 124.891 8.18359C124.414 7.73828 123.742 7.51562 122.875 7.51562C122.203 7.51562 121.562 7.61328 120.953 7.80859C120.344 8.00391 119.766 8.23438 119.219 8.5L118.621 7.02344C119.199 6.72656 119.863 6.47266 120.613 6.26172C121.363 6.05078 122.152 5.94531 122.98 5.94531ZM125.582 12.6719L123.625 12.7539C122.023 12.8164 120.895 13.0781 120.238 13.5391C119.582 14 119.254 14.6523 119.254 15.4961C119.254 16.2305 119.477 16.7734 119.922 17.125C120.367 17.4766 120.957 17.6523 121.691 17.6523C122.832 17.6523 123.766 17.3359 124.492 16.7031C125.219 16.0703 125.582 15.1211 125.582 13.8555V12.6719ZM136.656 19.2344C135.5 19.2344 134.48 18.9961 133.598 18.5195C132.715 18.043 132.027 17.3164 131.535 16.3398C131.043 15.3633 130.797 14.1328 130.797 12.6484C130.797 11.0938 131.055 9.82422 131.57 8.83984C132.094 7.84766 132.812 7.11328 133.727 6.63672C134.641 6.16016 135.68 5.92188 136.844 5.92188C137.484 5.92188 138.102 5.98828 138.695 6.12109C139.297 6.24609 139.789 6.40625 140.172 6.60156L139.586 8.23047C139.195 8.07422 138.742 7.93359 138.227 7.80859C137.719 7.68359 137.242 7.62109 136.797 7.62109C135.906 7.62109 135.164 7.8125 134.57 8.19531C133.984 8.57812 133.543 9.14062 133.246 9.88281C132.957 10.625 132.812 11.5391 132.812 12.625C132.812 13.6641 132.953 14.5508 133.234 15.2852C133.523 16.0195 133.949 16.582 134.512 16.9727C135.082 17.3555 135.793 17.5469 136.645 17.5469C137.324 17.5469 137.938 17.4766 138.484 17.3359C139.031 17.1875 139.527 17.0156 139.973 16.8203V18.5547C139.543 18.7734 139.062 18.9414 138.531 19.0586C138.008 19.1758 137.383 19.2344 136.656 19.2344ZM147.965 5.92188C149.059 5.92188 149.996 6.16406 150.777 6.64844C151.559 7.13281 152.156 7.8125 152.57 8.6875C152.984 9.55469 153.191 10.5703 153.191 11.7344V12.9414H144.32C144.344 14.4492 144.719 15.5977 145.445 16.3867C146.172 17.1758 147.195 17.5703 148.516 17.5703C149.328 17.5703 150.047 17.4961 150.672 17.3477C151.297 17.1992 151.945 16.9805 152.617 16.6914V18.4023C151.969 18.6914 151.324 18.9023 150.684 19.0352C150.051 19.168 149.301 19.2344 148.434 19.2344C147.199 19.2344 146.121 18.9844 145.199 18.4844C144.285 17.9766 143.574 17.2344 143.066 16.2578C142.559 15.2812 142.305 14.0859 142.305 12.6719C142.305 11.2891 142.535 10.0938 142.996 9.08594C143.465 8.07031 144.121 7.28906 144.965 6.74219C145.816 6.19531 146.816 5.92188 147.965 5.92188ZM147.941 7.51562C146.902 7.51562 146.074 7.85547 145.457 8.53516C144.84 9.21484 144.473 10.1641 144.355 11.3828H151.152C151.145 10.6172 151.023 9.94531 150.789 9.36719C150.562 8.78125 150.215 8.32812 149.746 8.00781C149.277 7.67969 148.676 7.51562 147.941 7.51562Z" fill="#131313"/>
</svg>
